<mxfile host="app.diagrams.net" modified="2022-04-23T17:08:40.208Z" agent="5.0 (Macintosh; Intel Mac OS X 10_15_7) AppleWebKit/537.36 (KHTML, like Gecko) Chrome/98.0.4758.104 Whale/3.13.131.36 Safari/537.36" etag="rHzzj2hFZWvgFry02VB1" version="17.2.4" type="github">
  <diagram id="fsnD0l2JWnV6EQdEXIN0" name="Page-1">
    <mxGraphModel dx="2347" dy="672" grid="1" gridSize="10" guides="1" tooltips="1" connect="1" arrows="1" fold="1" page="1" pageScale="1" pageWidth="827" pageHeight="1169" math="0" shadow="0">
      <root>
        <mxCell id="0" />
        <mxCell id="1" parent="0" />
        <mxCell id="-QomMEc71tAk3ifFAMWK-4" value="" style="shape=image;verticalLabelPosition=bottom;verticalAlign=top;imageAspect=0;aspect=fixed;image=data:image/png,iVBORw0KGgoAAAANSUhEUgAAAOYAAADmCAIAAABOCG7sAAAen0lEQVR42u3deXwU5f3A8e/zzLn3ZjebTcKdm4RgwqGoCMrhhUqt4E+UIloP7K/VXlpba+/6U9p61R7WarXWKiqgIopXWwUEQSBICIEQCiHk3E12szu7OzvH8/tjEUO4IXF2Ns/79fIlr2V3803mw2Rmd3YGEUKAoswDGz0ARZ0amixlMjRZymRospTJ0GQpk6HJUiZDk6VMhiZLmQxNljIZmixlMjRZymRYowf4QnLf7+U9DyHGDui0p0KAOMAiZh2I8wCfjcQ8JA5nLQVIyAXOgVknYMHob5Q6I2mULNHiRI0C0QHQmTwNAGgAADoQACBAtKSuAe/B9nLWUYmcZzG2YmwZhVgXIPpLxnzSKNl+cih35uAfEQsYQJP07rVy4H0gCrKOYp3jsets1nMuto1GnNvomalTkHnJHgNigLEixgoAoASVtpdJ6xJsHcU4J7A5l7CeC7G10OgRqZMyaJIFSG0zAABgKxLtCDQitystr6gdb2DHWC7vas53BXZUGj0kdQKDKtlDCBANABDvQbyXqFGtZ7Pes1k58AKXN4/1X8XQcNPY4N7/IDoQDTE2LOYjzq3HGuQ9v45/drO89zGS7DB6OOroBneyB+lANMAi4nwIW/Xodrnhp7GtNysdbxo9GHUUg3PD4KgIAAAWEeZBT+rd/0lEPtPy/yMU3IP4HKNno75A17J9EAAEWADWAbqkNP05tuVaNfjhF7tulNFosseCAYvAObXwpvjW+fK+PxItZvRIFABN9gQIQqwLdDm584eJnT8iStDogSia7IkRwDwwdqXpT/Hab+qJFqPnGexosieDAEKI96ptr8Rrb9fjTUbPM6jRZE8eQrxP63wzvn0RrdZANNlTgRjE+9SOtxN13yJ0C8EgNNlTQgDxmM9W29+I13+XJDuNnmcwosmeKgJYRHyW0vpyYtf9RAkbPc+gQ5M9DTpgK+bcyoG/yXsfJ3rS6HkGF5rs6SGArYDE5L7H1balRg8zuNBkTxtBnAvUqNz4Ky28yehhBhGa7BkgGhJ8mlQvNz5IlJDR0wwWNNkzQzTM56kdK5It/zR6lMGCJnvmEGJtyb2P6tHtRk8yKNBkz5wO2ELkVvm/jwG98MTAo8n2C4IYm9r5ltK5yuhJMh9Ntp8gBrSo0vw0USWjR8lwNNn+gzkt/InS8YbRc2Q4mmz/QRxJhtSO14nWY/QomYwm248QwpzW/bHW+YHRk2Qymmy/wjxJdqjBfwFRjR4lY9Fk+xViAAlq4B0ttNHoUTIWTbZ/IcCsHt+vhjfRz5EPEJps/yII84CI2rlKl+kB4AOCJtvvWACs99Tosd1GT5KZaLL9DzEWUENaeCN9/3Yg0GT7nQ6MqOsxrWsN0SJGD5OBaLIDAQNgPbabnvFzINBkBwAhiLGQZKcu7TJ6lAxEkx0QiLGQZJfWs42+1NXvaLIDgQAWiBbX441AP3/b32iyAwQhBERuIyrdA+tnNNkBQgBzutypK91GT5JpaLIDgxDAPFHD9CRI/Y4mO2AwD2qYKF1Gz5FpaLIDBQFDNAnotmx/o8kOEAKIBS1GtKjRk2QamuyAQZjoCtESRs+RaWiyAwYhIABEMXqOTEOTHTgIAFIXy6X6EU2WMhmaLGUyNFnKZGiylMnQZCmToclSJkOTpUyGJkuZDE2WMhmaLGUyNFnKZGiylMnQZCmToclSJkOTpUyGJkuZDE2WMhmaLGUyNFnKZGiylMnQZCmToclSJkOTpUyGJkuZDE2WMhmaLGUyNFnKZGiylMnQZCmToclSJsMaPUCvURjAPBDG6Dn6CwKigcAho+fINGmUbHMH2rsNYR4dPDOr2SGkRxgrF7E4u3VVRfoJTjRLgGCGBZZNq+uLswjlWqw8YqxsuqSSLnMAwKv/4R74tSBaOIwyJFktYLfP3Wn/yqskmSTaiZLVddHjZZ0uoqpGj36QTkgWL9xaUDHcap/g8Rk9zkFplCzPMwKPWUwwzoxkAWFgGcQxiGBEyPF3GwgBxCLMIkxQuuxgaEBYhIGk12+9NEqW41ieZzAGnC6L7MwgABYYDAzCBGFygsVOCAIGIQYhkk6/ZBiE0mkcgLR6xYDjOIbJmJ0vaqCkUbI2m00QBV3XjR6ESmtplKzdYbeIFpJO+8tUGkqjZFNrWZosdXxplKzL5bJZbUQntFrqONIo2ezsbIfTqRO6LUsdTxol6/V67XY73f2iji+NkrXZ7U6Xk24VUMeXRskCwJChQ0RBIHRFSx1beiVbUFBot9t1uqKlji29kh01cqSNbs5Sx5VeyRYWF9vsNu1EBz1Rg1l6JevxeocPH4Expjth1LGkV7IIoKq6iuM4um1AHUt6JQsAZ1VVsyxL17LUsaRdsmXlo7Oy3HQtSx1L2iXr9XjGj5+ops2HSah0k3bJ8jx//pQLEvG40YNQaSrtkgWAqqoqj9dLV7TUUaVjsqMKRk298MJwOJx2Hzui0kA6Jmu1Wi+cdlEikTB6ECodpWOyADBhwoTRZaOj0Shd0VJ9pGmyRcXF02ZO7+7qpslSfaRpshzHXTTtIr/fL0kSrZbqLU2TBYDJF0ypHj8uFArRZKne0jdZu91+xVVX2mzWWCxOq6UOSd9kGYaZPfsrZaVl4TBd0VJfSN9kAcDpcs65di7HsvF4HGfImbqoM5XWHQiCcM2cuaWlpZIUpcd2USlpnSwA+Pw5C266CQDLskw3DyhI/2R5np91xayqqrPi8Thd0VKQ/skCwJChQxcsvNFqsSSTSaNnoYxngmQZhrly9uzzJk+W6VEHlCmSBQCv13vD/PnZPp8sy0bPQhnMHMkCwOVXzLp81ixFUehnbAY50ySLMb7jm98oLimRJMnoWSgjmSZZACgoKPzWnXcCQvQFr8HMTMkCwJy5c66fP7+7q4tuHgxaJksWM8w99/5g3MSJgUCAXr5mcDJZsgCQl5v7wAMPeL3e7u5uWu0gZL5kAWDylAvu/+lPEaBoNEoPlxlszLq8r7/h+ltuvzUejyflJN0VG1TMmqwgind9+ztXzZ4diUY0TaPVDh5mTRYAcvw59//sp+edf344HKanpB08TJwsABQWFv76gQcqKirC4TA9zmuQMHeyADC26qzfPPy7gsLCUHe30bNQXwbTJwsA50ya9NtHfjdkyJBgIAAAdLs2s2VCsgAwdeqFjz3xxJBhQwOdnYQQWm0Gy5BkAeCi6dOefOqpwsKiTlptRsucZAHg/MmTn/rbMxPGj+/q6lJVlb7LkJEybaGOGz/uz3996uJLLunp6YnH6Tk7MlCmJQsAxSUlDz/yyIIbb5STyWg0CrTazJKByQJA/tAhP/vlL358//02my3c3U03bTNJZiYLAC6X6xvf/N/f//EPJaWlXcEueihCxsjYZAGAZdnLLr/8b39/bs61cyLRSCgUAvqqrfllcrIpJaWlf3zyyf976MFsr7ejvT11PnsarnllfrIAwHHc7Xfc8eIrL8++5mpZToRCIVVRaLUmNSiSTamqrv7bs88t/t3vSktLJCkWiUTobpkZDaJkAYBl2YU33fSPF1/83zu/lZ+fHwqFYrEYDddcBleyKaMKCn7685/96S9P3nTzzVlZWd3d3ZIkpY4Tp+2mP9boAQxzzqRJ1ePGXX3NV5e9uvTNFSuCgQDDsqIoCoJACKFH36atwZsspK6XO3lyVVXV/AULXn9t+Ruvvd7a2hqJRERRtFqtGGN6toQ0NKiTTbHZ7dXjqkeXj57/ta+99+57b65Y0bBrV3t7O8bY6XQKggAAtN30QZM9SBTFouLikaNGzbt+3oYNG955e9XWmpod9fUd+/fbbDa73c6yLN1RSwc02cOwLOvOyrr4kkumz5gRCARWf7R6w/r1tbW1n332WSAYFAWB53mOZRHGGCGEcWqPjW74fploskfHMIzf758zd86cuXPa29pqa2u319Zu21Zbu23bvr17dVVFCBFAgAAhxDAMxhh/XnDvVx4QIARAAE5m5YxO7m5fmnSbJ4Ume2L+3Fx/bu70GTMSiURra2tzc3NjQ0PD7sZd9Tv27PmvJEV1VdM0TdU0VVWJruuE6LpOANRoWJeielLWk0k4wcfWCdF0QUlyqkIUxejv+CCVEBZjWddUkkab8vSX2umTJCkqSV2BQHtbe1tba0d7RygcCofD4XBPPBZTNTXREeQvPMd64SRQFKIdd6kTQojOOd2MzX6iuL88GiEunrsqryDXYhntzDJ6nINosv1PJ4QQPfU/gvEp7LGh1H9ptEQQAIPS6/0mmixlMun1D4iiTogmS5kMTZYyGZosZTI0WcpkaLKUydBkKZOhyVImQ5OlTIYmS5kMTZYyGZosZTI0WcpkaLKUydBkKZOhyVImQ5OlTIYmS5kMTZYyGZosZTI0WcpkTHPqjfa2tj2NjaIolo8Zkzq1G3V8kUikdutWTdfHVFa6s9LlLARnzjRr2TdXrLj6mmsWLVoU6AwYPYs51O+oX7Bw4fXX37Bxw0ajZ+lPplnLqqoaCgazszx6Op1s5/gDJ5Myw7A8zxtyvkSi6+3t7bF4XNNUo38Y/ck0a1mW5SyiRRQEbIbTZRJCXvrni9OnXvSdO+9qb283ZAbMMDzL8SzLMKZZMZ2MjPpm0sq+vXvXf7qR4dhELG70LBnFNGtZ0xEtFh4zVosVM4zRs2QUmuyAQAjxPE8IYRiG53mjx8kombNhkEwmW1tagoFgLB4TBdGdlZWfn2+1WY//qGgkEgqFZFlmGOxwOJ1OJ8OyhBAAoigqEBBEoffOUzQaaTnQEgwGFUURRYvT6XA6nS6322IRMWYAgBCi67qmaaqqYoyJrsfjMVVVNU0juq7pusViwRj3HjsaiUQi0Xg8Jssyw7Aup8Ofl3ec0GVZbjlwIBAIyIkEx/N2h8PpcLhcbpvdxhyxRieECKIIAKqqdgWD3d3dciLJi3y215vt8xm90E5HJiSr6/qqt1YuW7p82/bazs5OWZZ5jnN7vGXFxVfNvuqauXOPuvgbG3a/+uqrq9esbm1rS8TjDMtkZWUVFRR5srJisViou1uSE76cnHvuvru4uBgApEh02bJlK1eu3FG/o6urS9M0juNtNqvL7fZ6vaNGDL/vx/fn5uW1t7c/8sgjDQ0Nzfua/H5/0759d9xxh9Vm0zWNABEE8fZFi6ZPmwYAaz76aNmyZXv37QuFQuGenngsllQUBjNeT1ZFecWCm2664ILJR4799sq3lrz0Um3d9s7OgKLILMtZbTan0+n1ekcMG3brbbePnzC+9/15lmtpafng/ff/8fzzu/fs6QoG5WTSbrHm5vqnTJ266Bt3eDxeoxfgKSIm8de/POW2O8afVdW8f3/v26PR6P/96lfD8vIBACNUVFBQWVFZWlLisNoAIMvtvu+HPwyHw32ebe3qtRecex4AsAhXllecM/HscVXVfl8OANgFMcfjzfP6AGBIbt6mTzcRQnp6er57512+LA8AZLlc5WWjx46pLCspHTZ0aJbTlfpJ1m7bRgj57549E6qrAcCX5SkrKh6ely+yHIMQizEAIIC/P/dcaoYf3H1P6oFZTld+bu6IYcOKCgqHDR2aurFydPmHH37Ye2ZFUR59+OG83FwAEHm+tLh47Jixo0vLRg4f7nV7Uo96+q9PH7r/xg0bfVmeEUOGlZWUupxOAMjO8owaMbJoVIGFFwDAwnLzr58XDAaNXranxvRr2TffeGPxgw+FopEZF037+i1fHzd+vCCIqqY27Nz5wgsvLFmy5PFHHy0pKVmwcOGhh4RCoZ//5Cer13183tnn/ODeH1aPq2Y5Vtf1jo7OP/3hD68tX56Xl3vLbbcNHz5C05SCggIAeGXJkmeeeVrXyIIbbliwcGFBQQHGjKZpPeFwZ2dHa0trS8uB3NxcAMjJ8S3+7W/bWtv/9f57S5cuLS0tvfe++3Lz8lRFURRFU7UpU6emxrj00kt8vuwh+fnZOTmpqzWJokgA3lr51h+feKJuR90zT/31rLFjXW536v6rV6/+zUOLW9vbLrv44tsXLaocO5ZhWF3XIpFIoDOwv3l/V7Br3PhxfX4+mq4xDDNnzpxzJ00qKS7xeL2YYZqa9j315F/ee+fdV156+eKLL/najTcavRhPhdH/Zk7WUdeyzc3NV1x2KQdo2tSpW7Zs6fOQ1gMHbr35ZgCYNnXq3r17Uzfquv7666/5Pd7RJSWvv/Zan4cEOjtnXjQtx+N57JFHUncnhCSV5K1f/7qdF6dfeFFzc/ORs2malkwmdV3vfePjjz7GY+bSmRc3728+9KV730f7/NoKfZ5NluVf//JXLqutaOSo3Q0NqRsTicSP77sPACZWV69ds+bIGXRdSyaTmqYdumXjho3Z7iyHaH3qyb9I0aima73vv61229TJk22CeMO8eZIkGb14T4G5XzFob2vfsmmLIAjXzZtXVVXV529z8/OvmTPH7/HWba9r2teUulHX9a1bahRFKSstO+/88/s8xJudfc655yaTyqcbP43FYqlTwYdD4UhPhOXY0eXleXl5R46BMeY4rs9bXKqqpr4c+fw86X2ukYsxZhgGjnhnhOf5sWeNtVitoe7uSCR6cGxNC3YGAGDEyFFnHfGdAgBCmOO43jt2KZqu+fNyrTYbPvz88WMqxlwwZaqqKDvr6yVJMnpJngJzJ9vY2JhIyB6Pp6io+Kh3KCgqGl1eHo1G6+rqdE0DAEJIKBRWNc1isVitfV9P0HXdl+PjOS4ei/WEe1I3CoIgCAIA+m9jY6Cz82QGS61Te//hlFitVosoIowTciJ1C0LYYrUAQEd7++6G3afwnAjkROKofzNkSD4BiPREIz09/btcBpSJt2UVRWne36Tpeo7f73K7jnoft9ud4/fHE4n9TfsScsJqtQEAx3MMZhKJhCRJfarFGIe7u3VN43hetIipGx0OR2FRoU70mpqa79x519zrrq0YU+lwOGw2m81mO3LFdqqSyWQ8FkskEsmknEjIDMPs/e9eTdcxxuTzS33wAl9ZOdZtc9TU1Nx7zz03zL9h/IQJLrfbZrPZbTaGPZ3l6HQ4rVarpqnRaPTLXXRnxMTJqqoa6enRdM1mtwni0Q9HFATBZrdrQEKhsKpqAMAwTEFhIcuyjY17PqvZOn3mjN73j0ajmzdtSciy2+Vyf77fAwCzrrxq3dqP169fv/LNlW+9tdLpziorLS0qLh4zpqK8vGJ0RXlOTs5pfAv79+/fuGHD5s2b9+9rCgaC3d3dXcFgIBjACAmiaLFY0OfXXsEYz7riyg/ef3/Z0qUfr127bu3Hdru9qLiouKS0vKK8oqK8vGLM0GFDT+mrixaLIAg6Iclk0sDleKpMnCwhJCkrQAjLsgw++puiDMYcwwBAar8EABBCU6dO9ef5a7dve/LPf3a7XQWFhYIgqJrWFQg+//zf165dI4jiuImHvbo5blz1bx55eNkrr27atCl1Ueb1H3/84b//Leua1+WeMXPG7XfccdG0aac0/5o1ax564IF33l7FC0JBYUG2N9uf6y8tKxs5asT+pv1vvblS1/Telzf05WQv/u1vqqqr169b17BzV2tb65YtWzZ88klcVWyCZcqUKTff8vWvXP0VluNOcgDMYAZjIMRcFyUycbIIIVbgEEKaph1r207X9dRuEN9r16SkpOTb3/3ur3/xi//8+99bt9YUFhfb7DYlqezbu6/ms60ui3XuvHlfufqrfZ6qoqKioqJi3959exobOwOdHW1tdXU7ampqdtbXL3t16Y66HS++sqS8vOIkh9+zu/FHP7h39cdrL7xgym23315UXORyu5wOh93htNvt//rgg9eWLUeo775ZXn7+9+7+fkd7x86d9R0dHR3t7bsbGjZv3lL72bb333tv+/ZaQeCvnD371H+WZmrWxMkyDON0OBjMSFEpcYw9DDmZlGIxDMhmtx9aEyOEbr7lFpZlf/GTn3W0d3QEApqmYYRdbtfM6dNnzbpizrVzs7Ozj/qEI0aOGDFyROrPoVCo9UDL8uXLnnv6maamphWvv3FYssfNYO3aNVtravJz/D+870cXX3JJn7/tCfcc/urCYXL8OTn+g9shkiS1HDiwft26xQ8+uGPXrteWv3bZrFnsaW3amoWJvzeO44YNHY4wamttjfREjnqfUCgUCHRaBDE3N1cQvnjbFgEIPB8IBhYsXLhw4Y1RScIIu7PcWR5Pfn7+Se5Rud1ut9s9qrCgbnvdqrff3llf/8XzI4QZjBHSVOXIY9JVVW1q2q8qStnossqxY8/kh2Cz2YpLSopLSj5Zt762vj4QCHR3d/l8p7NhbRYmThYhVFhcaLVagl1dTU37jnqf5qb9ddvrbDZrZWVl793q1tbWPz7xB45lZ8yYMX7ixDMZQxTF3NxcTdM0/bBrzwoWkWGYWCwuy3Kfh2i6LstJAOB5IbXdcoaSSnLY8OEcwpqmKcl0uWrzADH367I5fn9V9Tii68uXLW9tbe3zt/F4fNWqVe2dHQWFhcOGDev9Vz3hnh11O1iO4056Z+VY9u7dW19fz3FcXt6Q3rdne7wWq3V/U1MoFOrzEJ7jcvw+QRB27dwZDh/lNdFDv9lPcn2vKVpdXZ1CdI/H4/F4BvrHbiwTr2UBID8/f+7/XPvJ+vUf/vs/93z3e7csur26qspqs8myvHPnzpdefPGfz//DaXfMmzdvVGFB7wdarZbSstJdu3Y9+vDDmzZu9Ob4GIZhMcMJvNPhLCgcVVpaljpmL2Xdx+t27KgrLi725+VlZ2c77PbUbl/Nls1PPPbE5k2bbTbb9OnTe3+JvPw8p8PRfODA8qVLhw8b5svJkSQpEom4XS67w1FSUurOympvb3/80Ue/f/fdBYUFiqJ2dLQ17GrYsP6TD95/P7Vd8e67746prBRFEQB21u9cv35d/pAhI4aP8HiynC4XwzCKouxp3P30U0+/s2pVjjd7wsSJosVi9GIZWKZJVlOVuBSLJxK9d2swxpddfvnmjZtefnnJypUrP9mwweVysSyra5okSakPXc2dO/eauXP7HEjqy8m5+LJL6+rqampqtm/fjhmG6HrqCVmWFUWxoKjozrvunDFjRuozBR+89+7ihxbn5uZabVaO4ziWA4R0XQ93hzo7OyxW6/wFX5s85YLeX6K4pOTscye1v/7GC8//47133hVEMSZJkiQ99JvFX50z55xJZ1/91a8+9+yzry1btvGTTyxWK9H1RCIRiUQkSXK73X6/PxgMPvHY459u2PDAQw+OHj36040b7v3+3ZwgeL1ejmUZhsEM1nVdikotLS0I49mzZ18377pDA+i6JmtqQlE0VTvqj1TXtEQiQQDpmjk+AZpimmT9eXnnTT5/yNChnHDYwa8+n+/nD/yytKzkgw8+aG1pi0nRRCzGsKzL5SouLblg6tQFN96Y7T3skFBCyIoVK15d8vKQIUNmzJwp8HyopyceiymKompquDu0p3HPh//6V3tbq9vtOvucSQAwsqDg3HPPVRQ1Go1IkpRMJgkhHMc5nM7i0pJZV17xtRsXWA5fveXm5n7/7rsxgR319ZIk9fT0AADLc6kXrlwu93e+/z2GZVZ/+FGouzsajfI8b7PbC4uKysrK5sydG4tJL7zwz82fftpyoLUnHAECOTn+sydN6ukJJ+SEFI0m5aSmEY5jrVbbhLPPvmjatFtvu9Xb6zt12B1njxsvywnfMQ7ldmdlja2qEgTebrcZvXhPgWkubp+Uk/F4HGNks9uPuoWnA+ysq+vs6JBlWRDE7GxfSVkxy/bdVCWErP7oo5tvXAgADy1efM21c/vcob2t7eWXljz04INSNHL/z3/27W9/J7WiJQDNzc1tLS2BzoAUixFdEy2W/Lz8s6qrjvOikpxIbNm8pbW1VdM0q9WaneMrKSnp/b7a9traxt27laRisdly/f6y8tGH3kOWZXnTp5vCodCEcyb6sn2fj9d+oKU50BGIRiVNUwVR9Pl8lWMr7XZ7ny+tqQffibXabEfdZI/FYsFAAAHk+P28ic5mYvShZF+2ZDI5f971AsMuuvW2Y92no73j0pkzLSy36Nbburu6jB6ZOoy5XzE4nX+iut7W2ooBHevNAgDADPbn+lVVlaRoMtNfMzKdQZcsALAcqxNdko55+JKqKI27GxmG8fmy7Q77qTw3NeAGXbII4xx/Di8IGzZsWLtmzZF3CIfDzz773Gdbt1mttnHjJx55TC1lLNPsfvUXQsiKN96449bbYvH42MoxMy+91O/PtTscDIaoFAsGgttra999991gZ+C666977PEn3B630SNThxl0yQJAIpH4/eOPP/mnPwU6AxhAtFisNhvCSE7IUjSqqKrb5bruhuu/ddddfd4zo9LBYEwWAJLJ5O6GhnUfr9tetz3Q2RkJ9wCAxWL15/nLy8vPO//8gqJCi5jhbyOZ1CBNljKvQbf7RZkdTZYyGZosZTI0WcpkaLKUydBkKZOhyVImQ5OlTOb/AVJm+TpXZNG3AAAAAElFTkSuQmCC" vertex="1" parent="1">
          <mxGeometry x="90" y="39.5" width="130" height="130" as="geometry" />
        </mxCell>
        <mxCell id="-QomMEc71tAk3ifFAMWK-5" value="" style="shape=image;verticalLabelPosition=bottom;verticalAlign=top;imageAspect=0;aspect=fixed;image=data:image/png,iVBORw0KGgoAAAANSUhEUgAAAOYAAADmCAIAAABOCG7sAAAen0lEQVR42u3deXwU5f3A8e/zzLn3ZjebTcKdm4RgwqGoCMrhhUqt4E+UIloP7K/VXlpba+/6U9p61R7WarXWKiqgIopXWwUEQSBICIEQCiHk3E12szu7OzvH8/tjEUO4IXF2Ns/79fIlr2V3803mw2Rmd3YGEUKAoswDGz0ARZ0amixlMjRZymRospTJ0GQpk6HJUiZDk6VMhiZLmQxNljIZmixlMjRZymRYowf4QnLf7+U9DyHGDui0p0KAOMAiZh2I8wCfjcQ8JA5nLQVIyAXOgVknYMHob5Q6I2mULNHiRI0C0QHQmTwNAGgAADoQACBAtKSuAe/B9nLWUYmcZzG2YmwZhVgXIPpLxnzSKNl+cih35uAfEQsYQJP07rVy4H0gCrKOYp3jsets1nMuto1GnNvomalTkHnJHgNigLEixgoAoASVtpdJ6xJsHcU4J7A5l7CeC7G10OgRqZMyaJIFSG0zAABgKxLtCDQitystr6gdb2DHWC7vas53BXZUGj0kdQKDKtlDCBANABDvQbyXqFGtZ7Pes1k58AKXN4/1X8XQcNPY4N7/IDoQDTE2LOYjzq3HGuQ9v45/drO89zGS7DB6OOroBneyB+lANMAi4nwIW/Xodrnhp7GtNysdbxo9GHUUg3PD4KgIAAAWEeZBT+rd/0lEPtPy/yMU3IP4HKNno75A17J9EAAEWADWAbqkNP05tuVaNfjhF7tulNFosseCAYvAObXwpvjW+fK+PxItZvRIFABN9gQIQqwLdDm584eJnT8iStDogSia7IkRwDwwdqXpT/Hab+qJFqPnGexosieDAEKI96ptr8Rrb9fjTUbPM6jRZE8eQrxP63wzvn0RrdZANNlTgRjE+9SOtxN13yJ0C8EgNNlTQgDxmM9W29+I13+XJDuNnmcwosmeKgJYRHyW0vpyYtf9RAkbPc+gQ5M9DTpgK+bcyoG/yXsfJ3rS6HkGF5rs6SGArYDE5L7H1balRg8zuNBkTxtBnAvUqNz4Ky28yehhBhGa7BkgGhJ8mlQvNz5IlJDR0wwWNNkzQzTM56kdK5It/zR6lMGCJnvmEGJtyb2P6tHtRk8yKNBkz5wO2ELkVvm/jwG98MTAo8n2C4IYm9r5ltK5yuhJMh9Ntp8gBrSo0vw0USWjR8lwNNn+gzkt/InS8YbRc2Q4mmz/QRxJhtSO14nWY/QomYwm248QwpzW/bHW+YHRk2Qymmy/wjxJdqjBfwFRjR4lY9Fk+xViAAlq4B0ttNHoUTIWTbZ/IcCsHt+vhjfRz5EPEJps/yII84CI2rlKl+kB4AOCJtvvWACs99Tosd1GT5KZaLL9DzEWUENaeCN9/3Yg0GT7nQ6MqOsxrWsN0SJGD5OBaLIDAQNgPbabnvFzINBkBwAhiLGQZKcu7TJ6lAxEkx0QiLGQZJfWs42+1NXvaLIDgQAWiBbX441AP3/b32iyAwQhBERuIyrdA+tnNNkBQgBzutypK91GT5JpaLIDgxDAPFHD9CRI/Y4mO2AwD2qYKF1Gz5FpaLIDBQFDNAnotmx/o8kOEAKIBS1GtKjRk2QamuyAQZjoCtESRs+RaWiyAwYhIABEMXqOTEOTHTgIAFIXy6X6EU2WMhmaLGUyNFnKZGiylMnQZCmToclSJkOTpUyGJkuZDE2WMhmaLGUyNFnKZGiylMnQZCmToclSJkOTpUyGJkuZDE2WMhmaLGUyNFnKZGiylMnQZCmToclSJkOTpUyGJkuZDE2WMhmaLGUyNFnKZGiylMnQZCmToclSJsMaPUCvURjAPBDG6Dn6CwKigcAho+fINGmUbHMH2rsNYR4dPDOr2SGkRxgrF7E4u3VVRfoJTjRLgGCGBZZNq+uLswjlWqw8YqxsuqSSLnMAwKv/4R74tSBaOIwyJFktYLfP3Wn/yqskmSTaiZLVddHjZZ0uoqpGj36QTkgWL9xaUDHcap/g8Rk9zkFplCzPMwKPWUwwzoxkAWFgGcQxiGBEyPF3GwgBxCLMIkxQuuxgaEBYhIGk12+9NEqW41ieZzAGnC6L7MwgABYYDAzCBGFygsVOCAIGIQYhkk6/ZBiE0mkcgLR6xYDjOIbJmJ0vaqCkUbI2m00QBV3XjR6ESmtplKzdYbeIFpJO+8tUGkqjZFNrWZosdXxplKzL5bJZbUQntFrqONIo2ezsbIfTqRO6LUsdTxol6/V67XY73f2iji+NkrXZ7U6Xk24VUMeXRskCwJChQ0RBIHRFSx1beiVbUFBot9t1uqKlji29kh01cqSNbs5Sx5VeyRYWF9vsNu1EBz1Rg1l6JevxeocPH4Expjth1LGkV7IIoKq6iuM4um1AHUt6JQsAZ1VVsyxL17LUsaRdsmXlo7Oy3HQtSx1L2iXr9XjGj5+ops2HSah0k3bJ8jx//pQLEvG40YNQaSrtkgWAqqoqj9dLV7TUUaVjsqMKRk298MJwOJx2Hzui0kA6Jmu1Wi+cdlEikTB6ECodpWOyADBhwoTRZaOj0Shd0VJ9pGmyRcXF02ZO7+7qpslSfaRpshzHXTTtIr/fL0kSrZbqLU2TBYDJF0ypHj8uFArRZKne0jdZu91+xVVX2mzWWCxOq6UOSd9kGYaZPfsrZaVl4TBd0VJfSN9kAcDpcs65di7HsvF4HGfImbqoM5XWHQiCcM2cuaWlpZIUpcd2USlpnSwA+Pw5C266CQDLskw3DyhI/2R5np91xayqqrPi8Thd0VKQ/skCwJChQxcsvNFqsSSTSaNnoYxngmQZhrly9uzzJk+W6VEHlCmSBQCv13vD/PnZPp8sy0bPQhnMHMkCwOVXzLp81ixFUehnbAY50ySLMb7jm98oLimRJMnoWSgjmSZZACgoKPzWnXcCQvQFr8HMTMkCwJy5c66fP7+7q4tuHgxaJksWM8w99/5g3MSJgUCAXr5mcDJZsgCQl5v7wAMPeL3e7u5uWu0gZL5kAWDylAvu/+lPEaBoNEoPlxlszLq8r7/h+ltuvzUejyflJN0VG1TMmqwgind9+ztXzZ4diUY0TaPVDh5mTRYAcvw59//sp+edf344HKanpB08TJwsABQWFv76gQcqKirC4TA9zmuQMHeyADC26qzfPPy7gsLCUHe30bNQXwbTJwsA50ya9NtHfjdkyJBgIAAAdLs2s2VCsgAwdeqFjz3xxJBhQwOdnYQQWm0Gy5BkAeCi6dOefOqpwsKiTlptRsucZAHg/MmTn/rbMxPGj+/q6lJVlb7LkJEybaGOGz/uz3996uJLLunp6YnH6Tk7MlCmJQsAxSUlDz/yyIIbb5STyWg0CrTazJKByQJA/tAhP/vlL358//02my3c3U03bTNJZiYLAC6X6xvf/N/f//EPJaWlXcEueihCxsjYZAGAZdnLLr/8b39/bs61cyLRSCgUAvqqrfllcrIpJaWlf3zyyf976MFsr7ejvT11PnsarnllfrIAwHHc7Xfc8eIrL8++5mpZToRCIVVRaLUmNSiSTamqrv7bs88t/t3vSktLJCkWiUTobpkZDaJkAYBl2YU33fSPF1/83zu/lZ+fHwqFYrEYDddcBleyKaMKCn7685/96S9P3nTzzVlZWd3d3ZIkpY4Tp+2mP9boAQxzzqRJ1ePGXX3NV5e9uvTNFSuCgQDDsqIoCoJACKFH36atwZsspK6XO3lyVVXV/AULXn9t+Ruvvd7a2hqJRERRtFqtGGN6toQ0NKiTTbHZ7dXjqkeXj57/ta+99+57b65Y0bBrV3t7O8bY6XQKggAAtN30QZM9SBTFouLikaNGzbt+3oYNG955e9XWmpod9fUd+/fbbDa73c6yLN1RSwc02cOwLOvOyrr4kkumz5gRCARWf7R6w/r1tbW1n332WSAYFAWB53mOZRHGGCGEcWqPjW74fploskfHMIzf758zd86cuXPa29pqa2u319Zu21Zbu23bvr17dVVFCBFAgAAhxDAMxhh/XnDvVx4QIARAAE5m5YxO7m5fmnSbJ4Ume2L+3Fx/bu70GTMSiURra2tzc3NjQ0PD7sZd9Tv27PmvJEV1VdM0TdU0VVWJruuE6LpOANRoWJeielLWk0k4wcfWCdF0QUlyqkIUxejv+CCVEBZjWddUkkab8vSX2umTJCkqSV2BQHtbe1tba0d7RygcCofD4XBPPBZTNTXREeQvPMd64SRQFKIdd6kTQojOOd2MzX6iuL88GiEunrsqryDXYhntzDJ6nINosv1PJ4QQPfU/gvEp7LGh1H9ptEQQAIPS6/0mmixlMun1D4iiTogmS5kMTZYyGZosZTI0WcpkaLKUydBkKZOhyVImQ5OlTIYmS5kMTZYyGZosZTI0WcpkaLKUydBkKZOhyVImQ5OlTIYmS5kMTZYyGZosZTI0WcpkTHPqjfa2tj2NjaIolo8Zkzq1G3V8kUikdutWTdfHVFa6s9LlLARnzjRr2TdXrLj6mmsWLVoU6AwYPYs51O+oX7Bw4fXX37Bxw0ajZ+lPplnLqqoaCgazszx6Op1s5/gDJ5Myw7A8zxtyvkSi6+3t7bF4XNNUo38Y/ck0a1mW5SyiRRQEbIbTZRJCXvrni9OnXvSdO+9qb283ZAbMMDzL8SzLMKZZMZ2MjPpm0sq+vXvXf7qR4dhELG70LBnFNGtZ0xEtFh4zVosVM4zRs2QUmuyAQAjxPE8IYRiG53mjx8kombNhkEwmW1tagoFgLB4TBdGdlZWfn2+1WY//qGgkEgqFZFlmGOxwOJ1OJ8OyhBAAoigqEBBEoffOUzQaaTnQEgwGFUURRYvT6XA6nS6322IRMWYAgBCi67qmaaqqYoyJrsfjMVVVNU0juq7pusViwRj3HjsaiUQi0Xg8Jssyw7Aup8Ofl3ec0GVZbjlwIBAIyIkEx/N2h8PpcLhcbpvdxhyxRieECKIIAKqqdgWD3d3dciLJi3y215vt8xm90E5HJiSr6/qqt1YuW7p82/bazs5OWZZ5jnN7vGXFxVfNvuqauXOPuvgbG3a/+uqrq9esbm1rS8TjDMtkZWUVFRR5srJisViou1uSE76cnHvuvru4uBgApEh02bJlK1eu3FG/o6urS9M0juNtNqvL7fZ6vaNGDL/vx/fn5uW1t7c/8sgjDQ0Nzfua/H5/0759d9xxh9Vm0zWNABEE8fZFi6ZPmwYAaz76aNmyZXv37QuFQuGenngsllQUBjNeT1ZFecWCm2664ILJR4799sq3lrz0Um3d9s7OgKLILMtZbTan0+n1ekcMG3brbbePnzC+9/15lmtpafng/ff/8fzzu/fs6QoG5WTSbrHm5vqnTJ266Bt3eDxeoxfgKSIm8de/POW2O8afVdW8f3/v26PR6P/96lfD8vIBACNUVFBQWVFZWlLisNoAIMvtvu+HPwyHw32ebe3qtRecex4AsAhXllecM/HscVXVfl8OANgFMcfjzfP6AGBIbt6mTzcRQnp6er57512+LA8AZLlc5WWjx46pLCspHTZ0aJbTlfpJ1m7bRgj57549E6qrAcCX5SkrKh6ely+yHIMQizEAIIC/P/dcaoYf3H1P6oFZTld+bu6IYcOKCgqHDR2aurFydPmHH37Ye2ZFUR59+OG83FwAEHm+tLh47Jixo0vLRg4f7nV7Uo96+q9PH7r/xg0bfVmeEUOGlZWUupxOAMjO8owaMbJoVIGFFwDAwnLzr58XDAaNXranxvRr2TffeGPxgw+FopEZF037+i1fHzd+vCCIqqY27Nz5wgsvLFmy5PFHHy0pKVmwcOGhh4RCoZ//5Cer13183tnn/ODeH1aPq2Y5Vtf1jo7OP/3hD68tX56Xl3vLbbcNHz5C05SCggIAeGXJkmeeeVrXyIIbbliwcGFBQQHGjKZpPeFwZ2dHa0trS8uB3NxcAMjJ8S3+7W/bWtv/9f57S5cuLS0tvfe++3Lz8lRFURRFU7UpU6emxrj00kt8vuwh+fnZOTmpqzWJokgA3lr51h+feKJuR90zT/31rLFjXW536v6rV6/+zUOLW9vbLrv44tsXLaocO5ZhWF3XIpFIoDOwv3l/V7Br3PhxfX4+mq4xDDNnzpxzJ00qKS7xeL2YYZqa9j315F/ee+fdV156+eKLL/najTcavRhPhdH/Zk7WUdeyzc3NV1x2KQdo2tSpW7Zs6fOQ1gMHbr35ZgCYNnXq3r17Uzfquv7666/5Pd7RJSWvv/Zan4cEOjtnXjQtx+N57JFHUncnhCSV5K1f/7qdF6dfeFFzc/ORs2malkwmdV3vfePjjz7GY+bSmRc3728+9KV730f7/NoKfZ5NluVf//JXLqutaOSo3Q0NqRsTicSP77sPACZWV69ds+bIGXRdSyaTmqYdumXjho3Z7iyHaH3qyb9I0aima73vv61229TJk22CeMO8eZIkGb14T4G5XzFob2vfsmmLIAjXzZtXVVXV529z8/OvmTPH7/HWba9r2teUulHX9a1bahRFKSstO+/88/s8xJudfc655yaTyqcbP43FYqlTwYdD4UhPhOXY0eXleXl5R46BMeY4rs9bXKqqpr4c+fw86X2ukYsxZhgGjnhnhOf5sWeNtVitoe7uSCR6cGxNC3YGAGDEyFFnHfGdAgBCmOO43jt2KZqu+fNyrTYbPvz88WMqxlwwZaqqKDvr6yVJMnpJngJzJ9vY2JhIyB6Pp6io+Kh3KCgqGl1eHo1G6+rqdE0DAEJIKBRWNc1isVitfV9P0HXdl+PjOS4ei/WEe1I3CoIgCAIA+m9jY6Cz82QGS61Te//hlFitVosoIowTciJ1C0LYYrUAQEd7++6G3afwnAjkROKofzNkSD4BiPREIz09/btcBpSJt2UVRWne36Tpeo7f73K7jnoft9ud4/fHE4n9TfsScsJqtQEAx3MMZhKJhCRJfarFGIe7u3VN43hetIipGx0OR2FRoU70mpqa79x519zrrq0YU+lwOGw2m81mO3LFdqqSyWQ8FkskEsmknEjIDMPs/e9eTdcxxuTzS33wAl9ZOdZtc9TU1Nx7zz03zL9h/IQJLrfbZrPZbTaGPZ3l6HQ4rVarpqnRaPTLXXRnxMTJqqoa6enRdM1mtwni0Q9HFATBZrdrQEKhsKpqAMAwTEFhIcuyjY17PqvZOn3mjN73j0ajmzdtSciy2+Vyf77fAwCzrrxq3dqP169fv/LNlW+9tdLpziorLS0qLh4zpqK8vGJ0RXlOTs5pfAv79+/fuGHD5s2b9+9rCgaC3d3dXcFgIBjACAmiaLFY0OfXXsEYz7riyg/ef3/Z0qUfr127bu3Hdru9qLiouKS0vKK8oqK8vGLM0GFDT+mrixaLIAg6Iclk0sDleKpMnCwhJCkrQAjLsgw++puiDMYcwwBAar8EABBCU6dO9ef5a7dve/LPf3a7XQWFhYIgqJrWFQg+//zf165dI4jiuImHvbo5blz1bx55eNkrr27atCl1Ueb1H3/84b//Leua1+WeMXPG7XfccdG0aac0/5o1ax564IF33l7FC0JBYUG2N9uf6y8tKxs5asT+pv1vvblS1/Telzf05WQv/u1vqqqr169b17BzV2tb65YtWzZ88klcVWyCZcqUKTff8vWvXP0VluNOcgDMYAZjIMRcFyUycbIIIVbgEEKaph1r207X9dRuEN9r16SkpOTb3/3ur3/xi//8+99bt9YUFhfb7DYlqezbu6/ms60ui3XuvHlfufqrfZ6qoqKioqJi3959exobOwOdHW1tdXU7ampqdtbXL3t16Y66HS++sqS8vOIkh9+zu/FHP7h39cdrL7xgym23315UXORyu5wOh93htNvt//rgg9eWLUeo775ZXn7+9+7+fkd7x86d9R0dHR3t7bsbGjZv3lL72bb333tv+/ZaQeCvnD371H+WZmrWxMkyDON0OBjMSFEpcYw9DDmZlGIxDMhmtx9aEyOEbr7lFpZlf/GTn3W0d3QEApqmYYRdbtfM6dNnzbpizrVzs7Ozj/qEI0aOGDFyROrPoVCo9UDL8uXLnnv6maamphWvv3FYssfNYO3aNVtravJz/D+870cXX3JJn7/tCfcc/urCYXL8OTn+g9shkiS1HDiwft26xQ8+uGPXrteWv3bZrFnsaW3amoWJvzeO44YNHY4wamttjfREjnqfUCgUCHRaBDE3N1cQvnjbFgEIPB8IBhYsXLhw4Y1RScIIu7PcWR5Pfn7+Se5Rud1ut9s9qrCgbnvdqrff3llf/8XzI4QZjBHSVOXIY9JVVW1q2q8qStnossqxY8/kh2Cz2YpLSopLSj5Zt762vj4QCHR3d/l8p7NhbRYmThYhVFhcaLVagl1dTU37jnqf5qb9ddvrbDZrZWVl793q1tbWPz7xB45lZ8yYMX7ixDMZQxTF3NxcTdM0/bBrzwoWkWGYWCwuy3Kfh2i6LstJAOB5IbXdcoaSSnLY8OEcwpqmKcl0uWrzADH367I5fn9V9Tii68uXLW9tbe3zt/F4fNWqVe2dHQWFhcOGDev9Vz3hnh11O1iO4056Z+VY9u7dW19fz3FcXt6Q3rdne7wWq3V/U1MoFOrzEJ7jcvw+QRB27dwZDh/lNdFDv9lPcn2vKVpdXZ1CdI/H4/F4BvrHbiwTr2UBID8/f+7/XPvJ+vUf/vs/93z3e7csur26qspqs8myvHPnzpdefPGfz//DaXfMmzdvVGFB7wdarZbSstJdu3Y9+vDDmzZu9Ob4GIZhMcMJvNPhLCgcVVpaljpmL2Xdx+t27KgrLi725+VlZ2c77PbUbl/Nls1PPPbE5k2bbTbb9OnTe3+JvPw8p8PRfODA8qVLhw8b5svJkSQpEom4XS67w1FSUurOympvb3/80Ue/f/fdBYUFiqJ2dLQ17GrYsP6TD95/P7Vd8e67746prBRFEQB21u9cv35d/pAhI4aP8HiynC4XwzCKouxp3P30U0+/s2pVjjd7wsSJosVi9GIZWKZJVlOVuBSLJxK9d2swxpddfvnmjZtefnnJypUrP9mwweVysSyra5okSakPXc2dO/eauXP7HEjqy8m5+LJL6+rqampqtm/fjhmG6HrqCVmWFUWxoKjozrvunDFjRuozBR+89+7ihxbn5uZabVaO4ziWA4R0XQ93hzo7OyxW6/wFX5s85YLeX6K4pOTscye1v/7GC8//47133hVEMSZJkiQ99JvFX50z55xJZ1/91a8+9+yzry1btvGTTyxWK9H1RCIRiUQkSXK73X6/PxgMPvHY459u2PDAQw+OHj36040b7v3+3ZwgeL1ejmUZhsEM1nVdikotLS0I49mzZ18377pDA+i6JmtqQlE0VTvqj1TXtEQiQQDpmjk+AZpimmT9eXnnTT5/yNChnHDYwa8+n+/nD/yytKzkgw8+aG1pi0nRRCzGsKzL5SouLblg6tQFN96Y7T3skFBCyIoVK15d8vKQIUNmzJwp8HyopyceiymKompquDu0p3HPh//6V3tbq9vtOvucSQAwsqDg3HPPVRQ1Go1IkpRMJgkhHMc5nM7i0pJZV17xtRsXWA5fveXm5n7/7rsxgR319ZIk9fT0AADLc6kXrlwu93e+/z2GZVZ/+FGouzsajfI8b7PbC4uKysrK5sydG4tJL7zwz82fftpyoLUnHAECOTn+sydN6ukJJ+SEFI0m5aSmEY5jrVbbhLPPvmjatFtvu9Xb6zt12B1njxsvywnfMQ7ldmdlja2qEgTebrcZvXhPgWkubp+Uk/F4HGNks9uPuoWnA+ysq+vs6JBlWRDE7GxfSVkxy/bdVCWErP7oo5tvXAgADy1efM21c/vcob2t7eWXljz04INSNHL/z3/27W9/J7WiJQDNzc1tLS2BzoAUixFdEy2W/Lz8s6qrjvOikpxIbNm8pbW1VdM0q9WaneMrKSnp/b7a9traxt27laRisdly/f6y8tGH3kOWZXnTp5vCodCEcyb6sn2fj9d+oKU50BGIRiVNUwVR9Pl8lWMr7XZ7ny+tqQffibXabEfdZI/FYsFAAAHk+P28ic5mYvShZF+2ZDI5f971AsMuuvW2Y92no73j0pkzLSy36Nbburu6jB6ZOoy5XzE4nX+iut7W2ooBHevNAgDADPbn+lVVlaRoMtNfMzKdQZcsALAcqxNdko55+JKqKI27GxmG8fmy7Q77qTw3NeAGXbII4xx/Di8IGzZsWLtmzZF3CIfDzz773Gdbt1mttnHjJx55TC1lLNPsfvUXQsiKN96449bbYvH42MoxMy+91O/PtTscDIaoFAsGgttra999991gZ+C666977PEn3B630SNThxl0yQJAIpH4/eOPP/mnPwU6AxhAtFisNhvCSE7IUjSqqKrb5bruhuu/ddddfd4zo9LBYEwWAJLJ5O6GhnUfr9tetz3Q2RkJ9wCAxWL15/nLy8vPO//8gqJCi5jhbyOZ1CBNljKvQbf7RZkdTZYyGZosZTI0WcpkaLKUydBkKZOhyVImQ5OlTOb/AVJm+TpXZNG3AAAAAElFTkSuQmCC" vertex="1" parent="1">
          <mxGeometry x="90" y="270" width="130" height="130" as="geometry" />
        </mxCell>
        <mxCell id="-QomMEc71tAk3ifFAMWK-6" value="" style="shape=image;verticalLabelPosition=bottom;verticalAlign=top;imageAspect=0;image=data:image/png,iVBORw0KGgoAAAANSUhEUgAABEwAAAL3CAYAAACQ3NA2AAAACXBIWXMAAAsTAAALEwEAmpwYAAAAIGNIUk0AAHolAACAgwAA+f8AAIDpAAB1MAAA6mAAADqYAAAXb5JfxUYAAIhISURBVHja7N13nF1Xee//79r1zMyZkaZLsqzijrEhlNwQ4BcScOgmpjgB04IJoiQh7SZOyE2AlBtzU0hySTElJBACmA6B3NBzLwRIDAFsY8tVXZre55y9dlm/P85Ilo5VRtJodM7sz/v14mUD9mjOs0/Z63ue9SzjnBMAAAAAAAAe4lECAAAAAACAYxGYAAAAAAAANCEwAQAAAAAAaEJgAgAAAAAA0ITABAAAAAAAoAmBCQAAAAAAQBMCEwAAAAAAgCYEJgAAAAAAAE0ITAAAAAAAAJoQmAAAAAAAADQhMAEAAAAAAGhCYAIAAAAAANCEwAQAAAAAAKAJgQkAAAAAAEATAhMAAAAAAIAmBCYAAAAAAABNCEwAAAAAAACaEJgAAAAAAAA0ITABAAAAAABoQmACAAAAAADQhMAEAAAAAACgCYEJAAAAAABAEwITAAAAAACAJgQmAAAAAAAATQhMAAAAAAAAmhCYAAAAAAAANCEwAQAAAAAAaEJgAgAAAAAA0ITABAAAAAAAoAmBCQAAAAAAQBMCEwAAAAAAgCYEJgAAAAAAAE0ITAAAAAAAAJoQmAAAAAAAADQhMAEAAAAAAGhCYAIAAAAAANCEwAQAAAAAAKAJgQkAAAAAAEATAhMAAAAAAIAmBCYAAAAAAABNCEwAAAAAAACaEJgAAAAAAAA0ITABAAAAAABoQmACAAAAAADQhMAEAAAAAACgCYEJAAAAAABAEwITAAAAAACAJgQmAAAAAAAATQhMAAAAAAAAmhCYAAAAAAAANCEwAQAAAAAAaEJgAgAAAAAA0ITABAAAAAAAoAmBCQAAAAAAQBMCEwAAAAAAgCYEJgAAAAAAAE0ITAAAAAAAAJoQmAAAAAAAADQhMAEAAAAAAGhCYAIAAAAAANCEwAQAAAAAAKAJgQkAAAAAAEATAhMAAAAAAIAmBCYAAAAAAABNCEwAAAAAAACaEJgAAAAAAAA0ITABAAAAAABoQmACAAAAAADQhMAEAAAAAACgCYEJAAAAAABAEwITAAAAAACAJgQmAAAAAAAATQhMAAAAAAAAmhCYAAAAAAAANCEwAQAAAAAAaEJgAgAAAAAA0ITABAAAAAAAoAmBCQAAAAAAQBMCEwAAAAAAgCYEJgAAAAAAAE0ITAAAAAAAAJoQmAAAAAAAADQhMAEAAAAAAGhCYAIAAAAAANCEwAQAAAAAAKAJgQkAAAAAAEATAhMAAAAAAIAmBCYAAAAAAABNCEwAAAAAAACaEJgAAAAAAAA0ITABAAAAAABoQmACAAAAAADQhMAEAAAAAACgCYEJAAAAAABAEwITAAAAAACAJgQmAAAAAAAATQhMAAAAAAAAmhCYAAAAAAAANCEwAQAAAAAAaEJgAgAAAAAA0ITABAAAAAAAoAmBCQAAAAAAQBMCEwAAAAAAgCYEJgAAAAAAAE0ITAAAAAAAAJoQmAAAAAAAADQhMAEAAAAAAGhCYAIAAAAAANCEwAQAAAAAAKAJgQkAAAAAAEATAhMAAAAAAIAmBCYAAAAAAABNCEwAAAAAAACaEJgAAAAAAAA0ITABAAAAAABoQmACAAAAAADQhMAEAAAAAACgCYEJAAAAAABAEwITAAAAAACAJgQmAAAAAAAATQhMAAAAAAAAmhCYAAAAAAAANCEwAQAAAAAAaEJgAgAAAAAA0ITABAAAAAAAoAmBCQAAAAAAQBMCEwAAAAAAgCYEJgAAAAAAAE0ITAAAAAAAAJoQmAAAAAAAADQhMAEAAAAAAGhCYAIAAAAAANCEwAQAAAAAAKAJgQkAAAAAAEATAhMAAAAAAIAmBCYAAAAAAABNCEwAAAAAAACaEJgAAAAAAAA0ITABAAAAAABoQmACAAAAAADQhMAEAAAAAACgCYEJAAAAAABAEwITAAAAAACAJgQmAAAAAAAATQhMAAAAAAAAmhCYAAAAAAAANCEwAQAAAAAAaEJgAgAAAAAA0ITABAAAAAAAoAmBCQAAAAAAQBMCEwAAAAAAgCYEJgAAAAAAAE0ITAAAAAAAAJoQmAAAAAAAADQhMAEAAAAAAGhCYAIAAAAAANCEwAQAAAAAAKAJgQkAAAAAAEATAhMAAAAAAIAmBCYAAAAAAABNCEwAAAAAAACaEJgAAAAAAAA0ITABAAAAAABoQmACAAAAAADQhMAEAAAAAACgCYEJAAAAAABAEwITAAAAAACAJgQmAAAAAAAATQhMAAAAAAAAmhCYAAAAAAAANCEwAQAAAAAAaEJgAgAAAAAA0ITABAAAAAAAoAmBCQAAAAAAQBMCEwAAAAAAgCYEJgAAAAAAAE0ITAAAAAAAAJoQmAAAAAAAADQJKAEAtKedV1whF1kZJ3nOyUmaq1h12VjGSb4y5c7XfKVfVTsp5wq53JPnOclITk5GRn4YKM8yyUme8VS4Qkrj0/7ZhfPlq9Dld+7SvVdfpMIVMjaSi+1RPztX7qryvEUZJxknSe64P/vg4DZtnNgt5wopy2SCUJff8dDPdlkqE4ZyTnKek58bzVX61W0nJOfkqXjYzwm9QJnLdfntD/2cox/r4d8nU5d8b1HOFTKepNzo8it36e4fbJcx7piaGedJKlT3a4pcp4yTCs+TV+Saj4+tj2cKXXGCx+AZyTmn+Tg9Ugt5hZQbyTSugZEnl9kj/05QOBXGqLMn0+JsqMIUUmBkUh1zHeZjq+4kljNOzvNksuKY58DRNThc/4f+/Vzz8YC6kikZ5YrnjWx16d+0kVxkJRn5dV9FJW9cz7hf1fr40oOSAvlKTSE5p4W4X53phExhZOQkSS6QlBrJFDKu8XjljC6/c5e5/eot6yNj1pvc65GvHuNMLElFkeeFr5nAuek8zWcObbh0ZuP4rsxIcpKckZxxWgwH1J1MSDJyxskPAuVpJiNJztNlVz6ge36wTU7SfKVf3fUJOTldfuVu7bxrq5zztFDpU7U+Ls9zKpwnI6O5OFE1ieQZT5fe/oB2PnKbPK9xnZ2RrFlUlHcqUK7MeDJGMkkkF6Vyhx+nk4rCyPiFjPE0H/WpmkzIGU/GOTkjFUWnAi1I8lR4hbzCKFOnfLPw0J999TalzihU45pecccu7XzkNsl3coWO+dmF58srCjkjLUSJuuuRPOeUe56ckYyNpDB56L3gyO9tj/x5d1+1TaF8pcpkjKeD/Vu1cWzXMX9evvR75/5Df541i6rkHQ/780xQl+TJGXfSPy9zjefX5XfuPq3HZyQVxiz78R2uZ6DimMfnQkmZe+jPq08oly/fHPvnSUbOa/xulQUpqTp5xj/yswPj6+Lv3ceHGAAQmAAAAJzSNklXL/3nkZK2SNq886ptmyKnSK4RfqhoBAKSJGPkFVIhIxN42ji+K5W0R9IDS//5L0n/Kel2SSklBgAAp4vABAAArKZQ0uMkPVnSj0l6ksnU12ipMWq0fhz+62n/3IuddLGkpY4ho2oykagRnnxd0v+T9O+SxrgMAADgVAhMAADAuXahpGdJemY1mbhGUrcOd4qce7GTniC5J8jp1/I0k6TvSfrc0n++ISnnEgEAgGYEJgAAYKWFanSQPFPSszLlVxvXUr/fo530aJnit3betW3KSJ+S9GFJXxLbdwAAwBICEwAAsBJ6JP2UpOuqycRPyphuubb4vXud0c9K+tlqMjEh6WNqhCf/JjpPAAAoNQITAABwpgYkvVTS9Xkle4Ikv80fT78z2iGZHTvv2jYluX+W9BFJ/0d0ngAAUDoEJgAA4HRU1JhH8jMustdK6lSbtJKcpl7JvNwY9/JqMrFH0j9I+ns1TuABAAAl4FECAABwCqGk50p6f1LViJP5uKSfkdRZkse/Rcb8TuG8+yR9RdLLS/TYAQAoLQITAABwPEbSNZLeV00mxoyKz0jmZWrMKilzTX7cyb2vmkQTkm5dqpHh6QIAwNrDlhwAAHC0iyW9ZudV214iV2whCzihiqTrC1dcv/Oqrfvk9AFJ7xRbdgAAWDPoMAEAAN2Sdkj6Wi7/HhndJGkLZVkus1lGNxXOu1fS15Zq2UVdAABobwQmAACU1xMl/a3CZI9x7hbJPYl7g7O9r3JPMs7dEhcdD0r6U0lXUhYAANr2gx0AAJTIZZJulrTPyHxd0mslracsK27QGPerufHulHSnpJvUOIYZAAC0CQITAADWvk41Tnb5ksmLu5a23FxAWVaHka6U080uSh6U9G5JP0pVAABofQQmAACs2XW6rpF0azWJJpzc++T0VD77z+slqUru1caZf5e0R41On63UBQCA1sRNEwAAa8s2STfvvGrb7sIVX5B0vRonuqC1XCijmzzfPSDp8HUKKQsAAK2DY4UBAGh/HUsL7pebTE+V4QuRNuIZmWvk3DXVZOKQpFvV2LZzO6UBAOA8f0hTAgAA2tZjJN2yMBcccMb9g5G5hs/2trZB0huNK74v6TY1jieuUhYAAM4PbqoAAGgv/WqcuHJn7pnvOKMd4pSbNcg9zjh3i28W9ku6RdKTqQkAAKuLwAQAgPbwREnvNkH4oJxuNtKVlKQUepzRDmeK/yfpm5J+TnSdAACwKghMAABoXdvVOEllr5H5uuReLambspSTcfoRZ9y7fLMwrsask2vUOA0JAACcAwx9BQCgtXRKepmkV6gwP9oY4MqaGMeIJV1fuOL6nVdtu1fSeyT9vaQRSgMAwMqhwwQAgNZwhaT/VU2i+41zt0juSXxOYxkuldPNodwuSf8o6cdFwgYAwIqgwwQAgPOnX42ZFK9wTleyzsVZqEjupUZ66c6rtx1QoferMSz2QUoDAMCZ4ZsrAABWl1Fj9sStJgj3tcsA12DDRlWuehRXrx04bZLRTSrMfZK+IOl6SSGFAQDgNO9/KAEAAKtii6Qbd1617Qa54tJ2++Wz0RFd8JfvlNfZpZmP36qZT35E+eQEV7W1eUbmGjl3TXcyMeKkD0t6l6Q7KA0AAMv4IKUEAACcM6Ea3+5/wTfFg0Z6s6RL2/KRFIXG//JPFG3drsFfuUkXf/EbuuAd71H3058teT5XusU5aVjSG70iv13SbZJ2qDFgGAAAnACBCQAAK+8qSX9RTSb2yLlbjcw1a+Ezd+Fr/6bat/9DkmTCUNWnPFWb/vSvtP1Tn1ffq3bI7+tfUxfR71mndT/1QvW9+vVr7OnpHmecu6WaRAfUmHPyGF6yAAA8HIEJAAAro0uNb+1vW/oW/42SNqy1Bzn6x38gOXfM/xZtu0iDv/pbuuQr/6EL3/WP6n76s2WC9tz1GwxtUO/LXqUt7/uILvl/39GGP/gTpXt3rdXn7DpntCP3zHf0UNdJNy9lAACW7gsoAQAAZ+XJkl4eFx0vllzPWn+w9Ttv19y/flbdz3zuw/9Pz1PnE56kzic8Sdn4mGY//THNfOxDsnt2t/RjirZsVc9zn6/upz9b0cXH7pjKRg9p/kufL8HT2D3OON2iMPkLSZ+R9E5JX+TlDQAoMwITAABO36CkGyW90pniEWV78GN//r9UfdozZMITH7wSDAyq78bXqe/G16n+g9s185EPavafP6miXmuJxxBt3a6e5/zUcUOSo01/9ENyeV6my1uRdH3hiusl3SXpHyS9R9I4L3sAQNkQmAAAsDy+pGdLenmeZs+TFJe1EOn+vZr56Ae1/iWvWN4K/MqrVXnz1Rr81d/U7L9+VtMf/kcld/9g1X/v6KJL1PPM554yJDnMZZlmPvrBMj/nHyGnm11k3yrp02p0nXxJkuPtAABQBgQmAACc3HZJr91519aXGuM2U46G8b/5C/Vc+wJ51eqy/x2vu0frX/QSrX/RSx7qOvncp1QsLp6z37Ny5dWq/vjTlh2SHG3+S/+qbGyUi90IB68vXHH9zqu23Svpn9ToOtlLaQAAaxmBCQAADxdJ+ilJO1SYp8rIkwxVOUo+Namp979H/a//pTP69490nfz339b8lz+vmU9/TIvf/PqK/G4dj328up/+HFWf8lSFm7ec8c+Z/tD7udAPd6mR3pwp/x+SvqJG18knJGWUBgCw1hCYAADwkEdLeoNvFq6XU68hJDmpyb9/p9Zdf4OCgcEz/hleV5d6rn2+eq59vuwD92nmUx/TzCc+rHxqavk/xBh1POZxjZDkJ65RuOnsG4GSe3dq8bZvcZFPzDcy18i5azZO7Dog6f1qHFH8IKUBAKwVBCYAgLLrlvQSSTuccY+jHMtXLC5q4p3v0PCb3roiPy+66BIN/spNGvj5X9H8V7+o6Y/8kxa/9e8PO8ZY0rEhyVOfrnDjphV9bNO3foALvFxOm2R0kwrz65L7shpdJ5+SZCkOAKCdEZgAAMrISHqapB0Kk2uNU4WSnJmZj/yTel/6KkVbt63cxYkidT/92ep++rNldz+omY/fqtlPfVT59JQ6fvgJqv74Neq+5pkKhjeck8dUzM9r9tMf4+KePu9w14lvFqbk9BFJ/1vSHZQGANCOCEwAAGUyJOlVO6/a9iq54nLKcfZclmnib/5CG29++zn5+dHW7Y2ukzf8srLJiRXvJDme2X/59DkdRFsSvc5oh1fkOyTzbTW6Tj4gaYHSAADahUcJAABrXCDpeklfyIr8gJxulkRYsoJmP/cp1b7/X+f0zzBxvCphiZzT1D++l4u6skV9nHHulrjo2K/GnJPHUBMAQDsgMAEArFUXS7p548Su3XLuViNzjSSfspyL9bDT+NvftiYeyuJt35J94D6u6bmxzhntyD3zHUm3SdqhxgwhAABaEoEJAGAtCSVdJ+kzufydMrpJTpsoy7m3eNu3tPC1f2v7x8FRwqul0XWiMNmjxpyTR1MTAECrITABAKwFj5V0SzWZGHNOn3AyzxXdJKtu7O03S0XRtr9/NnpI81/6Vy7k6lrvjPkFZ9x3Jd0l6SZJA5QFANAKCEwAAO2qf2lxdadXmG87ox2S1lGW8ye5527NfvZTbfv7T3/0Q3J5zoU8f66Q080usvsk3SrpGjVOtAIA4LwgMAEAtBOztIi61QThPjndbKQrKUvrmPrAeyXn2u73dnmumY9/mAvYGmJJ1xeu+MLOq7btlPQWSRdSFgDAauNYYQBAO+iX9LKdV217tVxxNeVoLV5np3qe/VPqed4L1PHox0qm/ZoC5r/0r8pGDnExW8+lRnpzpvwmSR+X9G5JX5XkKA0A4FwjMAEAtPJn1PMl7TBB+FTRFdlSTBCo68lPUc+1L1D1KU+ViStt/XimP/g+Lmprq8joBsncsPPqbQdU6P1qHFH8IKUBAJzLm1EAAFrJxZJes3F81yskbTSMMGgpHY99vHqufYG6r3mm/PW9a+IxJffu1OJt3+LitgunTTK6SYX5dcl9WdI7JX1SUkpxAAAricAEANAKOiW9TNIrcvk/KkM3SUvdLAwMqvvZz1PPc69T5RFXrb3HNzSsod/4Hc186qNKdt7FBW8fnpG5Rs5d051MjDjpw5LeJekOSgMAWJF7BEoAADiPHi3pDdUk+mnJraccrcPv7VXPc65Tz7XPV+XKtT02xl+3Xr0vv1G9L79RdtcDmvuXz2jmkx9VemAfT4Q24aRhSW/0ivyNkvm2Gl0n/yhpkeoAAM4UgQkAYLVVJd0gaYcz7nGUo3V4lQ5Vn/4sdT/9Oer60SfLRFHpahBtu0j9r/8l9b/2F1X73nc0++mPa/azn1JRY93dPtzjjNMt1ST6X2p0nfyNpO9SFwDA6SIwAQCslmskvcI3C9fJqZtytAhj1PkjT9S6571Q1R9/mrzuHmoiSZ6njsc8Xh2PebwGf+23NP+VL2rm0x/T4rf+vS2PTS6pdc5oh5N2SDrcdfJBSXOUBgCwHAQmAIBzaUDSqyW9snDFI8QA15YRX3Gl1l13vbqf9gwFGzZSkJPwqt3qufb56rn2+bK7H9Tc5z6tmU99TOn+vRSnbTS6ThQmfy7pn9UIT75IXQAAJ0NgAgBYaUbS0yTtcJF9npxiStIiH/oDg+p53gu17nkvUHTxpRTkDERbt7Nlp711SLq+cMX1ku6S9A+S3iNpnNIAAB5270QJAAArZIukN+y8atsNcsWFlKM1eJ2d6nn2T6nneS9Qx6MfK3kcQLQyhT16y86bNP+VL7Blp/08Qk43u8i+VdKn1eg6+ZIkLiAAQBKBCQDg7ISSrpO0wzfFUyWOA24FJgjU9eSnqOfaF6j6lKfKxBWKcg551SpbdtpbrKWuk51XbbtXjY6Tv5c0QmkAoNwITAAAZ+JiSa+pJhOvkLTRMJukJXQ89vHqufYF6r7mmfLX91KQ84AtO23vUjndHMr9oZO+okbXySckZZQGAMqHwAQAsFydkl4m6RW5/CeKlKS1Fupbtiq+/Erl42Oa+/znFAwOye/tUzAwKL9/QF5HJ0VaTUdt2Rn4pV/X7Oc+rdlPflT1u+6gNu3BNzLXyLlrNo7v2i/pHyX9raRdlAYAysM49tkCQFvaecUVcpGVcZLnnJykuYpVl41lnOQrU+58zVf6VbWTcq6Qyz15npOM5ORkZOSHgfIsk5zkGU+FK6Q0Pvpn/5CTXu+MflrSeirfxivAnnUKhobl9fQoGBhSMDQsv2ed/MEhBYPDCgYHFQwOy+/rl/F9CnYOpAcPaO5fPq3pj3xQ6b49FKS9FE7uy8Z475yP+j5ZrU+kuXz5ppAz0kKUqLseSTJynpMrpMqClFSdPOPr0tsf0M6rtykwvi7+3n1UEwDaAB0mAIDj6Zb0Ekk7CqPHUY61IZ+dUT47c8p/zsQVBf39CgaG5Pf3y+8fUNA/KL+vX8HAYKNrZal7xevuobCnIdy4SX03vk69r3yN5r/8eU2+9xbVb/8ehWkP3uGuk2oycUiNE3beLYn0AwDWKAITAMDRrpG0Q2HyXOPUQTnKySV1pQf2Kz2wf1n/vIkrCgaHFAwNNbpYDnevLHWu+D09jf9/eKNMGK79+mWZskMHlO7bq2xsVNnYSOOvoyPKxkeVjY4qGxuVS+o82drXBhnd5Cu/STLfVmPWyT9KYlgNAKwhBCYAgEFJN0r62cIVV1AOnHZAkNSV7ttzyi0mJgjk9w0o6B+QPzCooK9PwdAG9b/+l9omSCnqNWWHDiobH2v8dWxU2eihRhgyNqpspPG/uTTliVGeV8DjjNMt1SR6m6RbJf21JNqGAGANIDABgPJ6oqRX52n2M5K6KAfO+bIyy5bChUPH/O8mjtX/2l88r79bMT+nbOSQsrFR2X17lDd3hIyPKp+aJAjByax3Rjsk9xo1Tth5txon7NBKBABtisAEAMplq6TXS7rByFxIOdAKJt711+p57nUKL1j5p6TLc2UH9y9tjRk9sjUm3beH7TE4V4ycnmqMnppUNSfpk5LeJ+lLkjhtAQDa6Q2dU3IAoD2dxik5YdVOXudcscPIPFWSR/XQarqf/ixt+tO/XvGfe+DX3qC5z/8LBUYruFtGfx8Y/70Xf+++UcoBAK2PwAQA2tQyApOLc+e/RkavkLSRiqHVbf6r96jrx566Yj8vPbBfDzzrKVKRU9xzJClyhcaXZ6jFabBG7vPOeO872L/1ExvHdmW+yZUrOOZ44sIrJOfJGMkkkVyUyqmQkSRnJL9xdLHnPM1VHv7v+EGgPM3knNGhwa3aOLZbuYw8k8sYKS+q8rUgE2RyeSCluRT5ygvJM1JQD5R2pvKckQonGaPcNY4bv/IODgYCUA58ywgAa0unpB2Sbsvl3yejm0RYgjYxcvPvySXJiv28mY9/iLDkHMid07hNdX+tpl21um7du0ffmJjQtLUUZ3kiJ/NcOXfrxolduyXdLOliygIArYfABADWhh+SdEs1ifYb526R3OMoCdpNune3Jt97y4r8LJemmvnYhynqCprPc+1NEt2zuKiR1KpeFJIkWxS6d25Onz5wQJ89eED3zs0pL+hgXt4TVZtkdFMu/15JX1Mj8O6kMADQGghMAKB9dS/dXN9WGP1X43QGracsaGcT7/4bpfv3nv3i/ov/R9n4GAU9S7mTxm2q+2o17a7XNZtlKk52/RKrb0xM6CP79uobExOapOtkuYzknmScu6WaRAck3SKJ4BsAzjNOyQFQKj945Fb5npFxjdtTGaPLbt+lex65Xb7vKc9zZfLkGyfjp3J5oEC+Mpfr8jt3aecjt0rGqMiNPM9JxknOyciTlwTKOjJdcfsu3Xv1RSpcoa7uTAtzoSSnIvfkeYXmj5ozkjtPvnLNV/pVtZNyrpDLPXme0+V3PvRz/HqgrCOXcU6e8a4pXLFDoa41ThWuKtYSl9Q1+rbf1wV/+c6z+jlTH3o/xTwL83muqSzTXJad9FiXE40uOdx1cu/cnPrjSJdVu7W9WlVgGHayDOuc0Q7jvB1O+oEaJ+y8R9I4pQGA1UWHCQC0hx41ukn+o3DFFyRdLxGWYI0u1r/yBc3/25fP+N9P7rlbte/8J4U8TdnSbJKju0lWYmPNka6TPY2ukwm6TpbNSFfK6WYXJQ9KerekJ1IVAFg9dJgAQEvfK+tpknbklex5ximmJCiL0bf9nrqe8CSZ+PSf9tO3foACnobldpOcrdQdr+ukS4Hh+7tlfBxUJfdqI/Nqye2T9AE1tu08SG0A4NwhMAGA1rNV0ut3XrX1pXLFZsqxfF5np4INmxQMDSsc3qBgw0YFg8Pye/vk96yT11WV19390F8rHcv+2UW9pmJ+XsX83JG/5rMzymemlY2OKDt4QNnoIaWjI8oOHVCxsMAFOZvF9dIA2P7XvfG0/r1ifl6zn/k4BTyFzDlNp5mmskzWFWf8c840YJlIrL6RTOi2ySlt6erURV1d2tjRwYVZFrNZRjepML8uuS9Ler+kj0papDYAsLIITACgNYSSrpO0w/PdUyV5J54OUPKlQhQpvuRyRRddrGjLNoUXblW4ZauiC7fK7+07Z3+uV+loBCwDg8v65/OpKaV7d8vu26107x7ZPbtk779XyX33yiV1LuRyFtXv/hv1PPc6hZu3LPvfmf3Mx1Ussm48kYe6SXI5nf+TbFJX6P75ed0/P6/1YaiLqlVd1t2tyKPrZDlvS0bmGmfcNdUk+gtJt0p6p6RvUxoAWBkEJgBwfl0i6eeqycQrJW0whCTHMHFFHVc/WpVH/ZDiyx+h+LJHKNp+sYzvt/zv7vf2yu/tVeVRP3Ts/1Hksg8+oOSeu1W/+weq3/E91b//XRX1Ghe8iUvqGv1fv68L/vJdy/wXHMNeTxBKTGaZZtJc6Vl0k5xr02mq70xN6XvT09rc2anLqlW6TpZv/XEGxf6dJI6KAoCzQGACAKuvU9LLJO3wTc6xkUfxOjvV+cNPUMdjf1gdj/1hVR75KJkwXGMP0ld08aWKLr5U3c+6trHOzzLVf3C7at+5TbXv/IcW//ObKubneUJImv/KFzX/b19W9SlPPeU/u3jbt2QfuI+iNZ5Vms0a3SQLRS7n2uc3z53T7oUF7V5Y0Low1MXVqi7trir2fC7rMhweFJun2VslfVqNLTv/IimjOgBweghMAGD1XCrp1dUkeqXkNlAOSZ6njh96rKpPeZo6n/AkVa64UirhosgEgToe9Rh1POox0s++RioK1e++U4vf/LoWvvE11f7zm3J5XtqnyXIHwE5/+B9L/5JKndNklmomy5QWq5CSnOOmuJnjdJ1s6OigF295YknXG+Ou3zi+617JvE+NzpM9lAYAlofABADOrQ5JL5T0c55f/JgYTCJJirZuV89zr1PPc35K4YVbKUgzz1PlyqtVufJq9d34OqUH9mn2nz+p2c99Wvb+e8sXAuzdrcm/+1v1v/6XTvjPZKOHNP/F/1PSJ8xR3SR5LrcGH+HRXSc9YahLqlVdUq2q4tN1skyXyrjf9+Xe6qQvS/p7SR+RxBnPAHASBCYAsPKOHAe8MBdcK7kKJWlst+l53gu17nkvVOXqR1OQ0xBu2qz+Hb+g/h2/oOSuOzXz6Y9p5pMfVTE/V5oaTLznb9Vz7fNPOAB25uO3lq4LxxZOU3mq6TRT5lxpHvfsUtfJd6endSFdJ6f9VmxkrpHTNb6Z/3M58x5J/1vSfkoDAMe5qXcl+oAFgB88cqt8z8g4NWINY3TZ7bt0zyO3y/c95XmuTJ5842T8VC4PFMhX5nJdfucu7XzkVskYFbmR5znJOMk5GXnykqAn68heYpz7Ock8nmo3xJderr5XvVbdT3/2KbdUYPmctZr7189q8h/epWTnXaV4zNWfuOa4A2BdlumBZzxZ2ejI2r/ucpproW6SwEjfGj3/c0W7g1AXVbt0SbWqroDvA0/TgqT3KM3fpsg/kBeSZ6SgHijtTOU5IxVOMka5a3T0XHkHs4IAlAOfKABw9p4k6efySna9cepi101DtO0iDfz8r6j76c+WOCJ0xZkoUs+1z1fPc6/T/Jc/r/F3/JmS++5Z04/5RANg57/yhTUflpS1m2S55rJU35ue1u0z0xqudOiyalVbOjtlDO/Hy9Al6Y0K/ddIukXS2yQdoiwAQGACAGdqq6TXS3qpjLeZ5ctDwo2b1P+GX1bPtS9oi+N/254xqj7tGar+xE9q9nOf1vhfvV3pvrU703H05rc+bADs9Ic/sCYfa6t1k7SDwkkHazUdrNXUGfi6qKuqy7u76TpZng45/bJv9Fon/S9JfyQpoSwAyoyv/ADgNJamkp4q6cOe7+6R0U2S2UxZlooThhp4wy9r+2e+rHXXXU9Ysuqf6J56nnudtn/mSxr8lZtkomhNPsx03x5N/t3fHvnvyX33aPFbX19TjzFxTges1d2LNe1NEs0TlpyRxSzXHTMz+vi+ffrCyIh2LyyIrejL0mGkN+eV7D8kPZZyACj17RUlAIBTulDSzTuv2rZXxnxJ0k9LiijLQ6LtF+vCv/+w+l//S8wpOc9MEKjvxtdpy/s/qvjSy9fkY5x4z98e6aKZ+diH1sRjKpw0laa6v1bTfYuLmkpTFSzuV4RTo+vk38bG9NF9+/SdqSnNZxmFObVHeYW+JekmSgGgrAhMAODELpD055nyuxvdJLqAkjzcup96obZ95LPqeNRjKEYLqVx5tbZ+6NNa98KfWXsL4KSu0bf9noraomY++dG2fixJUeiAtbqntqgD1qpeFDx5z6Fa3ug6+cRRXScEUydjAjndLOn3qAWAMmJDJwA83BZJN7k8eLUk2iVOYuANv6z+171RYrBiay51okgb3nKzoq0XaeztN0traGE4/9UvaeQtb2rLo5ULJ81kqSazjIDkPDncdXKwVlOH7+vialWXdnerm1knJ3gzMb8jaULSX1AMAGXCpwIAPGRI0u/7pniVpJBynKJYv/E76n35jRSiDfS9aoe8jg6N/OHvrqnHNfu5T7XV71svCk1mmWazTDldDS3jcNfJnTMzGoxjXVytantXVYFHENzkjyV9dunvOVcYQCkQmABAY5jrz2VF/gcyGqIcp9b70p8lLGkz61/8cmUjhzTx7r+mGKuokNNMmq3hbpK1Eyo4SaNJotEk0benprS1q0uP6O7W+oiRVUtC3+S/uvT3b6AcAEqxSGBaOIAy+cEjt8r3jIxbus835grn9HeSfpTqLE/lqkdpyz9+nFNw2nL1Xmjvq2/Q4m3fohbnWD0vNJlnmk0zreUzbgJj9K3R0TV9LfvjSJdVu3VRV1U+XSd3SdLltz94Ja9yAGVAYAKgVJoCk+c7mfdL6qIyy/zQ8H1t/dCnFV/BvXK7sg/er13XP0cuSSjGClv73SQPV4bA5LDI87S1q0uXd3err6RdJ4XcgiQ94vZdVV7xAErxOUcJAJTUzzuZv5BEm8RpqD7tGYQl7b7o236xep71PM188iMUY4XM57lmskyzWa5CfBG1Vtmi0L1zc7p3bu5I18n2alVBiYZe17Kig2cCgDLhWGEAZfRqZ8w7RFhy2ta96CUUYU1cxxdThLOUO6dxm+r+Wk2763VNZ1kpw5KyblBZyHLNppnqeV6qxz2RpdlElma8AwAoCzpMAJTNIyXzl5ThDHieOh//I9RhDeh41GPkr1uvfGaaYpym+TzXVJZpPsvEgcAlews0Rhd2duqyalUbOjpKFxZlzmkitYQlAEqFwARAydb83u9L6qQSZ/CBMTgkE3La8ppgjKKt21X7/n9Ri2WazjJNpplqRU4xSqY7CHRpd7curlbVUdJh185J99UWlTP8EEDZ7n8pAYBSrROl51GFM+Ov76UIa+m10MEogtNbNPtyzkmZU62gt+TohfRaVPZukmYHbaL5jOYSAOVDYAKgdOt+SnBmspFDFGENyacmKcJpvXEY9YahesNQ9aLQZJZpJs0Y8rrGrI8iPaK7W1u7uhR5jPqTpANJXQc4VQtASRGYAACWt8CenlI+PUWnyRrgkrrsg/dTiDNU8TxtiiJtiELNZo0TcuZztuq0K98zuqirqsuq3eqPIwpyFMISAGVHYAKgXAtFqfSt1Wdj9rOfUu9Lf5ZCtPt1/Nyn5dKUQpwlT0brg0Drg0D1otBMnmkqzZQz5qEt9EWRLqeb5Lhy57SrXtMU7xMASo7ABECpTGepegMGl56pmU/cqt4bXikZYqe2vo4fv5UirLCK56niRRoMI81nWeMkHbpOWu/G1xhtr9JNcjKLea77azUlDDgGAAITAOVyIEnU6wcs+M9QsvMuTX/sQ1r/opdQjDY1+9lPqvbdb1OIc8ST1BME6gkCJUWh6TzTlM2UM+vkvOqLI11e7da2apdCQzfJ8Tg5HUysDthk7U7zBYDTRGACoFRqea69SaILKxWKcYbG/vR/qvr//YSC4Q0Uo83kkxMavfn3KMQqiT1Pw16koTDSHF0nqy40nrZVu+gmWYbFIteuxZoW6SoBgGMQmAAonRGbqMP3NRCyNedMFPPzOvDrv6jN73yfvApH07YLZ60O/MYvKZ+eohirzOihrhPrCk1lmabTTNka+Ba/FXv1NnZ06LJqVZs7O+XTTXhSmXM6kCQaSxOaSgDgOAhMAJTS7tqicteh4YhvHc9E7b9u0/6ff7U2//V7ZeKYgrQ4Z632/8Krtfitr1OM8ywynobDSENhqPk813SWay7PWKyepdjzdGl3ty6uVrWOMHxZJlKrvfX6mgjuAOBcITABUM4FpKS99ZpsUejCOGamyRlY/I9vaN/P36hNf/wO+b0cNdyqirlZHbjpl7Xwja9RjBZiZNTtB+r2A6Uu1EyaazLLlLqC4iy7htIGuklO23yWaW9S1wLbwwDglAhMAJTaiE00l2e6uKNTMcdKnrbFb/27dr3oWdr0Z3+tjkc/loK0mPod39f+X36tspFDFKOFhcbTQOSpPwq1kOeayjLNZrnEoNjjqvi+LqlWdUm1qh66SZb/fl3k2levazbLKAYALBOBCQBuIvNcdy0uaFtc0Xpuvk9bNjqiva++Qf2v/UX1veq1MgEfLeddkWvy/X+niXe8XUW9Rj3ahJFU9X1VfV9Z5DSdZprKU9midYMTZ1avNnSTnJmkKHQwqWs8yzj9BgBO9/PH8cYJoEQ+sLXvpG963X6grR0dqtBtckbiK67UhrfcrMojr6YY52txdM/dOvTmm1S/4/sUYw1w0pGuk7ksl2uxrpPAGH1rdPSc/fyuINAl1aouqnapOyDQPh2Lea79SaLZLF3JZ828JL1092Q3FQZQBnwNCABHmcsz3TU/r02VWENRJCO+xTytxfrdP9DuFz9PnU94koZ+7U2Kr7iSoqxW7e+5W+P/+080/29f5lvkNeS4XSdZKruGr7FnpAs7u3RZtarhSoc83oZPS22po2QqS3krAICz/RymwwRAmZyqw+Rokedpc1xRH9t0zuwDxvfVc92L1Peq1yraup2CnCPpvj2a/Id3a+ZjH5JLUwpSAoe7TmayTLN5pvO5Y2clO0y6gkCXd3froq6qOgOfC32aFvJch5K6prPsXPYh0WECoFz3swQmAMrkdAKTwzp9X5vjinqYzXHGKlderXXXv0Trrn2+TFyhIGe7YM4yzf3LZzT1j+9V/Qe3U5ASK5zTTJZpIsuUFKt/wk5gpG+Njp35jagx2tLZqcuqVW3o6KCn7wxMZ5kO2UTzqzPMlcAEQKkQmAAolTMJTA7r8H1timL10nFy5ouroWH1PPt56nnu8xVf/ggKcpqS++7R3Gc/pZl//oSyQwcpCI5RLwpNZpmmV3ErxpkGJt1BoEu7u3VxtaoOn26S01U4aTxNNGLtagdlBCYASoXABECpnE1gcvSN/sY4Vo9Px8nZiC+5TD3PvU7VH79G0cWXUpATsLse0PxXv6TZf/6Ekp13URCcUu6cZrNMk1mm+jleTJ9OYOIZowvpJjm7ayuncWs1Yq3seegoEoEJgJIhMAFQKisRmBxZ8Hu+hqNQA2HMUMKzFG66QF1P/nF1Pfkp6vxvT5TX1VXaWhS1RS3+xze18LWvauFr/6Z03x6eIDhjh7tOZtJMxTmYbBEa6ZunCEzWhaEu6+7W9q4uVegmOSO1otBIkmgiTc/3SUkEJgBKhcAEQKmsZGDy0ILB02AUaiiKFBiOI16Rmm7eoo7HPl4dj3m8up7wJIWbt6zZx5ru36vad25T7Tv/qYVvfp2ABOdELqfZNNNknqmer1xnwokCE98zuqirqsuq3eqPIy7AGZrNMo1Yu9JHA58NAhMApUJgAqBUzkVgcuQNVUb9YajhOFaHR3CyksILLlR8+SMa/7nsClWuuFLhBRdKpr1ae9L9e5XsvKvxn3vuVv3uHyjdv5djgLGq6kWhqSzTdJapOMvnXnNg0htFuqK7W1u7uhTxPnhGnJwm01QjidVikbfar0dgAqBUCEwAlMq5DEyOvLFK6glCDUcRJ+ucQ16lQ+G27Yq2ble0bbuibRcrvHCLgqENCvoHZKLV/1bbWat8ckLp6CGl+/bIPviA7K4HZHc/qHTXgypqi1w4tIxC0nyWaSrLNJ+f2cI8NNJtY+PaXqWb5GzlzmnEJhqzVmnr3p8TmAAoFQITAKWyGoHJ0To9X8NxpP4gbLtuiHbnr1uvYHBIfv+g/HXr5Pesk1etyqv2LP21W15HR+PDMIyO/P0xC8p6Xc4mjb+v1VQszKuYm1OxMKdibk757EzjP+NjyibGlE9NUXi0pcWi0HSaaibLlz3rJPY8rfN9dfs+s0nOgnWFRhKrcWuVq+XvywlMAJQKX30CwDldhOR6sFbTfi/RUBhpIIoUEJysinxmWvnMtHTfPRQDK8LEsaJtF0l5rmSNPa86PU+dcayNsTR3kq4TT0brwkB9QaAKW27Oynye62CStNJ8EgBAEwITAFgFtii0L6nrkLUajEINRpEiBsQCrcfzFV90saKLLlG4eYviSy5TdHHj7/2edSoWFrTrhc9asw+/saUwUE8QKCkKTeeZptNMFc9TbxCoGgTinevszGSZRmyi2SyjGADQ4ghMAGAVZa7QwSTRwSRRTxBoMIy0PgjZrQOs9g1Q/4CiSy9XtHmLoksuU3zxpQo3X6hgwyaZk8weGnv7zY1BvSUQe56GvUhDYSgj3qTORuGk8TTRiLVKioKCAEC73C9QAgA4P2azTLNZptjzNBhGGowi+SQnwIoxvq9o+4m7RU7Xwte+qulbP1C+OhKWnDFbFBqxbTOfBADQhMAEAM6z5Mh2nUQDUajBMFbMbABg+TczA4OKLrnstLtFTkc+O6NDb/4tjoDGstSLQodsosnUqlhbTxleAADKdY9BCQCgNWTO6VBidSixqvqBhqNIvUHA6TqAJBNFii+5XOHmC1ekW+R0jb7t95SNHuJC4CRJgtNkmmrEWi2e4THNAIDWQmACAC1oPs80X8sUGqPBKNJQFClgSCzKcGOyCt0ip2vu8/+i2U9/nIuD48pcoVFrNWatUjqQAGBt3ZdQAgBoXalzOpAkOphYrQ8DbYhidfk+hUFbM3Gs+OLLzlu3yGkthifGNfIHv81Fw8PU8lwj1moiTeXYqQIAaxKBCQC0ASenqTTVVJqq0/c1HEXq4+QKtPpNxuCQoosvbalukdM18tY3KZ+a4mJi6c3YaSrLNGKt5nOOBQaANX8vQwkAoL0s5rkerNW0r15XfxRpKIwUMSQW58nR3SKNTpFLj3SOtFq3yOma/edPav4rX+AiQ7lzGrNWYynHAgNAmRCYAECbSp3ToSTRqE3UH0QajCN1emzXwTm6YThRt8jGC2TW4Dax7NBBjfzh73LhS866QqNJIyjJmU8CAOW7/6EEANDeCieNpY0b+k7P11AUqS+M5LFbB6dpLXeLnBbndPB3fl3F/BxPipKayRqn3cxmbLsBgDIjMAGANWSxyLWrXtPepK7eMNRwFKuD7Tpo/vAfGlZ00SWl6RY5XdMf+SctfvPrPFFKpnDSeJpoxKZKCo4FBgAQmADAmpQ7p3FrNW6teoJAg2Gk3iCQDG0nZWHiypEgpNTdIqfJ7t6lsT/5nxSiTNe8KDSy9H6Zc9oNAOAoBCYAsMbNZplms0yRZzQQNobEBnSdrBnh5i0KN19It8hKKHId+h//XUVtkVqU5L2xse0mJSYBABwXgQkAlIQtnA4kiQ4mVuvDRtdJT8DHQDugW2R1TL7v71T77rcpxBpWOGkytRq1VotsuwEAnAJ3ygBQMk5OU2mqqTRVp+9rKGRIbKugW+T8Se7dqfH//ScUYo2yrtCotRpPU2UcCwwAWCYCEwAoscU8166cIbHnm4kr6nv5jep79evlVasUZLUVuUbe8lty1lKLNebItps8FacCAwBO+x7N8ekBoEQ+sLWPN72TfShI6l4aErs+CJkRu9r1jyJVf/warb/+BnU+4UkUZJVM/M1faPyv/5xCrBGFpElrNZpaLeZsu1lhc5L00t2TPZQCQCnuzQhMAJQJgcnyxZ6nwTDSQBQqMHSdrLbKlVdr3fUvUc9zfkpeRycFOUfqd3xfe172AjkW1m3PFk6jaaJxa5Vxf3uu7JWkl+6e3EIpAJQBgQmAUiEwOYMPChmtDwMNR7GqzNFYdV61Wz3PfK56X/YqRRdfSkFWkEvq2vXT18o+cB/FaGMLea5DNtF0mslx3s259nlJeunuyWdQCgBlwAwTAMDJF5UMiT2vivk5TX/0g5r+2IfU+SNP1Prrb1D1ac9gCOwKGH/HnxGWtO0bk9NElmrEsu1mNRnnPkgVAJTsfY8kHkB50GGyMgJj1B9GGooixQyJXf36Dw2r57nPV+8Nr1QwvIGCnIHF276lva++QeLElLaSOadRm2jMWqXcw64yNxIV1e2SdP3evTXqAaAMCEwAlAqByQp/iIghsee1/mGo6k/8ZGNI7I88UVyA5SkWFrTrhc9Sun8vxWgTtTzXiLWaSFO23ZwfufPcNXFW/aokXb+X1w6AcmBLDgDgjDk1ju2czTKGxJ6P+qep5j7/Oc19/nOKtl+s9T/zMq17/k/L62RI7MmMvf1mwpJ2eH47aXpp2818nlGQ8/te/yeSvkolAJQNHSYASoUOk1X4YGFI7HnldXWp51nP0/obXqn40sspSJOFr31V+95wY2M1jpaUO6cxazWWWiVsmWoFf+yk35DnFGdVSXSYACjRfS2BCYAyITBZXQyJPb8qV16t3pe9St3PulYmoKk0n5nWrhc8U9noCE+OFlQrCo3YRFM2Vc62m1Zxy317pt4g6Zjk6s2sHwCUBIEJgFIhMDk/Is9oIIw0GMUKmbOx6oKBQfU874Va/+KXK9y4qbR1OPimX9XsZz7BE6LFzOeZRqzVVJbR+dM6Fo3RDuf0gfv2TD3s/yQwAVAWBCYASuUDW/vukPRIKnGePnTUGBI7HEVaF4QUZLV5nqo/9hPqfemrSjckdu7z/6IDv/YGngMtonDSeJpoNLWq52y7aTG75ZkXG+e+6ZxEYAKg1PeuBCYAyuSftvZf7+RupRLnX+z5GgxDDUSRArpOVl20dbvWveCnte6FL5a/bv2afqzZxLh2Pf/pyqemuPDnWb0odIhtN63s/VGgX7SFmTHOicAEQNkRmAAo2bueMR/Ysv5WybyIYrQGT1JfGGkojtTpMSR21V8ScazuZzxHfS9/teIrrlyTj3H/G3do/itf4GKfRzNLp93MZRkxSWsaNzJvcHIfiQLJFkYEJgBAYAKgdO96Rh8ZHKwmndnXjdOjKEhrYUjs+VW58mqtu/4lWnft82Xiypp4TLOf+YQOvulXubjnAdtu2uMySXpXVORvSr1g0smJwAQAjlo6EJgAKNe7ntFHBge10JWuD5z5pHF6CkVpPaHx1B+FGooiRcajIKvM7+vXuuuu1/qfvkHhBRe27eNIDx7Qrhc8U8X8HBd1FSVFoVFrNW4t225amvui84NfMHm+MypypV4gAhMAOBZ3oQDKanox7Xi2pE9RihZc6LpCh5JEt8/N6Z7FBc1kKUVZRfnkhCb/7m/1wLN/XHtf8zLNff5zUpG32VrQ6dDv/gZhySqayVLds7igO+bnNGITwpLWtVvSy+/bM/0MSTspBwCcWEAJAJTYoqTrjMyOQu4vjRRTkhZb80qazTLNZpk6PV9DEdt1VlVRaPGbX9fiN7+u8MKtWv+iF2vd839Gfm9vy//q07d+QIvf/DrX8Jy/Rp0m01SjNtVCnlGQ1nbIyLx5fnDyvV1jvaTQALAMdJgAgPROIz1N0i5K0boWi1y76jV9d25Gu2o1LbZbx0ObS/fu1tjb36b7r3mCDvzaz6v2X7e17O9qd+/S2J/+ERftXNa4KLS3Xtd35+b0YK1GWNLa5iX9Ueq5R0h6pyTCEgBYJjpMAKDh6wuDU5dVx3p/1UlvkVShJK2pkDSeWo2nliGx54GzVnOf/5zmPv+5I0Nie557nbxKR4s8QXId+h//XUVtkYt1DnDaTVuZMtLb6h3+X8e1/IR70x6/br0O9m/Vxonduvz2B7Xz6m1yTiqKQoExevxVPcpdVVGSUFEApUNgAgAPSSW9rXD6rGf0V5J+jJK0tsU81668pv1J0hgSG0aKPJonV0v9B7er/tbbNfanf6SeZz5XvS97laKLLz2vv9PkP7xHte9+m4uzgo6cdmOt6gWn3bQ6z0i9QXj/cBT9UdE5/L6uZCI1sZMKT85IRX2j/HULeuwjeuX5xF4AcNL3VEoAAA9zh6SnGOeuk3QX5Wh9R4bEzjMk9rwsqOfnNP3RD+rB5z/jyJBYl6/+lqnk3p0af8efckFWyOFtN9+bn9Weep2wpMUFxmhDHOtRXd3a3tF5cacfvLtan7hHja7J7VQIAE4fgQkAnNinLtgz9SjJ7JB0gHK0vsNDYu9dXNTt8/M6lCTKOP5yFS+A0+I3v64Dv/bzeuDpT9LY29+mbPTQ6vzRWaaDv/1rctZyHc7SQ6+hpdNueA21tMjztDnu0NXd3docVxQc3WVntM1Ib1ZhHpB0m6QdkqpUDQCWh8AEAE4uk/SuhcGpbU7ulU66n5K0h6TItS+p6/a5Oe2p1VTj2/HVfeGMjjSOJn7mj+nAr/38OT+xZuKd71By150U/gwdPu3mroX5I11axCStrcv3dWlnp66udmtDHMnXqQY5uccZ527xzcIuSW+XdClVBICTIzABgOVJJb0vLrqultyvSDpESdpDLqfR1OrO+Tn9YGFe49aqYCW4egvxNNXc5z+nva95mR583jWa+sDfq1hc2YGs9Tu+r8l3voNinwFbFNqX1PW9+Xk9UFvUQs7pU62u2w90aWeXHtFV1bog1BnMu+6X0y97fnGPpK9Jul7MNQSA4yIwAVA614+N6Wd3TUuSHtfTq8dXBo78fzfsmZIkXXDRo0/0r9ck/XnqrdtuZF4r6W4q2j4W88bRxN+fn9Xeel0JXSeruzh/8H6N3vxW3f+0H9HIW9+k5N6dZ/0zXVJvbMVhoX9a5vNc99eO2rrGa6GlGRn1haGu7Krq8q4urQtWKt9wT5Jzt26a2PVdNYIT1gYAcPT7r2NfKoBSves99F3c3Y/cJhlPng3kIitPTpfesVt3P3KbDg1u06ax3XLGyTiv8VcbykWpDg40jl90rlDh8r7JzP3uZGpvnMuybgrcbosQqTsINBhGWh+ERz89sEoqV16t3pe9St3PulbmDBaBY3/yPzX5D++ikMtaGztNLB0LvEjA1BYC42koijQYhQrNqmQZt8vod5zTpw4fK+yMHnas8CX33svFAVCO92FKAABn9N75fEk7fBP8xGAofzAMlRS5Rmyq8TRhy0e7rB/VGHA5m2WKPU+DYaSBKFRg+JJ1tdR/cLsOvulXNfZnf6Se571Q61/8coUbNy3r31287VuafP97KOIpZM5p1CYas1YpX5S1hQ7P03Acqz8MZbSqSe7VcvqkpP8r6Q2SGAwEoNToMAFQsne9s+owGXBR+iqjYoeTueREf0TqCo3ZVKPWKnO0ubfdU0RG68NAw1Gsqu9TkNXm+ar+2I+r96WvUuePPFEnavspFha064XPUrp/LzU7gXrROG57MrXinag9rAtCDUeReoKW+E6zZpz7dWf0V3SYACgrOkwA4NSeLOl1LrIvkhS7U3zbFxpPm+JYG+NIE2mqkSThhJY24uQ0laaaSlN1+r6Gwkh9YSSP7Tqro8g1/9Uvaf6rX1K0dbvWveCnte6FL5a/bv0x/9jYn/0RYckJzCxtu5nNMorRBg7PJxmOI3V6LRXSdjhj3iG5H5L085I4sxtA+d6j6TABUK53vWV3mASbxnbf4Iz7NUmPOrsFuDTLAqat+caoNww1HMXq8Nius+ov2zhW9zOeo76Xv1rxFVdq4Wtf1b433ChxD3NE4aTxNNGITZUUzCdpl/eV4SjWYBQpbPEBSkb6glcPrpWUSHSYACjRPQiBCYByveudMjAxdz9y24s9T7/tnB650n/8XJZp1FpN5RmLvXZ8+uihIbG9QSCmxK7+67fzR54ou+sBZYcOUg9J1hUaSazGU6uc95S2EBqjoSjWUBTJb6/3kFvkitdJ0uV37OZCAijHrQeBCYCyLbgOO05g8pxC5o8lPeJc/xqpKzSxNOfEMuekLUWe0UAYaSiMFNB1glU2m2VLXWupuJNrD1Xf18Y4Vk8Qqm2jVlc8WZIuv2P317miAMqAGSYAIA1Iekch8zOr9QeGxtOGONZwHLNdp03ZwulAkuhgYrU+bHSdtMigRqxRhaRJazWacixw2zBG/UuDXDvXwBBpZ7xfWPpbAhMApcCdHYCye66L7LskbTgv99JqnIqwLgi1kOcasYmm0kyO74zbZwFx1JDYqu9rKIrVGwarfRQo1rDcOY3ZVGNpooQB0m3BM1JfGK25uUfG6QlcXQBlQmACoKyMpLcYFb/bKr9Ql+/roo5O5RWn8dRq1FoWR21mPs81X1uUXzPqjUJtiGJV2K6DM1QrCo0kiSbSlBC1TXR4noajWL1RKH8NhqaZ3AauMoBSLRiYYQKgXO96RpK8nVdte5ekG1v5V3VqDIkdsVYzWcq1a1NVP9BwxJBYLB/HArefdUvbbrqDYE33ls1maS5JP3zXPr50BVAKvNkBKJV7r75IhYo/kmvtsERqtMD0BIF6gkBJkWssTTVurTKC7rYyn2ear2UKjVF/1BgSG9F1giZOTpNpqpHEapFjgduCZxqDn4ejULHnl+Ixj6UpKR6AUiEwAVA218jp19vtl449X5vjxgkLUzbViE1UY7tOW0md06Ek0QhDYnGU3DmN2ERj1iolDG0LFc/ThjW87eZEanmu6Yy2JwDlwp0agFIpXPE/pfa9w/VlNBBFGogizWaZxlKr6SwV66z2cfSQ2IrnaSiKNBBG8tiuUyr1otAhm2gyTVXwAm4LZdl2czy5nO6r1cRWfgBlQ2ACoGx+eK08kMPbdepFoRHbGAzJwqv9Fs176nUdSKwGopDtOiWwWOQaSawmGeTaFoyMesNAw1GsLt8vZQ2cnB5crClhqxiAEiIwAYA2V/E8ba106MJKhyZTq1FmILSdzBU6lCQ6lCTqCRrbddYHITNi18yK02liaZDrYs5rsx1ExtNw3Oj+8kv8QnRyemCxpmkGjwMoKQITAFgjPEkDYeMGfzHPNZpaTaZWBV9it5XZLNNslin2PA2GkQajci/Y2lnmnMat1VjKEeHtoidonGrVE4Qq+6sud0731xY5rQlAqRGYACiVwkleCe6CO31f2/wOXRDHmrCpRlMry4KtrSRFoX1JXQdsor4w1HAYqaOkWwLajXWFRhKrcWuVs+2m5XlG6gsjDUWROj1eY1JjwOt9NbbhAACBCYBSGUsTDUdxaR5vaDxtiGMNx7Hmskwj1mqG1uq2Uix1KUxYq56loZOcrtOa6kWhkSTRRGpFPNn6Is/TUBipPwoVGmYHHTZurfYkdWZiAYAITACUzKEkKeWedKOHhsQmRa6xNNWYtcq5IW4bTtJMlmomS49s1xmIIgVs1znvZrJUBxOr+ZytC+2g6vsajmKtDwMZ8fo5LHVOu2uLmmYLDgAcQWACoHQ3hPfXFnVZR6fKOlEz9nxtjn1tiisMiW1TR7brJHX1hZGGI7brnA9TaaqDNmGQaxvwJPVFkYbCSJ28Vh5m3FrtTeqE6ADQhMAEQOnMZpl2JXVtjTtKfQrJcYfEWrYStJNC0nhqNZ5aVf3GsMreIBDH65xDSyfeHLJWNYKSlhd5RkNhTDfWCSwWufbUaprnuQwAx0VgAqCUxpe2o1zU0UFLth4aErs5rmjcWo1aK+uITtrJfJ5pvpap4h+eyxDJ57m9cpzTxFJHSZ0Byi2vy/e1gW03J5Q7p/1JorE0EU0lAHBiBCYASmsqTXVv4bS9s1Mh3zw2PhSMOTIkdjZLNWItR0q2mXpeaE9e1/56ov4w1FAUq+Iz0PKMOafxpaCEo4Fbm5FpnCgVse3mRAonjdhEIzZRRlICAKe+N6YEAMpsNs90x/yctlY61BeGFOTIwkNaF4RaF4Sq54XGM8uQ2DaTy2k0tRo9arvO+iBkt85yF5aSxm2iQ5YjuVv+ZtZ4GooiDUYR4fdJns+jSaJDBCUAcHqfMZQAQOkXls7pgdqi5vNYm+NYHjfcx6j4njb7FW2KYk2mqUZSZje0m8PbdTo9X8NxpL4wZJvCidBR0jY6fF/DUaR+ns8nezprIrM6mFglKzPcm7QFQKkQmADAklGbaCq12tLRod6AbpNmnjEaiBpH2S7muUas1WSaynH/3DYWi1wP1mraU69rYOl0nchju45ER0nbMEa9QaNjqupzG3siTk5j1upQwjwqADgbfNIAwFFS53T/4qL6wlAXxBXFLCaPq9P3tb2jQ5srFU0wJLbt5M5pxCYatVbrw0AbolhdJZ35wMKyPfjGaDCKNBhGvC+f7PnspMnMNoYT5zyfAeBsEZgAwHFMpqkms0wDS8EJ++KPLzw8JDaKNZszJLYdw4KpNNVUmmpdEGg4itUTlOPWoHDSRGo1krKwbGWHt930hZGISU4sc06jNtGYtUqZUQIAK4bABABOuJp0GrdW02mqDVGsoShivskJGHPUkNii0HjKkNh2M5NlmsmypQVqrP41ehxr6gqN2VSjqVXG1puWfT9ZH4Rsu1mGw0HJaJryfAaAc4BPIQBYxg3pvqSug0miwTjShihWQHByQhXP0+a4oo1xrCnLkNh2U8tz7aotan/daCiKNRhFa+L5vpBnGluau8OysjWx7eY0XqdFoZEk0QRzpADgnCIwAYBlyuV0KEk0YVMNx42bep/g5MSLHzEktp2lzml/UtdBW1d/2DiytdNrrzknhZOmlo5WXiC0a1kdnqfhKFZvFMrntJuTWsxzHbKJJrOsMbAEAHBOEZgAwGkvJAvtq9e1v56oPwy1IY5V4dvQkzo8JHZTHGvMWo2nVhk3+22hcNKYbWyxqvq+hqJY68OwpedJzOe5JtJGQMe2sNZV9Run3fQGQWMfDo7LyTWOdLdWiwR/ALCqCEwA4CxuYsfTxuK/Z+mYy3UcR3xSsedpc6WiCyqxptNMYylDYtvJfJ5rvrYov260PgzVH4Tq9oOWWOsuFrmm0lQTacqxwC3MM9JAGGs4ChV7PgU5icOnWTHIFQDOHwITAFgBs1mm2SxTp+drKIrUF3Giw8kYGfWGoXrDxpDY0aWuk4JFQdss5Cas1YS1Co3RuiDQujBST+Cv2pYKJ6e5LNd0lmk6TTkSuMVFnqfhpS16bLs5uXpRNLbdpCnviQBwnhGYAMAKWixy7arXtC+payiKNBRFCgzRyclUPE9blrpOGBLbflLnNJ6mGk9TGRlVA19dnq8u31c1CFbkSG4nyRaFFotc81mmhbzQYpGpYC3Z8g533/UEITHJKcxm2dLR7CmTngCgRRCYAMA5kDmnA0mig4lVfxhqOI7VwZyTkzp6SOx83lg4TDHYsK00uj4yzemhbVaBMerwfcXGKPZ8RcbI94wC4z2sCytzTplzSp1T6grZolA9L1R3OeFIGzm87WYoipjvtIzXDPNJAKB1EZgAwDm+GR5PrSYyq/VBqA1RrC6fffunUvUDVTsCpUtbP0ZTy1yKNpW5wyGKJKUUZA2LjKfhONIAJ4idUuGk8cxqJLFKCoISAGhVBCYAsAqck6bSVFNpqornaSiKNBDG8lhTnFRojDbEsYaiWJNZqlGb8C0s0GI6fV/DUaS+MJRh481JMZ8EANoLgQkAnIcb5j31uvYniQbCxpyTmLb1k2q0+IcaYEgs0DKvyb6l969OTrs5JeaTAEB7IjABgPPk8JGRozZRN8cSLxtDYoHzJ/I8DYWR+qNQIQOtT4r5JADQ/ghMAOC831QfdSyx3ziWuJ/W9lM63pDY6TST4/tbYMVVfV/DUaz1YcB70ynkasxeGrHpWpxPwhssgFIhMAGAFrKY59pVq2lvra7eqDEkllMmlrOYWxoSW2FILLBSjIz6wlDDUaROhlWfUi3PNWKtJtKU4BYA1ggCEwBoQbmcxq3VhLVs1zkNh4fEDkexZvN0aWZARmGA03wdDUex+qNIIafdnJRz0nTWeK+Zz3mvAYC1hsAEAFr5ZlwPbdep+I3ZAQNhJI9FzEkZI60LQq0LQi3kmcbSVJOpVcGXvsAJVTyvEZSEESd4nULunMas1VhqldDNBgBrFoEJALSJel5oT17X/nrCdp3T0OUH6vIDXVipMCQWaGaMepe62Ko+t4WnUisKjXAsMACUBp+MANBm2K5zZo4eEru4NGtgklkDKOvrwRgNRpEGQ441X46ZjC1+AFBGBCYA0KaOOV3H8zUYR+oPaKVfjk7f1/aODm2uVBpDYq2VdbTVY+3rWNp20xuF8jnt5hTvsU6TdulY4IKuNAAoIwITAFgDFotcu2s17TV19YWhhqJInR6nWpzKkSGxcaxZvkHGGrYuaJx20x0ExCSnYItCI9Zq3FrldKABQKkRmADAGlK4xnadcWvV6fsaCiP1RZFouD85o4eGxNbzQuOZ1Zi1yplRgDbmGWkgjDUURcw7WobZLFsKTVNiEgCAJAITAFizFvNcu/Ka9iV1DUSRhqJIkWHRdCoV39Nmv6JNUazJNNUo7fhoM5F3+EStUAFByUkVTppMLa9zAMBxEZgAwBqXOadDSaKRJGFI7GnwzLFDYkdTq0lrxaQTtKqq72s4irU+DGTYeHNStig0mlqNp6kyjgUGAJwAgQkAlMTRQ2Jjz9dgGGowiuQbFlan0un72uZ3aHNc0ThDYtFCjIz6wsZ8kk6fuUWnMp/nGrGJptOME7IAAKdEYAIAJZQUufYluQ4kdfWFkYZihsQu60PzqCGxc0vzDmaylMLgvDwXh6JYg1GkkNDzpApJk9ZqNLVazNl2AwA4jc9bSgAA5V5IjKdW4+lRQ2JDjiY+FSOpJwjUEwRKilxjacqQWKyKiudpQxw3XqeU46RS5zRiE41bq4zXJgDgDBCYAAAkMST2TMWer82xr01xpTE8MmF4JFbeuiDUxjhS1efW7VQW8lyH2HZzrlBQAKXCpy4A4BgMiT0znqSBMNJAGGk2yzRqrabzTOKbbZyhI/NJ2DK3jGW800SWasSy7eYcO0AJAJQJgQkA4PjrDzEk9kwd3q6TukITNtVoamU5iQPLFBqj4SjmWOBlyJzTqE00Zq1SwslV+GAwP6AIAMqEwAQAcEoMiT3Tha93zJDYsdRqOktpOsFxHZ5P0h+GHAt8CrU814i1mkw56nuV3UIJAJQJgQkAYNkYEntmjjcklkGUOGxd0DgWuCfgtuxknJOml7bdzOcZBVn19zFz2w17J79AJQCUCZ/MAIAzcnhI7P4kUX8UaiiMFLF94JQOD4m9II41nWYasYnmmblQOp6kvqXhynRrnVzunMas1VhqlbC17XyZk/KfEUNfAZQMgQkA4KykrmBI7BkwMuoNQ/WGoebypSGxnOqx5vkyR06higkYT6pWFBqxiaZsqpzXxflUSHqDpAcoBYCyITABAKyI4w2JHYgiBQyJPaVuP1B3R6Cs4jSRWo0kVtbxTfpaUvE8bYhitrAtw8zStpu5LCMmOf8yI3ODk/sIpQBQRgQmAIAVx5DYM/xQXjodZSiKNbu0aJzNmNXQznqWuq56gpAxridROGk8TTSaWtVzwsIWUTNON8qIsARAee/NKAEA4JwtgvTQkNgeP9BgHKvX9yW6Tk7KqDEIdF0Qql4UGrWNGhYMiW2TC2jUvzTItdMnKDyZ9PB8EptwLHBr2WdUXCd536YUAMqMwARAuTj9i4yeRSFW32yeaXYxU2g8hsSehornaUulok1RpPE01WhqZRl82ZI8I/WHkYbDWBWf5/ZJ3w+ybKmDKmXbTYsxcl8wfvRylycjVANA2RGYACjXgsYzv18490yJ7vjzpXlI7GAYaX0Q0nRyqg9sz9OGONZwHGsuyzSWWk1nqfhS/vwLjdGGONZAFMnnreWECidNplaj1mqx4GSoFlR3cr/50j3Tf/nB7UO8swCACEwAlM83nHFvNs78HqU4vxgSe2aMGnMxeoJASVFoLLUas1Y5ycmqiz1fG+NI/WEoQ1ByQrYoNJpajaepMrqjWvUd+T88eTfmcndSCwB4CIEJgFJ5ye5JSfqDf9rSe4mTXkFFWsPhIbH7k0Trw0DDUawqsx+WsWD3tDmuaFNc0WRqNWKtajnf3J9rlaVuH4KSk5s93AnFcdmtbFwyb7pvz9R7LtvSR5oFAE0ITACUkbt3z9SrLtnaOy+nN1COFrowcppKU02lqTp9X0NhxDGsy+BJGggj9YeRZrNMozbRLEeyrrgO39fGKFYvW8hOqJA0aa1GU6tFwrtWlkt6d1Tkb7JeMEk5AOD4CEwAlPm+/ueNcQedM2+RRDtDi1nMc+3Ka9qf1DUYRRqMYoWsUk+qcbpOoHVBoKTIl7brpGzXOUudnq9NlVjrg5BinGj17ZzGUqvRxMo6GhVa3GcLp9/0jO6gFABwcgQmAMruD+S8f5Up/knSJZSj9aTO6UCS6CBDYk9L7PnaHHfogriiiTTVSJKoxvyI01L1fW2KK+oJuF06kYU81yGbsO2mHTh9VfJ+Q6b4zxP9I48YvFja82295MFR3X31VpnC0+V3PqjvP2pYkvT99RVJ0qOoJoCS4A4AAKT/zPPsCb4f/JWkn6EcrXqvf/SQWE+DYcSQ2GUwMo3tOkGk6SzViE00z1aJk+r0fG2sNLbe4HivRafJNNWIZdtNO4iMGe/0vJuf8+D4n+28epsLjK/c5XLOk1TIGaMrHldRl421IOnuq7fpitt3UTgAEIEJABw2IenFxrm/dsa8U9LllKR1JUWhfUmdIbGnwRipNwzVG4ZaLHKNJFaTaUpXwFF6/ECbKrGqPrdHx5O5QqO2cSpTyjav1n8+B4E2xbGqfjAg6U92XlX9OUl/L+m9kkapEACcmkcJAOAY/zfp8H/YGfd2SZZytLbDQ2LvXpjXDxbmNW6tCtZxp9Tp+dre0aFHdXdrU1yRX/IunXVBqCu6unRZVxdhyXHU8ly7ajV9b25eB5KEsKTFdfm+Lu3s0mWdD3s+XyGnm7Mif1CN4OTxVAsATo7ABAAebk7SrxoVj3BGH5L4Cr4dLOa5dtVr+v78rPbW60qY13FKoTHaFMd6VLVbF8QVRSU7jqjHD3RZZ5cu7ewkKGnmDoeRC7pzYV7jqaUbqdWfz0Hj+fyIrqrWnXzuTqdzeqVU/Kek/5K0Q1InFQSAhyMwAYATe0DSSwpX/Dcj9wXK0R4y5zRiE90xP6d7Fhc0labiC/GT843RxjjW1dVube/oUKe3drc3GTW2Jj1iqaOEga4Pf/0cSOr63vyc7q8taj7PKEobPJ+v7Krqss4zej7/kHHulmoS3aVGcMLgHgA4CncJAHBqt0l6ulfoUYWn/yHpRUv3qWhhRw+J7fB9DYWR+qJQPpfuJIsvo/4wUn8YaTbLNGITzWRrY8Hsy6g/CjUcRYo95t00S4pCozbReMox1O3AM9JAGGtDHCkyK/L95xbj3C3V+sRvOU9vlfQ+SbTpAeDeyPGhCKBEvv34h7Zsd9cnJGPky9PFd9yvex65XXOVPnXXx9XZk2thLtDld+zS3Y/cLmOcXCB5mfTthdmfDJ35y6QorqCi7RcIrA8DbYhidTEkdllqea5RazWRted8GMKyk5vJGqfdzGZ0krQDX0aDUaThOFZ4bmcPfdcZ9wZTeN84+ljhwx71vUNcDAClQIcJACzfNkk7HtfVc6OThpMi14hNNZ4mDBptE4eHxE6lqToPL6TDSB7r6JMGDls7OrTZVTSRWo1aq3qLz4cJjNH6INBAFDGb5DgKJ42niUZsqqTgWOC2eB16nobjWP1hKLM6wd8PGaf/K+mtkv5QzPICUFLcRQDAyXmSniPpdSbTM91Rs59iz9eWiq9NUaTxNNVomsiSnLSNxTzXrrymfUld/WGk4ShS5DHa60R8YzQUxRqKYi3kuSaWgqfUFS3zQu0JQg1EodYFwWotKtuKdYVGEqvx1LLtpk2sCxrbyM7PrB0TyLjf33n11kdL9Z+VtMAVAVA2BCYAcHwdknbsfOS2XzbGbTvpG6nnaUMcaziONJE22ttrOd/atovDQ2JHbaLuINBgGGl9EMqw3j6hLt9Xl+9rSxxrJs81naWayTLZVe48iYyndWGg9UGgbj+kU+gEGvNorGazlDaBNuBJ6osiDUVRawxgduZFseu4IPFqPylCEwAlQ2ACAMcKJb1mYS64SdKW0/mS2shoIIw0EEaazzMdTKxmspSKtomjh8TGnq/BMNRAFCkgOTnJk95oXRAcOcK0VhSazVIt5Lnm83zFA5TY81X1fXUHgaq+rwodQSd5PjtNLgW4iwS47XFTfqSLqyXfd340zjve6XneS7lSAEr13kwJAKCx9JP08moy8QfOmAvP9odV/UCXdgZizkl7Sopc+5JcB5K6+sJIQ3G0po/aXSkdnqeOKD7y31PntJjnqhe5kqJQvSiUOqfcFcoK97AjOHxjFBqj0PMUGKPYeKosBSMdnief8OqUMldo1FqNWauUbTdt87pZ5fkkZ/opeYOk9y79ty9y5QCUAYEJAEgX7rxq27sl9/SV/sHMOWlvhaTxtDHzgSGxpy883IHC7cY5V8tzjViriTSVY+NNWzg8n6Q7CNpm4k7h3OuW/pbABEApcAcDoOxenin/S0nrz+mb7dKck6Eo1kRqNWKTlj9pBMc6PCR2f5KoPwo1FDIkFueXc9L00rHA8znHArcDY6T1fqgNcbsebe7+G1cRQJkQmAAoq1DSO53cz67mH+oZaTCKNBhFWlz6RniSb4TbSuoKHUoSjSSNIbHDUaR1QUhhsGoy5zRurcZSq4TgtT1uuFt7Psmy2cINczUBlOr9mxIAKKGwmkx+0Bm98Hz+Ep2+r+0dHdpcqWjCWrbrtBmGxGK11YtCh2yiKZsqJ2RtC20zn2SZFoucYU4ASoXABECpVJNJObl3S+c3LDlaaMyR7TqTqdVIyrHE7ebwkNiDNlF/2DgOlBNcsFIW8lwjNtFUmtGN1i6fNb6v4ShWbxBoLZ1RPp4mHP0GoFQITACUzU8b6RWt+It5RhqIIg0sbdcZTa0mrRUN9+0jd06jNtGoTRgSi7Ny5FjgxGqxIEBtB56RBsJYQ2Gkir/2AtOFPNdMmvFkBFAqBCYAyrYMeWs7/Jadvq9tfoc2xxWNW6vR1Moyq6CtMCQWZyJ3TiM24VjgNhIZT8NxpIEwWrNHX2eu0P21RfqbAJQOgQmAsrmird6kl7brDMeRptNMIzbRPNt12gpDYrEc1hUaSazGrWU+SZvoWXo99wSh1nITWeGkB2o1QnsApURgAgBtwMioNwzVG4Zs12lTxxsSOxit3W+ksTzzea6DSaLZLCUmaQOekfqW5hR1emt//mnhpPtqC5rNOLYaQDkRmABAm2G7Tvs7PCT2QFJvLL7iciy+sMQ5TWSpRqzVIh1jbSHyPA2FkfqjUKEpx9a61Dndt7igBZ6jAEqMwARAqeRy8tdI83Rw1Ok6E5nVGMMh204haTy1Gk+teoJAg2Gk9UEomk7W7vWeTFMdSuqqE3K2hQ7f11AUqT8o1/DmhTzXfYsLzNEBUHoEJgBKZSyx2hDHa+oxeUYaDCMNhpEWi1yj1moytSq4z20rh7frBMZoIIoYEruG2KLQiGU+SbswMuoLQw1HkTr9cnV+OUkjidX+pM4R1gAgAhMAJXPIWg1EkYI1+hV+p+drW6VDF1YqmrKpDtmEb7LbTObc0pBYq/Vho+ukJ+Djuh0t5LkO2UTTacbisx1uipe23QxGkcIStnklRa4Ha3XN58wrAYAjnw2UAEC5FqOF7l1c0BVdXTJr+FwDX40uhYEo0nyeacRaTWWZRHt123BymkpTTaWpOr3GtoC+sFzbAtrVTJbqYGJZeLaJTs/XUBypPwzX9OfCid9snA7ZVAdsjc5EAGhCYAKgdBbyXA8sLuqizs5S3BxX/UDVjkCpc5pgSGxbWixy7arXtD+pazCKS/sNeIuvOTWVpTqUJMwSagfGqHfpWOCqX97b4bks056krhqDXQHguAhMAJTSVJbpvsVFXdzRVZpv7MOlIbHDcaTpNNNYajkqss2kzulAUtfBpK7upcXeuiCkMOdR7pxGbKIxaxmQ2QZ8YzQYNWY+xSWeEWSLQvuTRBOp5UkBACdBYAKgtGayTDsX53VRR2epbpyNjHrDUL1hqHpRaNQ2TmkpWOy1DaeHhsTGnq/BMNRgFMmn62TVZM7pkE00ljDItR1UPE8b4rixra3Edcid08Ek0WiasP0GAJaBwARAqS3kuX6wMK+tlQ71heX7pr7iedpSqeiCSqwpm2oktbRmt5mkyLUvyXUwSdQbhdoQxapwus45c/jEmzEWnC3PGGl9EJZ+240kFU4atYkO2kQ54TgALBuBCYDSy53TA7VFzWSRLqxU1uwJOifDkNg18DyW07i1mkit1gWhhjhdZ0XZotAhazVOUNL6N7dLR3MPhqFizy91LRpBidWIra/UljGe/QDK9ZlCCQCgYSK1mslSbY4rGoii0taBIbHtzTlpOk01naaqeJ6Go1j9nK5zxmxR6FCSaCxNORq4xVU8TxuiWL1RKF/lfsLnzukgW8YA4KwRmADAUTLntKte02SW6sK4og6/vN9OMiS2/dWLQrvrNe2r1zUQRRqOI0WG7TrLkRS5DiZWEwQlLW/d0rab7iBQ2XPBw0OIR61VRocgAJw1AhMAOI7ZLNOd2bx6w1Cb47jUbd0MiV0Diyg9tIjqDwMNR3Gpw8CTaWy9STRmCUpamWekgTDWUBQxs0cEfABwrhCYAMBJTKWpZrJUQ2GsDVGkoOQ35gyJbW9OTuNpqvE0VdVvHEu8PgjF4TqNbpz9SV3Tacpys4VFxtNwHGkg5FQoaSkosVYTBHwAcE4QmADAKRROOmQTjVir/ijUBXFFYclv1I83JHY6zbhhbyPzeab5WqYO39dwGKk/CmVKuKEhKQodTOqa4Pnb0nqCRsDXE4QiJpHm88bJWDNZSjEA4BwiMAGAZXJLp5BM2VSDcaThKC59cCIdNSS2wpDYdlTLc+3Ka9qb1DUQRhqOIkUl6KRiwdn6PCP1hZGGwkidbCGT1NguesgmzJMCgFVCYAIApymX06Ek0UiSqCcItTGOVeVmniGx7f68XhoWOZYm6g8jbYiiNTm7hwVn64s8T0Nho4MtIJRW4aTxtNHlmBBGA8CqIjABgDPkJM1kjRknnb6v4ShSfxCq7AMhGBLb/ouzMWs1bq3WB6GG10AgWDiniTTVmLVaLJi506q6fF8boljrw6CU28Oa2aLQyNL7Z877JwCcFwQmALACFvNcD9ZqOuAlGuSb0SMOD4ndFMcaT63G+Ia0bThJU1mqqSxVlx9oMIrUF4Ty2uhpXSsKjVmrCWuVM5+kJRlJPUvHAvcE3JZKje1iIzZhLhQAtAA+mQBgBSVFoX1JXQeTRANRpOE4UmQ48jIwRhuiWBuimCGxbWghz7RQy7TXGA2EoQbCqGWPJc6c02TaOF51gROcWvg9wdNQFGkwipgFJck5aTpLNWKt5nO2iwFAy3xeUQIAWHm5GvMgRi1zTpoxJLaNn9fOacRajVirDt9XXxCqPwrPeyiYOqfpLNVUmmouz8TuhdbVcXj7Yhiy7UbMJwGAVkdgAgDn0NFzThrHYsbqCQKWCTpqSGwUazZvfLPKIM72Uctz7c9z7U/q6vR89YSB1vmBun3/nM/xKVyj62U2zzSTZswlaXXGqHfpWOCqz62nJGWu0FhqNZpYpSR8ANCy+NQCgFUym2WazTKFxmgwijQURQrYriNjpHVBqHVBY0js4VknDDlsH4tFrsUk1yEl8mXUFfjq8gJVA08dnn9WxxQ7OdXzQnVXaD7LG9uD8oLtXG3AX3qvGwwjxR7vdRLzSQCg3RCYAMAqS53TgSTRwcSqPww1FEfq9NiuIzWGxG6OK9oYx5qyqUZSqxpzKNpKLtcIB5VJtvG/eUaqGF+x58n3jAJj5J9gQ0bqCqXOKXNOSVHIuoItNm3m8LabvjASMQnzSQCgnRGYAMD5uomW03jaODKS7TrH8mU0EDVOG1rMc41Yq8k05RvZNlU4adHlbJ1Zw4xR4xhqtt0c8x4/aRtBCc99AGhPfKIBQAtgu86Jdfq+tnd0aFMca8xajaepMsdwRKAVeEbqDxrvWR0MtpYkWVdoJGmE4WtwayGpNYBSITABgBZy9Had9WGgDVGsLhYhkqTY87S5UtEFcYUhscB51uF5Go5i9UahfPriJDWC78b7UkqqAABrBIEJALQgJ6eptHFMaueReQAcwykxJBY4n9YtbbvpZvugpMZ2s8nUapRtNwCwJhGYAECLW8xzPViraV+93tiuE0YKOHFCEkNigdXgGWkgjDUchYoZUC1JskWh0dRqwqZK2SIIAGsWgQkAtAm265wYQ2KBlRd7noaWXldsu2ngWGAAKBcCEwBoM2zXObnDQ2I3VyqasFajqZUt+AYYWC623Tz8PXcyXTrthg42ACgVAhMAaGOHt+scSBINRpEGwkiBYYkjSaEx2hDHGopjTS3NGFhgsQMcl5FRb9g43pzOtYbcOY2nqUZtooTQFQBKicAEANaApCi0r17X/nqi9WGgwTBST8BbvCR5kvrDSP1hdGRI7Li1yhgSCyjyPA2FkQbCkNlIS2pL2/om2NYHAKXH3TQArCFHb9epeJ4Gwsb8AbpOGhgSCzRUfV/DUaz1YcB2PklyTlNLxwLP5xxXDgBoIDABgDWqXhTal9R1MEnUG4UaDiN10GoviSGxKClj1L80n6ST9wJJjW03Y9ZqLLVsuwEAPAyBCQCs9QWBnMZtYxsKQ2IfjiGxWPM3e8ZoKIo1GEUK6TaT1AiUD9lEk2mqgu15AIATfYZSAgAoj8NDYvfV6+qPIg2FkSLmFkh6aEjscBxpOs00llrNZrTmo31VPE8b4lh9YSRe5ZJz0nSW8toGACwbgQkAlFDqnA4liUZsoh6/0aLPkNiGxmkhoXrDUPWi0Ki1Gk8t30KjbRw+FpjXdEPmGl12Y2mqpGBmEQBg+fgkBYASc06ayVLNZA8NiR2MIvm07UtqfEO/pVLRBRWGxKK1eUYaCGMNR6Fij/kk0kPbbqZsqpz5RACAM0BgAgA4srhgSOzxHT0kdj5vnKQxnWYMicV5FxlPw3GkgZCg87CZLNWItZrLMl6hK4+SAigVAhMAwDEYEntyVT9QtSNQWnEMicV50xMES9tuQl6ZkgonjaeJRq1VndfjubSXEgAoEwITAMAJPWxIbBQpMoyPlBgSi9XnSepbGtbMscAN1hUaSRpzhnLmDK2GOygBgDIhMAEAnBJDYk/s6CGxC3muMWs1mVrxHTdWim+MBqNQg2GsmFOtJEmzWWNr3GyWskdkFXmF+xuqAKBMuNsFACzbMUNifU8DAUNij9bl++rq6NCFHRWGxOKsdXiehuNY/WyJkyQVkiaXtsEt8ro6H/6fpH+jDADKhMAEAHBG6nmhfTlDYo+HIbE4GxwLfCxbOI2micatVca2m/NlMi+8lxBTASgbPokBAGeFIbEnx5BYLIeRUV8YajiO1MmxwJKkhTzXIZsQNp5/qXHuRkn7KQWAsiEwAQCsmMNDYvfW6xpgSOwxGBKL4/GN0XAUazCKFLK1TU5Ok2njWGC23bSEuivM841x/4dSACgjAhMAwIrLDg+JTRL1sL3gGEcPia0XhUZt44SPgq0GpVLxPG2IYvWFoTyCEmWu8VoYs1Ypr4VWMWOMbnASYQmA0uLuFUDZFGqczolV4PTQkNhOz9dgHKk/iOSxPjyyaN5SqWhTHGncphq1VtaxXWct6/R8DcdsWzssKXKN2FQT1ipn203LMMbdY4z/U84Vd1MNAGVGYAKgbEv4j0vmRdRh9S0WuXbXatpr6uoLQw1FzGo48mFsPG2IY22I44eGxGap+KJ9zaw+1b/UadXJYGTJOU0tHQs8n7MtrQV9xBrtiKVpSgGg9PdolABAmXjy3lLIPU9SRDXOj8IdOyR2KIzUF0W0/Sw5PCQ2KQqNpZaTQdr5Jss0TksaDCPFHs/w3DmNWaux1Cph8HErmnFybzQy76MUALD0WU4JAJTMnU56o5H+llKcf4t5rl15TfsShsQ2iz1Pm+OKLohjTaSpRhOrxYIhmO0gMp6G48ax0j7bblQvCh2yiSbTlFk9LcrIfcHztCMrtItqAMBDCEwAlNEtkrlScm+kFK3h6CGx3UGg4SjSuiCkMGoMiR0IIw2EkWaXtjHMZinTHlpQxfM0HMfqD+mYck6azlJOg2p9eyXzq5L7KKUAgIcjMAFQVr9kjOad05soRQstsiTNZplms0yx52swDDUYRfI5RUSS1BME6gkCpc5pwlqNplaWrQ3n3bog1MY4UtXntipb2nI3lqZK6Ihq5ffaxEhvL5LoD7w4XaAiAHB8fLIDKLPfltEB5/SnRoopR2tJilz7klyHbKL+MNJgFKnCHAhJUmiMNsSxhuNI02nGt/jnSW8YamMUM8hVki0KjaZW4zZVxklPrayQ9E+e7/6Hy81uygEAJ0dgAqDs/soZ78umKD4oo0dTjtaTOacRm2jEJgyJbWJk1BuG6g1DLea5RlOrydSqYL/OOSx648SbDVGkDoISzWSpRqzVXJaxTay1OUkfdb7/OybPd1IOAFgeAhMAkO6K6sGTbUf2x5JeKzGlsVUxJPbEOn1f2/wOXRBXNGatRm3C6ToryRj1L3WUlL3TqXDSeJpoNLWq53STtDpn9G+e3FudM1+hGgBweghMAKBhXtLrjeducYX3bsk9jpK0LobEnlhojDbFsTbGkabSTCM20ULOLIkzZowGloKSsh8NbItCI9ZqPLXKCeNa3VJHiftDFeZ7lAMAzgyBCQAc67t90eSTJtL1v2Gc+Q1JVUrS2isChsSeYJ0vo74wVF8YarHINZJYTaapHBsnlsWTNBDF2hBFikoelHA6U9u9L37ON+YPCue+QTUA4OwQmADAwyWSft/zw3fmRfpm4/RzkmhfaPWLtjQk9kBSV18YaSiO1OkxY0KSOj1f2zs6tCmOjnQIMOfk+IyM+sNAG+NKqTtKCidNplaj1mqR027aQS7pY84Ub5PzvkM5AGBlEJgAwImNSHpDnvt/7vv570t6kcSs0ZZf6EkaTxuhAENijxV7vrZUOnRBpaJxazWSWFlONJEkeUYaimINR5HCEs/Fsa7QSGI1kVpm4LQB1wj4/0FF/sfG8++jIgCwsghMAODU7pH0M4Upthvn/aaRbuT9sz0cHhJ7IEk0GEUaiMJSL4YP82U0HMUaimLNZqkOJonmSzrnxJfRcBxrKAwVlLijZLHINZokmkxTEaG1hQkn8w4/S9+RB8E45QCAc4MbfgBYvgclvdYr9FfOc7/rZJ4vOk7agnWF9id1HUjqDIk9ipG0Lgi1LgiX5lQkmsmyUjx2X0aDUaThOFZY0pk3Tk6TaeNY4EUGA7eLQ5L+MvXc3wSFmaYcAHBuEZgAwOn7vqQXpV6wISjy1xm5X5TUR1naYYHIkNgT6QkC9QSB6kWhQ0ldE2m2JgfEhqbRXVPm6565QqPWasxapWy7aRf/7kk337Nn6rOXbOmlCQgAVgmBCQCcuUOS3hLVgj9JO/IbnNyvSLqCsrSHI0NibaK+MNRQxJBYSap4nrZ1dOqCitOoTTRm18Ysiy4/0GAUqT8MZFTOoKSW5xqxVhOcltQuMkkfNCr+wsn7NuUAgNVHYAIAZ29e0jvv2zP17su29D6nkHujZK6hLO2hcE7j1mrcMiT2aKExuiCuaGNU0UTa6EZot9NSPCP1hpGGwkhdfjnDMOek6ayx7WY+z3jBt4dpJ93iTHGL57wHKQcAnD8EJgCwgmtvSZ+R9BnfuMfkzvyKpBeLI4nbxuEhsfuSugaiSENRpKjkQ2I9Iw1GkQajSPN5rlGbaDpLW/pY4qrvqz+M1BeGpd12Uzin8dRqxKZKOBa4Xex2cm+3HcHfRbV8jnIAwPlHYAIA58Z/SXpF6gW/wZyT9pM5p0NJopEkUU8QajiK1BPwkVn1fVU7OpXLaSbNNJWlmmmRU1U6PV+9Yaj+MFRU4tNubFFoZKljKmfbTbs4Mp/k4i3rmU8CAC2Euz8AOLcOSXqLUfEXkrfDSb8gaTNlaQ9O0kyWaiZLVfE9DQQRQ2LVOGGmLwzVF4bKO5zmskwzaaaZPJVdpdYTX0bdQaB1YaD1QVjak24Oa5xyZDWbpcQk7fL24vR/nDFvf9meyS9+cEsvlw0AWhCBCQCsjilJb7tvz9QfX7ql/6lOxS9Jeo4kjmdpE/W80L68zpDYJr6M1geh1gehpA7V8lxzRa75LNN8nq1IgGIkRZ6nLt9vdLkEgTqMr7IfblQ4aTK1Gm3D+TIlxnwSAGgjBCYAsMprHElflPRFU+SXOi/4BcndKKlKadplkXrskNjhqDErw5B9SZI6fF8dS8NzJSl1hWzhlBSFbFEodYUy19j2dLyTWgJjFBqj0HiKPE8V31PF+PIo7xG2cBpNE42vkROMSmK3k3u7ibz3yrrZl++aPub/fAn1AYCWRGACAOfPvZJ+SZH5HWP1Yo4lbj+Lea4HazXtrTMk9kRC4yn0VdpTalbSfJ5rxCaaTjOOBW4fzCcBgDbGXR0AnH+zkt55wZ6pq43MTzvpa5SkvRweEnv73LwerNW0kLM9Aiv4BpFlundxQXcvzGsqTQlLWl8h6Z+NvJ986Z6pJ6txehphCQC0ITpMAKCF1t2SPiLpI6bILy08/9VGeq2k9ZSmPTg5TaRWE6llSCzObsXtpPE00Yi1SgrW2m1i3Mn8lYx3i3H5QcoBAO2PDhMAaE33SvpNRWarkXmtpLsoSXup54X2JXV9f25Ou+o11eg6wTLYotDeel3fm5/VnnqdsKQNOKPvO7lX9kVTmyW9RRJhCQCsEQQmANDaZiW98749U1cZeT8p6Z8l+vHbSa7GkNg7F+b1g4V5TaSWLRV4mFqea1etptvn5zViE+UMc239l7b0EU/6/yQ9WtL7JCWUBQDWlv+fvXuPsfy87zr+ec6ZOes4dmKvYyexnU3iC3YbN2naiBI1+YOLgSClVVG0kIbWEggvDVCbQmGLqORIragrIM02KmJTSuVAuZgAIgltqZsiMBEFcsP2JvEtztheX3ePvTu3c/s9/DFrO34aN77s5ZyZ10vaf1ayPPM9o9k573l+38cjOQCL4Xm363hcZzE9syT2oc3NXGBJLEmenk7yyGic1dnUMBbD0Zp8opfuYE3vfuMA2N4EE2BH+eA3j2yHT+OeJPt/7eoLf/6sje6DNfWGJN/t1V0ckxNLYh8bj/Ka/nJePxjkNUv+Sd4pnttPMsmo86jWgjhUUj62vNH/jdGrpqvGAbAz+LUWwOI6nq3bdd5RS/lASflcPK6zUGrdOmFw9/paDq2t5snx2FUa29is1jw2HuXOteMn9pOIJQvgv9dSPjBYGb49ycEkYgnADuLXWQCLb5rkU0k+VdJd1qV3fUn+SpLXGc3iWJ/N8sBsIw9ubub8wXLeMNiVs3p+r7EdbHRdHhuNcsSVwItiLSn/vHTTj9de/x7jANi5/CQGsL3cn2T/7sHw0pKyN6m3GclieWZJ7J2rx3P3+lqGk0ns/1xMz5weumv1eJ607HcRPFBTb8ygXJzkhmw9/gjADuaECcD2NEpya5JbS7rvP3Hq5C8lOdtoFsex6TTHptPs6vVy4fIgrxsMslSKwcyxmpqjk0keG42z7pGbxXjJUn+3l3Lg7pXhZy/fc56n4gB4lhMmANvfF5LsGyzl4pKyL8lXjWSxjLouD402c8fxrd0XmzPv6eZNV5PHx+Pcubqab2xsiCXzb70mB2u/vjPJtUk+nVghBMDzCSYAO8fTSQ7euzK8pqR3bbZOoLjLdIHMUvP4iaWhh9ZWc8RjHmfcpNY8uLmZrxw/lpXNjYw677nn3IMl2T8YT96SravZv2IkALwQj+QA7DxdktuS3Dbrepf0evWvptQPl5oLjWZxrM9m+cbGRh7a3MwFg0EuWt6VQc/jOqfLuHY5PBrlyNgi18VQbyvpHVy98Oh/OueJ8yfmAcCL4YQJwM72cJKbLlgevsmS2MU0qTWPjka5Y/V47ttYz7GpQ0On0kbX5YGNjdxxfOsaaLFkrm3W5GBJ965sPXZzaxKxBIAXzQkTAJJvWRJbS/d9qb19JflQklcbzWKoqRlOJhlOJjl3aSkXLQ9y3vJSSpw6OSnvvLsuh0ebGU7dWrQAHi7JL5f+8q/PZpPHjAOAl8sJEwBaX8zWkthLTiyJPWQki+X4dJr7NtZzx+rxPDoaZeYd/su22XW5f2M9d60dz1FXPM+3mv9VUvYOzh1eluTmJGIJAK+IYALAC3lmSez3WBK7mMZdzUOjzXz5+PE8sLGRjZmbW16stdk096yv585VoWTOTZN88sRjN+8+8X1qbCwAnAweyQHgO3l2SWy/9i+elu56S2IXS03Nk5NxjkzGOW9pOa/fNcg5fT8CfDsbXZdHRpsZTia2k8y3IzXl40u1d3BWZoeNA4BTwQkTAF6Kw0lu2nXO8FJLYhdPTTKcTvK1tbXctba1tLRTBZIkq7NZ7l5fy13PnCgxknl1Z029btJ77aVJbjrxPQkATgm/XgLg5RjHktiFtjGb5YHZRg6PRrlosCsX7lpOfwcuiF3vZnlkc5Th1OUpc2yW5D/0kgNdcrtxAHC6OGECwCtlSewCG9cuD4028uVjJ/acdN2O+LyfPnHS5tDqqlgyv4Y1uXmpdlcl2RuxBIDTTDAB4KS9B01y8EMrw2ssiV08z+w5uWttNfdvrGd9Gy6IrTUZTiY5tLaae9bXszrz5TmnvlpS9o1e1X9zkv1J7jMSAM4Ej+QAcPLfezdLYkvyE0m9yGgW4dWrOTqZ5OhkknP7S3nDrkFes7S80A/rTLsuT0wmeXIyzmiHnKBZ0O8bny3pfeyelSOfu3LPbi8UAGecYALAqXQ4yU1r07N+8ezlzR9NrR8uyTuNZTEcn01zfH2aXb1+LhoM8rrl5fTL4qST1dksj49HGU6mqda4zqWajHrJv026AzW9L5gIAPNEMAHgdFhP8qtJfrVf6juntfw1S2IXx6ib5cHNjTw82sj5y4O8bmk55ywtzeWpk1E3y5HJJEcm04y6mRdvfj1QU39p11L59ck0TxsHAPNIMAHgdPtSkn0ZlJ8u4/zFmvqTSd5mLPOvq8mR8ThHxuMMSi+7l5eze7Ccs3v9M/pxbXZdnppOMpxMsjYTSeZYTerv9lIO3L0y/Ozle87z2A0Ac00wAeBMOZbkYJKDveQ9XfKTSX7Ev02LYVy7PDoe5dHxKIPSy2uXl/LapaW8pr+c3ik+ejKtXVanszw9m+bp6TRje0nm3XpN/mWvV/9p7fJl4wBgUfihFIB5cHuS2/u1f3FXZj9Wk7+R5FJjWQzj2uWJ8ThPjMdJKTm718s5vX5evdTP2b1+dvX7L/tavmnXZaPrslm7rE2nWZvNdszVxwuvZqWU/MryePJro8HyEwYCwKIRTACYJ4eT3Dw4d/jRyfHdP1zTXZ+UP2Usi/QmuWZ9Ntu6lnjy3F8PSi9n9Xvpl7L1JyV/YH9sTSapmXZdJrVm1HWZVctaF/CL4LZeyoGlB4f/ZbLnfM9IAbCwBBMA5tE4ya1Jbu31eld3Xf2JpP7lJOcYzYK+oLXLeOpkyDa2WZNbUrp/Vmr5onEAsB30jACAOfe1JDcMxpPLkvxMkgeMBObG0SS/2C3lqiT7koglAGwbggkAi+KJJL+Q5K295L3ZOoEyNRY4Iz5fUvYOzh2+McnfS7JiJABsN4IJAIvo9iR7a+nvKcn+JA8ZCZxykySfLOneleQHsxUtx8YCwHYlmACwyB7J1pLYy0vK3qTeZiRw0j1ZUz4y6S3tSfLjSb5gJADsBIIJANvBM0tir+31et+VlANJ1owFXoGar9TU63YPhpcmuSnJo4YCwE4imACw3XwtyQ0ZlItLyr4kdxkJvGjTPPfYzfcmuSXJyFgA2IkEEwC2q2NJDg5Whu+otf5wkt9OUo0Fvq3VlPxK7fevicduACCJYALA9jdL8p+T/Nl+7V96Yknsw8YCSZJDJWXfYGPpjUn+epKvGwkAbBFMANhJDmdrSexllsSyg9UknynpXfuhleE1SQ4mWTUWAHg+wQSAnejZJbFd6X23JbHsEGtJOVC62VVJ3p/ktnhMDQBekGACwE731VgSy3ZWs1JTbxws5ZIkNyS5x1AA4DtbMgIASHJiSeyHVoaf+I09F/zJmu76JD/i30oW2P/sJTff/eDws5fvOa9b9E/mg988upgft69DgIXlhAkAPF/N1qMKe/u1/+aa8pGkPG4sLIhJnrsW+D1JPp2kMxYAeOkEEwB4YYeT3DQ49+ibLIllzj1ZUz4y6S3tiWuBAeCkEEwA4Dt7dklsv9Tvq1u3ilgSyzy4o6Zet3swvDTJTUkeNRIAODkEEwB4ab6UZJ8lsZxBsyS39pL3Jnl7kluSjIwFAE4uwQQAXp5nlsR+T0nv2mydQJkaC6fQUzW5eal2VyXZm+R2IwGAU0cwAYBX5tklsbNZ/21J+aUkTxkLJ9EjpdSfHYwnfyTJ/iT3GQkAnHqCCQCcPHcn+VuDc4evtySWk+DzveSH7l0ZXprk55I8YSQAcPoIJgBw8lkSy8s1zXPXAv9gXAsMAGeMYAIAp9aXkuwbLOWSE0tiDxkJ38ZaUg6UdFfFtcAAMBcEEwA4PZ7O1pLYayyJ5Vs8WFNvzKBcnOSGJPcbCQDMB8EEAE6vZ5fE9mv/zTXlI7XYTbEDvwz+d0nZOzh3eEWSj2Xr1iUAYI4IJgBw5hxOclPdHLw1KdfXkv9nJNve7yV5/70rT707W6eMxkYCAPNJMAGAM28tySeSvKOke9eJJbEbxrJtrCflQO1mVyb5E0k+E4tcAWDuCSYAMF++kGRftzx5S0n2J/mmkSyswyXZPxhP3pKt/ST3GgkALA7BBADm0+NJbr53ZXhZL/mhpN6Wrf0nzL+7aup1uwfDy5LcnNhRAwCLSDABgPnWJfl0kmtTez9QkltqMjKWOVTy+7WUDwxWhu9Icku8TgCw0AQTAFgc/yfJdWVQLiop+5J81UjOuFmST9bSfX+SP5bkUyf+DgBYcIIJACyeY0kO3rsyvKakd222blvxJv30mtTkYO1mVyf58SRfNBIA2F4EEwBYXF2S25LsXardVXVrX8ZRYzml1pNyoPTrlUn2xSJXANi2BBMA2B7uS7J/0quXl1p+yhv5k26tlPpP+rV/ZbZuvHF7EQBsc4IJAGwvTyX56L0rw6tS8ueS/Ne4XeeVOJ7kFwbjyVuT/O0kh40EAHYGwQQAtqcuyW8m+TNLtbsyKQeSrBnLi/ZITb1xsLF0cZKfiauBAWDHEUwAYPu7L8kNk97SFSn5+SRHjOQFHS2l/uxgKd+V5GNJVo0EAHYmwQQAdo5Hk/yDwbnDi2vqdUnuMJLnZlNTb1ybvupNSX4uydNGAgA7m2ACADvPOMktSd7eS96b5DPZsXtO6mM19cZuNLgiWydK1n15AACJYAIAO93tSd7f1e6PpuRfJ5nsjE+7Ppbk7096uTpbocR+FwDgeQQTACBJ/m+SH+2WckWt+UdJjm3PT7PcU1L2TXrnvSXJP8zWrUIAAH+AYAIAfKuVJD+dQXlTSvk7qVnZBp9TLam/k1L//L0rR69OcjDJppcaAPjDCCYAwLdzLMk/XrtoeEVN+Qup+W8L+DkMa6kfnc36Vyf500n+Y7auWwYA+I4EEwDgDzNJ8u+S/PGkvK3UfDzJ0Tn/eD9Taj446F59SZKfSnK3lxEAeKkEEwDgxTqU5G+uXTh8Q+3K+0op/yLJcA4+rklJ+Vyp+fBsNn1jkvcn+TdJNrxkAMDLtWQEAMBLNEnyW0l+a+3C4b5znjzvPbWW9yV5X5JrTtPH8FCt9bfT6/1mWc7vZLxdl9QCAGeKYAIAvBKTJL934s/fnXW9S/q9+u5SunfXWn4gyfcmefUr/H+sJfl6Lfn9UvP50q//o87KN40eADiVBBMA4GR6OMm/P/EnSTLrepf0lmZXlq53ZS3dG0rt7U7qBUnOav7brtQ80fXq473ae6xLvlGX6td/7P7hg/9qz/nVaAGA06nU6ucPAAAAgG9l6SsAAABAQzABAAAAaAgmAAAAAA3BBAAAAKAhmAAAAAA0BBMAAACAhmACAAAA0BBMAAAAABqCCQAAAEBDMAEAAABoCCYAAAAADcEEAAAAoCGYAAAAADQEEwAAAICGYAIAAADQEEwAAAAAGoIJAAAAQEMwAQAAAGgIJgAAAAANwQQAAACgIZgAAAAANAQTAAAAgIZgAgAAANAQTAAAAAAaggkAAABAQzABAAAAaAgmAAAAAA3BBAAAAKAhmAAAAAA0BBMAAACAhmACAAAA0BBMAAAAABqCCQAAAEBDMAEAAABoCCYAAAAADcEEAAAAoCGYAAAAADQEEwAAAICGYAIAAADQEEwAAAAAGoIJAAAAQEMwAQAAAGgIJgAAAAANwQQAAACgIZgAAAAANAQTAAAAgIZgAgAAANAQTAAAAAAaggkAAABAQzABAAAAaAgmAAAAAA3BBAAAAKAhmAAAAAA0BBMAAACAhmACAAAA0BBMAAAAABqCCQAAAEBDMAEAAABoCCYAAAAADcEEAAAAoCGYAAAAADQEEwAAAICGYAIAAADQEEwAAAAAGoIJAAAAQEMwAQAAAGgIJgAAAAANwQQAAACgIZgAAAAANAQTAAAAgIZgAgAAANAQTAAAAAAaggkAAABAQzABAAAAaAgmAAAAAA3BBAAAAKAhmAAAAAA0BBMAAACAhmACAAAA0BBMAAAAABqCCQAAAEBDMAEAAABoCCYAAAAADcEEAAAAoCGYAAAAADQEEwAAAICGYAIAAADQEEwAAAAAGoIJAAAAQEMwAQAAAGgIJgAAAAANwQQAAACgIZgAAAAANAQTAAAAgIZgAgAAANAQTAAAAAAaggkAAABAQzABAAAAaAgmAAAAAA3BBAAAAKAhmAAAAAA0BBMAAACAhmACAAAA0BBMAAAAABqCCQAAAEBDMAEAAABoCCYAAAAADcEEAAAAoCGYAAAAADQEEwAAAICGYAIAAADQEEwAAAAAGoIJAAAAQEMwAQAAAGgIJgAAAAANwQQAAACgIZgAAAAANAQTAAAAgIZgAgAAANAQTAAAAAAaggkAAABAQzABAAAAaAgmAAAAAA3BBAAAAKAhmAAAAAA0BBMAAACAhmACAAAA0BBMAAAAABqCCQAAAEBDMAEAAABoCCYAAAAADcEEAAAAoCGYAAAAADQEEwAAAICGYAIAAADQEEwAAAAAGoIJAAAAQEMwAQAAAGgIJgAAAAANwQQAAACgIZgAAAAANAQTAAAAgIZgAgAAANAQTAAAAAAaggkAAABAQzABAAAAaAgmAAAAAA3BBAAAAKAhmAAAAAA0BBMAAACAhmACAAAA0BBMAAAAABqCCQAAAEBDMAEAAABoCCYAAAAADcEEAAAAoCGYAAAAADQEEwAAAICGYAIAAADQEEwAAAAAGoIJAAAAQEMwAQAAAGgIJgAAAAANwQQAAACgIZgAAAAANAQTAAAAgIZgAgAAANAQTAAAAAAaggkAAABAQzABAAAAaAgmAAAAAA3BBAAAAKAhmAAAAAA0BBMAAACAhmACAAAA0BBMAAAAABqCCQAAAEBDMAEAAABo/P8BAIb/riW32pF8AAAAAElFTkSuQmCC" vertex="1" parent="1">
          <mxGeometry x="320" y="130" width="210" height="189" as="geometry" />
        </mxCell>
        <mxCell id="-QomMEc71tAk3ifFAMWK-7" value="" style="shape=image;verticalLabelPosition=bottom;verticalAlign=top;imageAspect=0;aspect=fixed;image=data:image/png,iVBORw0KGgoAAAANSUhEUgAAAOYAAADmCAIAAABOCG7sAAAen0lEQVR42u3deXwU5f3A8e/zzLn3ZjebTcKdm4RgwqGoCMrhhUqt4E+UIloP7K/VXlpba+/6U9p61R7WarXWKiqgIopXWwUEQSBICIEQCiHk3E12szu7OzvH8/tjEUO4IXF2Ns/79fIlr2V3803mw2Rmd3YGEUKAoswDGz0ARZ0amixlMjRZymRospTJ0GQpk6HJUiZDk6VMhiZLmQxNljIZmixlMjRZymRYowf4QnLf7+U9DyHGDui0p0KAOMAiZh2I8wCfjcQ8JA5nLQVIyAXOgVknYMHob5Q6I2mULNHiRI0C0QHQmTwNAGgAADoQACBAtKSuAe/B9nLWUYmcZzG2YmwZhVgXIPpLxnzSKNl+cih35uAfEQsYQJP07rVy4H0gCrKOYp3jsets1nMuto1GnNvomalTkHnJHgNigLEixgoAoASVtpdJ6xJsHcU4J7A5l7CeC7G10OgRqZMyaJIFSG0zAABgKxLtCDQitystr6gdb2DHWC7vas53BXZUGj0kdQKDKtlDCBANABDvQbyXqFGtZ7Pes1k58AKXN4/1X8XQcNPY4N7/IDoQDTE2LOYjzq3HGuQ9v45/drO89zGS7DB6OOroBneyB+lANMAi4nwIW/Xodrnhp7GtNysdbxo9GHUUg3PD4KgIAAAWEeZBT+rd/0lEPtPy/yMU3IP4HKNno75A17J9EAAEWADWAbqkNP05tuVaNfjhF7tulNFosseCAYvAObXwpvjW+fK+PxItZvRIFABN9gQIQqwLdDm584eJnT8iStDogSia7IkRwDwwdqXpT/Hab+qJFqPnGexosieDAEKI96ptr8Rrb9fjTUbPM6jRZE8eQrxP63wzvn0RrdZANNlTgRjE+9SOtxN13yJ0C8EgNNlTQgDxmM9W29+I13+XJDuNnmcwosmeKgJYRHyW0vpyYtf9RAkbPc+gQ5M9DTpgK+bcyoG/yXsfJ3rS6HkGF5rs6SGArYDE5L7H1balRg8zuNBkTxtBnAvUqNz4Ky28yehhBhGa7BkgGhJ8mlQvNz5IlJDR0wwWNNkzQzTM56kdK5It/zR6lMGCJnvmEGJtyb2P6tHtRk8yKNBkz5wO2ELkVvm/jwG98MTAo8n2C4IYm9r5ltK5yuhJMh9Ntp8gBrSo0vw0USWjR8lwNNn+gzkt/InS8YbRc2Q4mmz/QRxJhtSO14nWY/QomYwm248QwpzW/bHW+YHRk2Qymmy/wjxJdqjBfwFRjR4lY9Fk+xViAAlq4B0ttNHoUTIWTbZ/IcCsHt+vhjfRz5EPEJps/yII84CI2rlKl+kB4AOCJtvvWACs99Tosd1GT5KZaLL9DzEWUENaeCN9/3Yg0GT7nQ6MqOsxrWsN0SJGD5OBaLIDAQNgPbabnvFzINBkBwAhiLGQZKcu7TJ6lAxEkx0QiLGQZJfWs42+1NXvaLIDgQAWiBbX441AP3/b32iyAwQhBERuIyrdA+tnNNkBQgBzutypK91GT5JpaLIDgxDAPFHD9CRI/Y4mO2AwD2qYKF1Gz5FpaLIDBQFDNAnotmx/o8kOEAKIBS1GtKjRk2QamuyAQZjoCtESRs+RaWiyAwYhIABEMXqOTEOTHTgIAFIXy6X6EU2WMhmaLGUyNFnKZGiylMnQZCmToclSJkOTpUyGJkuZDE2WMhmaLGUyNFnKZGiylMnQZCmToclSJkOTpUyGJkuZDE2WMhmaLGUyNFnKZGiylMnQZCmToclSJkOTpUyGJkuZDE2WMhmaLGUyNFnKZGiylMnQZCmToclSJsMaPUCvURjAPBDG6Dn6CwKigcAho+fINGmUbHMH2rsNYR4dPDOr2SGkRxgrF7E4u3VVRfoJTjRLgGCGBZZNq+uLswjlWqw8YqxsuqSSLnMAwKv/4R74tSBaOIwyJFktYLfP3Wn/yqskmSTaiZLVddHjZZ0uoqpGj36QTkgWL9xaUDHcap/g8Rk9zkFplCzPMwKPWUwwzoxkAWFgGcQxiGBEyPF3GwgBxCLMIkxQuuxgaEBYhIGk12+9NEqW41ieZzAGnC6L7MwgABYYDAzCBGFygsVOCAIGIQYhkk6/ZBiE0mkcgLR6xYDjOIbJmJ0vaqCkUbI2m00QBV3XjR6ESmtplKzdYbeIFpJO+8tUGkqjZFNrWZosdXxplKzL5bJZbUQntFrqONIo2ezsbIfTqRO6LUsdTxol6/V67XY73f2iji+NkrXZ7U6Xk24VUMeXRskCwJChQ0RBIHRFSx1beiVbUFBot9t1uqKlji29kh01cqSNbs5Sx5VeyRYWF9vsNu1EBz1Rg1l6JevxeocPH4Expjth1LGkV7IIoKq6iuM4um1AHUt6JQsAZ1VVsyxL17LUsaRdsmXlo7Oy3HQtSx1L2iXr9XjGj5+ops2HSah0k3bJ8jx//pQLEvG40YNQaSrtkgWAqqoqj9dLV7TUUaVjsqMKRk298MJwOJx2Hzui0kA6Jmu1Wi+cdlEikTB6ECodpWOyADBhwoTRZaOj0Shd0VJ9pGmyRcXF02ZO7+7qpslSfaRpshzHXTTtIr/fL0kSrZbqLU2TBYDJF0ypHj8uFArRZKne0jdZu91+xVVX2mzWWCxOq6UOSd9kGYaZPfsrZaVl4TBd0VJfSN9kAcDpcs65di7HsvF4HGfImbqoM5XWHQiCcM2cuaWlpZIUpcd2USlpnSwA+Pw5C266CQDLskw3DyhI/2R5np91xayqqrPi8Thd0VKQ/skCwJChQxcsvNFqsSSTSaNnoYxngmQZhrly9uzzJk+W6VEHlCmSBQCv13vD/PnZPp8sy0bPQhnMHMkCwOVXzLp81ixFUehnbAY50ySLMb7jm98oLimRJMnoWSgjmSZZACgoKPzWnXcCQvQFr8HMTMkCwJy5c66fP7+7q4tuHgxaJksWM8w99/5g3MSJgUCAXr5mcDJZsgCQl5v7wAMPeL3e7u5uWu0gZL5kAWDylAvu/+lPEaBoNEoPlxlszLq8r7/h+ltuvzUejyflJN0VG1TMmqwgind9+ztXzZ4diUY0TaPVDh5mTRYAcvw59//sp+edf344HKanpB08TJwsABQWFv76gQcqKirC4TA9zmuQMHeyADC26qzfPPy7gsLCUHe30bNQXwbTJwsA50ya9NtHfjdkyJBgIAAAdLs2s2VCsgAwdeqFjz3xxJBhQwOdnYQQWm0Gy5BkAeCi6dOefOqpwsKiTlptRsucZAHg/MmTn/rbMxPGj+/q6lJVlb7LkJEybaGOGz/uz3996uJLLunp6YnH6Tk7MlCmJQsAxSUlDz/yyIIbb5STyWg0CrTazJKByQJA/tAhP/vlL358//02my3c3U03bTNJZiYLAC6X6xvf/N/f//EPJaWlXcEueihCxsjYZAGAZdnLLr/8b39/bs61cyLRSCgUAvqqrfllcrIpJaWlf3zyyf976MFsr7ejvT11PnsarnllfrIAwHHc7Xfc8eIrL8++5mpZToRCIVVRaLUmNSiSTamqrv7bs88t/t3vSktLJCkWiUTobpkZDaJkAYBl2YU33fSPF1/83zu/lZ+fHwqFYrEYDddcBleyKaMKCn7685/96S9P3nTzzVlZWd3d3ZIkpY4Tp+2mP9boAQxzzqRJ1ePGXX3NV5e9uvTNFSuCgQDDsqIoCoJACKFH36atwZsspK6XO3lyVVXV/AULXn9t+Ruvvd7a2hqJRERRtFqtGGN6toQ0NKiTTbHZ7dXjqkeXj57/ta+99+57b65Y0bBrV3t7O8bY6XQKggAAtN30QZM9SBTFouLikaNGzbt+3oYNG955e9XWmpod9fUd+/fbbDa73c6yLN1RSwc02cOwLOvOyrr4kkumz5gRCARWf7R6w/r1tbW1n332WSAYFAWB53mOZRHGGCGEcWqPjW74fploskfHMIzf758zd86cuXPa29pqa2u319Zu21Zbu23bvr17dVVFCBFAgAAhxDAMxhh/XnDvVx4QIARAAE5m5YxO7m5fmnSbJ4Ume2L+3Fx/bu70GTMSiURra2tzc3NjQ0PD7sZd9Tv27PmvJEV1VdM0TdU0VVWJruuE6LpOANRoWJeielLWk0k4wcfWCdF0QUlyqkIUxejv+CCVEBZjWddUkkab8vSX2umTJCkqSV2BQHtbe1tba0d7RygcCofD4XBPPBZTNTXREeQvPMd64SRQFKIdd6kTQojOOd2MzX6iuL88GiEunrsqryDXYhntzDJ6nINosv1PJ4QQPfU/gvEp7LGh1H9ptEQQAIPS6/0mmixlMun1D4iiTogmS5kMTZYyGZosZTI0WcpkaLKUydBkKZOhyVImQ5OlTIYmS5kMTZYyGZosZTI0WcpkaLKUydBkKZOhyVImQ5OlTIYmS5kMTZYyGZosZTI0WcpkTHPqjfa2tj2NjaIolo8Zkzq1G3V8kUikdutWTdfHVFa6s9LlLARnzjRr2TdXrLj6mmsWLVoU6AwYPYs51O+oX7Bw4fXX37Bxw0ajZ+lPplnLqqoaCgazszx6Op1s5/gDJ5Myw7A8zxtyvkSi6+3t7bF4XNNUo38Y/ck0a1mW5SyiRRQEbIbTZRJCXvrni9OnXvSdO+9qb283ZAbMMDzL8SzLMKZZMZ2MjPpm0sq+vXvXf7qR4dhELG70LBnFNGtZ0xEtFh4zVosVM4zRs2QUmuyAQAjxPE8IYRiG53mjx8kombNhkEwmW1tagoFgLB4TBdGdlZWfn2+1WY//qGgkEgqFZFlmGOxwOJ1OJ8OyhBAAoigqEBBEoffOUzQaaTnQEgwGFUURRYvT6XA6nS6322IRMWYAgBCi67qmaaqqYoyJrsfjMVVVNU0juq7pusViwRj3HjsaiUQi0Xg8Jssyw7Aup8Ofl3ec0GVZbjlwIBAIyIkEx/N2h8PpcLhcbpvdxhyxRieECKIIAKqqdgWD3d3dciLJi3y215vt8xm90E5HJiSr6/qqt1YuW7p82/bazs5OWZZ5jnN7vGXFxVfNvuqauXOPuvgbG3a/+uqrq9esbm1rS8TjDMtkZWUVFRR5srJisViou1uSE76cnHvuvru4uBgApEh02bJlK1eu3FG/o6urS9M0juNtNqvL7fZ6vaNGDL/vx/fn5uW1t7c/8sgjDQ0Nzfua/H5/0759d9xxh9Vm0zWNABEE8fZFi6ZPmwYAaz76aNmyZXv37QuFQuGenngsllQUBjNeT1ZFecWCm2664ILJR4799sq3lrz0Um3d9s7OgKLILMtZbTan0+n1ekcMG3brbbePnzC+9/15lmtpafng/ff/8fzzu/fs6QoG5WTSbrHm5vqnTJ266Bt3eDxeoxfgKSIm8de/POW2O8afVdW8f3/v26PR6P/96lfD8vIBACNUVFBQWVFZWlLisNoAIMvtvu+HPwyHw32ebe3qtRecex4AsAhXllecM/HscVXVfl8OANgFMcfjzfP6AGBIbt6mTzcRQnp6er57512+LA8AZLlc5WWjx46pLCspHTZ0aJbTlfpJ1m7bRgj57549E6qrAcCX5SkrKh6ely+yHIMQizEAIIC/P/dcaoYf3H1P6oFZTld+bu6IYcOKCgqHDR2aurFydPmHH37Ye2ZFUR59+OG83FwAEHm+tLh47Jixo0vLRg4f7nV7Uo96+q9PH7r/xg0bfVmeEUOGlZWUupxOAMjO8owaMbJoVIGFFwDAwnLzr58XDAaNXranxvRr2TffeGPxgw+FopEZF037+i1fHzd+vCCIqqY27Nz5wgsvLFmy5PFHHy0pKVmwcOGhh4RCoZ//5Cer13183tnn/ODeH1aPq2Y5Vtf1jo7OP/3hD68tX56Xl3vLbbcNHz5C05SCggIAeGXJkmeeeVrXyIIbbliwcGFBQQHGjKZpPeFwZ2dHa0trS8uB3NxcAMjJ8S3+7W/bWtv/9f57S5cuLS0tvfe++3Lz8lRFURRFU7UpU6emxrj00kt8vuwh+fnZOTmpqzWJokgA3lr51h+feKJuR90zT/31rLFjXW536v6rV6/+zUOLW9vbLrv44tsXLaocO5ZhWF3XIpFIoDOwv3l/V7Br3PhxfX4+mq4xDDNnzpxzJ00qKS7xeL2YYZqa9j315F/ee+fdV156+eKLL/najTcavRhPhdH/Zk7WUdeyzc3NV1x2KQdo2tSpW7Zs6fOQ1gMHbr35ZgCYNnXq3r17Uzfquv7666/5Pd7RJSWvv/Zan4cEOjtnXjQtx+N57JFHUncnhCSV5K1f/7qdF6dfeFFzc/ORs2malkwmdV3vfePjjz7GY+bSmRc3728+9KV730f7/NoKfZ5NluVf//JXLqutaOSo3Q0NqRsTicSP77sPACZWV69ds+bIGXRdSyaTmqYdumXjho3Z7iyHaH3qyb9I0aima73vv61229TJk22CeMO8eZIkGb14T4G5XzFob2vfsmmLIAjXzZtXVVXV529z8/OvmTPH7/HWba9r2teUulHX9a1bahRFKSstO+/88/s8xJudfc655yaTyqcbP43FYqlTwYdD4UhPhOXY0eXleXl5R46BMeY4rs9bXKqqpr4c+fw86X2ukYsxZhgGjnhnhOf5sWeNtVitoe7uSCR6cGxNC3YGAGDEyFFnHfGdAgBCmOO43jt2KZqu+fNyrTYbPvz88WMqxlwwZaqqKDvr6yVJMnpJngJzJ9vY2JhIyB6Pp6io+Kh3KCgqGl1eHo1G6+rqdE0DAEJIKBRWNc1isVitfV9P0HXdl+PjOS4ei/WEe1I3CoIgCAIA+m9jY6Cz82QGS61Te//hlFitVosoIowTciJ1C0LYYrUAQEd7++6G3afwnAjkROKofzNkSD4BiPREIz09/btcBpSJt2UVRWne36Tpeo7f73K7jnoft9ud4/fHE4n9TfsScsJqtQEAx3MMZhKJhCRJfarFGIe7u3VN43hetIipGx0OR2FRoU70mpqa79x519zrrq0YU+lwOGw2m81mO3LFdqqSyWQ8FkskEsmknEjIDMPs/e9eTdcxxuTzS33wAl9ZOdZtc9TU1Nx7zz03zL9h/IQJLrfbZrPZbTaGPZ3l6HQ4rVarpqnRaPTLXXRnxMTJqqoa6enRdM1mtwni0Q9HFATBZrdrQEKhsKpqAMAwTEFhIcuyjY17PqvZOn3mjN73j0ajmzdtSciy2+Vyf77fAwCzrrxq3dqP169fv/LNlW+9tdLpziorLS0qLh4zpqK8vGJ0RXlOTs5pfAv79+/fuGHD5s2b9+9rCgaC3d3dXcFgIBjACAmiaLFY0OfXXsEYz7riyg/ef3/Z0qUfr127bu3Hdru9qLiouKS0vKK8oqK8vGLM0GFDT+mrixaLIAg6Iclk0sDleKpMnCwhJCkrQAjLsgw++puiDMYcwwBAar8EABBCU6dO9ef5a7dve/LPf3a7XQWFhYIgqJrWFQg+//zf165dI4jiuImHvbo5blz1bx55eNkrr27atCl1Ueb1H3/84b//Leua1+WeMXPG7XfccdG0aac0/5o1ax564IF33l7FC0JBYUG2N9uf6y8tKxs5asT+pv1vvblS1/Telzf05WQv/u1vqqqr169b17BzV2tb65YtWzZ88klcVWyCZcqUKTff8vWvXP0VluNOcgDMYAZjIMRcFyUycbIIIVbgEEKaph1r207X9dRuEN9r16SkpOTb3/3ur3/xi//8+99bt9YUFhfb7DYlqezbu6/ms60ui3XuvHlfufqrfZ6qoqKioqJi3959exobOwOdHW1tdXU7ampqdtbXL3t16Y66HS++sqS8vOIkh9+zu/FHP7h39cdrL7xgym23315UXORyu5wOh93htNvt//rgg9eWLUeo775ZXn7+9+7+fkd7x86d9R0dHR3t7bsbGjZv3lL72bb333tv+/ZaQeCvnD371H+WZmrWxMkyDON0OBjMSFEpcYw9DDmZlGIxDMhmtx9aEyOEbr7lFpZlf/GTn3W0d3QEApqmYYRdbtfM6dNnzbpizrVzs7Ozj/qEI0aOGDFyROrPoVCo9UDL8uXLnnv6maamphWvv3FYssfNYO3aNVtravJz/D+870cXX3JJn7/tCfcc/urCYXL8OTn+g9shkiS1HDiwft26xQ8+uGPXrteWv3bZrFnsaW3amoWJvzeO44YNHY4wamttjfREjnqfUCgUCHRaBDE3N1cQvnjbFgEIPB8IBhYsXLhw4Y1RScIIu7PcWR5Pfn7+Se5Rud1ut9s9qrCgbnvdqrff3llf/8XzI4QZjBHSVOXIY9JVVW1q2q8qStnossqxY8/kh2Cz2YpLSopLSj5Zt762vj4QCHR3d/l8p7NhbRYmThYhVFhcaLVagl1dTU37jnqf5qb9ddvrbDZrZWVl793q1tbWPz7xB45lZ8yYMX7ixDMZQxTF3NxcTdM0/bBrzwoWkWGYWCwuy3Kfh2i6LstJAOB5IbXdcoaSSnLY8OEcwpqmKcl0uWrzADH367I5fn9V9Tii68uXLW9tbe3zt/F4fNWqVe2dHQWFhcOGDev9Vz3hnh11O1iO4056Z+VY9u7dW19fz3FcXt6Q3rdne7wWq3V/U1MoFOrzEJ7jcvw+QRB27dwZDh/lNdFDv9lPcn2vKVpdXZ1CdI/H4/F4BvrHbiwTr2UBID8/f+7/XPvJ+vUf/vs/93z3e7csur26qspqs8myvHPnzpdefPGfz//DaXfMmzdvVGFB7wdarZbSstJdu3Y9+vDDmzZu9Ob4GIZhMcMJvNPhLCgcVVpaljpmL2Xdx+t27KgrLi725+VlZ2c77PbUbl/Nls1PPPbE5k2bbTbb9OnTe3+JvPw8p8PRfODA8qVLhw8b5svJkSQpEom4XS67w1FSUurOympvb3/80Ue/f/fdBYUFiqJ2dLQ17GrYsP6TD95/P7Vd8e67746prBRFEQB21u9cv35d/pAhI4aP8HiynC4XwzCKouxp3P30U0+/s2pVjjd7wsSJosVi9GIZWKZJVlOVuBSLJxK9d2swxpddfvnmjZtefnnJypUrP9mwweVysSyra5okSakPXc2dO/eauXP7HEjqy8m5+LJL6+rqampqtm/fjhmG6HrqCVmWFUWxoKjozrvunDFjRuozBR+89+7ihxbn5uZabVaO4ziWA4R0XQ93hzo7OyxW6/wFX5s85YLeX6K4pOTscye1v/7GC8//47133hVEMSZJkiQ99JvFX50z55xJZ1/91a8+9+yzry1btvGTTyxWK9H1RCIRiUQkSXK73X6/PxgMPvHY459u2PDAQw+OHj36040b7v3+3ZwgeL1ejmUZhsEM1nVdikotLS0I49mzZ18377pDA+i6JmtqQlE0VTvqj1TXtEQiQQDpmjk+AZpimmT9eXnnTT5/yNChnHDYwa8+n+/nD/yytKzkgw8+aG1pi0nRRCzGsKzL5SouLblg6tQFN96Y7T3skFBCyIoVK15d8vKQIUNmzJwp8HyopyceiymKompquDu0p3HPh//6V3tbq9vtOvucSQAwsqDg3HPPVRQ1Go1IkpRMJgkhHMc5nM7i0pJZV17xtRsXWA5fveXm5n7/7rsxgR319ZIk9fT0AADLc6kXrlwu93e+/z2GZVZ/+FGouzsajfI8b7PbC4uKysrK5sydG4tJL7zwz82fftpyoLUnHAECOTn+sydN6ukJJ+SEFI0m5aSmEY5jrVbbhLPPvmjatFtvu9Xb6zt12B1njxsvywnfMQ7ldmdlja2qEgTebrcZvXhPgWkubp+Uk/F4HGNks9uPuoWnA+ysq+vs6JBlWRDE7GxfSVkxy/bdVCWErP7oo5tvXAgADy1efM21c/vcob2t7eWXljz04INSNHL/z3/27W9/J7WiJQDNzc1tLS2BzoAUixFdEy2W/Lz8s6qrjvOikpxIbNm8pbW1VdM0q9WaneMrKSnp/b7a9traxt27laRisdly/f6y8tGH3kOWZXnTp5vCodCEcyb6sn2fj9d+oKU50BGIRiVNUwVR9Pl8lWMr7XZ7ny+tqQffibXabEfdZI/FYsFAAAHk+P28ic5mYvShZF+2ZDI5f971AsMuuvW2Y92no73j0pkzLSy36Nbburu6jB6ZOoy5XzE4nX+iut7W2ooBHevNAgDADPbn+lVVlaRoMtNfMzKdQZcsALAcqxNdko55+JKqKI27GxmG8fmy7Q77qTw3NeAGXbII4xx/Di8IGzZsWLtmzZF3CIfDzz773Gdbt1mttnHjJx55TC1lLNPsfvUXQsiKN96449bbYvH42MoxMy+91O/PtTscDIaoFAsGgttra999991gZ+C666977PEn3B630SNThxl0yQJAIpH4/eOPP/mnPwU6AxhAtFisNhvCSE7IUjSqqKrb5bruhuu/ddddfd4zo9LBYEwWAJLJ5O6GhnUfr9tetz3Q2RkJ9wCAxWL15/nLy8vPO//8gqJCi5jhbyOZ1CBNljKvQbf7RZkdTZYyGZosZTI0WcpkaLKUydBkKZOhyVImQ5OlTOb/AVJm+TpXZNG3AAAAAElFTkSuQmCC" vertex="1" parent="1">
          <mxGeometry x="620" y="169.5" width="110" height="110" as="geometry" />
        </mxCell>
        <mxCell id="-QomMEc71tAk3ifFAMWK-8" value="" style="shape=image;verticalLabelPosition=bottom;verticalAlign=top;imageAspect=0;image=data:image/png,iVBORw0KGgoAAAANSUhEUgAADV4AAAb1CAYAAABxTTp+AAAACXBIWXMAAC4jAAAuIwF4pT92AAAAGXRFWHRTb2Z0d2FyZQBBZG9iZSBJbWFnZVJlYWR5ccllPAABCjpJREFUeNrs3U1qHdkBhuFjd0MCTVIK9CBQA2mSDDKxduAaZ2LvwNpBtARllqGyA5lME1Dv4GgH9iyzSIMLIdCgIgQ6dLBS5br2lT+7bcv6uz/PA4cjywbTX1t39nIeXFxcFAAAAAAAAAAAAAAAAAAWHpoAAAAAAAAAAAAAAAAA4F3CKwAAAAAAAAAAAAAAAIAgvAIAAAAAAAAAAAAAAAAIwisAAAAAAAAAAAAAAACAILwCAAAAAAAAAAAAAAAACMIrAAAAAAAAAAAAAAAAgCC8AgAAAAAAAAAAAAAAAAjCKwAAAAAAAAAAAAAAAIAgvAIAAAAAAAAAAAAAAAAIwisAAAAAAAAAAAAAAACAILwCAAAAAAAAAAAAAAAACMIrAAAAAAAAAAAAAAAAgCC8AgAAAAAAAAAAAAAAAAjCKwAAAAAAAAAAAAAAAIAgvAIAAAAAAAAAAAAAAAAIwisAAAAAAAAAAAAAAACAILwCAAAAAAAAAAAAAAAACMIrAAAAAAAAAAAAAAAAgCC8AgAAAAAAAAAAAAAAAAjCKwAAAAAAAAAAAAAAAIAgvAIAAAAAAAAAAAAAAAAIwisAAAAAAAAAAAAAAACAILwCAAAAAAAAAAAAAAAACMIrAAAAAAAAAAAAAAAAgCC8AgAAAAAAAAAAAAAAAAjCKwAAAAAAAAAAAAAAAIAgvAIAAAAAAAAAAAAAAAAIwisAAAAAAAAAAAAAAACAILwCAAAAAAAAAAAAAAAACMIrAAAAAAAAAAAAAAAAgCC8AgAAAAAAAAAAAAAAAAjCKwAAAAAAAAAAAAAAAIAgvAIAAAAAAAAAAAAAAAAIwisAAAAAAAAAAAAAAACAILwCAAAAAAAAAAAAAAAACMIrAAAAAAAAAAAAAAAAgCC8AgAAAAAAAAAAAAAAAAjCKwAAAAAAAAAAAAAAAIAgvAIAAAAAAAAAAAAAAAAIwisAAAAAAAAAAAAAAACAILwCAAAAAAAAAAAAAAAACMIrAAAAAAAAAAAAAAAAgCC8AgAAAAAAAAAAAAAAAAjCKwAAAAAAAAAAAAAAAIAgvAIAAAAAAAAAAAAAAAAIwisAAAAAAAAAAAAAAACAILwCAAAAAAAAAAAAAAAACMIrAAAAAAAAAAAAAAAAgCC8AgAAAAAAAAAAAAAAAAjCKwAAAAAAAAAAAAAAAIAgvAIAAAAAAAAAAAAAAAAIwisAAAAAAAAAAAAAAACAILwCAAAAAAAAAAAAAAAACMIrAAAAAAAAAAAAAAAAgCC8AgAAAAAAAAAAAAAAAAjCKwAAAAAAAAAAAAAAAIAgvAIAAAAAAAAAAAAAAAAIwisAAAAAAAAAAAAAAACAILwCAAAAAAAAAAAAAAAACMIrAAAAAAAAAAAAAAAAgCC8AgAAAAAAAAAAAAAAAAjCKwAAAAAAAAAAAAAAAIAgvAIAAAAAAAAAAAAAAAAIwisAAAAAAAAAAAAAAACAILwCAAAAAAAAAAAAAAAACMIrAAAAAAAAAAAAAAAAgCC8AgAAAAAAAAAAAAAAAAjCKwAAAAAAAAAAAAAAAIAgvAIAAAAAAAAAAAAAAAAIwisAAAAAAAAAAAAAAACAILwCAAAAAAAAAAAAAAAACMIrAAAAAAAAAAAAAAAAgCC8AgAAAAAAAAAAAAAAAAjCKwAAAAAAAAAAAAAAAIAgvAIAAAAAAAAAAAAAAAAIwisAAAAAAAAAAAAAAACAILwCAAAAAAAAAAAAAAAACMIrAAAAAAAAAAAAAAAAgCC8AgAAAAAAAAAAAAAAAAjCKwAAAAAAAAAAAAAAAIAgvAIAAAAAAAAAAAAAAAAIwisAAAAAAAAAAAAAAACAILwCAAAAAAAAAAAAAAAACMIrAAAAAAAAAAAAAAAAgCC8AgAAAAAAAAAAAAAAAAjCKwAAAAAAAAAAAAAAAIAgvAIAAAAAAAAAAAAAAAAIwisAAAAAAAAAAAAAAACAILwCAAAAAAAAAAAAAAAACMIrAAAAAAAAAAAAAAAAgCC8AgAAAAAAAAAAAAAAAAjCKwAAAAAAAAAAAAAAAIAgvAIAAAAAAAAAAAAAAAAIwisAAAAAAAAAAAAAAACAILwCAAAAAAAAAAAAAAAACMIrAAAAAAAAAAAAAAAAgCC8AgAAAAAAAAAAAAAAAAjCKwAAAAAAAAAAAAAAAIAgvAIAAAAAAAAAAAAAAAAIwisAAAAAAAAAAAAAAACAILwCAAAAAAAAAAAAAAAACMIrAAAAAAAAAAAAAAAAgCC8AgAAAAAAAAAAAAAAAAjCKwAAAAAAAAAAAAAAAIAgvAIAAAAAAAAAAAAAAAAIwisAAAAAAAAAAAAAAACAILwCAAAAAAAAAAAAAAAACMIrAAAAAAAAAAAAAAAAgCC8AgAAAAAAAAAAAAAAAAjCKwAAAAAAAAAAAAAAAIAgvAIAAAAAAAAAAAAAAAAIwisAAAAAAAAAAAAAAACAILwCAAAAAAAAAAAAAAAACMIrAAAAAAAAAAAAAAAAgCC8AgAAAAAAAAAAAAAAAAjCKwAAAAAAAAAAAAAAAIAgvAIAAAAAAAAAAAAAAAAIwisAAAAAAAAAAAAAAACAILwCAAAAAAAAAAAAAAAACMIrAAAAAAAAAAAAAAAAgCC8AgAAAAAAAAAAAAAAAAjCKwAAAAAAAAAAAAAAAIAgvAIAAAAAAAAAAAAAAAAIwisAAAAAAAAAAAAAAACAILwCAAAAAAAAAAAAAAAACMIrAAAAAAAAAAAAAAAAgCC8AgAAAAAAAAAAAAAAAAjCKwAAAAAAAAAAAAAAAIAgvAIAAAAAAAAAAAAAAAAIwisAAAAAAAAAAAAAAACAILwCAAAAAAAAAAAAAAAACMIrAAAAAAAAAAAAAAAAgCC8AgAAAAAAAAAAAAAAAAjCKwAAAAAAAAAAAAAAAIAgvAIAAAAAAAAAAAAAAAAIwisAAAAAAAAAAAAAAACAILwCAAAAAAAAAAAAAAAACMIrAAAAAAAAAAAAAAAAgCC8AgAAAAAAAAAAAAAAAAjCKwAAAAAAAAAAAAAAAIAgvAIAAAAAAAAAAAAAAAAIwisAAAAAAAAAAAAAAACAILwCAAAAAAAAAAAAAAAACMIrAAAAAAAAAAAAAAAAgCC8AgAAAAAAAAAAAAAAAAjCKwAAAAAAAAAAAAAAAIAgvAIAAAAAAAAAAAAAAAAIwisAAAAAAAAAAAAAAACAILwCAAAAAAAAAAAAAAAACMIrAAAAAAAAAAAAAAAAgCC8AgAAAAAAAAAAAAAAAAjCKwAAAAAAAAAAAAAAAIAgvAIAAAAAAAAAAAAAAAAIwisAAAAAAAAAAAAAAACAILwCAAAAAAAAAAAAAAAACMIrAAAAAAAAAAAAAAAAgCC8AgAAAAAAAAAAAAAAAAjCKwAAAAAAAAAAAAAAAIAgvAIAAAAAAAAAAAAAAAAIwisAAAAAAAAAAAAAAACAILwCAAAAAAAAAAAAAAAACMIrAAAAAAAAAAAAAAAAgCC8AgAAAAAAAAAAAAAAAAjCKwAAAAAAAAAAAAAAAIAgvAIAAAAAAAAAAAAAAAAIwisAAAAAAAAAAAAAAACAILwCAAAAAAAAAAAAAAAACMIrAAAAAAAAAAAAAAAAgCC8AgAAAAAAAAAAAAAAAAjCKwAAAAAAAAAAAAAAAIAgvAIAAAAAAAAAAAAAAAAIwisAAAAAAAAAAAAAAACAILwCAAAAAAAAAAAAAAAACMIrAAAAAAAAAAAAAAAAgCC8AgAAAAAAAAAAAAAAAAjCKwAAAAAAAAAAAAAAAIAgvAIAAAAAAAAAAAAAAAAIwisAAAAAAAAAAAAAAACAILwCAAAAAAAAAAAAAAAACMIrAAAAAAAAAAAAAAAAgCC8AgAAAAAAAAAAAAAAAAjCKwAAAAAAAAAAAAAAAIAgvAIAAAAAAAAAAAAAAAAIwisAAAAAAAAAAAAAAACAILwCAAAAAAAAAAAAAAAACMIrAAAAAAAAAAAAAAAAgCC8AgAAAAAAAAAAAAAAAAjCKwAAAAAAAAAAAAAAAIAgvAIAAAAAAAAAAAAAAAAIwisAAAAAAAAAAAAAAACAILwCAAAAAAAAAAAAAAAACMIrAAAAAAAAAAAAAAAAgCC8AgAAAAAAAAAAAAAAAAjCKwAAAAAAAAAAAAAAAIAgvAIAAAAAAAAAAAAAAAAIwisAAAAAAAAAAAAAAACAILwCAAAAAAAAAAAAAAAACMIrAAAAAAAAAAAAAAAAgCC8AgAAAAAAAAAAAAAAAAjCKwAAAAAAAAAAAAAAAIAgvAIAAAAAAAAAAAAAAAAIwisAAAAAAAAAAAAAAACAILwCAAAAAAAAAAAAAAAACMIrAAAAAAAAAAAAAAAAgCC8AgAAAAAAAAAAAAAAAAjCKwAAAAAAAAAAAAAAAIAgvAIAAAAAAAAAAAAAAAAIwisAAAAAAAAAAAAAAACAILwCAAAAAAAAAAAAAAAACMIrAAAAAAAAAAAAAAAAgCC8AgAAAAAAAAAAAAAAAAjCKwAAAAAAAAAAAAAAAIAgvAIAAAAAAAAAAAAAAAAIwisAAAAAAAAAAAAAAACAILwCAAAAAAAAAAAAAAAACMIrAAAAAAAAAAAAAAAAgCC8AgAAAAAAAAAAAAAAAAjCKwAAAAAAAAAAAAAAAIAgvAIAAAAAAAAAAAAAAAAIwisAAAAAAAAAAAAAAACAILwCAAAAAAAAAAAAAAAACMIrAAAAAAAAAAAAAAAAgCC8AgAAAAAAAAAAAAAAAAjCKwAAAAAAAAAAAAAAAIAgvAIAAAAAAAAAAAAAAAAIwisAAAAAAAAAAAAAAACAILwCAAAAAAAAAAAAAAAACMIrAAAAAAAAAAAAAAAAgCC8AgAAAAAAAAAAAAAAAAjCKwAAAAAAAAAAAAAAAIAgvAIAAAAAAAAAAAAAAAAIwisAAAAAAAAAAAAAAACAILwCAAAAAAAAAAAAAAAACMIrAAAAAAAAAAAAAAAAgCC8AgAAAAAAAAAAAAAAAAjCKwAAAAAAAAAAAAAAAIDwtQkAAAAAAAA2W1/breHa+sgf+fVwfn4Df9XpR37vh6ab/dP/DQAAAAAAAJbFg4uLCysAAAAAAACssL62O8O1M//lGFDtXvrt3fJuVDX+ue1V+U8bzov4Xr309WlZxFznTTd74V8DAAAAAAAAN0V4BQAAAAAAsKT62r6JpnbKIqzq5vf4/UdW+qCzsgiyxhjrfH5eh1lNN6smAgAAAAAA4FOEVwAAAAAAAPekr203/zLvx9a5Ey/LIsh652662bl5AAAAAAAANpvwCgAAAAAA4BbN46qd+XnzgtV4N9ZZeifzu5bpBa3xiLIAAAAAAAA2hPAKAAAAAADgmvravompxrNz6Wtx1foao6zT+anj3XSzU7MAAAAAAACsD+EVAAAAAADAFcxfsBJY8VMyyPJCFgAAAAAAwIoSXgEAAAAAAHzApVesurIIrLYtwxc4K5dCrDLFWKdmAQAAAAAAWG7CKwAAAAAAYOOJrLiPf3ZlirBqEWMBAAAAAAAsJeEVAAAAAACwcfravomruvn9yCosgfFlrLcxVtPNqkkAAAAAAADuj/AKAAAAAABYe31tuzJFVuMZQ6vGKqyIk7KIsWrTzc5NAgAAAAAAcDeEVwAAAAAAwFrpa7tVFpHVeLxmxTp5Wd4NsU5NAgAAAAAAcDuEVwAAAAAAwEoTWrHhzso8wipCLAAAAAAAgBslvAIAAAAAAFZOX9uuLEKrxxaBt8YXsWpZhFjnJgEAAAAAAPgywisAAAAAAGDp9bXdGa6nZRFbNVaBz3JSpgjruOlmL8wBAAAAAADw+YRXAAAAAADAUupr+ya0Gu9ti8D1f6yGc1wWIZbXsAAAAAAAAD5CeAUAAAAAACyF+atWXZlCqycWgVs3vob1OsTyGhYAAAAAAMD7hFcAAAAAAMC96Wu7W6bYam84jywC9+asTBHW+BJWNQcAAAAAAIDwCgAAAAAAuGPz2GqvTC9bbVsElu/HtCwirGNzAAAAAAAAm0p4BQAAAAAA3Lq+tmNkNZ6uiK1gpX58yxRh1TKFWOcmAQAAAAAANoXwCgAAAAAAuBWXYqvxNBaBtfBdWbyGJcICAAAAAADWmvAKAAAAAAC4MX1td4drb37EVrDGP+5lEWAdmwMAAAAAAFhHwisAAAAAAOBaLsVW48tW2xaBzfsYKCIsAAAAAABgDQmvAAAAAACAK+tru1Om0GpvOI8sAsydlSnCOmq62QtzAAAAAAAAq0x4BQAAAAAAfLa+tntlCq6eWAP4hJfDOSpThHVuDgAAAAAAYNUIrwAAAAAAgI/qa7s7XPtlCq4aiwBf4LsyBVjHpgAAAAAAAFaF8AoAAAAAAHhPX9ut4dorU3C1bRHgpj5eyvQK1mHTzU7NAQAAAAAALDPhFQAAAAAA8FZf2/FVq/E8swZwy07K9ArWkSkAAAAAAIBlJLwCAAAAAIAN53Ur4L4/hopXsAAAAAAAgCUkvAIAAAAAgA3V17YrU3DldStgWXgFCwAAAAAAWBrCKwAAAAAA2CDz162eDuegeN0KWF5nZXoF68grWAAAAAAAwH0RXgEAAAAAwAboa7szXPtleuGqsQiwQp6XKcCqpgAAAAAAAO6S8AoAAAAAANZYX9uuTMHVE2sAK+7lcA6bbnZkCgAAAAAA4C4IrwAAAAAAYA31td0broPhbFsDWDNnwzkqU4R1bg4AAAAAAOC2CK8AAAAAAGBN9LXdKtPrVntFcAVswMfecI6Hc9B0s1NzAAAAAAAAN014BQAAAAAAK66v7U6ZXrd6OpzGIsAGej6co6abVVMAAAAAAAA3RXgFAAAAAAAr6lJw9cwaAK+dlOkFrGoKAAAAAADguoRXAAAAAACwYvradmUKrh5bA+CDXg7nsOlmR6YAAAAAAAC+lPAKAAAAAABWhOAK4MrOyvQC1pEpAAAAAACAqxJeAQAAAADAkhNcAVybAAsAAAAAALgy4RUAAAAAACypvrZPh2u/CK4AbooACwAAAAAA+GzCKwAAAAAAWDLzF64Oh/PIGgC3QoAFAAAAAAB8kvAKAAAAAACWxDy4OiheuAK4KwIsAAAAAADgJwmvAAAAAADgngmuAO6dAAsAAAAAAHiP8AoAAAAAAO6J4Apg6QiwAAAAAACAt4RXAAAAAABwx/ra7gzX4XCeWANgKZ2UKcCqpgAAAAAAgM0lvAIAAAAAgDsyD64OhvPMGgArQYAFAAAAAAAbTHgFAAAAAAC3rK/t1nDtz09jEYCV87xMAdapKQAAAAAAYHMIrwAAAAAA4Bb1tR1jq4MiuAJYB38czmHTzc5NAQAAAAAA6094BQAAAAAAt6Cv7dPhOhzOtjUA1usjvkyvXx2aAgAAAAAA1pvwCgAAAAAAblBf290yBVePrQGw1s6Gs990s2NTAAAAAADAehJeAQAAAADADehru1Wm4OqZNQA2ykmZAqwXpgAAAAAAgPUivAIAAAAAgGv4+19+t/XNL/579MutH7rhl41FADbWn4dz0HSzc1MAAAAAAMB6eGgCAAAAAAD4Mv/462//9ODBxff/+ffPnnz/r2+aV68eGAVgc/1hOKd9bfdNAQAAAAAA68GLVwAAAAAAcEVnf/vN7//348PnP/741beXv//V16/Kr779P3t3F1v3fd93/HeeeMhQ9mEkTU5AGHLCkEI9wHKBAQbaPJzcbIDXwR56EdgYYAb1zVYMVYthF4ORKdiNgV3UybC7dpVgQPUDmYhDhiUXSY+aBkuAoKZ6sRlbLJK1jtM6FnOOqKPzyPPf/4hWLR/rgc/n6fUCfqCBtm78poQWOv7wezNkMpsiAYy2y/E7k8sXC1IAAAAAAMDgMrwCAAAAAIBtevvVx6ey463v12vpp+733/fwVC1MPlQXDIDzYWuAVZICAAAAAAAGT1ICAAAAAAB4sJWFuZcTiejag0ZXHddL46G0PhHa7YRwAKPthfitlgvTZ6QAAAAAAIDB4+IVAAAAAADcx9WlmS/Wq+nvNpup4zv9n81kNkPuWPXWVwBG3uX4zefyxWUpAAAAAABgMBheAQAAAADAXbz96uNT4xPN12rVzD/by98nkYzC1NFqiP9eogLQ8a34nc3liyUpAAAAAACgvxleAQAAAABAl7XF2Rcb9dR/3dxMju3X3/PIw/XwUK4mLgC3/k9N/M7k8sWLUgAAAAAAQP8yvAIAAAAAgA9dXZo52ain/mejnv6Ng/j7d65e5Y5WQzLpz+YBuGUpbA2wVqUAAAAAAID+k5QAAAAAAABuXbl6qbIxduWgRlcdtWomrL8/GZrNlOAAdDwTv+VyYfqMFAAAAAAA0H9cvAIAAAAAYKStLsw+sbmZ/F6zkXr0sP53JpJROHr8ZhjLtnwDALjtUvzmXb8CAAAAAID+4eIVAAAAAAAja+XNuT+t19PLhzm66ojaiXDt/clQ2cj6JgBw21fC1vWrs1IAAAAAAEB/cPEKAAAAAICRc+vKVSv5w2YzdbzX/1kmJhth6mjVNwWAO10OW9evlqUAAAAAAIDecfEKAAAAAICR8g9XrvpgdNVRrYyFD/7uSGi3E745ANx2On5vuX4FAAAAAAC95eIVAAAAAAAjoZ+uXN1NKt0Onz5+M2Qym75ZANzJ9SsAAAAAAOgRF68AAAAAABh6a4uzL/XTlau72Wwlw7X3J0OtmvENA+BOnetXhXJh+owUAAAAAABwuFy8AgAAAABgaF1dmjlZr6V/1GykPj9I/7mnjlbDxGTDNxCAbpfC1vWrVSkAAAAAAODguXgFAAAAAMBQ6ly5qmyMXRm00VVHaX3i1gOALl+J33K5MD0vBQAAAAAAHDwXrwAAAAAAGCpvv/r4VHa89f16Lf3UoP+zjE80Q+5oNSST/iwfgE9YClvXr0pSAAAAAADAwTC8AgAAAABgaKwtzj7dbKQWWq3k0JyLymQ2w9ETFeMrAO6mHL9nc/liQQoAAAAAANh/SQkAAAAAABgGqwuzF6o3M/9jmEZXHc1mKnzw90dufQWALrn4/UW5MP2KFAAAAAAAsP9cvAIAAAAAYKBdXZo5Wa+mf95spo4P8z9nIhmFYycqty5gAcBdXA5b169WpQAAAAAAgP3h4hUAAAAAAANr5c25P6xsjF0Z9tFVR9ROhA/+7kioVsZ84wG4m9PxWy4XpuelAAAAAACA/eHiFQAAAAAAA2nlzbmf1mvpp0bxn33qaDVMTDb8IgDgXs7H70wuXyxJAQAAAAAAu2d4BQAAAADAQFldmH2i1Uz9pNVKHhnlDpMP1cPDUzW/IAC4l8vxm8/li8tSAAAAAADA7iQlAAAAAABgUKwtzr5Ur6eXR3101VHZyIbS+oRfFADcy+n4vVUuTM9LAQAAAAAAu+PiFQAAAAAAA2Hlzbmf1mvpp5T4uInJxq3LV8mkP+8H4J7Ox+9MLl8sSQEAAAAAANtneAUAAAAAQF9bXZh9otVM/cSVq3vLZDbD0RMV4ysA7udy/OZz+eKyFAAAAAAAsD1JCQAAAAAA6Fdri7Mv1mvpt4yu7q/ZTIX19ydDu50QA4B7OR2/QrkwPS8FAAAAAABsj4tXAAAAAAD0pZU35y7Wa+lnlNi+zuWrTx+/GVLpthgA3M/5XL44LwMAAAAAANyf4RUAAAAAAH3l6tLMyXot/eNmI/WoGjuXSEbh2InKrREWANzH5fjlc/liSQoAAAAAALi7pAQAAAAAAPSLtcXZp6uVzP81utq9qJ0I196fDM1mSgwA7ud0/FbLhem8FAAAAAAAcHeGVwAAAAAA9IWVhbmXa7X09zY3k2Nq7I3xFQDblIvfX5QL02ekAAAAAACAT0pEUaQCAAAAAAA9deWNuUuNevrLSuyvRDIKx05UQiazKQYAD3I+fmdy+WJJCgAAAAAA2GJ4BQAAAABAz1xdmjlZq6Z/1mqmHlHjYHTGV1NHq2F8oikGAA9yOX554ysAAAAAANhieAUAAAAAQE+88/qpL0XtxA9areSEGgevM76amGwIAcCDlMPW+GpZCgAAAAAARl1SAgAAAAAADtvKm3N/2GolLxldHZ7S+kSoVsaEAOBBcvF7q1yYnpcCAAAAAIBR5+IVAAAAAACHanVh9kKtmnlOid5w+QqAHfhWLl88IwMAAAAAAKPK8AoAAAAAgENz5Y25/92op39Did4yvgJgB5biN5/LF0tSAAAAAAAwagyvAAAAAAA4cFeXZk7WqumftZqpR9ToD8ZXAOzA5fg9m8sXV6UAAAAAAGCUGF4BAAAAAHCg3nn91JeiduIHrVZyQo3+YnwFwA6U45fP5YvLUgAAAAAAMCqSEgAAAAAAcFDevTjztVYrecnoqj+V1idCtTImBADbkYtfoVyYnpcCAAAAAIBRYXgFAAAAAMCBWFmYe7mykX0taicSavQv4ysAdqAzvvqzcmH6jBQAAAAAAIyCRBRFKgAAAAAAsK9WF2Yv1KqZ55QYHFNHq2FisiEEANt1PpcvzssAAAAAAMAwM7wCAAAAAGBfXXnj1HKjnjqtxOAxvgJgh5biN5/LF0tSAAAAAAAwjAyvAAAAAADYF2+/+vhUZmzzb5qN1KNqDKZEMgrHTlRCJrMpBgDbdTl+eeMrAAAAAACGUVICAAAAAAD26urSzMl0uv2u0dVgi9qJcO39ydBspsQAYLs6Vy4L5cL0k1IAAAAAADBsXLwCAAAAAGBPVhdmn2g1Uz9ttZITagwHl68A2IVy2Lp8tSwFAAAAAADDwsUrAAAAAAB27d2LM1+r19J/bXQ1XFy+AmAXcmHr8lVeCgAAAAAAhoXhFQAAAAAAu9IZXd2sjP15FCWsc4aQ8RUAu9AZX/1FuTA9LwUAAAAAAMPA8AoAAAAAgB278sbcN26NrtqJhBrDqzO+Kl+bCO22bzMAO/JnxlcAAAAAAAwDwysAAAAAAHZkbXH22416+ptGV6Ohc/Fq/f1J4ysAdqozvjojAwAAAAAAgywRRZEKAAAAAABsy99+5wt/crMy9ntKjJ5MZjMcPVEJyaTPFQDYkfO5fHFeBgAAAAAABpGLVwAAAAAAbMvqwuwFo6vR1bl8VV6fEAKAnXqhXJg+JwMAAAAAAIPIxSsAAAAAAB7onddO/VWzmfptJZiYbISpo1UhANgpl68AAAAAABg4hlcAAAAAANzXlTdOLTfqqdNKcJvxFQC7ZHwFAAAAAMBAMbwCAAAAAOCeVt6c+0W9lp5Rgm6d4VVngAUAO3Q5fvlcvliSAgAAAACAfpeUAAAAAACAuzG64n5K6xOhWhkTAoCd6lzRLJQL01NSAAAAAADQ7wyvAAAAAAD4BKMrtqMzvmrU00IAsFPGVwAAAAAADATDKwAAAAAAPsboip1Y/+BTodlMCQHAThlfAQAAAADQ9wyvAAAAAAD4B0ZX7FTUToRr70+GdvwVAHbI+AoAAAAAgL5meAUAAAAAwC1GV+xWZ3y1bnwFwO4YXwEAAAAA0LcMrwAAAAAAMLpiz5rNVPj1B58SAoDdML4CAAAAAKAvGV4BAAAAAIw4oyv2S6OeDqX1CSEA2A3jKwAAAAAA+o7hFQAAAADACDO6Yr9VK2OhspEVAoDdML4CAAAAAKCvGF4BAAAAAIwooysOyvXS+K0BFgDsgvEVAAAAAAB9w/AKAAAAAGAEGV1x0Mql8dBspoQAYDduja9kAAAAAACg1wyvAAAAAABGzJU3Ti0bXXHQonYiXHt/MrTjrwCwC6fLhelzMgAAAAAA0EuGVwAAAAAAI+Sd1079VaOeOq0Eh6Ezvlo3vgJg914wvgIAAAAAoJcMrwAAAAAARsTqwuyFZjP120pwmOJfc+F6aVwIAHbL+AoAAAAAgJ4xvAIAAAAAGAF/+50v/EmtmnlOCXqhWhkLG2XjKwB2zfgKAAAAAICeMLwCAAAAABhya4uz375ZGfs9JeilG9ezoVbNCAHAbnXGV2dlAAAAAADgMCWiKFIBAAAAAGBIXXlj7huNevqbStAPEskoHDtRCZnMphgA7NbXc/niORkAAAAAADgMhlcAAAAAAEPq3YszX7tZGfvzqJ1IqEG/SKXb4fgjN0Iy6fMJAHbN+AoAAAAAgENheAUAAAAAMITWFmefrtXS3zO6oh+NZVu3Ll8BwB58NZcvFmQAAAAAAOAgGV4BAAAAAAyZ1YXZJ+q19F9HUSKlBv1q8qF6eHiqJgQAu1WOXz6XLy5LAQAAAADAQUlKAAAAAAAwPK4uzZxsNVM/Nbqi31U2sqFaGRMCgN3Kxa9QLkw/KQUAAAAAAAfFxSsAAAAAgCHx9quPT6XS7dXNVjKnBoMgkYzCsROVkMlsigHAbq3F78lcvliSAgAAAACA/ebiFQAAAADAkMiMbf6N0RWDJGonQvnaRGjHXwFgl06GrctXU1IAAAAAALDfDK8AAAAAAIbAlTdOLTcbqUeVYNA0m6lQXp8QAoC9OB2/czIAAAAAALDfDK8AAAAAAAbc6sLshUY9dVoJBlWtmgkb5XEhANiLZ8qF6XMyAAAAAACwnwyvAAAAAAAG2MrC3Mu1auY5JRh0N65nQ6OeFgKAvXihXJg+IwMAAAAAAPslEUWRCgAAAAAAA+jdizNfq2xkX1OCYZFIRuHEZzdCMumzCwD25Ou5fPGcDAAAAAAA7JXhFQAAAADAAHrn9VNfajWThShKJNVgmIxlW+HYiYoQAOzVb+byxWUZAAAAAADYCx/IAwAAAAAMmKtLMyejduIHRlcMo0Y9Ha6XxoUAYK8K5cL0YzIAAAAAALAXPpQHAAAAABgwtWr6Z61WckIJhlVlIxv/Os8IAcBe5OJ3sVyYnpICAAAAAIDdMrwCAAAAABggV944tdxqph5RgmFXWp8Imy0fYwCwJ6fjd1EGAAAAAAB2yyeWAAAAAAADYnVh9kKjnjqtBKMgaiduja8AYI++Ui5Mn5MBAAAAAIDdMLwCAAAAABgAa4uzL9aqmeeUYJQ06umwUR4XAoC9eqFcmJ6XAQAAAACAnUpEUaQCAAAAAEAfe+f1U19qtZKXonYioQaj6NiJShjLtoQAYK++mssXCzIAAAAAALBdLl4BAAAAAPSxq0szJ6N24gdGV4yy9Q8+FdptvwUA2LOL5cL0YzIAAAAAALBdhlcAAAAAAH2sXkv/uNVKTijBKIvaiVBe99sAgD3Lha3x1ZQUAAAAAABsh+EVAAAAAECfuvLG3KVmI/WoEhBCrZoJlY2sEADs1en4vSIDAAAAAADbYXgFAAAAANCHVhbmXm7U019WAj5yvTQems2UEADs1QvlwvRZGQAAAAAAeJBEFEUqAAAAAAD0kbXF2adrtfT3onYioQZ8XCazGY6eqIRk0ucbAOzZV3P5YkEGAAAAAADuxfAKAAAAAKCPXF2aOVm7mfk/rVZyQg24u8mH6uHhqZoQAOxVOX5P5vLFVSkAAAAAALibpAQAAAAAAP2jXkv/2OgK7q+ykQ2NeloIAPYqF7+L5cL0lBQAAAAAANyN4RUAAAAAQJ9YeXPuYrORelQJeLD1Dz4V2u2EEADs1en4vSIDAAAAAAB3Y3gFAAAAANAH1hZnX6zX0s8oAdsTtROhvO44HAD74oVyYXpeBgAAAAAAuiWiKFIBAAAAAKCHVhdmn6jX0m9FUcIPy4Id+vTxm2F8oikEAHtVjt9nc/liVQoAAAAAAG7zIT4AAAAAQI81m6m/NLqC3SmtT4TNlt8+AOxZ3ugKAAAAAIBuPokEAAAAAOihlTfnfrrZSuaUgN2J2olb4ysA2IOv5/LFZRkAAAAAAOhmeAUAAAAA0CNri7Mv1Wvpp5SAvWnU06GykRUCgN34Zi5fPCcDAAAAAAB3k4iiSAUAAAAAgEO2ujD7RL2eXo7aiYQasHeJZBT+0SM3QirdFgOA7TqfyxfnZQAAAAAA4F5cvAIAAAAA6IFWM/UToyvYP/Hvp1BanxACgO1aMroCAAAAAOBBDK8AAAAAAA7ZlTfmLrVaySNKwP5q1NOhspEVAoAHuRy/eRkAAAAAAHgQwysAAAAAgEO0tjj7YqOe/rIScDA2rmfDZsvHHwDcU2d0lc/liyUpAAAAAAB4kEQURSoAAAAAAByCq0szJysbY1eiKGEVAgdoLNsKx05UhACgm9EVAAAAAAA74sN9AAAAAIBDUq+mf250BQevUU+HykZWCADuVI7fs0ZXAAAAAADshA/4AQAAAAAOwerC7IVmM3VcCTgcG9ezYbPlYxAAbumMrjqXrlalAAAAAABgJ3ziCAAAAABwwNYWZ5+uVTPPKQGHJ2onwvXSuBAA3B5dLUsBAAAAAMBOJaIoUgEAAAAA4IC8/erjU+l0+71WKzmhBhy+Tx+/GcYnmkIAjCajKwAAAAAA9sTFKwAAAACAA5Qdb33f6Ap6p7Q+EdrthBAAo8foCgAAAACAPTO8AgAAAAA4IGuLsy/Wa+mnlIDeidqJcL00LgTAaDG6AgAAAABgXySiKFIBAAAAAGCfXV2aOVnZGLsSRQk/AAv6wLETlTCWbQkBMPzW4ves0RUAAAAAAPvBB/4AAAAAAAegXkv/yOgK+kdpfUIEgOF3OX5PGl0BAAAAALBffOgPAAAAALDP1hZnX2o2Up9XAvrHZisZNsrjQgAMr87oKp/LF0tSAAAAAACwXxJRFKkAAAAAALBPri7NnKxsjF1x7Qr604nPboRUui0EwHC5FL9nja4AAAAAANhvaQkAAAAAAPZPvZr+udEV9K/S+kQ4dqIiBMDwOJ/LF+dlAAAAAADgIPjwHwAAAABgn6y8OfenzWbquBLQvxr1dKhVM0IADIdvGV0BAAAAAHCQElEUqQAAAAAAsEerC7NP1Ovp5aidSKgB/S2RjMKJz26EZNJnJAAD7Ou5fPGcDAAAAAAAHCQXrwAAAAAA9sFmK/lDoysYDPHv1XDjelYIgMFUjt+/NLoCAAAAAOAwGF4BAAAAAOzR2uLst5vN1HElYHBUNrIh/n0rBMCA/b9d8cvn8sWLUgAAAAAAcBgSURSpAAAAAACwS1eXZk5WboytuHYFg2cs2wrHTlSEABgMl8PW6KokBQAAAAAAhyUtAQAAAADA7tVr6R8ZXcFgatTToVoZCxOTDTEA+tv5XL44LwMAAAAAAIctKQEAAAAAwO6sLc6+1GykPq8EDK6N69nQbttOAvSxrxtdAQAAAADQK4koilQAAAAAANihq0szJysbY1eiKOEHXMGAO/JwPTyUqwkB0F/K8cvn8sVlKQAAAAAA6BX/QgAAAAAAwC40G6nXja5gONy4ng2bLb+dAfrIpfg9ZnQFAAAAAECvpSUAAAAAANiZtcXZF+u1zFNKwPC4XhoPnz5+UwiA3vtmLl88KwMAAAAAAP3A8AoAAAAAYIfq9fR/UQGGS62aCY16OoxlW2IA9EY5fs/m8sWCFAAAAAAA9IukBAAAAAAA27e6MPv99mZiXAkYPtd/7bc2QI8sxe8xoysAAAAAAPpNIooiFQAAAAAAtmF1YfaJWjVzWQkYXlNHq2FisiEEwOHoXLk6m8sXX5ECAAAAAIB+lJYAAAAAAGB7NlvJH6oAw61cGg/ZiWZIJv3gOoAD1hmzz+fyxWUpAAAAAADoV4ZXAAAAAADbsLY4+1KzmTmuBAy3qJ0IlY1seChXEwPg4Hwzly+elQEAAAAAgH6XiCI/sREAAAAA4H7efvXxqVSq/avNzaQfZgUj4sRnN0Iq3RYCYH+5cgUAAAAAwEDxLwkAAAAAADzA+KeaF2s3M/48FUbIxvVsmDpaFQJg/7hyBQAAAADAwElKAAAAAABwb1eXZr5Yu5n5ihIwWqqVsdBspoQA2LtL8ftNoysAAAAAAAaRn9AKAAAAAHAf9Wr6uyrAaLr+6/Fw7ERFCIDdKcfvbC5ffEUKAAAAAAAGleEVAAAAAMA9rC3OvtRsZo4rAaOpUU/femPZlhgAO7MUv/lcvliSAgAAAACAQZaIokgFAAAAAIAub7/6+FQq1f7V5mbSD7CCEZbJbIbjn7khBMD2rIWtwVVBCgAAAAAAhoF/YQAAAAAA4C7GJ5qv1aoZf4YKI67ZTIVqZSxMTDbEALi3cvzO5vLFV6QAAAAAAGCYJCUAAAAAAPi41YXZJ+r19D9VAujYuJ4VAeDezsfvMaMrAAAAAACGkZ/WCgAAAADQJYoS34naiYQSQMdmK+nqFcAnXYrffC5fXJUCAAAAAIBhZXgFAAAAAHCHtcXZF+u1zIwSwJ3KpfGQnWiGZDISAxh1ncHV2Vy+WJACAAAAAIBhZ3gFAAAAAHCHViv5n1UAukXtRKhsZMNDuZoYwKhai9+ZXL54UQoAAAAAAEaF4RUAAAAAwIdWFuZebjbSU0oAd1O5MRYmH6q7egWMms7gqnPh6pwUAAAAAACMmkQU+XAQAAAAAODtVx+fSqXav9rcTPqBVcA9HXm47uoVMCoMrgAAAAAAGHn+BQIAAAAAgFh2vHWuXkv7M1Pgvly9AkbApfidM7gCAAAAAAAXrwAAAAAAwtWlmZOVG2MrUTuRUAN4EFevgCHVGVx1LlwVpAAAAAAAgC1+eisAAAAAMPKajdTrRlfAdrl6BQyZ8/F7JZcvLksBAAAAAAAf5+IVAAAAADDSVhdmn6hVM5eVAHbC1StgwK3F71zYGlyV5AAAAAAAgLtz8QoAAAAAGGlRlPiOCsBOuXoFDKhL8TuXyxfPSQEAAAAAAA9meAUAAAAAjKy1xdmn67XMjBLATkXtRKhsZF29AgZBOXx03WpVDgAAAAAA2D7DKwAAAABgZDWbyf+mArBbrl4BfW4pbF23uigFAAAAAADsjuEVAAAAADCS3v3uF860mmOPKAHslqtXQB+6HLauW3UGVyU5AAAAAABgbwyvAAAAAICR1Gik/qMKwF65egX0gdtjq4u5fHFVDgAAAAAA2D+GVwAAAADAyOlcu2o2xqaUAPbK1SugR4ytAAAAAADgEBheAQAAAAAjp15L/ycVgP3i6hVwSJbiVwjGVgAAAAAAcGgMrwAAAACAkbKyMPdyq5U+ogSwXzpXr6qVrfEVwD5ai9/F+BVy+eJFOQAAAAAA4PAZXgEAAAAAI6XZSP2BCsB+u331CmAPOkOrwu3nqhUAAAAAAPSe4RUAAAAAMDI6167am+lxJYD9ttlK3rp6NTHZEAPYrsvxWw6GVgAAAAAA0LcMrwAAAACAkeHaFXCQNq5nDa+Ae+lcs1oOHw2tlnP5YkkWAAAAAADob4ZXAAAAAMBIcO0KOGidq1e1aiaMTzTFgNF2KX6r4aOhlZEVAAAAAAAMKMMrAAAAAGAkuHYFHIbKxpjhFQy/ctgaVJU+/Lr64TOwAgAAAACAIWN4BQAAAAAMPdeugMPSqKdDs5kKmcymGDB4Lt3x16sfvo7bI6tSLl9clgkAAAAAAEZHIooiFQAAAACAoVYuTD8Zf5lSAgDoyOWLBRUAAAAAAIAHMbwCAAAAAAAAAAAAAAAA6JKUAAAAAAAAAAAAAAAAAODjDK8AAAAAAAAAAAAAAAAAuhheAQAAAAAAAAAAAAAAAHQxvAIAAAAAAAAAAAAAAADoYngFAAAAAAAAAAAAAAAA0MXwCgAAAAAAAAAAAAAAAKCL4RUAAAAAAAAAAAAAAABAF8MrAAAAAAAAAAAAAAAAgC6GVwAAAAAAAAAAAAAAAABdDK8AAAAAAAAAAAAAAAAAuhheAQAAAAAAAAAAAAAAAHQxvAIAAAAAAAAAAAAAAADoYngFAAAAAAAAAAAAAAAA0MXwCgAAAAAAAAAAAAAAAKCL4RUAAAAAAAAAAAAAAABAF8MrAAAAAAAAAAAAAAAAgC6GVwAAAAAAAAAAAAAAAABdDK8AAAAAAAAAAAAAAAAAuhheAQAAAAAAAAAAAAAAAHQxvAIAAAAAAAAAAAAAAADoYngFAAAAAAAAAAAAAAAA0MXwCgAAAAAAAAAAAAAAAKCL4RUAAAAAAAAAAAAAAABAF8MrAAAAAAAAAAAAAAAAgC6GVwAAAAAAAAAAAAAAAABdDK8AAAAAAAAAAAAAAAAAuhheAQAAAAAAAAAAAAAAAHQxvAIAAAAAAAAAAAAAAADoYngFAAAAAAAAAAAAAAAA0MXwCgAAAAAAAAAAAAAAAKCL4RUAAAAAAAAAAAAAAABAF8MrAAAAAAAAAAAAAAAAgC6GVwAAAAAAAAAAAAAAAABdDK8AAAAAAAAAAAAAAAAAuhheAQAAAAAAAAAAAAAAAHQxvAIAAAAAAAAAAAAAAADoYngFAAAAAAAAAAAAAAAA0MXwCgAAAAAAAAAAAAAAAKCL4RUAAAAAAAAAAAAAAABAF8MrAAAAAAAAAAAAAAAAgC6GVwAAAAAAAAAAAAAAAABdDK8AAAAAAAAAAAAAAAAAuhheAQAAAAAAAAAAAAAAAHQxvAIAAAAAAAAAAAAAAADoYngFAAAAAAAAAAAAAAAA0MXwCgAAAAAAAAAAAAAAAKCL4RUAAAAAAAAAAAAAAABAF8MrAAAAAAAAAAAAAAAAgC6GVwAAAAAAAAAAAAAAAABdDK8AAAAAAAAAAAAAAAAAuhheAQAAAAAAAAAAAAAAAHQxvAIAAAAAAAAAAAAAAADoYngFAAAAAAAAAAAAAAAA0MXwCgAAAAAAAAAAAAAAAKCL4RUAAAAAAAAAAAAAAABAF8MrAAAAAAAAAAAAAAAAgC6GVwAAAAAAAAAAAAAAAABdDK8AAAAAAAAAAAAAAAAAuqQlAAAAAAD6wWee/3f/JkTtMSWAUVX6F/92WQUG1Grt+c+tygAAAAAAAAybRBRFKgAAAAAAPfWZ5/7ozJH/9d0/VgIYZe9947+H9vgRIRgGlz78Worf8h1fDbQAAAAAAICB4uIVAAAAANBzqdLfv6ACMOqyV5ZD9fEvCsEw+Modf/3Mnf+F8QsrnS+Xw4dDrPgVOn9de/5zJdkAAAAAAIB+4+IVAAAAANBzj/2TL99Mf/DuhBLAKLvxW78bSr/z+0IwqtbChyOsztfa859blgQAAAAAAOg1F68AAAAAgJ565IX/8MWHjK4AQnbFzoSRdjJ+L3z4OpexymFriHUxbA2xViUCAAAAAAAOm+EVAAAAANBTyRuleRUAQsj88p2QrN0I7fEjYkAIufg98+HrDLEuh60h1jnXsAAAAAAAgMOSlAAAAAAA6KX0tav/XAWALdkr9iRwD6fj9wfxe2v8wspq/F6J35OyAAAAAAAABykRRZEKAAAAAEDPfP7UP24n6zcTSgCEcOO3fjeUfuf3hYDtW4vfK/G7WHv+c6tyAAAAAAAA+8nFKwAAAACgZx75V//+a0ZXAB/Jrrh4BTt0Mn5/HL+V8QsrF+P3rCQAAAAAAMB+SUsAAAAAAPRKuvz+v1YB4COZX74TkrUboT1+RAzYuWc6b/zCyu0rWOdqz3+uJAsAAAAAALBbLl4BAAAAAD2TvvbeaRUAPi7z3i9EgL25fQVrdfzCyrn4PSYJAAAAAACwG4ZXAAAAAEDPZN77f1MqAHxcduWyCLA/cvF7IX4rBlgAAAAAAMBuGF4BAAAAAD3xmef+6IwKAJ+UvbIsAuw/AywAAAAAAGDHDK8AAAAAgJ5I3Vh/VgWAT3LxCg6UARYAAAAAALBthlcAAAAAQE+kr713WgWAu8v88hciwMHqDLCWxy+snI3flBwA8P/Zu5/Vts48jsPWkU59CgNSKIzTUrAXA1kVG6abgYC9mXU9qxAIxHMFMVlkERjqO2juoFmdde5gcge115FzBkIsm8aRk8qW4jYwCiHMEBLyR+97pHP0PPC7gc/ioIW+vAAAAAC8i+EVAAAAADAV6cEDf3IGeI/Fh169ghK0x/fjwusB1pYcAAAAAADA2wyvAAAAAIDSXbx6c1sFgPf7wotXUKbl8f2c5cX98a3JAQAAAAAAvGF4BQAAAACUrjl4uqkCwPstPtwVAcq3Pr5fsrzYGZ+XOQEAAAAAAMMrAAAAAKB8reODVRUA3q95crSQjAZCwHT8OL7dLC82pAAAAAAAgPlmeAUAAAAAlC49eOAVCYAPfiu7IsD0LI/v31le3PH6FQAAAAAAzC/DKwAAAACgVBev3txWAeDDFos9EWD6bozvfpYXa1IAAAAAAMD8MbwCAAAAAErVHDzdVAHgw9KeF69gRqyO75csL4zHAQAAAABgzhheAQAAAAClSn57ekkFgA9bfLgrAsyWn7K8uDe+jhQAAAAAADAfDK8AAAAAgFKlvf0lFQA+LBmdLrT6h0LAbPlhfLtZXqxJAQAAAAAA9Wd4BQAAAACUZun67cvJi7OGEgAfJ+11RYDZszy++1lebEkBAAAAAAD1ZngFAAAAAJQmGZxsqQDw8dLevggwm9rj+znLiztSAAAAAABAfRleAQAAAAClSc6e/VUFgI/nxSuYeTeyvLg3vo4UAAAAAABQP4ZXAAAAAEBp0l8fXVIB4ON9cWB4BRXww/juG18BAAAAAED9GF4BAAAAAKVpPXn0pQoAH695crSQjAZCwOxbHd9ulhdrUgAAAAAAQH0YXgEAAAAApbh49ea2CgCfLvXqFVTF8sLrl6+MrwAAAAAAoCYMrwAAAACAUiTDwboKAJ9usdgTAaqjvWB8BQAAAAAAtWF4BQAAAACUIjntf6cCwKdr9Q9FgGoxvgIAAAAAgJowvAIAAAAASpEe/WdZBYBP1zS8gioyvgIAAAAAgBowvAIAAAAAStF8/qSlAsCnWyz2RIBqMr4CAAAAAICKM7wCAAAAAKK7ePXmtgoAny/tdUWAajK+AgAAAACACjO8AgAAAACiS4aDdRUAPl+rfygCVJfxFQAAAAAAVJThFQAAAAAQXXLa/04FgM+X9vZFgGp7M75akQIAAAAAAKrD8AoAAAAAiK7VP/pGBYDPl/a6IkD1vRpf3cvyoiMFAAAAAABUg+EVAAAAABBd68mjL1UAmOA72j8UAephdXz3ZQAAAAAAgGowvAIAAAAAolq6duuKCgCTSXv7IkB9rGZ5cVcGAAAAAACYfYZXAAAAAEBUyXDwdxUAJpf2uiJAfVzP8mJbBgAAAAAAmG2GVwAAAABAVMn52V9UAAjwPR0ORIB6+SnLi00ZAAAAAABgdhleAQAAAABRtY4PVlUAmNxisScC1M/dLC9WZAAAAAAAgNlkeAUAAAAARNU8ftxWAWByrf6hCFA/r34n3ZMBAAAAAABmk+EVAAAAABDNn//5r+XkxVlDCYDJNQ2voK5Ws7y4IwMAAAAAAMwewysAAAAAIJpkdPoPFQDCSHtdEaC+bmR5sSkDAAAAAADMFsMrAAAAACCaZDhYVwEg0Dd1dCoC1NvdLC86MgAAAAAAwOwwvAIAAAAAomm8PL+gAkA4iw93RYD6ao/vngwAAAAAADA7DK8AAAAAgGhaxwerKgCEk4wGIkC9rWd5sS0DAAAAAADMBsMrAAAAACCaZND/kwoA4aS9fRGg/nayvFiRAQAAAAAAps/wCgAAAACIpvn8SUsFgHBa/UMRoP7a47srAwAAAAAATJ/hFQAAAAAQxdK1W1dUAAiraXgF82I9y4stGQAAAAAAYLoMrwAAAACAKJLfR2sqAITlxSuYK3eyvOjIAAAAAAAA02N4BQAAAABEkZw9/5sKAGE1T45EgPnRHt+ODAAAAAAAMD2GVwAAAABAFI3R6bcqAITn1SuYKzeyvPCKKAAAAAAATInhFQAAAAAQRfP02VcqAET4vhpewby5IwEAAAAAAEyH4RUAAAAAEEXz+HFbBYDwWieGVzBn1rO82JQBAAAAAADKZ3gFAAAAAESRvDhrqAAQXrN/JALMH69eAQAAAADAFBheAQAAAADBLV27dUUFgDiS4UAEmD/LWV5syQAAAAAAAOUyvAIAAAAAgmu8/ONrFQDiSHtdEWA+7UgAAAAAAADlMrwCAAAAAIJLhoN1FQAAgvLqFQAAAAAAlMzwCgAAAAAIrvHy/IIKAHEsFnsiwPzakQAAAAAAAMpjeAUAAAAABJf89vSSCgAAwXn1CgAAAAAASmR4BQAAAAAEl5yPMhUA4kl7XRFgfu1IAAAAAAAA5TC8AgAAAACCax4/bqsAEE8yHIgA88urVwAAAAAAUBLDKwAAAAAguOTFWUMFgIjf2ZHhFcy5LQkAAAAAACA+wysAAAAAIKil67cvqwAQV9rbFwHm23qWFxsyAAAAAABAXIZXAAAAAEBQjfPR9yoAAES3JQEAAAAAAMRleAUAAAAAAFAxrf6hCMD1LC86MgAAAAAAQDyGVwAAAABAUM3B000VACJ/aw2vgNe2JAAAAAAAgHgMrwAAAAAAAACqaVsCAAAAAACIx/AKAAAAAAiqMTr9VgWAuNJeVwTgleUsL9ZkAAAAAACAOAyvAAAAAICgmqfPvlIBIK5kdCoC8MaWBAAAAAAAEIfhFQAAAAAAAEB1bUkAAAAAAABxGF4BAAAAAEGlBw86KgDE1+ofigC80s7yYlMGAAAAAAAIz/AKAAAAAACggpqGV8D/GF4BAAAAAEAEhlcAAAAAAAAA1bYhAQAAAAAAhGd4BQAAAAAEc/HqzW0VAABKt5zlxZoMAAAAAAAQluEVAAAAAABABS0WeyIA/29LAgAAAAAACMvwCgAAAAAAAKD6NiQAAAAAAICwDK8AAAAAgGCS4WBdBQCAqVjN8qIjAwAAAAAAhGN4BQAAAAAE03h5fkEFgHIkw4EIwNs2JQAAAAAAgHAMrwAAAAAAACoo7XVFAN62IQEAAAAAAIRjeAUAAAAAhPPH720RAACmZkMCAAAAAAAIx/AKAAAAAAim9ezXFRUAAKZmOcuLjgwAAAAAABCG4RUAAAAAAABAfWxIAAAAAAAAYRheAQAAAAAAVFCrfygC8C5rEgAAAAAAQBiGVwAAAAAAABXUPDkSAXiXDQkAAAAAACAMwysAAAAAIJj04EFHBQCAqfLiFQAAAAAABGJ4BQAAAAAAAFAf7SwvVmQAAAAAAIDJGV4BAAAAAAAA1MuKBAAAAAAAMDnDKwAAAAAAAIB62ZAAAAAAAAAmZ3gFAAAAAABQUWmvKwLwLisSAAAAAADA5AyvAAAAAIAglq7fvqwCQLmS4UAE4F1WJAAAAAAAgMkZXgEAAAAAQTTOR9+rAAAwE9YkAAAAAACAyRleAQAAAAAAANRLWwIAAAAAAJic4RUAAAAAAABAzWR54dUrAAAAAACYkOEVAAAAAAAAQP10JAAAAAAAgMn8VwD27j827vu+7/iX7I08/jzyKP4SQ5FHKXIxdJYa1MGGFaX4x4zNa0BtARL3ssAM0AFBCywasLT7q5VroC06rJb/StE4EAUEsB1kMblhQNAAJW8Z0CEYMCoJgngB1iPs1LYqx6Rlx0eTd7fvWTaifKMfJO++9/PxAD6g7T+fsAiBp5fehlcAAAAAAAAA7cfwCgAAAAAAqmR4BQAAAAAAANB+zksAAAAAAADVMbwCAAAAAAAAAAAAAAAAiDC8AgAAAAAAAGg/IxIAAAAAAEB1DK8AAAAAgJrofvftRRUA6qv3b6+LANzLeQkAAAAAAKA6hlcAAAAAQE10Fd8bVQEAAAAAAAAAaBeGVwAAAAAAAAAAAAAAAAARhlcAAAAAAAAAAAAAAAAAEYZXAAAAAAAAAAAAAAAAABGGVwAAAAAAAAAAAAAAAAARhlcAAAAAAAAAAAAAAAAAEYZXAAAAAAAAAAAAAAAAABGGVwAAAAAAAAAAAAAAAAARhlcAAAAAAAAAAAAAAAAAEYZXAAAAAAAAAAAAAAAAABGGVwAAAAAAAAAAAAAAAAARhlcAAAAAAAAAAAAAAAAAEYZXAAAAAAAALaqUHBQBAAAAAAAAYmJ4BQAAAADURHEwvaYCQH3tT58WAbiXvAQAAAAAAFAdwysAAAAAAACA9pOXAAAAAAAAqmN4BQAAAAAAAAAAAAAAABBheAUAAAAAAADQfvISAAAAAABAdQyvAAAAAAAAANpPXgIAAAAAAKiO4RUAAAAAAAAAAAAAAABAhOEVAAAAAAAAQJspZDObKgAAAAAAQHUMrwAAAAAAAADay64EAAAAAABQPcMrAAAAAKAmyr+UeFUFAICmsCUBAAAAAABUz/AKAAAAAKiJ17/6Zy+oAADQFPISAAAAAABA9QyvAAAAAAAAWtTewnkRgLvJSwAAAAAAANUzvAIAAAAAAABoL1sSAAAAAABA9QyvAAAAAAAAANqL4RUAAAAAANSA4RUAAAAAAABAGylkM3kVAAAAAACgeoZXAAAAAEDN7J/86I4KAAANlZMAAAAAAABqw/AKAAAAAAAAoH1sSQAAAAAAALVheAUAAAAAANCC9jLnRADuZlMCAAAAAACoDcMrAAAAAAAAgPbh4hUAAAAAANSI4RUAAAAAUDMHqfG8CgAADbNdyGb8fgwAAAAAAGrE8AoAAAAAqJ3EP9gVAQCgYTYlAAAAAACA2jG8AgAAAAAAaEGlvkERgKhNCQAAAAAAoHYMrwAAAAAAAFrQ/vQZEYCoTQkAAAAAAKB2DK8AAAAAgJopDqbXVAAAaIjtQjaTlwEAAAAAAGrH8AoAAAAAAACg9RnAAwAAAABAjRleAQAAAAAAtKBSclAE4E6bEgAAAAAAQG0ZXgEAAAAANVNKDryoAkB97E+fFgH40G4hm3HxCgAAAAAAaszwCgAAAAComRtXn9pWAQCg7oyuAAAAAAAgBoZXAAAAAAAAAK3N8AoAAAAAAGJgeAUAAAAA1NT+yY/uqABQj++3Z0QAKnYL2YzhFQAAAAAAxMDwCgAAAAAAoAWVkoMiABVGVwAAAAAAEBPDKwAAAACgpko9yYIKAAB1syoBAAAAAADEw/AKAAAAAKip0lD6JRUA4lUcmRQBqNguZDObMgAAAAAAQDwMrwAAAAAAAFrMweiUCEDFqgQAAAAAABAfwysAAAAAoKZK/cN/owIAQF2sSgAAAAAAAPExvAIAAAAAaqrcnXhdBYB4FV28AoJgvZDN5GUAAAAAAID4GF4BAAAAADVV7kn+bxUA4nVgeAUEwRUJAAAAAAAgXoZXAAAAAEBNvX7tj/+nCgAAsdouZDObMgAAAAAAQLwMrwAAAACAmiv19pdVAIjP/vRpEaCzXZYAAAAAAADiZ3gFAAAAANRccWxmVwWA+JSSgyJA59otZDOrMgAAAAAAQPwMrwAAAAAAAABaxxUJAAAAAACgPgyvAAAAAICaOxg7eV0FgPjsLZwXATpT5aqo4RUAAAAAANSJ4RUAAAAAAABAa7hSyGZ2ZAAAAAAAgPowvAIAAAAAaq44mF5TASAe+9OnRYDO5NoVAAAAAADUmeEVAAAAAABACyklB0WAzuTaFQAAAAAA1JnhFQAAAABQc6899+euMQDEpNRneAUdyLUrAAAAAABoAMMrAAAAACAWpd7+sgoAtbc/fUYE6DyXXLsCAAAAAID6M7wCAAAAAGJRHJvZVQEAoGrbhWxmVQYAAAAAAKg/wysAAAAAIBbFgdQbKgDU3l7mnAjQWVYkAAAAAACAxjC8AgAAAABiUU4OvKICAEBV1gvZzKYMAAAAAADQGIZXAAAAAEAsSv3Df6MCQO3tLZwXATrDbvguyQAAAAAAAI1jeAUAAAAAxKLcnXhdBQCAY7tSyGbyMgAAAAAAQON0lctlFQAAAACAWJyZz/gBJEAN7WXOBX//b58WAtrf9UI247wdAAAAAAA0mItXAAAAAEBsSr39hlcAAEe3IgEAAAAAADSe4RUAAAAAEJvi2MyuCgC1s7fgAA50gCcL2cyWDAAAAAAA0HiGVwAAAABAbA5S43kVAAAO7Xohm7ksAwAAAAAANAfDKwAAAAAgNuXegbwKALWzlzknArS3FQkAAAAAAKB5GF4BAAAAALEp9Q3mVACo6fdVEaB9/ftCNrMlAwAAAAAANA/DKwAAAAAgNqXkwIsqANTO/vQZEaA9rReymSsyAAAAAABAczG8AgAAAABic+PqU9ul3v6yEgDVKyUHRID2tB2+FRkAAAAAAKD5GF4BAAAAALEqjs3sqgBQPdeuoG1dLGQzOzIAAAAAAEDzMbwCAAAAAGJ1kBrPqwBQveLolAjQfj5XyGa2ZAAAAAAAgOZkeAUAAAAAxKrcO5BXAaB6B4ZX0G6uFbKZVRkAAAAAAKB5GV4BAAAAALEq9Q3mVACo3l7mnAjQPnKFbGZFBgAAAAAAaG6GVwAAAABArF577s+vqABQvVLfoAjQHq6H76IMAAAAAADQ/AyvAAAAAIDYHZyYfVcFgOrsT58RAVrfbvhWCtnMjhQAAAAAAND8DK8AAAAAgNgVB0d2VQCo4vvoyKQI0Poqvx+6UMhmtqQAAAAAAIDWYHgFAAAAAMSuNJR+SQWA4zsYnRIBWt+K0RUAAAAAALQWwysAAAAAIHbFwfSaCgDHt7dwXgRobZ8rZDN+PwQAAAAAAC3G8AoAAAAAiF0pOfCiCgDHVxydFAFaV2V0tSoDAAAAAAC0HsMrAAAAACB2N64+tV0cPnGgBMDxHIxMiQCtyegKAAAAAABamOEVAAAAAFAXB+npmyoAHM/ewnkRoPUYXQEAAAAAQIszvAIAAAAA6qI0lH5JBYCjK45MigCtx+gKAAAAAADagOEVAAAAAFAXxcH0mgoAR3cwOiUCtBajKwAAAAAAaBOGVwAAAABAXZSSAy+qAHB0ewvnRYDWsBu+XzW6AgAAAACA9mF4BQAAAADUxY2rT20fnJh9VwmAoymOTooAza8yurpQyGa2pAAAAAAAgPZheAUAAAAA1M3B6OTfqQBwNO9NnxEBmtv18M0bXQEAAAAAQPsxvAIAAAAA6qY0MPo9FQCOZt/wCprZenD70tWOFAAAAAAA0H4SEgAAAAAA9VIcHHk+/HJRCYDD2Z8+LQI0rycL2cxlGQAAAAAAoH25eAUAAAAA1M3rX/2zF1QAODzXrqAp7YbvXxldAQAAAABA+zO8AgAAAADqav/kR3dUADic9wyvoNlcD9/5QjazJgUAAAAAALQ/wysAAAAAoK4Oxk5eVwHgcPanT4sAzeOZ8F0oZDN5KQAAAAAAoDMkJAAAAAAA6qk4mK5ciFhUAuDB9k+6eAVNYDd8K65cAQAAAABA5+kql8sqAAAAAAB1dWY+4weTAA9QHJkMXv2954SAxloPbo+udqQAAAAAAIDO4+IVAAAAAFB3Bydm303cfLlPCYB7e8+1K2ikypWry4Vs5ooUAAAAAADQubolAAAAAADqbX989iUVAB7wvXLa8AoapHLlat7oCgAAAAAAcPEKAAAAAKi70vDYN8Mv55UAuLe9zDkRoL62w3epkM2sSQEAAAAAAFS4eAUAAAAA1F2xP/UXKgDc3/5JF6+gjp4M33mjKwAAAAAA4E5d5XJZBQAAAACg7uZ/7Td+mrj5cp8SAL+oODIZvPp7zwkB8bsWvsuFbCYvBQAAAAAAEJWQAAAAAABohP3x2ZcSN18+rwTAL9pb8O0RYpYLbg+uNqUAAAAAAADuxfAKAAAAAGiI0vDYN8MvlgUAd/He9BkRIB4GVwAAAAAAwKEZXgEAAAAADVHsT/1F+OU/KgHwi/anT4sAtWVwBQAAAAAAHFlXuVxWAQAAAABoiPlf+42fJm6+3KcEwM975Y//WgSoDYMrAAAAAADg2Fy8AgAAAAAaZn964TuJmy8vKgHwM3uZcyJA9a4FtwdXeSkAAAAAAIDjMrwCAAAAABqmOJheC78YXgHcYX/6jAhwPNvhuxK+1UI2syMHAAAAAABQra5yuawCAAAAANAwZ+YzfkgJcIc3/s0fBe/+w18XAg5nN3yVIXdlbLUpBwAAAAAAUEsuXgEAAAAADbU3/49e681/b0oJgNtcvIJDWQ9uD67WXLcCAAAAAADiYngFAAAAADRUcWTqfwXB9y4qAVD5njgZHIzaosJdVC5bbQbGVgAAAAAAQB0ZXgEAAAAADVVMnfjP4RfDK4DQeyddu4I7XA8+GFsVsplNOQAAAAAAgHrrKpfLKgAAAAAADZV5+JH9X3rrpr8oCuh4O//yd4O3/+knhaBTfTi0ev+5agUAAAAAADSaP8gAAAAAADTcezNnv9/31s3zSgCdbm/hnAh0ilz48uHbqjwXrQAAAAAAgGZkeAUAAAAANFxpeOyb4RfDK6CzvxcmB4L96TNC0C52g9ujqorN8O188O/5QjaTlwcAAAAAAGgFXeVyWQUAAAAAoOFmPrGyqQLQyQ5GJnd2/8Xnt5SghVT+f9258z+4XAUAAAAAALQTwysAAAAAAAAAAAAAAACAiG4JAAAAAAAAAAAAAAAAAH6e4RUAAAAAAAAAAAAAAABAhOEVAAAAAAAAAAAAAAAAQIThFQAAAAAAAAAAAAAAAECE4RUAAAAAAAAAAAAAAABAhOEVAAAAAAAAAAAAAAAAQIThFQAAAAAAAAAAAAAAAECE4RUAAAAAAAAAAAAAAABAhOEVAAAAAAAAAAAAAAAAQIThFQAAAAAAAAAAAAAAAECE4RUAAAAAAAAAAAAAAABAhOEVAAAAAAAAAAAAAAAAQIThFQAAAAAAAAAAAAAAAECE4RUAAAAAAAAAAAAAAABAhOEVAAAAAAAAAAAAAAAAQIThFQAAAAAAAAAAAAAAAECE4RUAAAAAAAAAAAAAAABAhOEVAAAAAAAAAAAAAAAAQIThFQAAAAAAAAAAAAAAAECE4RUAAAAAAAAAAAAAAABAhOEVAAAAAAAAAAAAAAAAQIThFQAAAAAAAAAAAAAAAECE4RUAAAAAAAAAAAAAAABAhOEVAAAAAAAAAAAAAAAAQIThFQAAAAAAAAAAAAAAAECE4RUAAAAAAAAAAAAAAABAhOEVAAAAAAAAAAAAAAAAQIThFQAAAAAAAAAAAAAAAECE4RUAAAAAAAAAAAAAAABAhOEVAAAAAAAAAAAAAAAAQIThFQAAAAAAAAAAAAAAAECE4RUAAAAAAAAAAAAAAABAhOEVAAAAAAAAAAAAAAAAQIThFQAAAAAAAAAAAAAAAECE4RUAAAAAAAAAAAAAAABAhOEVAAAAAAAAAAAAAAAAQIThFQAAAAAAAAAAAAAAAECE4RUAAAAAAAAAAAAAAABAhOEVAAAAAAAAAAAAAAAAQIThFQAAAAAAAAAAAAAAAECE4RUAAAAAAAAAAAAAAABAhOEVAAAAAAAAAAAAAAAAQIThFQAAAAAAAAAAAAAAAECE4RUAAAAAAAAAAAAAAABAhOEVAAAAAAAAAAAAAAAAQIThFQAAAAAAAAAAAAAAAECE4RUAAAAAAAAAAAAAAABAhOEVAAAAAAAAAAAAAAAAQIThFQAAAAAAAAAAAAAAAECE4RUAAAAAAAAAAAAAAABAhOEVAAAAAAAAAAAAAAAAQIThFQAAAAAAAAAAAAAAAECE4RUAAAAAAAAAAAAAAABAhOEVAAAAAAAAAAAAAAAAQIThFQAAAAAAAAAAAAAAAECE4RUAAAAAAAAAAAAAAABAhOEVAAAAAAAAAAAAAAAAQIThFQAAAAAAAAAAAAAAAEBEQgIAAAAAoN11P3tlPvwyrwTQaKXfvrSpAgAAAAAAALQGwysAAAAAoO3Nj41+Pv/Gm7+vBNBIqb5ksLixLgQ0p+3w5e/4953wbd3ln7dyS8s7cgEAAAAAQGfoKpfLKgAAAAAAbW/kq196963CXlIJoFHOTowHk0ODQkB72A1uj7E+HGXlP3iGWQAAAAAA0EYMrwAAAACAjrDw4rU/dfUKaJTeRCL4+NysENA5csHPxlibla+5peW8LAAAAAAA0FoMrwAAAACAjuHqFdAop0ZHgrn0qBDQ2T68krX5wdctYywAAAAAAGhuhlcAAAAAQMdw9QpolEfmZoNkIiEEEFUZY20GHwyyckvLm5IAAAAAAEDzMLwCAAAAADqKq1dAvU0ODQZnJ8aFAA4rF9weYxliAQAAAABAgxleAQAAAAAdxdUroN4ePjkdpPrsPYFjWw9+NsTakgMAAAAAAOrH8AoAAAAA6DiTz3/51t+//c6gEkDcBnp6go/NzggB1Mp2+NaC2yOsNTkAAAAAACBehlcAAAAAQMd5+L8//x++/+pr/0kJIG5nJ8aDySE7TyAWu8HtS1iVAdZabml5RxIAAAAAAKgtwysAAAAAoCONP/eXr73xzk8nlQDikujuDv5JZk4IoF7WAyMsAAAAAACoqW4JAAAAAIBOdGJg4JIKQJxOpoZFAOppOXxXw/fm4sb6avguSgIAAAAAANVx8QoAAAAA6FiuXgFxqly7qly9Amig3fCtVl5uaXlLDgAAAAAAOBrDKwAAAACgY33sm1/7ze//3Wv/7aBUEgOoqcmhweDsxLgQQDO5HvxshLUjBwAAAAAAPJjhFQAAAADQ0Wa+9pUfvvrWrYeUAGrpkbnZIJlICAE0q2vhu+IKFgAAAAAA3F+3BAAAAABAJ0v1JT+V6PajUqB2xgb6ja6AZvdE+P7P4sb6VvhW5AAAAAAAgLtz8QoAAAAA6HizX7/6nR/v7D6iBFALD5+crow6hQBayW74rgS3r2DtyAEAAAAAALf5a1wBAAAAgI63MJZ+tDeRKCkBVKsyuDK6Alrx21f4/jB8by5urK+Gb14SAAAAAABw8QoAAAAA4H0L37j2fP4nb35aCaAaZyfGg8mhQSGAdnAtfKu5peVNKQAAAAAA6FQuXgEAAAAAhGZHRz4/nOwtKAEcV28iYXQFtJMnwrexuLG+Gb4LcgAAAAAA0IkMrwAAAAAAQrml5Z30QP8zSgDHNZceFQFoR4uBARYAAAAAAB2qq1wuqwAAAAAA8IGJ5778xs133kkrARxF5drVx+dmhQA6QS58l3NLy5tSAAAAAADQ7ly8AgAAAAC4w9hA/+8muv3oFDiayaFBEYBO8eEFrNXwzcsBAAAAAEA7c/EKAAAAACBi5mtf+eGrb916SAngMCpjzUfmZgOjTaBDPRPcvoC1IwUAAAAAAO3GJ4AAAAAAABGpvuSnehMJIYBDOZkaNroCOtkXwpdf3Fi/LAUAAAAAAO3GxSsAAAAAgLs49fWra6/s7C4rAdyPa1cAP2c7fJdyS8trUgAAAAAA0A58CggAAAAAcBeZsfTKcLK3oARwP65dAfycufC9uLixvhm+eTkAAAAAAGh1PgkEAAAAALiL3NLyztTw0J8oAdxLZXA1M5ISAuAXLYbvbxc31i+Hb0QOAAAAAABaVVe5XFYBAAAAAOAepl549pUbt96eUQKIOjU6EsylR4UAuL/t8F3KLS2vSQEAAAAAQKtx8QoAAAAA4D4mhwZ/q3LVBuBOrl0BHNpc+F5c3Fhfc/0KAAAAAIBW408LAAAAAADcx/XHHv/2dGr4W0oAdzqZGg6MMgGOZDl8+cWN9UtSAAAAAADQKnwiCAAAAADwAPPp0U8NJ5MHSgAVrl0BHFvlm+fTixvrm+GblwMAAAAAgGZneAUAAAAA8AC5peWdqeHBp5QAKly7AqjaYvi2XL8CAAAAAKDZdZXLZRUAAAAAAA5h6oVnX7lx6+0ZJaBzVQZXj8zNGl4B1M56+FYqQ3cpAAAAAABoNj4VBAAAAAA4pHR/32PGFtDZXLsCqLnl8OUXN9YvSgEAAAAAQLNx8QoAAAAA4AgWvnHt+fxP3vy0EtB5XLsCiN0z4bvs+hUAAAAAAM3CJ4MAAAAAAEcwOzry+eFkb0EJ6DyuXQHE7gvh21zcWD8vBQAAAAAAzcCngwAAAAAAR1C5wDA9PPw54wvoLJVf8zMjKSEA4ncuuD2+WpECAAAAAIBG6yqXyyoAAAAAABzR7NevfufHO7uPKAGd4ezEeDA5NCgEQH1dC9+lyvBdCgAAAAAAGsFfyQoAAAAAcAwLY+lHB3p6ikpA++tNJIyuABrjieD29at5KQAAAAAAaATDKwAAAACAY6hcXpgaHvqiEtD+5tKjIgA0zrnwbS1urF+UAgAAAACAejO8AgAAAAA4ph9d/OzTJ1PD20pA+xro6XHtCqDxUuF7cXFj/bIUAAAAAADUk+EVAAAAAEAVTp8Yu9CbSJSUgLb9NS4CQPP4w8WN9dXwjUgBAAAAAEA9GF4BAAAAAFQht7Sc/8hI6ktKQPtJ9SXffwA0lSfCt2l8BQAAAABAPXSVy2UVAAAAAACqNPXCs6/cuPX2jBLQPh4+OW14BdC8dsN3Ibe0vCUFAAAAAABxcfEKAAAAAKAG0v19j/UmEiUloD1MDg0aXQE0t1Rw+/LVihQAAAAAAMTF8AoAAAAAoAZ+8InPfPcjI6kvKQHt4VR6VASA5lcZX101vgIAAAAAIC5d5XJZBQAAAACAGpl64dlXbtx6e0YJaF2nRkeCOcMrgFZzLbe0vCIDAAAAAAC15OIVAAAAAEANpfv7Hhvo6SkqAa0p0d0dzIykhABoPU8sbqyvygAAAAAAQC25eAUAAAAAUGO//F+/+gf/98bNJ5WA1nN2YjyYHBoUAqB1rYdvJbe0vCMFAAAAAADVMrwCAAAAAIjBzNe+8sNX37r1kBLQOgZ6eoKPzc4IAdD6rofvgvEVAAAAAADV6pYAAAAAAKD2zoyf+McDPT1FJaB1nD4xJgJAezgXvs3FjfURKQAAAAAAqIbhFQAAAABADCoXFubSo7+T6PZjWGgFYwP9QaovKQRA+zC+AgAAAACgaj7xBwAAAACIyfd/87f+cmJo8H8oAc1vwbUrgHZkfAUAAAAAQFUMrwAAAAAAYnT6xNjyaH/fT5WA5nVqdCRIJhJCALQn4ysAAAAAAI7N8AoAAAAAIEa5peWdj4yk/nmi249joRn1JhLBzEhKCID2ZnwFAAAAAMCx+KQfAAAAACBm1x97/NuZsfQ1JaD5nD4xFhhGAnQE4ysAAAAAAI6sq1wuqwAAAAAAUAdTLzz7yo1bb88oAc0h1ZcMHj45LQRAZ7kevguVq6RSAAAAAADwIP4KRwAAAACAOnloYvzXB3p6ikpAczg9NiYCQOdx+QoAAAAAgEMzvAIAAAAAqJPc0nJ+anjoi4luP5qFRptJDQcDvT1CAHQm4ysAAAAAAA7Fp/sAAAAAAHX0o4uffXo6NfwtJaBxehOJ4FR6VAiAzlYZX12RAQAAAACA+zG8AgAAAACos+1Prjx6YmDgJ0pAY5w+MRa4PAdA6InFjfVVGQAAAAAAuBefKgIAAAAANMCJwf6lgZ6eohJQX6m+ZDA20C8EAB+qjK9cvgIAAAAA4K4MrwAAAAAAGuAHn/jMd6eGh77o6g7U19mJcREAiPrC4sb6igwAAAAAAET5RB8AAAAAoEF+dPGzT0+nhr+lBNTHqdGRIJlICAHA3Vxd3Fi/KAMAAAAAAHfqKpfLKgAAAAAANNDEc19+4+Y776SVgPj0JhLBx+dmhQDgfl4O35nc0vJ7UgAAAAAAUOHiFQAAAABAg50Y7F8a6OkpKgHxeWhiXAQAHuTfGV0BAAAAAHAnwysAAAAAgAb7wSc+89259OjvJLr9yBbiMJMaDlJ9SSEAuJ8nc0vLazIAAAAAAHCnrnK5rAIAAAAAQBNY+Ma15/M/efPTSkDtVAaNj8zNBoaNANxHLre0fEEGAAAAAACifMoIAAAAANAk/t+/fuLxiaHBHysBtXN2YtzoCoD72Q7fRRkAAAAAALgbnzQCAAAAADSRhybGf2U42VtQAqo3NtD//gOA+7iYW1rekQEAAAAAgLsxvAIAAAAAaCKVP/g7lx59tDeRKKkBx1e5clW5dgUA9/G58PdeWzIAAAAAAHAvhlcAAAAAAE3m+mOPf3suPfJkZTgCHM+p9Gjg1xAA93Ett7S8KgMAAAAAAPfTVS6XVQAAAAAAaEJz/2X1r15+c+efKQFHk+pLBg+fnBYCgHu5nltaPi8DAAAAAAAP4q96BAAAAABoUtufXHl0Ymjwx0rA4VWuXJ2dGBcCgHvZDd8FGQAAAAAAOAzDKwAAAACAJvbQxPivDCd7C0rA4ZxKjwbJREIIAO7m/dFVbml5RwoAAAAAAA7D8AoAAAAAoIlV/mDwXHr00YGenqIacH+pvmQwkxoWAoB7uRT+3mpLBgAAAAAADsvwCgAAAACgyV1/7PFvTw0PfTHR7Ue6cC+VXx9nJ8aFAOBensktLa/KAAAAAADAUfiUHgAAAACgBfzo4mefzoylrykBd3cqPRokEwkh/j97dxNb1X3ncfjEWDaJARvbGBO3MSEVJBRBFKmrFF3fkaaLKs1luplqGk3cTdZEmtlS0m1mJLKYbmakMS1KaBYpNyCUVS9HSVazKN5MZpSmsdOQMAHsa4M7xHLtOccXD+YfEt78cs85zyP9dck7fMMikvPhB8DtVONy5bAZAAAAAAC4V8IrAAAAAICM+O/KC8OD3VvftwTcqvPhjdFA5xZDAHA7o8kbNgMAAAAAAPfjoYWFBSsAAAAAAGRI3xv/euXyzEy3JSCKWltaou8NfnvxEwACU8l7Oi5XxkwBAAAAAMD98FVIAAAAAICMeaq/74ktG9uvWwKiaHffNtEVALeTRldDoisAAAAAAB6Er0QCAAAAAGRMXK7UB7u3/qCjre0v1qDIejoeWXwAcBuHk/9mOm8GAAAAAAAehPAKAAAAACCDRn/4k3e/1dX5gks/FFV7a+vitSsAuI2X43JlxAwAAAAAADwoX5EHAAAAAMioD57/6cldvd0/F19RRHv6tkV+7gNwG8fjcuWYGQAAAAAAWAkPLSwsWAEAAAAAIMO+89tfnf7jlYnnLEFRDHRuiXb19hgCgFAclytDZgAAAAAAYKX4pSABAAAAADLuD3/z9z8a7N76viUogo62NtEVALczmrxDZgAAAAAAYCW5eAUAAAAAkBP9v/m3T7+4em3AEuRVa0tLtP/RHVFHe5sxAFhuPHlPx+VK3RQAAAAAAKwkF68AAAAAAHJiT9+2fb0dHROWIK8e694qugIgNJW8Q6IrAAAAAABWg/AKAAAAACAn0v/h+Kn+vie2bGy/bg3ypqfjkWigc4shAFguja6Gkv8GOm8KAAAAAABWg/AKAAAAACBH0vhqsHvrDzra2v5iDfKivbU12t23zRAAhA6LrgAAAAAAWE3CKwAAAACAnBn94U/e3dXbXRZfkRd7+rZFrS2+pAHALX4WlysjZgAAAAAAYDX5KiUAAAAAQA6l8dW3ujpfEKuQdY9t7Yo6H95oCACWe1l0BQAAAADAWvAVdwAAAACAnPrg+Z+e3NXb/XPxFVmVBleD3VsNAcByx+Ny5ZgZAAAAAABYC77aDgAAAACQY//1/Au/EF+RRenP2b392w0BwHJpdDVsBgAAAAAA1oqvtAMAAAAA5FwaX31nW+8/WYIsSaMrwSAAy4iuAAAAAABYcw8tLCxYAQAAAACgAB5/6/h74xOTz1qCZvfY1q5osHurIQBYMhqXK0+bAQAAAACAteaXigQAAAAAKIiPf/zi9we7t75vCZpZ58MbRVcALDeavCEzAAAAAACwHoRXAAAAAAAFIr6imbW3tkZ7+7cbAoAli9FVXK7UTQEAAAAAwHoQXgEAAAAAFIz4imb13f7tUWuLL10AsEh0BQAAAADAuvPVSwAAAACAAhJf0Wx29fZEHe1thgAgJboCAAAAAKApCK8AAAAAAAoqja8e7+n+vSVYb9s3b4oGOrcYAoCU6AoAAAAAgKYhvAIAAAAAKLBvdXX+VW9Hx4QlWC8dbW2L164AIBJdAQAAAADQZIRXAAAAAAAFlv6PzU/19z0hvmI9tLa0RHv6ti1+AlB4U5HoCgAAAACAJuMrmQAAAAAABSe+Yr3s7tsWdbS3GQIA0RUAAAAAAE1JeAUAAAAAgPiKNffY1q6op+MRQwCwFF2dNwUAAAAAAM1GeAUAAAAAwCLxFWslDa4Gu7caAoDR5O0UXQEAAAAA0KyEVwAAAAAA/L+l+Orxnu7fW4PV0NHWFu3u22YIANLoKr10VTcFAAAAAADN6qGFhQUrAAAAAADwFY+/dfy98YnJZy3BSmltaYn2P7oj6mhvMwZAsYmuAAAAAADIBBevAAAAAAC4rY9//OL3B7u3vm8JVsre/u2iKwBEVwAAAAAAZIbwCgAAAACAryW+YqXs6u2JOh/eaAiAYhNdAQAAAACQKcIrAAAAAAC+kfiKB7V986ZooHOLIQCKTXQFAAAAAEDmCK8AAAAAALgj8RX3q6OtLdrdt80QAMUmugIAAAAAIJMeWlhYsAIAAAAAAHdl7+nXX/3Dpcv/MDc/bwzuKI2u9g/siFpb/DpwAAV2PC5Xhs0AAAAAAEAW+UonAAAAAAB37T9/9Hf/uKu3++dCGu4k/Tmyp2+b6Aqg2ERXAAAAAABkmq92AgAAAABwT/7r+Rd+Ib7iTvb2b4862tsMAVBcoisAAAAAADLvoYWFBSsAAAAAAHDP9p1546XxiclfzszObrAGy+3u2xZt37zJEADF9XJcrhwzAwAAAAAAWSe8AgAAAADgvh04e/LgHy9P1MRXLBno3BLt6u0xBEBx/SwuV0bMAAAAAABAHrSYAAAAAACA+zX6w5+8u6u3u7xl48Y5a5BeuRJdARTWVCS6AgAAAAAgZ1y8AgAAAADggZVq1a4PLn7x0eWZmW5rFFNHW1u0f2BH1Nri13wDKKA0uhqKy5XzpgAAAAAAIE989RMAAAAAgAcWlyv1p/r7nujfsvmyNYpHdAVQaOOR6AoAAAAAgJxy8QoAAAAAgBX1+FvH3xufmHzWEsWQxlb7H90RdbS3GQOgeEajRnRVNwUAAAAAAHnkl54EAAAAAGBFffzjF7+/q6f7jOtH+Se6Aii0OBJdAQAAAACQcy5eAQAAAACwKp58+8SRP16eeGVuft4YObW3f3vU0/GIIQCK53hcrgybAQAAAACAvBNeAQAAAACwavadeeOl8YnJX87Mzm6wRr7s7tsWbd+8yRAAxfNyXK4cMwMAAAAAAEUgvAIAAAAAYFUdOHvy4PhE/XfT16+3WiMfdvX2RAOdWwwBUCxTyTsclysjpgAAAAAAoCiEVwAAAAAArLpSrdr1wcUvPro8M9NtjWxLr1yl164AKJQ0uhqKy5XzpgAAAAAAoEhaTAAAAAAAwGqLy5X6U/19Twx2b33fGtklugIopNHkPS26AgAAAACgiFy8AgAAAABgTe2pnhj5+MrEi3Pz88bIkJ6OR6K9/dsNAVAs1eQNpwG1KQAAAAAAKCLhFQAAAAAAa+7Jt08cuVCfPjIzO7vBGs2vo60t2j+wI2ptaTEGQHG8Fpcrh80AAAAAAECRCa8AAAAAAFgXB86ePDg+Uf/d9PXrrdZoXqIrgMKZSt7huFwZMQUAAAAAAEUnvAIAAAAAYN2UatWuDy9d/vDi9NVeazQf0RVA4aTR1VBcrpw3BQAAAAAACK8AAAAAAGgCj791/L0L9aln5+bnjdEk0tjqe4PfFl0BFMdo1Iiu6qYAAAAAAIAG4RUAAAAAAE3hybdPHBmfqL/y5dycMdZZGlvtf3RH1NHeZgyAYjgelyvDZgAAAAAAgFsJrwAAAAAAaBoHzp48OD5R/9309eut1lgfoiuAwvlZXK6MmAEAAAAAAL5KeAUAAAAAQFMp1apdH166/OHF6au91lhboiuAQhlP3qG4XDlvCgAAAAAAuD3hFQAAAAAATek7v/3V6U8m68/Nzc8bYw2IrgAKJY4a0VXdFAAAAAAA8PWEVwAAAAAANK0n3z5x5EJ9+sjM7OwGa6we0RVAobwSlytHzQAAAAAAAHcmvAIAAAAAoKkdOHvy4OdTV09dnpnptsbKE10BFMZU8objcuWUKQAAAAAA4O4IrwAAAAAAaHqlWrXrk8n6mQv1qWfn5ucNskJEVwCFMZq8Q3G5MmYKAAAAAAC4e8IrAAAAAAAy48m3Txy5UJ8+MjM7u8EaD0Z0BVAYr8XlymEzAAAAAADAvRNeAQAAAACQKQfOnjz4+dTVU5dnZrqtcX9EVwCFMJW84bhcOWUKAAAAAAC4P8IrAAAAAAAyp1Srdn0yWT9zoT717Nz8vEHugegKoBBGk3coLlfGTAEAAAAAAPdPeAUAAAAAQGY9+faJIxfq00dmZmc3WOPORFcAhfBKXK4cNQMAAAAAADw44RUAAAAAAJlWqlV3fnjp8n9cnL7aa42vJ7oCyL2pqHHl6pwpAAAAAABgZQivAAAAAADIhV1vHT/5aX3qb+fm540REF0B5F41ecNxuVI3BQAAAAAArBzhFQAAAAAAufHMO28+Nz4x+ZvJP//vI9ZoEF0B5Fp65epoXK4cMwUAAAAAAKw84RUAAAAAALlSqlW7xq5Mvvv59PS+ol+/El0B5Npo1Lhydd4UAAAAAACwOoRXAAAAAADk0pNvnzhyoT59ZGZ2dkMRf/yiK4BceyUuV46aAQAAAAAAVpfwCgAAAACA3CrVqjs/unzl3GdT04NF+nF3tLVFe/q2ia4A8mc8aly5OmcKAAAAAABYfcIrAAAAAAByb+/p11/902T95SJcv0qjq/0DOxYvXgGQK68l72hcrtRNAQAAAAAAa0N4BQAAAABAIRw4e/LgpWszb12cvtqb1x+j6Aogl1y5AgAAAACAdSK8AgAAAACgUPZUT4x8Mll/8cu5uVz9uERXALl0PHmHXbkCAAAAAID1IbwCAAAAAKBw8nb9avvmTdHuvm3+xQLkR3rlKg2uTpkCAAAAAADWj/AKAAAAAIDCysP1K9EVQO68lryjrlwBAAAAAMD6E14BAAAAAFBopVp150eXr5z7bGp6MGvf94HOLdGu3h7/EgHyIb1yNRyXK+dMAQAAAAAAzUF4BQAAAAAAib2nX3/1T5P1l2dmZzdk4fubXrlKr10BkAuuXAEAAAAAQBMSXgEAAAAAwA3p9as/XLr8zqVrM3vm5ueb9vspugLIjdHkHXblCgAAAAAAmpPwCgAAAAAAAvvOvPHSp/Wpf5m+fr21mb5frS0t0f5Hd0Qd7W3+JQFk21TyjsXlylFTAAAAAABA8xJeAQAAAADAbZRq1a4L9alffzJZf64Zrl+1t7ZG3+3fLroCyL44ecNxuTJmCgAAAAAAaG7CKwAAAAAA+AbPvPPmcxenr/578nrX6/vQ0dYW7R/YsXjxCoDMSq9cpcHVKVMAAAAAAEA2CK8AAAAAAOAu7D39+qt/mqy/PDM7u2Et/7k9HY9Eu/u2ia4Asu215B2Ny5W6KQAAAAAAIDuEVwAAAAAAcJdKtWrX2JXJdz+fnt43Nz+/6v+87Zs3LUZXAGRWnLzDcbly3hQAAAAAAJA9wisAAAAAALhHz7zz5nOfTk4dvzwz071a/4xdvT3RQOcWYwNk01TUCK5GTAEAAAAAANklvAIAAAAAgPu09/Trr342NX14+vr11pX6e7a2tCxGV+m1KwAy6bXkHY3LlbopAAAAAAAg24RXAAAAAADwAEq1atcnk/UzF6evPvvl3NwD/b3S6Gr/ozuijvY2wwJkTxw1rlydNwUAAAAAAOSD8AoAAAAAAFbAgbMnD16Z+fOvP5uaHryfv76jrS3aP7BjMb4CIFPGo0ZwdcoUAAAAAACQL8IrAAAAAABYQfvOvPHSpWvX/vnStZlNd/vXbN+8KdrV2yO6AsiWqeQdi8uVo6YAAAAAAIB8El4BAAAAAMAq2FM9MfI/V6/9dPr69dZv+vMe29oVDXZvNRhAthyPGleu6qYAAAAAAID8El4BAAAAAMAqKdWqXWMTk29+cfXaX385N3fLH0uvW6VXrtJrVwBkRpy84bhcGTMFAAAAAADkn/AKAAAAAABWWalW3Tl2ZfL059PT++bm56P21tbou/3bo472NuMAZEMaXB2Ny5VzpgAAAAAAgOIQXgEAAAAAwBp55p03n5uY+fOxga7OJ9KLVwA0vfGoEVyNmAIAAAAAAIpHeAUAAAAAAGusVKsOJR8jyRu0BkBTmkreYcEVAAAAAAAUm/AKAAAAAADWSalWHU4+jkYCLIBmkQZXx9IXlyt1cwAAAAAAQLEJrwAAAAAAYJ0JsADWneAKAAAAAAD4CuEVAAAAAAA0iVKtejT5OJy8TmsArJlXIsEVAAAAAABwG8IrAAAAAABoIqVatStqxFcCLIDVdTx5R+NyZcwUAAAAAADA7QivAAAAAACgCQmwAFaN4AoAAAAAALgrwisAAAAAAGhiAiyAFTGVvJHkHRNcAQAAAAAAd0t4BQAAAAAAGVGqVYeTj6PJG7QGwF1Jg6tjUSO4qpsDAAAAAAC4F8IrAAAAAADIGAEWwB0JrgAAAAAAgAcmvAIAAAAAgIy6EWClr2QNgEXjUSO4GhFcAQAAAAAAD0p4BQAAAAAAGVeqVYeixgUsARZQVGlwdTQuV0ZMAQAAAAAArBThFQAAAAAA5ESpVt0ZNQKsF60BFEQcNYKrc6YAAAAAAABWmvAKAAAAAABy5kaANZy8w8nrtAiQQ8eTdywuV86bAgAAAAAAWC3CKwAAAAAAyKlSrdqVfByKGlewBi0CZNxU8o4lbyQuV8bMAQAAAAAArDbhFQAAAAAAFECpVh2KGhewKtYAMmY0aly3GjEFAAAAAACwloRXAAAAAABQIKVadWfUCLCGk9dpEaCJHY8a163OmQIAAAAAAFgPwisAAAAAACigUq3alXwcihoR1gGLAE1iPHkjUSO4GjMHAAAAAACwnoRXAAAAAABQcKVa9emoEWC9aA1gnVSjRmx1yhQAAAAAAECzEF4BAAAAAACLblzBGr7xXMECVpvrVgAAAAAAQFMTXgEAAAAAAF+x7ArWoeR1WgRYQa5bAQAAAAAAmSC8AgAAAAAAvtaNK1hpfDWc/qZFgPuUXrc6lrxTrlsBAAAAAABZIbwCAAAAAADuSqlW3Rk1Aqz0DVoEuIOp5KVXrY7F5cp5cwAAAAAAAFkjvAIAAAAAAO5ZqVYdihoBVnoNq9MiwDLV5I3E5copUwAAAAAAAFkmvAIAAAAAAB5IqVZN46vh5FWsAYU1mrxjyTsVlyt1cwAAAAAAAHkgvAIAAAAAAFZEqVbtihoXsNInwoL8S2OrkagRW42ZAwAAAAAAyBvhFQAAAAAAsOKWRVjD6W9aBHJDbAUAAAAAABSG8AoAAAAAAFhVpVp1Z/IxFLmEBVkltgIAAAAAAApJeAUAAAAAAKyZZZewRFjQ3MRWAAAAAABA4QmvAAAAAACAdXEjwhqKboZYnVaBdVVN3qnknRNbAQAAAAAACK8AAAAAAIAmUapVh6KbEdagRWDVTUWN0GoptqqbBAAAAAAA4CbhFQAAAAAA0HRKterOqBFgDSWvYhFYMaPRjdgqLlfOmwMAAAAAAODrCa8AAAAAAICmV6pVlyIs17Dg3own79yNd8pVKwAAAAAAgLsnvAIAAAAAADLlxjWsoejmRaxOq8AtqtGN2MpVKwAAAAAAgPsnvAIAAAAAADKtVKs+HTUCrKUnxKJo4uhmaHXOHAAAAAAAACtDeAUAAAAAAOSKEIsCEFoBAAAAAACsAeEVAAAAAACQa8tCrKXPQauQIVNRI7I6HwmtAAAAAAAA1pTwCgAAAAAAKJRSrbozuhlhpZ8lq9BERqMbkVX6GZcr500CAAAAAACwPoRXAAAAAABA4ZVq1aGoEWEtvQNWYQ2MR43IyjUrAAAAAACAJiS8AgAAAAAAuA0xFivslsgqalyzqpsFAAAAAACgeQmvAAAAAAAA7lKpVl2KsHYmb+jGtzstQyCOGoHVWNQIrM6ZBAAAAAAAIHuEVwAAAAAAAA+gVKt2RTevYu1c9m1BVv6lgdXYjXcu/YzLlTGzAAAAAAAA5IPwCgAAAAAAYJWUatWhqBFjpS+NsdJIq2SZTBlNXj1qhFXpZ3rJKr1iVTcNAAAAAABAvgmvAAAAAAAA1tiyK1m3+zxgoTU1Ht28WnXLc70KAAAAAACg2IRXAAAAAAAATWZZmBVFN4OsnTfe4p9ipbuydK1q6VJV6tyNT1erAAAAAAAA+EbCKwAAAAAAgIwKAq3l304NLft2Hi5pLV2mWpKGVEvh1NiyP+ZSFQAAAAAAACtCeAUAAAAAAFBApVq1P/nYeJs/tHONvysXk3c9/J3iKQAAAAAAANab8AoAAAAAAAAAAAAAAAAg0GICAAAAAAAAAAAAAAAAgFsJrwAAAAAAAAAAAAAAAAACwisAAAAAAAAAAAAAAACAgPAKAAAAAAAAAAAAAAAAICC8AgAAAAAAAAAAAAAAAAgIrwAAAAAAAAAAAAAAAAACwisAAAAAAAAAAAAAAACAgPAKAAAAAAAAAAAAAAAAICC8AgAAAAAAAAAAAAAAAAgIrwAAAAAAAAAAAAAAAAACwisAAAAAAAAAAAAAAACAgPAKAAAAAAAAAAAAAAAAICC8AgAAAAAAAAAAAAAAAAgIrwAAAAAAAAAAAAAAAAACwisAAAAAAAAAAAAAAACAgPAKAAAAAAAAAAAAAAAAICC8AgAAAAAAAAAAAAAAAAgIrwAAAAAAAAAAAAAAAAACwisAAAAAAAAAAAAAAACAgPAKAAAAAAAAAAAAAAAAICC8AgAAAAAAAAAAAAAAAAgIrwAAAAAAAAAAAAAAAAACwisAAAAAAAAAAAAAAACAgPAKAAAAAAAAAAAAAAAAICC8AgAAAAAAAAAAAAAAAAgIrwAAAAAAAAAAAAAAAAACwisAAAAAAAAAAAAAAACAgPAKAAAAAAAAAAAAAAAAICC8AgAAAAAAAAAAAAAAAAgIrwAAAAAAAAAAAAAAAAACwisAAAAAAAAAAAAAAACAgPAKAAAAAAAAAAAAAAAAICC8AgAAAAAAAAAAAAAAAAgIrwAAAAAAAAAAAAAAAAACwisAAAAAAAAAAAAAAACAgPAKAAAAAAAAAAAAAAAAICC8AgAAAAAAAAAAAAAAAAgIrwAAAAAAAAAAAAAAAAACwisAAAAAAAAAAAAAAACAgPAKAAAAAAAAAAAAAAAAICC8AgAAAAAAAAAAAAAAAAgIrwAAAAAAAAAAAAAAAAACwisAAAAAAAAAAAAAAACAgPAKAAAAAAAAAAAAAAAAICC8AgAAAAAAAAAAAAAAAAgIrwAAAAAAAAAAAAAAAAACwisAAAAAAAAAAAAAAACAgPAKAAAAAAAAAAAAAAAAICC8AgAAAAAAAAAAAAAAAAgIrwAAAAAAAAAAAAAAAAACwisAAAAAAAAAAAAAAACAgPAKAAAAAAAAAAAAAAAAICC8AgAAAAAAAAAAAAAAAAgIrwAAAAAAAAAAAAAAAAACwisAAAAAAAAAAAAAAACAgPAKAAAAAAAAAAAAAAAAICC8AgAAAAAAAAAAAAAAAAgIrwAAAAAAAAAAAAAAAAACwisAAAAAAAAAAAAAAACAgPAKAAAAAAAAAAAAAAAAICC8AgAAAAAAAAAAAAAAAAgIrwAAAAAAAAAAAAAAAAACwisAAAAAAAAAAAAAAACAgPAKAAAAAAAAAAAAAAAAICC8AgAAAAAAAAAAAAAAAAgIrwAAAAAAAAAAAAAAAAACwisAAAAAAAAAAAAAAACAgPAKAAAAAAAAAAAAAAAAICC8AgAAAAAAAAAAAAAAAAgIrwAAAAAAAAAAAAAAAAACwisAAAAAAAAAAAAAAACAgPAKAAAAAAAAAAAAAAAAICC8AgAAAAAAAAAAAAAAAAgIrwAAAAAAAAAAAAAAAAACwisAAAAAAAAAAAAAAACAgPAKAAAAAAAAAAAAAAAAICC8AgAAAAAAAAAAAAAAAAgIrwAAAAAAAAAAAAAAAAACwisAAAAAAAAAAAAAAACAgPAKAAAAAAAAAAAAAAAAICC8AgAAAAAAAAAAAAAAAAgIrwAAAAAAAAAAAAAAAAACwisAAAAAAAAAAAAAAACAgPAKAAAAAAAAAAAAAAAAICC8AgAAAAAAAAAAAAAAAAgIrwAAAAAAAAAAAAAAAAACwisAAAAAAAAAAAAAAACAgPAKAAAAAAAAAAAAAAAAICC8AgAAAAAAAAAAAAAAAAgIrwAAAAAAAAAAAAAAAAACwisAAAAAAAAAAAAAAACAgPAKAAAAAAAAAAAAAAAAICC8AgAAAAAAAAAAAAAAAAgIrwAAAAAAAAAAAAAAAAACwisAAAAAAAAAAAAAAACAgPAKAAAAAAAAAAAAAAAAICC8AgAAAAAAAAAAAAAAAAgIrwAAAAAAAAAAAAAAAAACwisAAAAAAAAAAAAAAACAgPAKAAAAAAAAAAAAAAAAICC8AgAAAAAAAAAAAAAAAAgIrwAAAAAAAAAAAAAAAAACwisAAAAAAAAAAAAAAACAgPAKAAAAAAAAAAAAAAAAICC8AgAAAAAAAAAAAAAAAAgIrwAAAAAAAAAAAAAAAAACwisAAAAAAAAAAAAAAACAgPAKAAAAAAAAAAAAAAAAICC8AgAAAAAAAAAAAAAAAAgIrwAAAAAAAAAAAAAAAAACwisAAAAAAAAAAAAAAACAgPAKAAAAAAAAAAAAAAAAICC8AgAAAAAAAAAAAAAAAAgIrwAAAAAAAAAAAAAAAAACwisAAAAAAAAAAAAAAACAgPAKAAAAAAAAAAAAAAAAICC8AgAAAAAAAAAAAAAAAAgIrwAAAAAAAAAAAAAAAAACwisAAAAAAAAAAAAAAACAgPAKAAAAAAAAAAAAAAAAICC8AgAAAAAAAAAAAAAAAAgIrwAAAAAAAAAAgP9j7w5uGgaCAIpClAIowZHSRyjFJVBCSkkniA4oIJJdAiXga77gzAq/J632Opq9+ssAAAAAhPAKAAAAAAAAAAAAAAAAIIRXAAAAAAAAAAAAAAAAACG8AgAAAAAAAAAAAAAAAAjhFQAAAAAAAAAAAAAAAEAIrwAAAAAAAAAAAAAAAABCeAUAAAAAAAAAAAAAAAAQwisAAAAAAAAAAAAAAACAEF4BAAAAAAAAAAAAAAAAhPAKAAAAAAAAAAAAAAAAIIRXAAAAAAAAAAAAAAAAACG8AgAAAAAAAAAAAAAAAAjhFQAAAAAAAAAAAAAAAEAIrwAAAAAAAAAAAAAAAABCeAUAAAAAAAAAAAAAAAAQwisAAAAAAAAAAAAAAACAEF4BAAAAAAAAAAAAAAAAhPAKAAAAAAAAAAAAAAAAIIRXAAAAAAAAAAAAAAAAACG8AgAAAAAAAAAAAAAAAAjhFQAAAAAAAAAAAAAAAEAIrwAAAAAAAAAAAAAAAABCeAUAAAAAAAAAAAAAAAAQwisAAAAAAAAAAAAAAACAEF4BAAAAAAAAAAAAAAAAhPAKAAAAAAAAAAAAAAAAIIRXAAAAAAAAAAAAAAAAACG8AgAAAAAAAAAAAAAAAAjhFQAAAAAAAAAAAAAAAEAcrQAAYEzn6TRv1zTaXPd1uXodAAAAAAAAAID/wTcqAAC/E14BAIxr3s5lwLmungYAAAAAAAAA4N+Yn3yjAgDwo4MVAAAAAAAAAAAAAAAAADwSXgEAAAAAAAAAAAAAAACE8AoAAAAAAAAAAAAAAAAghFcAAAAAAAAAAAAAAAAAIbwCAAAAAAAAAAAAAAAACOEVAAAAAAAAAAAAAAAAQAivAAAAAAAAAAAAAAAAAOJoBQAAAAAAYzhPp3m7psHGWu/rcvM6AAAAAAAAAOyN8AoAAAAAYBzzdi6DzfSxnZunAQAAAAAAAGBvDlYAAAAAAAAAAAAAAAAA8Eh4BQAAAAAAAAAAAAAAABDCKwAAAAAAAAAAAAAAAIAQXgEAAAAAAAAAAAAAAACE8AoAAAAAAAAAAAAAAAAghFcAAAAAAAAAAAAAAAAAIbwCAAAAAAAAAAAAAAAACOEVAAAAAAAAAAAAAAAAQAivAAAAAAAAAAAAAAAAAEJ4BQAAAAAAAAAAAAAAABDCKwAAAAAAAAAAAAAAAIAQXgEAAAAAAAAAAAAAAACE8AoAAAAAAAAAAAAAAAAghFcAAAAAAAAAAAAAAAAAIbwCAAAAAAAAAAAAAAAACOEVAAAAAAAAAAAAAAAAQAivAAAAAAAAAAAAAAAAAEJ4BQAAAAAAAAAAAAAAABDCKwAAAAAAAAAAAAAAAIAQXgEAAAAAAAAAAAAAAACE8AoAAAAAAAAAAAAAAAAghFcAAAAAAAAAAAAAAAAAcbQCAAAAAPbuPJ1et+t9tLnu6/LsdQAAAAAAAAAA/oY/XgEAAAAAAAAAAAAAAACE8AoAAAAAAAAAAAAAAAAghFcAAAAAAAAAAAAAAAAAIbwCAAAAAAAAAAAAAAAACOEVAAAAAAAAAAAAAAAAQAivAAAAAAAAAAAAAAAAAEJ4BQAAAAAAAAAAAAAAABDCKwAAAAAAAAAAAAAAAIAQXgEAAAAAAAAAAAAAAACE8AoAAAAAAAAAAAAAAAAghFcAAAAAAAAAAAAAAAAAIbwCAAAAAAAAAAAAAAAACOEVAAAAAAAAAAAAAAAAQAivAAAAAAAAAAAAAAAAAEJ4BQAAAAAAAAAAAAAAABDCKwAAAAAAAAAAAAAAAIAQXgEAAAAAAAAAAAAAAACE8AoAAAAAAAAAAAAAAAAghFcAAAAAAAAAAAAAAAAAcbQCAAAAAIBhvG3nZbCZvjwLAAAAAAAAAHskvAIAAAAAGMR9XT5tAQAAAAAAAADGcLACAAAAAAAAAAAAAAAAgEfCKwAAAAAAAAAAAAAAAIAQXgEAAAAAAAAAAAAAAACE8AoAAAAAAAAAAAAAAAAghFcAAAAAAAAAAAAAAAAAIbwCAAAAAAAAAAAAAAAACOEVAAAAAAAAAAAAAAAAQAivAAAAAAAAAAAAAAAAAEJ4BQAAAAAAAAAAAAAAABDfArB3t8dx3OiigHFO7X9qI2Cziv/JjUDtCKSNQOMIzBOBxxGYjsCjCExF4GEES/5nFZsRXCmCvQ0RLY5G/BzOB4B+nqquobW3zu0BBt3AC7yAxCsAAAAAAAAAAAAAAACAJRKvAAAAAAAAAAAAAAAAAJZIvAIAAAAAAAAAAAAAAABYIvEKAAAAAAAAAAAAAAAAYInEKwAAAAAAAAAAAAAAAIAlEq8AAAAAAAAAAAAAAAAAlki8AgAAAAAAAAAAAAAAAFgi8QoAAAAAAAAAAAAAAABgicQrAAAAAAAAAAAAAAAAgCUSrwAAAAAAAAAAAAAAAACWSLwCAAAAAAAAAAAAAAAAWCLxCgAAAAAAAAAAAAAAAGCJxCsAAAAAAAAAAAAAAACAJRKvAAAAAAAAAAAAAAAAAJZIvAIAAAAAAAAAAAAAAABYIvEKAAAAAAAAAAAAAAAAYInEKwAAAAAAAAAAAAAAAIAlEq8AAAAAAAAAAAAAAAAAlki8AgAAAAAAAAAAAAAAAFgi8QoAAAAAAAAAAAAAAABgicQrAAAAAAAAAAAAAAAAgCUSrwAAAAAAAAAAAAAAAACWSLwCAAAAAAAAAAAAAAAAWCLxCgAAAAAAAAAAAAAAAGCJxCsAAAAAAAAAAAAAAACAJRKvAAAAAAAAAAAAAAAAAJZIvAIAAAAAAAAAAAAAAABYIvEKAAAAAAAAAAAAAAAAYInEKwAAAAAAAAAAAAAAAIAlEq8AAAAAAAAAAAAAAAAAlki8AgAAAAAAAAAAAAAAAFgi8QoAAAAAAAAAAAAAAABgicQrAAAAAAAAAAAAAAAAgCUSrwAAAAAAAAAAAAAAAACWSLwCAAAAAAAAAAAAAAAAWCLxCgAAAAAAAAAAAAAAAGCJxCsAAAAAAAAAAAAAAACAJRKvAAAAAAAAAAAAAAAAAJZIvAIAAAAAAAAAAAAAAABYIvEKAAAAAAAAAAAAAAAAYMk/FAEAY3HYHLRL/9S+4v9cl67B56vu+kIpA7z6Wf2m/zh+4H9u1/j/1Xzpvy/65/hnNQAvbrNN/9Es/NPyf6+rr6WtAsC4xgDxv9+sqR/R9f2HTklTQVtpNzRGnt/zb2KdsP02vvzue827MI6bv2vDfZueK2XIqr+77vf5fe90cTTgqedTk55Px+l5FD/f6zeM6n0k/gJlPbObhX9a/u/XtF9xIAB4hv/573//qxQAKH1wOQSIhkHlYsDo7Q5u6Uu4m9Scp8+LNFCdqzFe8Nue7+g3/Kj+d/w/aodnPpfD0jM5hB8D+G8z/AqX4XaBSrd8mTBgZG15aK9t+qfhM/a39jO5zcV+Vwg/ThTMF95f+mE89ZuPv/G/9b0A1vZcbcJdrKZZGhvsqj+x2HdY7DdcpDGARQbscgy93GZyGzMPY+Uf+tpL7cnYGZ4/vo7/vreDWzpfarvfLu0XnnxfhyDmDZTdJ2nDXZLVfePyn8TSi6vX5bGk+Auv+T3NgzUquyj35bFiu8M2vNh+hzZrzRsABIlXAJQ52BwWIgy7L+0V9jWGQWq8unC745zBKff93uPvQlCLnH6TwwTyYsB+8d+ORlIU5+FukmAe7BxKHW176F+1Ia/Eqk32xUK4f8LPgpNxjzUkXgGs9vxsFvoStYwNzpf6CPoKvLatDGPpxTbztvKvvZisNU+f307iEROl0vF1s9TWSxxfL8e+vPuovd2KeYt5Q83PuHbhes66ColX+dbn4liyDfXHX7yLdvM7i+3fGpXNlO3Q36xlzds83K15k0gJwChIvAIg50FnHGi24W7HpdonNy7DXULW3MAUQS22/HsbAn3LnyHUvxBsHW5CmpD2DKeA/tXxQv9K+37c8oRfF+wGXHP7iO1C4hXA08/K44XraMTFcZP6BRYG8VR7GT73lcqT7elbUlYaY0vOIuc2/mahfbcjGF9/Cd/HvrRNSmmnYt6vez8vtnsxb8j/udekfsn78PxEq2USr/IaT4q/3G3oIf6ynd/ePFijsq7n8XH4Pi60V/nP53yp76h9AlAdiVcA5DTwjBMeQxAwXmNfjDBMZMbrzOLeUbaJWPeCWqzzNxWfrfdNNh8pnY08w88WnuECi+hf1dvWf5jsCxKzSn5PSrwC+P7Z+D6MZ0H5up3rI4yuvRwv9L21l/W7d7GdRaHs4L04jK/F0+4W1knEYtdjeTHv7RDzhrz7J/FzHfF/iVfbr8M34fsNiY0nX94n/RZ3CTbPe+3vcR6sUVml3I6X2rH52Ns4zlnqN0rgB6AKEq8AyGHw+T5dJkEed5MGpXES80xxjKJ9zIOgFi//3bThboK5CXfH1O8pnZ2KgcVZkEjL9vpXk2AhWC79t27hsjj0/vdWm8ntxHfmhwyL6Te/lJUVuQC0bxeT9HvMSVysMPOTGk0/Ij6X3wcLfTY9PoiLguaL/QSLV4trL8MmB6/ZTZ71GU6rnQfJjmymnb9TIo8aNpIbFtZ5p7Hu2IGYd5592lkQ866tvcX2Ncntvvrf2FTtbK1/IvFqO/Vo447tvau68H1SlvjL47/NebBGRRvezHhxGCta7wZAsSReAbCrAegkrG/XJYNSam0r8yCoxf2/jWGSeZhoHj49U8sQg/ynwSIU9K/055Ym+8IIk7L63+60//jVz4EN+a3EhTmZjgPO+7Js/aSqfRa34W7Rln5EBu0tfJ+4/fWymDWr8bgkjDLH4UOyo6QstPPtvc9mQfyLl7U9Me+y37Vi3vWMD50In1+9NKlvMgmb32xN4tXm6nHdp5Px+v5qF8Rfln+nsf1bo3L/c3hov/HTBgCrG9a7nToJC4DSSLwCYFuD0DhhMgnbCQYalFJLu5kHQS3Pzh8nm+3kWZeP/TUzicWKz4j4XDgJJulq7d9dhLvErK9/17hwReIVGybxan0kXtX3/JW0Xabl0zS/XRJINt5mhvYiCaM+izugDwlZYqzjbOfDYmbtfP0+hdtkjJmiQMx7FMS8y26jcewv8SqPumjC9pKtFkm8Wm89xnfcMI/jXVeO0cZfrFH54Z04JFpZ57YZkvcBKMo/FAEAWxiITvrrg9LYmL1Uvh/68jYohbKfl024m2g22TwOw/P76y7AFqDwjGfFsPN2nKgT5K+7f/c2LE1u9fU/TPbN0+eFRaEAvLAfMUn9CMlWZdpP130LYGySsv42Y4HcOByl691C3cePxd3P56HSjRC084Mm3G0Y5924ObF9vevLO85dzMLtJnKdYhlFG2uDmPcYiXnD68ftkyD+X0M9ir+US/xlvO13OP1YLGg74rvuzzhGTOPFU7EXAHIm8QqATQ1GJ8GC4F0PSmfBBCbk+Hxswu1kcxvuJpsF3fmaYJFOfpmajOaBZ0fsW8U+lkD/eP0w2ZcWhcbk++F0rHlw6gUA3/cj2mBTHHhJm5mkNvNWaRinp79/Tb+N4WTaebjb7XyuqIps50NipXfjdsV4xi/x6usgnoJ1qg1V06aaIObNA+9SMW949hjECbvl12MbxF+gxLYr2SqPsWKMvfza18fH1HfsFAsAuZF4BcC6B6STOAAKJlRyGJQOE5gGpbC7Z2KcYG7C7URzG+zoydPi+/PPNBl90j+7zxTJ6J8j8dkR+1cm6njMsEt/FCcmztN7B4Bx9yMmQfIIPLe92JGc5/jhZNr+t/OTxJHixthT78YsDKdgORGnvHYk5s1LiXnDw89TJ+zWUZeTIP4yFl8UQTXtVrJVvuKc+HsnYAGQI4lXAKxrUDoJEq5yHpR+kIAFW3sexuBcnCgRXOc14vv0r7T4JE5GXyiS0T1L2mAxGACwWj9iEsRoxuZGEazcXt6kMXy8LLQBY2y2z4k4ZbQhMW/WQcwbz1MbPtRWn5Mg/jI23l1lt9nj9Ax+r91mbzgB66SvtxPjRAByIfEKgNcOTOOgdGpQWgQJWLAdMWBnApp1ib+l//TP7j/Ss9uOTvX3rdpgMRgAsFo/Ii4aiDuBitGMT6cIXtxeJFzBONp603/MjLGLMJyIMwm3MbC5IsmKmDfrNMS8fwtOMWA8fZI23C72/6A0qqjPr/2VIP4CJbTXGP8ZNhE4UiLF2VsYJ06scwNg1yReAbDq4LQNFgWXyrHMsFl2umITfknP7omFJ9X2rZpwu1D6ndJgDTpFADCqfkQbxGjgJW1mkvreEq7Q9663nb9J7dzi5vLE/szffR1+Crcn4mhjeRDzZhPiKQYTMW8q74+8DxJ0aqrTNoi/QEntdWJMWNU48SKelNz3G08VBwC78r+KAIAXDk7f9Nes//PvIKBUsuFY5osUcADWRzIjmxIn5uLCk6miqK5vFQPE10HSFevTKQKA0fQjZkGMBp7bZtr+iv2kP4OkK9ZEUkiWbf0kjYkssCtbjJFci4NlQ8ybTRHzpsa+SJNi/sPYQ9JVHXU6C+IvkHtbjbHSSYr9/G1MWJ0Yy/u9r995Sm4GgK2TeAXASwapcUemzuC0KsOExpmBKUAxfhVQrKZvNUl9q1+UBgDwwn6EReXw/PYSF8mdhdtFNxY9Qr1t/TjGS/o/fw+SK2sS42CdDeRgFG1dzJvS+yJtGnfETdZ+0R+ppl5j/CWe/Cj+Avm20yE5sgsSXscgJsDGMeKxogBg2yReAfCcQeqbFCT8KwgQ1updGpi+VxQARRBQLLtv1aTFYHbaBwBW7UdYVM6iThE82GaGRXJOl4W62/q0//hPcAJBrYYN5E4lZUDVxLwptR8ST1eJY46/jTuqqlfxF+4zVwRZtdPFhNcP2uqoxLr+T9rkFAC2RuIVAE8NVIdTrgQJxzEw/SvuBGPyEqCY5/Zc0mxxfath4afFYADAS/sRE/0IHtApgh/ai0VyMK62/qvSGIV4eshcUgZUTcybUvogb1LCVRyLxQ3WjpRKVfVrHgfybqPD81fCK3+mjVgAYCskXgHw2GD1NDjlaoziTjAXJi9hNVfd9VwpsEVD0uxEUWTfr7LwEwBYtR8xnETutEx4XpuxSA7G0dbfa+ujFBe2/yc969kSMW+2TMyb3Mfn03C7+UUco+8rlerqN8ZfzONAps/fhYRXz18Gv8YNxhUDANvwD0UAwD0D1qb/iAElOzONVwxSxMnLn6+6awNUgPzF3ZyCZ3a2fau4GCzWjYk6AOCl/Yjj1I8Qo4Gn28ub1F7sdgz1t/e4adwvSmLUfk/9pJOr7vqz4oAqiXmT21jjJF3i/HXWcexXxDUykjkgT53nL4/4kPqNE0UBwCY58QqA7/QDkTbc7hJpQQ/Rn3YGASjqmT1RDNn1rZwgCgCs2o+IydvzIEYDz2kvcZFcjGlKuoK623rc5Ty2dUlXRB9iXyltJgjUScybHPoe03C74P/XIM5faz3H58w8SLqCnHn+8uT40Po2ADZN4hUA36SA0t8GrNwzOJ2nnbwAyJuJ6Hz6VXFCdh4sBmM3OkUAUHxfIu6iLXkb7/7ntZc4Bop9b4vk2LYbRbDVtn6cnncSklkUfw8X6fcB1EnMm130OyRcjaeuYz3/qY55prkigKx9SHF1ANgIiVcAfJV2ffhTSfCAt+F250jJV/A8XxQBO/SnxSY771fF8p+n9yfsQqcIAIruS8z6j9+VBN79z2ov02CRHNreGNr6cAqkts594u9iLjFj48S82SUxb7bV55BwNa76nqV6BqAevxsbArApEq8AGAJKH5QET4g7R3YmNuBZLhQBOxYXmzSKYSf9qiHpyg7cAMAqfYlZEKOBl7QXi+Sg/rY+CU6B5Gnx9+FUnM0S82bXxLzZRp/jIki4GtN4UvwFoE6n1rYBsAkSrwBGLO3YFIOHAko817BzpAEqQP7P6zMnFW69bzUkXZmUBQBW6UvMghgNaC/AYlufhNtT7eC5JF9BvcS82VR/431/danPsa9Eqq/vuEbmzHgSQL8RAF5K4hXASKXBxTw4jYHVBqiSrwDyF9/xp4pha30rSVcAwGv6ErNg0Q9oL8BiW58ESVesRvIV1EvMm3X2Ndr+mofbkzUlXI1HHE++UwwA1dtPz3wAWBuJVwAjJOmKNZB8BVCGD3G3RsWw8b6VpCsA4DV9iVmQRMLrfNZegMra+kmQdMXrSL6Ceol589p+RpPGFX/311slMqq6j/Uu6YqVXXXXc6UARXmn3wjAOkm8AhgZSVes0ZB81SgK+EGnCMjILL3/2WzfStIVALBKX2IWJJHwSlfd9cVI2stUe4FRtPVJ//G7kmANJF+tV6cIyIiYN6v0Md6kMcWFccUo63+m3gH0GwHgNSReAYzPWZB0xfrEReZnBqnwg04RkNmzeqYY1k/SFQDwyr5EPM3Doh94XnuZ9B+/KgkYRVt30hXr9KcdztemUwRkRMybVfoYF2lMIZ4/vvqfBvEXgDH3G08VAwDrIPEKYETSLj5vlQRrFhP55pKvALL2ziKTjZgFCe3kqVMEAHlLfTOnecDz2stxkIiBfvcY2vpEW2dDZuldAtRFzJtnjSX6a576GPtKZLR9TJt4AIzbh/590CoGAF5L4hXASPQDiLh7g1182JS46NwOIQB5O5Uku9a+VTyh4p2SIEdX3XWnFACy7kfEhb8zJQHPai9xDHOmJMiUfvd6342SrtiUuMO5zeOgTmLePDiOSOsj/hNsTDv2PqY1DABEU0UAwGtJvAIYgbSLzy9Kgg37kBahA5CnuJuj5/R6+lZxss4JFQDAKv2IuChwFm4XAMM6fKn8+82Cnemh9ndj03/MlQQbtud3BlUS8+a+vkU8Ca0L1keM/Xcg/sK6XSoCKNpbp6UC8Fr/UAQAdbNT5HfO0+dFf32+5+/natIVxYDd8TBIU8Th9/43d3HVXc8VBSN3oQjI1En/nJ45DedVfSs77gMArxF3Wj5SDBh/Pqvv7ZRZGM8Y24LY24Wcca6iC3enqS3+/RLtPX8fK+dwFE8/uequJWnoc1AXMW+GfkUTbhNtzNkTib+wbp8VAVTxbjDPD8DKJF4BVCxNWs5H9rXjLr8XC1e3zSSgVObH6WrS59iCu2cxsN2Xu8ATY+b3v95n+rrFZ/VYJ1viAptpf038vFYWy8+O+wDAKjGDuKPmByUBz2ovTep7A3WbhfHFaGKC1fIcRrfm/z/mjzxf23C3oVwbxpeQ9UtfBvO+zC22ezkx7/UQ814/MW/i+y3+Bk6CJGOC+AsAD9rv3xGTfjw4UxQArELiFUDd5qH+4GKcoDhL3zWetLTTHfdSstE8LE1sppPH2oWr5nrZS3XSaoIwCjfhx5135w+8k+57bs53efNpsUmTrvj3GBabfIiTkHYAXfn38ouSePAZsNieVzlV9CFDG13W3vP/TlIcALn2I+JCyJmSWLmfsdy3WMc4YvEU88f+zW7puzELFk0uO0+f3ULb+BzWt3j7vt//Q/1x7YJ1vBvHcqrdeXpvzXcdB4sW7uFsoS6a8P38Re1j61mcsxEb45n90Mf6n/Mn2tmunq9tEPNmPP2J4zDORG4e/k00QfzlNe898RfYrsWk/G6pD9qF1U5AXm5ji39rZ7cJ+94TAKxE4hVApQ6bg5qPTo87QsZJwbNdJ1o9V7rPeJ2m+mn7j/fpqnES822cOO+/96nWCMU4X/h7Mai+vIirq2ny8r5J8IVk2UnF79JpsAPoKmYj/d5D0D+2ly5dF7mfbpna8pv0nw9NMIx5N2AAtt+PkETyo8uhb7GjfsaLTrtIC7iae/oUIXyfFG4Rw+v6cZMRl+HlQnuI/e/PW45/nq1QX8ttYbEfvvy35yCL47XfKx5DD/MXRZyqlGJ9s3QN77s4dzGpdMy8l75rqzVWT8z7++duG8S8qas/Eev8VyXBkplxx4NjzS7cnbr69V1YePzF/A6ltL1hA++w8LmN9nf2QPsa2tTiNaa2FE+9anPYGAWA8ki8AqhQpacx3KRB4WkNkx9pABevkzTZEXf3jBOZNQUBp/13O7O7HCOVQzLCQ7uTzZeeRfz4jP6WLLuw0CQ+p2tKlP2QEmQ/q/Fn969q+w08ZtiN+2uyVam/k3sWqJ49UcexvTfpPxcXiLYL/2bCFoBV+hGxP/lOSXxdaDD0MS5K2UxnqX/Rhe93mn2qf7G4OGixr9Eu/Ntr+5ifK2svscymI2kTN0v97osSv0QaLyzGF+bPqOehDdzXRiyeq/+9+CaskORXgI+hoGSrZ7zv4qZqNcfGbB5X7rtz6IuJeb+sXY8h5v0+vmPEvEfRl4h9yVkYT7ye5/824rPNRii3czzDc1/85e7fXvvMuPDT4hHLG+lkm9i/EMeZL7WhNl21biC+aBpsxAHACiReAVSmwknLT/01q2Gy8pFBbRx8T1LdvU8DvBoGsXaNZLRiu+7b9Kb+zy8eNz9Pn126TCyvvy5juQ4LTdr0jK5l0uYkjGdB4zr6VzWX1bDgM/a35mNdnLA0kTd/4vcwTOAN/Zxm4drPoD4ByKsfMdYFvZcL/YtRjlPuSUh57Ley3K9Y7Gs8lgBe28Kf2jc8OF9oF6NdtLX0TDh7pF0MGyLc1y5yGJt33nQrmVXUzm9SvOCs1rH0PbGx+JyuJaHc5nEvfHaLeVfbrqehjpj3XhDzHsMYO/52f1ES3PPbeJP6mWMk/rKd+IvEXgbFJzc+0IbO0nUyglOQ40YcjbEgAC8l8QqgPrNQx078cXfI6ZgGOWkgG+tvlnZjipMDpU902DUSXmZxx855+hx27uwEfnb+nI510lY0GT0JJqGf6yTUd9JRXNAynCZql76X99nmS8/q7zyQnDV8bvrZUdq7YhaeOSG6BbHOfs+wjH7S8kbTHqi3HzGmXbg/pT7GmZ3mVxpvPGrhhM7FvkY1z7rUhzqpsHrjIrhT7WKldnHxjN/NcnLW4rXp56++xsvbeS2nQJ6n8fTZyNpkfFfN0/to2l8fCv9KNo/bDjHv/Nu1mDcl9CGO0zPbyajr9yUsnMQbyt3cYxrqm8d5jPjL6959Tz1zhjFllfEXVn9GjiW5cSlRP7aBkwrGf/e9NyZ+4gC8xP/897//VQoAlUiTln8V/jVGl3D1jDqNg9mSF2nFQEQj4LdS/c9DhpNcfV3+j9p5Vv0tdrTP02dsB8OExTC5/FnSQ7F13Ibyd2n+uf/9zdTmo/UcJ1Viv6SWCbv4PJqp92yeIdHy52vf/ed9/bZKeOU6+VvfC+MAz5Y11mXTf1yP4Kuep36xxT68ts1M+49fK/k6X1K7OBXnzOJZ/ND12vH8T05hGd34Or7zpur9u/YV5y9KT6YTH3t+nYt511/HbRDz9hvIMD7G2vsz35KsahiviL/AWttTfDa8HXERDIlWXy992h/G9Cehng1LrWUD4MWceAVQ1wBnVvBXiEGiiYUI30s7Zp7FU6NCubs0xXuOk68TNcrIHHimVf+MnqcdnuLz+ZdCv8b7wvsP21BL8NjisAyfIenP+QP9+zbc7abYhO3t2g/A+kwr/m6SSlirik67im3jNLUNCzfy6HfHZ1T3yG9v6GcPJ2e16X96q/TWblbw+PomjalnqvGH9vU+jV/js6/UU0jiLu4WMD+PmHf97VrMG+obu89D/Se1nFZeh7Mg/gKbdJmelWfmUR/tJ8bx0rTvK54W3lcc7Ok3AvBSTrwCqEScFApl7ioYJyxPUoIRj9dxkwZ8pU762wH25XU+D068glLa6xCUK3EBkQUTD9er3bjJ9be5uCh0MTkrJmU5lWb1co3l5sQrjAMeeJ94ttTxTFmDrwvPg92VWX+bib+rkk+7knBV75hwcSOEoR8+vKfFO59fljFu8leht/+btj2KZ/lvfR1P1SL88OyeBTFvY1lKE+cE4tqLUZzUIv4Ca29T8zCOjUg+hbtkK32G1X4rTSh7DdvXd6Z5DwBewolXAHUMZuIgoMSkqz/C7UJggaJnSIP9tuDTr+I9G7ACtT6jz1IiRJzMKm133ziBfqoWHyybUpOu4sLPE7txV/vMGSbM5/eMDRolBJDNGLgmTvpg0yYF3/un1PfuVGN1/e7P4eETat8ooedJZVVi3CHuej4Zw4LlNbaZadokMPYXSouP/drf+8yzHL5r02LeUE6fJfZZx3pSy7Sy7yP+ApvzKfVrJDSup68Yx07DGrbfC/0ab+O8qnEgAM/1v4oAoAqzwu43LgT+dz9wOTGYXWnwGicK2nAbRC1twPpeDQIVP5+7Qp/PE7X3oJNC7ztOHDQm5kb9LAJgh9IGObXsDBtjOPGkj2N9CzbYZmK8aL/Q9hFjnO/1wUbZ7/4stv2isXVpbfyPvn6PJV2t1DZimcW+0McCb3+qBuGHNt0FMW/IcRwS5wB+Drenux2ndRfzEY4l4/OpqvhLX4/mdmC9huflP1P8ZmYsv/b+YlzD9q9wmzhaIuvYAHg2iVcAhTtsDqahrEnLGJiPwb8ztfeqgesweXle2K3bXQ6o/fn8OZQ3EX3khJx7+1hxN9fSdnKNE3M/p4kDkwYAsDvTSr5HXJgQYzhOK2fTJgXec4zJNWKc8OTYuuk/fi1sXP110zi1t7qUmBif7f9X2K1/SPEgYKlNBzFv2LW4mP2P/vqpb5NvFpIHupGXy7SS7/Et/uKnDmtxmcYiB5KtttZfjGvYjkN5yfrRRA0C8FwSrwAKdtgcvAllncTwMe241Km9tQxc4+RlG8raOXK//90atALVP59DeRPRdnL6UWmLrOLisNZOiACwW2mxbum7LTvFh222mab/eFfYbccYZ2vRDjxLSRtxXaZxtYTKNUk7n//sNwtVtGcxb9hN3yQmDvwrnYI0ylOtHhlLxmeS+Auw2J4+pmdmXJd2ql3trL/4qbBbl7APwLNJvAIo27S/9gq519/SDoesf/Aay/VjYb9bgNqfzUNg8aaQWzYJXXaZDCeKXqg2ANi50k/IcFI5+t2P+z8xTnietBi2lMTKIenKuHrN0gYx/wq3CyFL8Db9doEf27OYN2ynTzKc0jIkDuif3G9SQV2Lv8DrxSSff6fTACeembvvL8Zk0lBe8pV+IwDPIvEKoFBpt4VfCrndnx2LvvHB6ySUk3zl1CtgLM/mOBEdg3QlLCx5m07S5LafFeutlOT2YXFYp+YAYOd9iKb/+FDwV3BSObswKehef06ntwDPMy3s/ecUuw1Jix/bUE7y1UStwYPtWcwb1u++ZCvj8keIv4DnZnpu/jOdGCeBMc8xlZNSAaiOxCuAck0Luc+f046GbFhhyVcnagwYybP5oqB3dqvGiiuLuMChtTgMALIxKfjef3aKD9uWFsIeFXK7v4lxwovadxxXvy3gVj96/21HipGVUtYf0oJu4OH2PC3kdls1RqbiyXGSrVZX8loD8RdY/bn5x9Jz0/xovv3F4aTUkk4+lrAPwJMkXgEUqKAdfCRdbX/wOgllHNl8lCbfAcbwbI47op8XcKuey3dK2NVK0hUA5KfUhT/iN+h3Py4mZkxVF7zIrJC2PVFV25N2ov+5kNv13IfH27OYN7xcjOnHpIF/9W2okWy1mrQwvtQ+nPgLrN73iM/NE8/NoupsOCm1FE69AuBJEq8AyjQt4B4FjXZnEso4stmpV8DYns25a1XTtwT3/RLeo2l3WQAgjz5E7O/tFXjr4jcYgzwuxtjEsODl78Tcx9Xnkq52I/U7/ijgVj/Y8RyeVMJztFVNZOBjf/27fwe+SUkD4vqvExfGi78AlDH+m/cfvxVyu/qNADxJ4hVAYQo57eoPQaOdDlzjriGTkP+Rze/S7xlgDM/mLuS/qOTIgpKvStjN6pO+FgBkZ1LgPVv0g773M9q2U2ahunfiZbCT9U7FReehjJNyJN7C4225C2Le8Fh/I57y+M+Y7J1OfWS872fxF2DMfcZp/3FTwK22aguAp0i8AijPNPP7+5QmzdjtwDXulFVCPfitAGN7h+eeFHusmrIPqsbf0EQ1AUA+0qYibwu77f+z6Icdt5s49sh9l/Lf7EYPL27bbebvxDimbiVUZmES8o+TTVQTPGkaxLxhsZ8RkxH/1fc1juOYW59j7X3Npv84Kuy2JV0BlDG22k/xSgB4kMQrgIIUcNrVZTARlY0UwPtkcA2QzXM5TrDNMr/NVk1lPxF/YrIWAIxtX+lj3584VW3odz/qJu3IC7xM7u1G0lUm0kk5ufeh4sI7p6PB421ZzBtu5+Njcs2buEGtzRs2qrRNXT9KugL42mechzJOPdZvBOBREq8AyjLJ+N6+nr5g0jLL30zOO83tHTYHE9UEjEjuC1xHvYtTSnLfz/gWb0zSAUC2Y+9SxE1znD5NDtrM72+qiuDFY+oYU8j5tKv/sxA6L319nAWbx0ENxLwZo5v++q2/Dvr32Xtx+60pKSH6sv9d6EcA3JkWcI+tagLgMRKvAMqS88KYqUnL/KREuNwHr3aMBMb0XO5C3gtKxj4Jnfv3n2pFAJCXtMh8v5DbtWkO+t7PY8MDWE3O8xfnTnvM+neT8+Zx7/r+3hvVBA8T82Zk4m/93/3vvokn5KbfP1vQv4/bUFb8xRoIgO/7jPOQ/6lXrZoC4DESrwAKkU4F2sv09kxa5j14jXVzmfEtvksnjACMxSzje9sf+WISiz8BgJeaFHSvNs0hJ0c5txXVAy+TYgkfMr29L8GpRdlKC9Zzn1/y+4GnzTK+t30JlKyhL/FHuDvd6kyReB8/NaaUlAdw//Mx8/vbs34NgMdIvAIoR667RZq09PtZBzs+AaORJuVy3sl3zDuA5vzdJbkDgPHsa1zaNIdcpJPicvXFhgewkpzjzxa+5i/2UW4yvr+JKoLHiXlTqbix6c/97/tNf53oT+xcKfEXmxYDPNxnnGc+9otaNQXAQyReARQgLUbIdRdYk5blDF5zPrJ5opaAkcl5R8QxT0I3fjMAwHOleM1+Ibd7osbQ736WmeqBlUwyvS8LXwvQ19HnkPfO50d2PYdnEfOmFh/766f+/XRsU4Y89O/htv/YK+R2xV8AHpf7GF2/EYAHSbwCKEOuwRm7JZdlmvG9mbgExibnSegxP49zTXQ/l+gOAFmaFHKfH9OGLJCLnBcwzFQPvMxhcxBPH8g1EdnC10Kkhe0573z+Xi3Bk3KOeb9RPTwhntj2W38d9O+kiTG09/CKYvzlQnUBPGqW+f21qgiAh0i8AsjcYXMQA8G5BpJMWhakgFOvTFwCYzLP+N5GuYtT6nPlymlXAGAc+xpTVUVmcu17f7FIDqp6H1r4Wp6c+ywT1QNPmmd8b63q4QEx6ffn/mr6fsPUBmj6m68ZTwbxF4AnpROPP2V8i0dqCYCHSLwCyF8MIuV4bPq5nZ6KlPMJZRPVA4xFCijmmgw71t0/c0440+cCgMykU5v3C7jVjxaOoe+t3w0bfB/GGMKHDG8tLny1cVx5zlLd5ego9f+AB4h5U5j4W/25/93GhKtZ+v2SZ38zjh9LiL+cir8AvGjsl/O7p1VFANxH4hVA/nLdvWeqaspz1V3HwetNprdn4hIYm3muz2NVkxW77gNAnpx2BcZoQL7vw1MLqMuT6uzU7x30pzZAzJtBTLj6qX/ntDHhSnEUoS3kPk9VFcCznWV+f8eqCID7SLwCyFhKQnmX4a057apsOQf9WtUDjEi2yTRpx+qxaf1OAIDKxq9OuyJXb/W9oRo5nioVT0yy8LVcM/0/KJqYN7laTLiaK46ilJD4/FHSP8DzZX5SaiTxCoB7SbwCyJvTrtiEmd88QBbmGd+bYKLfCQDwuHcF3ONUNcHzWYAJL5M2jsvxBJGZha9FP4u7/uOT/h8UK+f+lJj3OEm4Kt/bAu5xqpoAXiznU68a1QPAfSReAeRtkuE9Oe2qcGnS+WOmt9eqIWBkz+MvSoIndIoAAPJy2ByUMHY9d9oVvMiNIoAXy3UTLaddlS/bBXh9P9DmcfAIMW8ychkkXBWvkPjLJ/EXgJXk/H5+q3oAuI/EK4BMZbxbpEnLOuQ6cblXSAAVYF0uMr2vMT6Lc93xtNNMAEBfaQUz1USODpsD/W6oxyTDe/po4Wv5+jqM/ZhcEzdaNQRPEvNml+KGCj/375JjCVdVKKHdzlQTwErjvouQ8UZIad0mAHxH4hVAvnLcNe+mH/icqZoqBrCxHk1cAuzehSLIxptM7+uzqgEA49YX+pIWLIN+t343bETGG8d5/9Uj17moVtXAk8S82YUh4aoxHq5K7u9d62cAXmee8b01qgeAZRKvAPKVY+LVTLVUxcQlwO5Z3Mej0m5fAEBe3mZ+fzNVBC+m3w0v02Z4T5dOtqhKrvMXR4fNwRvVA48S82abJFzVLff4i6QrgNfJeQzfqh4Alkm8AshQmrTJMYg0UztVyTUQ+FbVACMyz/S+WlUDAPCjw+aghH7STE0BsGE2jmOj0ukRXzK9vVYNwaPm2i5bEN8Rv/XXsYSrOom/AIxCzhshNaoHgGUSrwDylOOk5aer7rpTNfXI+dj7QgKpAAAAjE/u49UbJ2YCsAXvMrynmWqpzlx/EIAlQ8JVPOFq2l9OWKtX7u9b8ReAV0rP0Vw33GjUEADLJF4B5KnN8J4ck16nT9oAwO5cdddzpQAAUJTjzO9P/AaAjTpsDnLdOM7C6/rk2q9pVQ08TMybDZFwNT65v2/FXwDWI9ck1reqBoBlEq8A8pTjxKXAUZ3mmd7XsaoBAADAePXFZqoIgA1rM7wn8xd1mmd6X0eqBmDrTiVcjY74C4Bx304dNgdvVA8AiyReAeTXaY8BpL3MbstukQaw29aqGoCdsoMTAMCSw+ag6T/2M77FL1fd9YWaAmDDbBzHVvT9mq7/uMy0X9iqISiOmDcUIsVf9jK+xRvxF4C1yfl5atNwAL4j8QogP22G92TSslIpIHiT4a3tpYAqwBicKwIAgCLkPtEqfgPARmWahGzjuLrNM72vVtXAo8S8gdfIPf4yV0UAa5Nz4pUTrwD4jsQrgPy0Gd6ThTsGsbtg5xAAAACMU59vrooA2LA2w3syf1G3XPs35i8AYLzvWf1PgDVJJx17HwFQBIlXAPl5l9n9nNstsnpzA1gAyNNhc9AqBQDIRu7vZQt/YHXiUFDuu3CuWqqWa/16bwDAuPqc+p8Am5PraamNqgFgkcQrgIxkurB2rmaql2sdt6oGAACAjDQZ39uljXPgVd4oAniWNsP3X6da6pX6NzcZ3tq+2gGAjck5wVn8BWD9ch3XN6oGgEUSrwDykmMAyW7Jlbvqri+0BwDINqDbqhoA2L3D5iAmZeS8wHaultDvfhVxKHj6Xdhk+C70/huHeaZtolU1ALCRPueefgnAqHSZ3peNmgD4jsQrgLy0md3Pl4yTclivHI9t3ksL2wBgG7pM76tRNQCQhdyTMuaqiBJkfDLNXlrgBzys9f5jR2weBwDjkfu4TP8TYDzP1iNVA8AiiVcAeWkNbNgRE5cA4F0IAJT7TrZxDuh7wxjbyFy1jEKu/ZxG1QDA2rWZ35/+J8D6dYoAgBJIvALIRKZHplu0Mx4SrwAgT0dOgASALDQZ39tNxqcIQUlaRQBFtZHL/v33WbXUr6/neaa3Zv4CANavyfjebvQ/ATYy5utyvbfD5qBVQwAMJF4B5CPHjvpctYxGroPYRtUAsCU5J5y/Vz0AsHM5L6y1cQ6ludHvhiIdZXY/c1Xi3aF/CADVaTK+N/1PgHGN+QDgOxKvAPKR3QRNxrsIMp66NnEJwLbkvEuhBaAAYHz6GIlXlKbL9L72D5sDsSi4R6Y7PHv/eXfs2p5qAYC1e5vxvel/AoxrzBeJFQLwjcQrAB31h1yqktHJcfeQRrUAQHh32By8UQwAsFM5L6ydqx5Ym4kigHvluNDI+29csqzvTJMSAaBIBcyDSLwCGN8z1hw9AN9IvALIR2479wgajU+X4T3tqxYAtqGAkz4nagkAdqOABbViOJQm5763fjfcL7fEqy/9OL5TLaOSa31bhAcA9fY5v1PAPBJAyT4rAgByJ/EKIAOHzUGT4W1ZtDM+80zbh2ObASCEE0UAADuT84Lam6vu2qQ0rM/eYXMwUQzwg9xitOYvxqfTNgCgek3G93ajegBGOeZrVQ0AA4lXAHnIcWLGxOX45LpQy46RAGzLecb3tn/YHEi+AoDdyHlBbad6KNA88/ub9n1v8Sj43lFm92P+YnxyrfNG1QDAKN6rneoB8JwFYNwkXgHkIbsFPI5JH6UL7QMAsmYBKADsRpPxvc1VD6zdfnDiLHzTj0NtHMfOZXzCZ6N2AGBtcl4XMFc9ABtls3AAsifxCiAPuQWQHJNuEGsQC8AYzTO/v73+mqkmANi6JuN761QPpSlkw6dfM002Ae9B778xO9c+AKBqOa8L0P8E2KCr7jrXDVaO1A4AA4lXAHloMrufTpUYxGbEIhcA9IHuvDtsDiaqCgC2qtF/gbUrYeOnmRNn4avs4rOFJHAyDvuKAADq7Xcu6FQPAACMm8QrgDzktjvChSoZrS8Z3pMFLgDoA33vT7vvA8BW5bygVgwHfe/NiTHbmaqC7BbAflElozXP8aYk6QLA2uzlemMS/wG24lIRAJAziVcAO5bpotnPama0clz0YtISgK3I+PTH+8wlXwHA5uW+kLbvv4jhUKpS+t7xxNmZ6mLkGs8PeJT4DAC8Uj/uajK+PYn/ANuRZay7f0e1qgaASOIVwO7luIBnrlrIyJEiAGCLStlJK+78KPkKADYv53ftueqhYCUlTnyQfMXI5Raf7VTJaKl7AKhXY/wKAADkTOIVwO61Gd6T3ZLHS9AQgLGbF3SvMfnqP4fNwUS1AcAoid+g3709MfnqIvdT8GDdMj15oFMzo5Vr3TeqBgBeLeexlvgLwHZYswZA1iReAexek9sNXXXXBjLjleuxzU7zAGBbSuwH/dm/K88sAgWAjWj1W2D9rrrrGIO6Key246k/Xd/vfq8GGZEmw3vqVAvaCQBUJ+f1AOIvANuRa6KrOXgAvpJ4BbB7jSIAg1gAsjEv9L7fhdtFoBNVCACAvvfGxFNn/0obHzSqkBHIcQFsp1rG6aq7nisFAGAHnHgFMG42CwfgK4lXALvXZHY/56pk1OaKAIAxu+quu1DezvuDuAg0nn4lAQsA1qcxhge/4XvEjQ+u+373TAIWlctxQywLX8mNRXgAUPf71IlXANvRKQIAcibxCmD39hUBPKlRBABs0VkF/ctvCVj95eRIADAeBf3uzfgQ7hKwLLynRtn9rq+6awtfyY24CwB4nwLwep0iACBnEq8AdijT3VBNWpKjRhEAsEXzSr7H1wSs/uosBAWAKonhULSr7jqeWnNZydeJCVj/6fvcFzY/oDJ+y+TmUhEAAFseu86VAgAAIPEKYLeaDO/ps2oZtU4RADB2V9113Hn/S0VfaS98vxD0JNMNAAAgR9m+M1PSCpRuVtn3OQrfb37wXhVTuNw28JB0Q479HwmKAPB6bxUBAJmyuSkAX0m8AtgtkzFk5aq77pQCAHx1Vun3igtBf++va0lYAPAs+5ne1xdVg3531obND/7q+9ufJWFR+G85J5KOydGRIgCAat0oAoCt6TK9L+s7AfjqH4oAYKdy3BHhQrWgrQCsX0puadJ/tunzjWdctuIC0A+Vf8chCev3/vd5k77z2VV3PVf9AJA98RuqEDcB6vuil6HuRetDEtaH/rvG//6U+t5zmyCRM5t0APDMd8XwvmjTp5g3UBNjNoAtSXFCBQFAtiReAbDMjpHkyO4hQLYOm4M2/dmEu0nm4/Tsipddbwt01V2fpWSk/ZF85fg9f4nXwmLQebhdDGphNwBj7ec1SgG24rS//hzR932XrrCwAcLQ9xabJSc5vgeNT+n6661igI2PhdqFd8HwPhDzBjb1zJGsCQAAZE/iFcButYoAAPKztFPn4oTyMPkT/7d9JVW9WX/9OtLvvrwYdB7uFoN2fhoAjEST8b15H1OTmHgUk6/2Rvjdv22AkPre5wv97rmfBvxAciL6QLAiMW8gYzlvwirxHwAA+EriFQDLTFxyGexUB1RqYafOxQnlYZI5smMui2ZhvIlXi+KCiw/pWkzEihOOTsQCgN3oFAG1iKc89X3Ms6G/OXJv0/VrOon2fKnvLXbLNrWKAJ4nJrTYqIYd/v6G57WYN8D6GYMBAABfSbwC2K3sdu6xcJYgeAgUxk6dbLBf1PW/r4/BAtBly4lYX0JaCJquCwtCAQB4oal+972GRKxh/Hu50Pe+EMsFyEYTJMazRmLeAACMVJx33svsno5VCwCRxCuA3XKqEDxPowhgfA6bg/smlO3UybZNgwWgT9kLCzvzp/Y7LAj9el1113PFBICxKPAQmx4821G67tsEYeh7d4qJNXmT4T1JNgSKJuYNcK8243szvgLY/rg/tz7xnmoBIJJ4BQCUwK59UInD5uChCeU2fTbaPDmxAHRlywtC48d5+D4Zy4I5AHLXZHxvc9VDhab63S+2uAnCMO6+Weh3z4MTaVldjjs6+y0D2RHzBqhapwgAAIBI4hXAjqQgPADU8l67b6fOJtwtVrVTJyWbBgtA12F5QWj8cDIWAABf2fRgbfbT9S7cnUgbk7G64GQsAHg2MW8AAAAABhKvAHbnWBEAUIqFSeY2/dPwaXKZ6qUFoH/0f/6iNNbuvpOxFnfotygUAGBcpv31Ptye5MT6DMlYyxshDKfSdsFGCPzI5nHkSHyAtRHzBgAAAOC5JF4BsOhSEQCMW5psbsJtgvDw95GSga8LQCfBAtBtWNyhf3g2xY/vFoWG24WhnxUXAEA90qYHpyGd1MTG3Xcq7fJGCF1fLxeKapTEg8hRpwh4KTFvgOzlnPBvDgIAAPhK4hUAiwSNAEbksDlowu0unsOEs5084QExwadvM5P+z7+Uxs68XX5O9XUSF4V2/TUPTscCYP1yPq1cEgQ1972nfT8vnnplQfRuPLYRQrfQ754rKgByI+YNUKRs4y82oQAAAAYSrwB251gRALBNaWfPduFycg+8wFV3fda3o4/9nx+URjaGRaGLu/R/CbeLQedBMhYAr5PtjstOfWQEJqk/Z9yaj2EjhA+p3x0/LsPC6ViSsQDYNjFvAAAAALZB4hXA7rxRBABs0sLunu+DSWdYl5PUnvYVRbbis+6707HSyVjfkrEsCAUAyFvcVbzvw037P39XGlk7StdiMtb5Ut+7U0zl6esy1/kLvyfwfGqCmDcAAAAAWybxCoBFbw6bg1Yx+B0oAihX2uHzfbqOlAisVzxdom9nsX3Ng4UdJRlOxnqXnpXx4zzcnYo1d3IIAEB2fe/TNMZ14mxZhk0Qfkl975ulfveFIirCcab31aSkC/w2GRExbwAAGI0uLGyuCQA5kXgFwKI4WfG3YgAoS1pwEk/hiRPPTuGBDUu770/6P/9SGkVbPhXrMtwuCI2LQc8UDwBAFn3vSVpsbZF1uWKc4kO4OxXry9Dv7q8zJ2LxQuYvyFWbnmusiZg3AACMUqcIAMiVxCsAACjQYXMQT6eLk85x8tkCNNiymJjTt8Of+z//VBrVOErXLwsnYsUELLvyAwDsVhtuF7Mb+9Yhnhz8Ll2/L5yINfS9nUQLlKhTBK+XYt6TdHnvA7BrN4oAgDRWOTZfDIDEK4DdaRUBAC+VdvqOyVYflAbs1lV3PUsJOpKv6vTtRKy0K/9ZsBgUgDxY+MPY+t2f+/5YGyRf1Wr5RCwbIAAl6hTB6sS8AUav8X4HIHNvFAEAEq8AAKAAh83BJNzu9PlWaUA+JF+NRtyVf3Ex6KeQErEkYQFULdfJ1E7VMMJ+t+Sr8VjcAOEm9btnkrAA6iPmDUCyrwgAAIDc/a8iAAAKcK4IGKs4+dxfXbhN6jABDRmKyVf9x7/764vSGI136bn8//pn9Fl6VtvpDKA+kjsgr353THhv++uT0hiNuADzl/76T4yN9NdpOhWFzWsVAbApYt4AAAAAlEbiFQAAZGhp8tlOb5C5q+467sLe9tel0hgdSVgAANvrd3/ur/f9n78pjdGRhAXkzKl8zyDmDQAAAECpJF4BAEBGDpuD1uQzlOmqu46LbNr++kNpjNaQhBUXgs7iM12RAABspO897T9+6q8bpTFKi0lYF/11YvMDYMfvpc9K4WFi3gAAAACUTuIVAFCCThFQu8PmoOmvef/n38HkMxQr7cB/0v/572AR6Jjt9deH+ExPu/FbCAoAsP6+dxxDxxOPPiqNUTvqr9/D7Qm0Nj8AyIiYNwAAAAC1kHgFAJSgUwTU7LA5mPYf1/31VmlAHa6667NwuwjU6VfEhUVxIehwClajSAAA1tbvjhsfTILTr7g1bH4QT8GaKA5gS74ogh+JeQMAAABQE4lXALtjx3uAkTtsDo7jYqD+z1+VBtRn4fSrf/XXuRIZveEUrOv+2X9mJ34AgLX2vef91fR//hYsgOf2FKw/0+mzU6fPAht2oQjuiHkDAAAAUCOJVwC7c6QIAMbrsDmIyRj/8T6A+l111xf91fZ//jvYhZ9b78LtTvxzCVgAAGvte0/7j6a/PioNwu3ps3HhvwQsgC0Q8wYAAACgVhKvAIASzBUBtYiLfOJJJ/2fvysNGJer7vos7cL/c5CAxa23QQIWAMC6+93x5NlJ/+dBkIDFrXj6rAQsgA0R8wYAAACgdhKvAABgSw6bg+P+4yLcnnQCjNRVdz2TgMWSxQSsRnEAAKyl391JwGLJYgLWieIA1uRizF9ezBsAAACAMZB4BQAAW3DYHLwPt6e37SsNIFpIwPqpv86VCOE2Aeu6f2ec2oUfAGBt/e4hAeuf/fVbf31RKqMXE7B+7/vcnZNngTX4PNYvLuYNAAAAwFhIvAIASvBZEVCyw+Zg0n/8FW4X9gB856q7nvdXG+524rcQlF/C7S787xUFAMDa+t2f+2vaXzHBPZ4+e6lURi8mCsSTZ89sfADwMmLeAAAAAIzJPxQBAJC7q+76QilQqjQB/aeSGK2b/urS3/FZNiSSztNn/N9m4faUG7zv4u9hkhb8xYSbid/GqMWFS3/1v4dP8bcQFworEgCAtfW94zhs1ve1jlO/exIsHB+zd+F244PY7z5THMALjW68LuY9emLeAAAAwOhIvAIAgA0xAV218/QZJ5WH5NBvk8zxBKMX/E6UJt9JCTazcLsQtAl3C0H3lc4oWQQKALC5vnccx53EK502Okn9L8Zn2PggnkJ8YuMD4AVGtXGcmHfVxLwBAAAAHiDxCgAANsAEdJEWd+qcp8/FSeYunUgEW5N+c9N4LezGHxeESsIal2ER6B/9b+JEcQAAbKTvHZPczxZOoI2XJKzx+dBfbUzES4l5ACRi3kUS8wYAAABYA4lXAEDuLhUBpTEBnZ1hp84u3E0yDzt1fraQilIs7cY/JGG1/XWkdEbjl1T37+3ADwCwsX734gm0i0lYse+9p4RGIW50Me/rP558NVMcAGLeGRLzBgAAANgiiVcAQO4sKqYoaUH8qZLYuMuF58M8fXZhYZJZUgI1W0jCis+dJtwtBLUjf/3ehttFoK3nHADAxvvd35KwUt976Hc7hbZ+Mcnuz77Og+Qr4Ald7V9QzHtrxLwBAAAAMiXxCgAA1iTthD0PdsBe1Zdwuytn1IW7CeV5+rRTJ9yjbxexrZyma3ExaLychlWnWK+SrwAAtt/3Pus/4nWytAFCKxZQLclXwFPvhq7m7yfm/Wpi3gAAAAAVkHgFAOTOYmJKEhdfmYD+0bBTZ7x+mGS+6q7nigjWZ2Ex6LA4ZlgMGncnlohVD8lXAAC77XfHMe3iBgjHS31v8YF6SL4CxkzM+35i3gAAAAAjIvEKYHdu+mtfMcCT7PRHEQ6bg2n/8XakX/883E0qxzYbJ5u72nd7hRKkhJxZuoZErDbcLQZ9q5SK9jX5KtUlAAC77XtfhIU4VkrEWux7iwWXLSZffU4bXQCMgpi3mDcAAAAAtyReAexOF0y2A1QhLab6dSRfN044z8PtZPOFiWYoS0rE+nYiVnqGteF2IejwqY9alqO+Dmd93U4UBcBG+r6SlIFV+95DItZwIlaz1O/2fCnPLJ04a6MoYLG/WCUxbwAAAAC4I/EKAABeb1bxd7sMt5POZ1fd9VxVQ31S247XsCA0noq1uCC0CbcnK5GvD329zfu6nCkKgFFw0iGU2e/uwu1mXIubIBynNr147SmtbMW6GZKvPisOoHKzir/bZXofz8W8AbJ5LpuDAAAAsibxCgDInR1kydphc3AS6psMiBMcs3CbbNWpZRiXtIBwnq7F510bbpOwLArN02lfRxd23wcYBe9fqKfvPZyKtdjvblK/uw02QshRrIu4acVEUQC16t9F0yDmDcD25LqpgY1vAACAbyReAQC5s3ss2Uqnwkwr+kof++vUon3gPvftALxwOtawIHT43FdiW/d19/1gMhgAoPR+dxduT8aaL/W9F/vc8Yp98bdKbCfiibNx4f6ZooDR62r7QinWc1LRVxLzBmBVNr4BAAC+kXgFAACrizsclx50/5K+x2k65Qbg2R46HStaOCErXvFvJ2Rt3lE8ibGvl1NFAQBQXd97OB3rbKnfvdjnblK/2wlZmxdPnJ2LpcDodTU+34KYNwAAAAB8R+IVAACsIC1s+lD41/ijv6Ymn4FNeMYJWcOO/XbpX69pX84zz3YAgNH0u7vw9AlZbXAy7brFsownwkwr/X7GEzBCYt4AAAAAcD+JVwBA1u5btA2ZmBZ87+f9NUmLswC2+V6/94SsexaFOh1rdbHc4q7OE0UBADDqvvcPJ2TdsxGC07Fe59e06UFX4Xe7UL0wStOC713MGwAAAICNkXgFwLKfJLoAPK7gnT+/hNvdPk/VIpCTBxaFxmftsBi0DZKxXuJDX35Ti40AXi3bXfJj8oRd/IEV+t0PbYTQBslYq5oGmx5s02/973iqGGAj/csmiHkDAAAAwL0kXgHszry/3ioGgCJNC7znm/56n5IbALKXkobitZiMtbgYtA0WhD71rpooBoBXiX3nd5neW3wXzlURsKa+93zxmbJwMla78GkThPvZ9ACoxbTAexbzBqhDfI5nuXYmzkl4zwAAAJHEKwAAeIG0+Ki0nT8v+6u1Iz5QuoWTsRafy224XQgaLxsb3LEAFACAVfvdP5yMlU5CWex77yupb6bBpgdAwcS8AdixnJ/lb1QPAAAQSbwCAICXOSnsfj9eddcT1QbU6p7d+dsgEWswDRaAAgCwnn5313/M0iUR63s2PdieVhHARoh5AwAAAMAjJF4BAMDLTAq6VxPQwOg8kIj1Ptwu0DsaWXG8j7tW2/0ZAIAN9Lu7cH8i1tD33htZkUzC7cYHtej8ymF0z7BSiHkDAAAAsHX/qwgAAOB50uL9UnZwvgzl7VQKsHYxEau/TvrruP/Pg/76ub8+jeTrx8Wu7/0KAFaWc+Jqq3qAzPrdXX/N+ut9f73p/+mn/vqjv25GUgST2urTrxrGQcwbAB7VKAIAACCSeAWwO/NM76tRNQAPmhRyn3FRU+uEE4DvLS4G7f/zn2EcSVgWJAGs7kIRAKzc9x42QGj6//xXqD8Ja/+wObDpAVCiSSH3KeYNUK+c4y+N6gEAACKJVwAsaxQBwINKWUDz3gQ0wOPic/KeJKzzCr/q0WFzoI8PAMAu+94X9yRhfanwq0q8Ajy7NnifYt4A1fJ8BwAAsifxCgAAniHtWrxXwK3+Fhc0qTGA51tIwmr7/zwI9S0EtQAUoD6NIgAK7XsPSVhvQn2bH9TW777xi4W6iXkDAAAAwPNIvALYHbv2AJSlhMUzl1fd9VRVAayuf452SwtBa1hsOFGzACvJOXbTqB6ggr734uYHHyv4SnspiaEWnV8pVE/MGwAe1yoCAAAgkngFsCN2ZgMoTlvAPZ6oJoC19tnjQtAmlJ+AdXTYHDRqFODF7wGxG4DtPG/j5geTUEcCltNmN8u4BtarLeAexbwB6h8PzJUCAACQO4lXAADwhMPm4Lj/2M/8Nj+ZmADYjJiA1X/Ed8FvBX+NVk0CVKVRBECF/e4hAeun/rrU7+Ye+4oA1qOQmPdHMW8AduyNIgAAACKJVwAsaxUBQJHPRjt/AmzQVXf9ub+m/Z//CmWefmXnfYC6WHgO1Nz3nvdXTAj4o8Tnc0pmqMHcrxGq1hZwj1PVBMCOHSkCAAAgkngFsFvnigCgCG3m9xd3/uxUE8Dm9c/bi3B7+lVpfflW7QGsROwGYHd977jJzM/99UXfG2B0zyoxb4BxuVQEAABAziReAQDA09rM72+migC2J51+Fd8NHwu67b2Kdt4HoOe5Doyk7z0Lt3GZkpKvWjW30fdfoxRgFM+qmSoCGJXP+p8AAEDOJF4B7FaOwaNGtQDcSYsZ9zK+xcur7nqupgC2r3/+TvqPTwXdsgX6AHV5owiAkfS746mzrX731s0zva9Gq4DXEfMGAP1PAADgZSReAezWRYb3tK9aAL6T+2KZmSoC2KlJf10Wcq+t6gJ4sXnG99aoHmAsUvLVz4Xc7r5d8YHMiXkDkJuLjO/NxjcAAIDEKwAAeIJJaAAedNVdx1Ns3/fXF+80ALasUQTAyPres/7jj0Jut4a+d+f9B9US8wYgN5+9NwEAgJxJvALYrSx37TlsDgSOAO7k/Ew8Twv+Adih/lnc9R/TAm71SG2Vpx+f2VEVdqvL+N48H4Axiv3umwLus/gYexrn5KjRDKDqZ5SYN8A45fzsF38BAAAkXgHsWK7BI4EjgDs5T0KfqR6APFx116f9x3nu92mTBX0R4MU6zweArPrdMaY+0Yfbmi9+dWCcuWVi3gDjdJHxvYm/AAAAEq/4/+zd23EcN9YAYOxf+y5tBBpW8Z1yBBxHIG0EGkdgOgLREViKwOMIVo7AwwiWemcVmxEsGYH/htgttiBS4mUuB93fVzU1kvZSGKAbQJ/GAYAda4KWS+IVQPp8wsSzwEVcaSWAUI4qKONMMwGMhj4dmKSz5nzVfv2pj96KiAtg5+4CeDwxbwB4MOtnAAAAiVcAu3TWnDdBi2bHHoD4/eFVO46caiKAUPP73C//YWwDGFXfvgpcvBdaCJiw6JseHGgiICgxbwAiitz/m9sDAAASrwACuApYJjv2AFyL/BJ6pXkAQloGL99MEwGMx/5sT78OTFK3qdmJPnrjVgHLdOgOgCcR8wYg4vz+0tweAACITOIVwO5F3LnHLvgA1yInotr5EyCg7mSUj4GLONNKAA+mXweI6V3w8umjgYjEvAGI6sLcHgAAiEriFcDuRdy5Z6ZZAD6x+ycAjxF5Aai5PsDDRd51ea55gKk6a84/JIszN20VsVD7sz3jHzyemDcAUTXGTwAAICqJVwC7F3H3theaBeCTyLt/NpoHIKwPgctmrl/Xsxmgf6j5mQVg6nPvmeYx/oH750EazQMwaZHHAXN7AACYOIlXALvXRCzU/mzPjj0AgV9CnzXnjeYBCNtH55NRPkYtXzvXt0jx7nYDuE3k/kH8Bpi6VeCyVT/vbufIUevX+AePNwvc5zSaB2DSIo8D5p8AADBxEq8Adq8JWq6ZpgFIB0HL9VHTAIQXeed9L4kBHibyiVf6dGDSzppz8+7Nu1K3MCpRT8IW8wagMbcHAACikngFsHtRF+8IHAHE5UQOgPhWqoA1cUIZmH9/y7P92d5MEwETd6IKNiriOwxjH5hzAzA+TeCy5fiLOC0AAEyYxCuAHTtrzqO+SJB4BUxa8OD5qRYCCD/PXwUunhfEdfFsBvr075lpJWDiovbTY5l3NwHLdOCyh4cLnrAv5g1A9LFAnBYAACZM4hVADBF35BQ0AqYucj9o90+AOnw0xgGMxlXgss01DzBxURdojiU5qIlYqP3ZnucaeLhZ4LKJeQNMXOBNi3tzrQQAANMl8QoghiZgmV44Kh0AAEY3zwfgcSLvumzhOWDezSatjH8AAGzJSeCymX8CAMCESbwCiKEJWi6BI4CY7P4JUIdTVQAwGk3gsonfAJN21pybd09zDDT+wbiIeQMQee5p/gkAABMn8QoghlXQcs01DUBIFhQB1KFRBQD69C3Ip5bPNBEwcReqYDPOmvOoY+Bc68CoiHkDkDWBy5bjL881EQAATJPEK4AYmqDlsmMPMGUC5wCY56O9gN5KXwFg7v1Q+7O9sfTPJwHLdOCyhwcT8wYgulXw8s01EQAATJPEK4AAuh0jrwIWba51gAmzcBGAsbLQSnsBD9cEL99cEwGYy21QyJNo9md7xj94GDFvAKJrjKUAAEBEEq8A4oj44vLZiHbkBAAAc3y+50oVALcJvGlOb66VAHNvNqgx/gEAsGld/CUy808AAJgoiVcAcayClmuuaQAA4OHOmvNLtVAdC3aBWvuIg/3ZnhPygCkz957mGDjXNAAAo3MSuGyHmgcAAKZJ4hVAHF5cAgAAUHIKMcQRPTlzrokA2ISz5nwVtGiHEo8BAEaniVy4dv4510QAADA9Eq8A4oi6eOeVpgEAANiZZ6oAwpB4BcCUfTT+AQCwBdHjL681EQAATI/EK4Agzprzpv26ili2/dmewBEAAAAwdRb+ADBlK+MfAABbYOMbAAAgHIlXALFEDSDNNQ1AKDNVAADTsT/bM/ZDAGfNefSFPy/0FwBskPcXwCaZxwLwyVlzvgpexAPxFwAAmB6JVwCxrIKWy46RALHMVAEATOqZzNgPcZwEL58YDgCbEjXxKicev9Q8UD3PvQAMfQxevrkmAgCAaZF4BRDLKmi5vLgE9MkAAABxF533JF4BsBHdyY9XQYu30EJwLytVAIAxay3EXwAAYGIkXgEEEvzI9IUWAgCA+9uf7c2CFu1S61THRhgQR/TEq8N2/HmumYAJijr3bkZWz6ug5bLwFQBgXKLHX16JvwAAwLRIvAKI5yRouRaaBiAMi68B6jALWq5TTXOnqElpXuJDHKsKymjxOWDuHcRZc94YB7fixf5sz/gHdRPzBqCGeeeQ+ScAAEyIxCuAeFZBy/XMi0uAMCy+BoDNiJqUZuyHILoF9BfBi3mkpQDYkFXgsnl/AXXz3AvAZ1385Sp4MRdaCgAApkPiFUA8q8BlW2gegBBmqgCgCnZrxrUE47QKXr6D/dmeZwZgag5VweadNed5o4KoC2DftOOfxA2ol/sXgNIq+jOI+AsAAEyHxCuAYM6a81Xg4r0SOAIm5DRw2V5oHoAqRJ07X2oadQOM9lmht9BMwFQETra5GmmVr4x/YB67AQeaB4CK5p3mnwAAMDESrwBiOglctiPNA0zBWXMeeuG1RFiAKkQ9pehU09w5/ketGyc4QCyrCsq40EyAebd594Z8CFw27y/g28+8Yt4A1GRVQRkXmgkAAKZB4hVATJFfXC4C7yAKMCUzVQAQ3ktVwLp4DoM4uiTNi+DFfNH2GwutBZh3swEr4x+wITNVAECvi79EP0U2zz9fay0AABg/iVcAMa0Cl+1ZsmskMB0fA5dtrnkA4up2aX4WtHiNFvqmqMkUFhRDLKsKyrjQTMBERJ0njXLefdacNyl2ArLxD75NzBuAmqwqKKP1MwAAMAESrwACqmDn5CO7rQMTcRm4bDPNAxDaPPDzRqN5vilq/Rj7IZZVBWU83J/tzTUVYO5tXrkBH4x/UC0xbwDMO80/AQCAB5J4BRBX5ACSU6+AqYj8EtqpFwCxzYOW60LTVDv+zzQNhPKhknIeaypgzPZnezk+8iJo8RrjoPEPPPM+iJg3AKVVJeW0fgYAAEZO4hVAXKvg5XPqFTAFp4HLdqAfBgjtddByNZqm2vHfAjQI5Kw5zwtWP1ZQVLsuA2MXuY8b7dy7HQdX7ddV8PHvtdsDqnrmzcS8ASjnnXlOXUP85ZX4CwAAjJvEK4CgzprzvGNk5BeXTr0CpuAyePnmmgggnm6B37OgxTvVQtWSeAXxOPUKYPcWgcs29rl39HHwndsDbiXmDUBtVpWU81hTAQDAeEm8Aogt+ovLt/uzvZlmAkYs+gKZuSYCCCnyzuqN5vmuVdByvdA0EE4tiVdOvQJGqYtNHwQt3lV3OqJxcIfz5/YaOXanwFfEvAGozbKScoq/AADAiEm8AoithgU8S80EjFgTvHxzTQQQS7f4803gIjrxqu7ry9gPgZw157lPvaikuEstBozQsXn3TsfB/P7iKngxj2weB19pgpfPcy8A5bxT/AUAANg5iVcAgVXy4jLv2rPQWsBI++EmeBEPLB4BCCf63Fji1ffH/1Xg4r3UQhBOLadeOfUDGJW2T3ueYp80O5V5d/Rx8Fn7eeeOgS+eeZvgRRTzBqDGeWdP/AUAAEZK4hVAfDUEkN55CQKM2Enw8r3WRAAxdIs/jwIX8eKsOb/UUvcSdQOMuaaBcJYVlfVtO1ZJ4ATGIs+7nwUu31QSr2oYB1/ZPA6+IuYNQG1WFZVV/AUAAEZI4hVAfDXsxphfcC81FTBS0RfKLDQRQBjRF3+uNFH14/9c00AsZ8157i8uKirysksUBqhWBRseTGbu3Z0WW8M4aPM4qOOZt7fQRAAU884PqbL4i1YDAIBxkXgFEFxFC3gOHZkOjFQTvHwHdk0D2L1uEd/b4MU81VLVj//PjPsQ0oeKynqQ6tjkB+Bbcj8WecODq7PmvJlQeywrKOOzysZrmOoz7+c5q2dfAG5RVfylHcuWmgwAAMZD4hVAHWpZEJOPTH+tuYCRqWGR+pFmAti5ZQVlXGmme2sCl22uecAY8ERv9md7niGAKrX9V54LvTHvNg4+gsWvcEPMGwDzzs3L8ZeFZgMAgHGQeAVQh2VNZbULHTAmZ835qoJivm773udai3XqTu8B7ne/HLdfh8GLedWdpsv9RB7/bXYB8Z4Zcv/6sbJi/2bxD1DhvDvHPmrY5X41pXbpTvc6qaS4ko8hiXkz6bnETC1A1eNXjr9cVFbs38VfAABgHCReAVTgrDm/bL/+qKS4z9rPSvIVMDLRF4/kvteiEdZtpgrg+7od999WUNQPWutBmsBlO7T4DEJ6V2GZLf4BapPntM/MvY2DTyT5GK6JeTNFM1UA5p078Lv1MwAAUD+JVwD1WFZU1vwyZGkxIDAiqwrKeKTfZc3mqgC+rXtZWsuiypUWu79u1/6rwEV06hXEU+sie8lXQC1z72WKf8psdtHNJac2f87jYE2nDxj/QMybaZqrAqjestZx1/wTAADqJvEKoBJnzfmq/fpYUZEP2s+pnXuAkTitoIw56fVYU7FGxnD4hm6eu0p17LifOfFqXOO/Xb8hmMpOKy9ZfA5En3sv26835t3hLY1/4Jl3zcS8WTcxb6hcxfGXZ+afAABQN4lXAHWp7dj0F+l65x5BbKBq3a69NfhZn1uP3FbtJ4/tUdtsrpXg7vs31ZV09Wf3QpqHWQUu20F7HeqnIZ53FZf99y6xASDa3Dv3TW8qKvKU+9I8Dl5VVuY8/tnUgEkS82ZD47aYN2DO/f355ztNCAAA9ZF4BVCRs+Z82X5dVFbsvBjVsenAGJxUUk7B+sDa8XDWfo7bT9P+9b/t5+cUN3HjWVvO11oNvrqPa0u6ypx29TjRd/8+1kQQy1lzflrRc8Nt3rTjXD69fKY1gSBz72WqK+nqohsLpjoOXlb67PGb5GMmTMybdYzXYt7Atuedq/brY8U/IScVr8RfAACgLhKvAOpT48uF/th0L0aAmtWycOQwv+TUXHF0L56P8iLW9q/n7edtuj4VsgZ2fYYv7+d8T/w31ZV0VdMYFk30RbOHTr2CkJaVl/8g938WIwIBnqPzXOxNZUU37653cwDJx0yVmDdPGavFvIFdqn3tyWESfwEAgKpIvAKoz7L9XFVa9p+7l5cvNSNQoZoWz7y1EHu32vp/nk97HLx4/i1dL2KtzaFxGz7f0x+6e7k2f3Y7z/NAbb01FTx7LfP1qbUgVN+xTPWdVl7KCcb/sfsysKO5d154eFrpM/TSOPhpDv1HpcWXfMwU1RbzFqfc7Rg9ppi35xyof96Z595jib980C8BAEB8Eq8AKtMtmqx5954cgP+vnemACvvfpv36WFGRBem3bPDiOS9Y+F/7+T3V+eK55MRKpn5v511w8xjwqtKfsNSKT7IKXr4X+mkI6XgkvyPvvnyeYziSPIEtzLvzyRl57vWfVN8Js9nHs+b8VEtWPw5a/MqkVBjztjHA9sfnsca8l1oXRmEscdH87uFU/AUAAGKTeAVQpxxAuqr8N+Sd6RonsgCVWVZU1rxQ5IMA/Wbd8eL51ch+5uFUd3vOu+h2Jz0suxder+2sO6n2n+f5arrevfdZpT/j4qw5/6A1n2RVQRnfdAmCQBAj2XV56G37aSwAYsNzr3fd3DtfZ0fdXMz1Np3n6hzvzidnHFb8UyTD34yD+Tnqj8p/xufFr1qUCVhWVFYx7+2NzWLeQC1j2NVIfkse4/r4y5GxDgAA4vmnKgCoTz71qnvh91vlPyXvzv5X+1tO2u/j9nettC4Q3IfK+t6882ReuDbvTkxkDbpdVfNL2Xka3wvnu+TEo5fd4qkpyW19mIrFf21d5K+8mDrXR97RPN9feR5zaYfzUdzj+f4+SnUv+uxZ/Pl0tTyj/NZeu5ddsgcQw3G6XqA4Fv0CoKMuQeKdZwzWLM/BXtwx9z7p5tyn3Rz80zzcNTiKZ+tFN/d+VvnPuTIPu3UcfDOGsS8nH6Tr9xfamLES80bMG6hSt24mxyjejuhnPevG5WPxFwAAiOUff//9t1oAqFS3A/+LEf0kCVjw5T2e74Vwi77be/QfE2+XvNDroLJif2w/CwkhT2r3fMrRIl2/eD6YaDXk62hSCxq6RPfHvLDrk7L6z6fkLHOc0G2dd4/Mi0uORzS/zjt9zryUXcv1keuwlsXA79s2d/qV54CNPK+319Zc6zy4LZs0rrhNKZ9msjTHYU33y2NfVp103/k6/JycZQFt+OfrPF95M6Kf9Wt7zR1r3a/aOi8U/XlEPyk/60vAYqz3a60x79fG/CePyYsk5i2J78vrIl8Pf5lvUdE1m2P7eSx4NuKfmeMv77znZUv31CpZo8Jur8E83kdMqP1RHBwAJ14B1C2/oP7PiH5PfnjvT8BaeoEJBJUXjdS2c32/C+hrwaD76Xb4nKebXT6fqRW7yT7Ai3T3bv3ZcMf+z99emu3kXs/396K718d2n9sJc33y7t+1LAz+uV84ZfEZhHCcxnXqVSn3jW/afueie076oO9hBw6L7+Hcuzyl9vO3edLW593Pu3n3Io1vYfdVctLst8bBxYietfJz/u/dIrBlun6HYdxjNDGEVGfM+1TM+0Hj8SyJed92HYl5Q8W6U6+OkvgLAACwYU68Aqhc1N1G1iS/tM6LHO3eM85rd9790S7Eld3fTryqfuc0uwLe3q6zdP2yuf+8UCt3msxusjvaUSvPf75aGJokZq2zXfvFJa9HfK877Wq918wi1ffiPl8DeTd+i4A9B6yLE68e357NxOaWea6Yr+Gluctarp+cTPu8++us+6Tu314OntPnI/itf+/oer1MErM2+Zzdz71fjfinirN8+zrIi2B/G/FP/DNdL3xdau1R9mGzbpxdTeD3inmP9zqeJzHv+84LnaCWnHhF1dduk6YXf/nQzUXFX55+/Uwm/nKPushzX2tU2OU1mMd7J14BEJLEK4BxBAD+O4Gfmnfv6QNHHmRiX5OzdB2IGgah+kBV/pS72gqU312X+VoX1IrZNstUz8kXt8nB+KMp96fd+Jk/8+Sl82PkBf2j3022vU5ywsLPAYt20n339d8vEJWcdff93t/rrybys82v1nsN5Tns/yp+jjq2ENRzwDrGHolXj27PXG9/TfTnX3XzlU+fqc9T7ruI5zH3f+3P6YHH2v7ErP7TJ2d9moNLzrq1Hft595g3OSj7ORsefP/ayPfNwQSuhTze9e8wXBOx+6ryvcVwXD4c2zj7gLrJz41i3vXPN8W8n9aXT/4ENYlXuHarnot++oi/iL88sf5WyRoVdnsN5vFe4hUAIUm8AhjHQ0fURcGbInC0vWurDD7N0hoDU533bRseqe1b63+VBLWitk2+D85H8FPyrrxHY9/FsWuv4Uvn/P0ssQ7v0/WC/suRXjsh++F76pOzmu6T0k2i1mhPm+xeqM0G9/vhBO/LvED4pYV+a7+2al8smp+hlmkkJ9AMd5/vDF+ml88py9oSzyRejbIPyYuwX6mJz3OU0/5Ta580OMW77IPK/mlb93LVL/4rXyB3cdt8u/+3sS7IGMQMh8/aU1zc/YsTRkd/jz9WfwLkp4/ns43HAe56Fhj+Z4+OB04o8SrPYcS862ovMe/NGHXMu+JxW+IV97l+V2ma7wRuc9LNRfN4OPb4y22b/27K3gTmGCHvI2tUJtWX5/Fe4hUAIf1TFQCMQn7omMouoll+cfCq++SHrvw1XLjTeNj5/EA6L/6pfPGYlf+dbQdRXmopapMDqu399UeqewfQ1Pel7W/JL6PfjaHv7Pq9WfeZJy+cNy0nfi/aej9ymko4h7eM628H90r/x7wYrF9EcDr4c5NuFpCGOklrsKhq+J3v+QPNfv1sYFHfRuQ+7rfKn6Fyn/1zew/1pwnncX9ni0C/kzxVPqc85eW5Z0MiOOquafPS67nJYTEn6RNXVsV9u5UThQIu4qEuL9JNTPbwluur/+NVujkta3hyVjlWhTlJa5BcVX57zr52IenqfnK8qb2e3qdpbR530H1+7u6nj9193493zdgXbD7ymaB8DijH4/7vTvHZzL3adHHi2jcMEPPmqcS8oV6Lbs6lj7w9/tK/D1oVz6LiL/c3SzfvzgAAmBiJVwAjkIMg+7O9RZru0enZbYGjfkHDcDHDalBvq10U9I6XiaVy0eF9/jO7N8F2LVP9iVe9/mV0vxA79GkYg3607w/nyaKLXcovsH7vdp869jK6Ogf3mUsMFowO51hDl7f8W2n1wDnPfPBn9/j9nLgHNyaPj7+N5Lfke+nndLMI9CINNrHoPvdKuPzOCbm33eO7eGax0QM71y1iPR5RP7KJfunFoI8ok8XLuUffV91m+J9JoiLac9Nh8Ryeymv+lrn3cKOE3ukt/5a+c488/8aYWI7fYoz3s1AFD5LHwSltHnfbs/fB8J4fbCg3fF7+YkOUXSVn3bKhW3pCnzKcl1sEHd+7NJ6TWsW8eercTcwbKtPFX96lmCelRJmTDp/51hV/mRdzvuFppOIvAACMxj/+/vtvtQAwEl0Q6Wc18WS3LWgY8oJwvfIC4blquPWeXiXHuGuj3cnB9VX3Od1WsmqRnNr3DbPBx4vmOq6dZQq+mOGe12Muv5dC1OSH2u87434Vz0m11UF1zxtBrzXPbfoRYvux5tMc2nsjJ2P8RzNSkT/be+61anjwvZ7nEn+piSfrT4q8yyyJn63V1OLhYt4bqdNZEvMew7WzTCOIeVc8Xv/a1v2xS5F7Xsfe7bApP47hNM0a54LWqEyqD8/j/Vv3PwAROfEKYFzyw8eUd41cF0E44L6O2s9/R/rbcoLpq+7T73TWL+woT7Yp/z5L3z7Zrzz9QkLr+K6dTyepDHaU/VBpINKcgJr8Kulq45Zp2gkT+kR4ukU3bzb3ha+fEaEWV8lpV4+S4wL7s733yeZxT9WfFAmbIuZ9Tcyb8toZS8wbpmAx4rEMAADYEYlXACNy1pxfdjvECiIBbKffPW373T/aP76ZyE8eLux45QrgntdM/0K631H2NN3sKnupimAtTuz4uhV5UU0+ZdjCqbpYzE+k54em27HzN7XBBvq6lWqArXjtWfZJ8jg4T5L6qUg+rSjP4yY0ZxXzhu9fM2LeEH8s+yWJv7B+z1UBAMB0/Z8qABiXbpf7X9QEwNYcp+vdjoFv63eUfdt+/mo//9uf7eXFx3nH6+NuETLwcHbc396zVl4480FNVDn+QKS+JCdw/qkmWDMLf2A73jvZYi1z6kUSS6Muswn+5mP3KdyLmDfEnXeKv7AJNvkCAJgwiVcAIySIBLDVPrdJ16dfAA+Xdwc9TNcvpt9GKtj+bM/iVWqxmNLO2wEcqwJgHX13+/moGuAzc29q8LGddx+phqfrNo9TlxD7Pm2SmDc8VtiYN0zQov1cqAYAAGAdJF4BjNciWcRDHQ5VAbU7a86Pk8A9jI1d66jBr+0Y5ASm7Y75Tft1oibqsj/b06cTrS9x2geYe1OX3F/PVcNax8Jl+/VeTUDo+/Q4iXkDUPdYluMvr5P4CwAAsAYSrwBGShAJYOsWqgCexJwFHuaPbhEU26fe6+MkFcLpTvvwDAFQx7PqvIu3s96xMJ969aeagNDMV+Hp8whgt3NOp60CAABrIfEKYMS63djnSVAXYBt97irZqRee4lQVwL19bMedhWrY6Zjv1CtgHf1JPrXwJzXBGjgxCjZn0S3WZEP1m59vVAOEfv4V84bHM4eAGOPZMom/AAAATyTxCmDk7KAMsNU+N++YZrEIAJuUx5m5ati5Y1VQlZkqIPAzxLL9+lVN8ETPlR824qcuSZbNjYOX3fONeBrEvU/FvAEYw3i2bL/+UBM80VwVAABMl8QrgAmwgzLAVi2SkwZhDOaqgIA+JV11ixPZ7TPWKjn1qiYzVUDwPuU4WfzDtB2oAgL6qVucyebHQclXEN8iiXkDUP+8M49n4i8AAMCjSLwCmAjHpwNsrb/NJw0eqQkA1kzSVTwLVQCs8Tki9ykW/wDEIOlq++Og5Csim7tHxbwBGM2YtkjiLwAAwCNIvAKYEMlXAFvtb9+rCXgQySRwt3yykqSreON90379qiaqMFMFVNKvLPQrADuVT3ORdLW7cVDyFcS+R3PfKOYND9OoAgg5pi2S5CsAAOCBJF4BTEz3YuSHdP0SGULYn+3N1AIj7G/zDqCC9nB/p6oAbvVHO6ZIuoo73h8nC0Nr4HmD2voVm+agn4Pty/HyuaSrnY+Dkq8g9j0q5g0P06gCCDumLZL4CwAA8AASrwAm6Kw5zwub50nyFXHMVAEjlV9EWyjCY/xhnN65uSoggF+6F8DEpo2AteoW/f/bfJAHeFFrwfdne+bdRJBjNy+7uDm7Hwf75Ks/1QaEJObNY4l5A9Hmncsk/sLDHKoCAIDpkngFMFHdS+RZ8nIEYJN9rV16eYj8YufX9rPXJVq4dmDa/cGPbV/wTlVU82z1i5oI7bkqoMK+5YP5IMBW5EXg+aSrRlWEGgcv28/r9o/v1QbEuz/NU3kAMW8g+rjWx18u1AYAAPAtEq8AJqx7efkyXb9cBmBDfW3yMpFvy9fGT+218rz9HPeLvQYnVLp2YFpO2s+s7QNWqqKq8f6d56rQDlQBlfYt/XzQiR8A63fVPYsvutgNMcfCfLLOT8kpBBDt3hTz5nvEvIGaxrXcN+V1M+IvAADAnSReAZC6Hca8vATYXD/rRTSlPObmBfo/5CTo9rP8zrUzhZc9jcsC/UL6pb3v5xZ+Vv1cZawH1v4s0Z348UsStwFYl7zZwZ3P4oQbC3M7zc21Id481b1JQcz7a43LAuoZ1wbxFwAAgK9IvALgEy8vATbez/YvE0/UxqR92ukzXZ9ms+h20fvutdO97Hk/8rppgpXn0OXKFvULP9+piup5pgpqf7b3XC1Q+fPEO30MI+3n5lqPLRpudtCojqrGwf6ElPdqgx14qQruvDfFvElJzPtbzDegvrEtx19+SOIvAABAQeIVAJ/lQHjegaz9469qA2Aj/Wx+mThP17s+Mh1f7fT5mNNs2v/NUfv17+SkAxhb//CThZ/jGuuTxIioLJZkDH3MMG5jToh+Dh4mn6phs4PK59pdbOTH9nOhRtgimzh8/97Mz8Fi3tMi5g2MeWyzboY77c/2xF8AACZK4hUAXzlrzo/T9S4+dqhjW7y4ZGr97KL9+kVNjF5e1JUTKp7fd6fPe1w7H9L1gkoL+qF+eUffWXfyLOMa5yVfAZvuZ467OeGfagPgu3KCzo/5VA2bHYxmHFx146DTryDWvblIYt5TIOYNTGlsO26/9pJ1M3zJ2hYAgImSeAXArbpdfObtH39Kdhlj8+wKxBT72bzDck5ytUPvuOSXw3mBwb+6RV3LDVw7jZ32oGp5N+C9vKPvY3YCpppxvk++suN3HF6IM7Z+Js8JXyenfgDcJfeNeWH4rEvUYWTz7e6UFBvIQax7U8x7nMS8gSmPbU23bkb8BQAAJk7iFQDf1AXPZ0mgG2ATfWzeDdJO9fXrXzznRIqXeYHBNpIpRnhCZROlIPuzvbnLmg3I9+qP3W7AjeqYxDh/acfvUGz2wFj7mlVOKkjXG+dYAESNzL1Zt7yJWI5lv3S67CTGweEGcsZBCHJfJjHvMRDzXo/GpQSjGd/EXwAAYOIkXgHwXd2CweN0fYy6HdsB1t/H5p3q/52cMFiT2148Nzu4fkZzQqVEFEYsz59/yPeqnfYnO9bnHb/tiApsuq9ZWgA0eU72Y+ouuj4wn3B17HTZyY6DOelOfA12f0+KeddJzHv9v6VxWcFo553iLwAAMDESrwC4t+4Y9UWSgAWwiT72Q7o+YVD/GleIF893XD/LdHNCpcUMsHv5Pnzf9ReLbrdnpj3Or9L1jt/v1Qaw6XmhBUCT5WQ/piqfiPFT7vu6PlDC1bTHweN0Ex8xDsLu70kx7/jEvAEe2UeJv0zWTBUAAEyTxCsAHqxIwBLsBlhf/3rZ9a/5VIwTNbJzeXz7M12/NPlXtBfPd1w/x8nL6HXU5ar9/KP94w/pemfeX7tr4aPa4Ts+pptd9o/sasst/fRRcvrVrsxVARPrc/oFQD928xiIeq3m/vlf3bWaF/2+756HPc/wvef14cmyS1VCMe8+thCWNXKq5NPvyUUS8442hop5A6ynnxJ/mZ6ZKgAAmKZ/qgIAHqsLwh/vz/betd+v209eRHigZriH/GIkn/xw2X2vVAl80b/me2Le9q/z9nvZfl6ola3JSRN5J9ZV1w41Xj+Xg/H5qPs807SPqsvTbpz6MPz3tm7zaQKzdH2qQP9nc6DpuuiukaWTrXjAOD9r+5JF+/1OHw1soc9ZtX1Onq/0sRvPF0R8hlmlIj7UXrfPizl3/2dj53TlhYwfJFrxgP4lXyvLLsaW599v1Ar3lGOE/fjkJL31zUtzzPt19yxsTrrd61nMG2Dz41wff1l0H2MdAACMyD/+/vtvtQDA2nQLkRfdR8B72voXk8MEq8taX+rs6H7KdXUYrVzdKTBs91roF0geqo21ywkT+V7rXzxfjvD6yYsVoydIX3Q7Ao5hHpR/h4Ss6fQdS3Mb1tBHWzC0HSfdqSqeA0Zef9x7zrLo5ogWAVXet6XBpjZTmZdIyJqcPwdzb8kPrKP/WHQfz+vT1m8O1xSfU33N1u5HMe/NEfOO4WM+UazCus3P/n8FLNqv3elnUNP99LLrp157Xq3eZOIv1qgQ4BrM4/3bgEX70TthACReAbDJh6EcQOo/Aknjk1/cNLd9utPQePo9lB/aBbUYXhPzZHfep8pJofne6gPjzcSuoagveUa9mLvb4TB/5t13/lgYWm//4WQrNtVX5DH+OEmCmPw8VuIVO5gfLpIkrOhzkOGJG59OZbUo/JvPzcP5d16UK7miLlfpZrH4B9c6G35WPzIGjrov+WJTuHSzOZxn+nhjd56Pink/bb64SmLeYt7ruyclXsFm7q3X5p6hnXTfeUxt0kST8q1RIcA1mMd7iVcAhCTxCoBtPRjNk0BSbYaBpezzy0kLHrZ23+SXRc+jlUswIcS1YXfe++kXWKy6j/7ry+soUoL0JBdzD3bqn6WbZKz8b3b6jeFi0H+sJJaz5WenRbKBxTrnAp92sm/v43eeAx7NAtVp9D+zru+Zdx990Bbnw+lmQXiTnLixyb513n3383Bxyjj3QD/vXqkOdjgGvvZMXo0+MbkpPuat9d6HYt4Pe85dJTHv264jMe/13IsRT+qy8Sdjez6dd59XamTrY6j4y/evT2tU2PXz+Sxg0fQVAEi8AmBnD0nzwccCh+3qA0rZqvtukpeSUHOfml8iLtK0X0gPXzj3O8A3rpB7X0fzdLPIdhfXkVM0vm6T/gV3mZw1M3famEnvDkzYvmAx6J8lQHz7/u1Pg+mfbbwEg/XMEefdXEQ/tJ5+6nTQX1k0EudaH867++SsTPLF5p7fh/Nu9wERn8fng48EkO3rN4Xr5/b9GGrsnM59OEti3v2YKeb9tOcZMW+glv5qnsRf1mEYJ05J/AUAgDWSeAXAznUvUPogUv62qOFx+iBStuq+P7+QTBYewhT607wwZLhD/RiTM/qXzU33WenfNnIdzbc8LnsJ/bj50/Az3InUXOoe19ygLzn10o1K7vvhGD/FhWcX/T2bbl6e2zgCtj//eJm+jOFYDHT7Bjf9t2eVcVz7/bNK/90naM2STRHuM36fDj8WjFNhH/C8GPteuvefNJ9Pgzn9cMx0kgnfugfFvFnHdTRPYt5AHX3WLIm/fGu8HM4hP317xwMAwDZIvAIgpCKY1C9mmNoi4pPBn4cvIpt084LSy0jgvn3pPNUTmL8a9HvDF85eNu/uWsrXTzk2r/Naet+27ZGaXnu7DReEzrp/7v8tf8aeuDHc2fBzf2LuxEju7+fpy11Qx/DyvRz/3bdQT380jN3MRzbP6OcTX2xs0/1d/0R5H6R0k5w1/LexL5IrF4t/ukcsfGNC498sbSZWUssYmdKX7yyGY6aNEtjE/Te852p6HhbzjnctzZOYN1Dn/HOM8ZeTW+aS/TOl+AsAACFIvAKgKoOAUrl44Xn35wjJWcOddoZWxd+bdPMyMvNyBdhmPzpLNy8Vt5WEcVdCad8/CpzXdz3NizF53n3na+shu8/+2rb9sRrdeb+QinZM6cukrZR2/yKvnGf1/cfnl3EWeDLhe7m/X+fFOB9hAdpwd/tV8Txk/IdpzDHmt8wttj2vKOcRNrlhF/fFMI5ZzrXnxX991+P4XUkVkg/hfvf5bZuh5O8Ip/UM7+/bxsUvnrP7v0uiooJ55/BZWMybx15P8yTmDdQ5DpZ9Vj8HFX8BAIA1kHgFwKh1wfFNkSgFjLXvLJMwHsNiDIbX1HBx4W28XBl/G5tvwW7v0Vm6edE+fEYa/vujxvtULMZMdrcHntZfzdf1/yUZG8/rnuFhws/SmVgLrH8MNV7ykD5cPwxE7sPm6/r/En8BAGAqJF4BAAAAAAAAAAAAAAAAFP5PFQAAAAAAAAAAAAAAAAB8SeIVAAAAAAAAAAAAAAAAQEHiFQAAAAAAAAAAAAAAAEBB4hUAAAAAAAAAAAAAAABAQeIVAAAAAAAAAAAAAAAAQEHiFQAAAAAAAAAAAAAAAEBB4hUAAAAAAAAAAAAAAABAQeIVAAAAAAAAAAAAAAAAQEHiFQAAAAAAAAAAAAAAAEBB4hUAAAAAAAAAAAAAAABAQeIVAAAAAAAAAAAAAAAAQEHiFQAAAAAAAAAAAAAAAEBB4hUAAAAAAAAAAAAAAABAQeIVAAAAAAAAAAAAAAAAQEHiFQAAAAAAAAAAAAAAAEBB4hUAAAAAAAAAAAAAAABAQeIVAAAAAAAAAAAAAAAAQEHiFQAAAAAAAAAAAAAAAEBB4hUAAAAAAAAAAAAAAABAQeIVAAAAAAAAAAAAAAAAQEHiFQAAAAAAAAAAAAAAAEBB4hUAAAAAAAAAAAAAAABAQeIVAAAAAAAAAAAAAAAAQEHiFQAAAAAAAAAAAAAAAEBB4hUAAAAAAAAAAAAAAABAQeIVAAAAAAAAAAAAAAAAQEHiFQAAAAAAAAAAAAAAAEBB4hUAAAAAAAAAAAAAAABAQeIVAAAAAAAAAAAAAAAAQEHiFQAAAAAAAAAAAAAAAEBB4hUAAAAAAAAAAAAAAABAQeIVAAAAAAAAAAAAAAAAQEHiFQAAAAAAAAAAAAAAAEBB4hUAAAAAAAAAAAAAAABAQeIVAAAAAAAAAAAAAAAAQEHiFQAAAAAAAAAAAAAAAEBB4hUAAAAAAAAAAAAAAABAQeIVAAAAAAAAAAAAAAAAQEHiFQAAAAAAAAAAAAAAAEBB4hUAAAAAAAAAAAAAAABAQeIVAAAAAAAAAAAAAAAAQEHiFQAAAAAAAAAAAAAAAEBB4hUAAAAAAAAAAAAAAABAQeIVAAAAAAAAAAAAAAAAQEHiFQAAAAAAAAAAAAAAAEBB4hUAAAAAAAAAAAAAAABAQeIVAAAAAAAAAAAAAAAAQEHiFQAAAAAAAAAAAAAAAEBB4hUAAAAAAAAAAAAAAABAQeIVAAAAAAAAAAAAAAAAQEHiFQAAAAAAAAAAAAAAAEBB4hUAAAAAAAAAAAAAAABAQeIVAAAAAAAAAAAAAAAAQEHiFQAAAAAAAAAAAAAAAEBB4hUAAAAAAAAAAAAAAABAQeIVAAAAAAAAAAAAAAAAQEHiFQAAAAAAAAAAAAAAAEBB4hUAAAAAAAAAAAAAAABAQeIVAAAAAAAAAAAAAAAAQEHiFQAAAAAAAAAAAAAAAEBB4hUAAAAAAAAAAAAAAABAQeIVAAAAAAAAAAAAAAAAQEHiFQAAAAAAAAAAAAAAAEBB4hUAAAAAAAAAAAAAAABAQeIVAAAAAAAAAAAAAAAAQEHiFQAAAAAAAAAAAAAAAEBB4hUAAAAAAAAAAAAAAABAQeIVAAAAAAAAAAAAAAAAQEHiFQAAAAAAAAAAAAAAAEBB4hUAAAAAAAAAAAAAAABAQeIVAAAAAAAAAAAAAAAAQEHiFQAAAAAAAAAAAAAAAEBB4hUAAAAAAAAAAAAAAABAQeIVAAAAAAAAAAAAAAAAQEHiFQAAAAAAAAAAAAAAAEBB4hUAAAAAAAAAAAAAAABAQeIVAAAAAAAAAAAAAAAAQEHiFQAAAAAAAAAAAAAAAEBB4hUAAAAAAAAAAAAAAABAQeIVAAAAAAAAAAAAAAAAQEHiFQAAAAAAAAAAAAAAAEBB4hUAAAAAAAAAAAAAAABAQeIVAAAAAAAAAAAAAAAAQEHiFQAAAAAAAAAAAAAAAEBB4hUAAAAAAAAAAAAAAABAQeIVAAAAAAAAAAAAAAAAQEHiFQAAAAAAAAAAAAAAAEBB4hUAAAAAAAAAAAAAAABAQeIVAAAAAAAAAAAAAAAAQEHiFQAAAAAAAAAAAAAAAEBB4hUAAAAAAAAAAAAAAABAQeIVAAAAAAAAAAAAAAAAQEHiFQAAAAAAAAAAAAAAAEBB4hUAAAAAAAAAAAAAAABAQeIVAAAAAAAAAAAAAAAAQEHiFQAAAAAAAAAAAAAAAEBB4hUAAAAAAAAAAAAAAABAQeIVAAAAAAAAAAAAAAAAQEHiFQAAAAAAAAAAAAAAAEBB4hUAAAAAAAAAAAAAAABAQeIVAAAAAAAAAAAAAAAAQEHiFQAAAAAAAAAAAAAAAEBB4hUAAAAAAAAAAAAAAABAQeIVAAAAAAAAAAAAAAAAQEHiFQAAAAAAAAAAAAAAAEBB4hUAAAAAAAAAAAAAAABAQeIVAAAAAAAAAAAAAAAAQEHiFQAAAAAAAAAAAAAAAEBB4hUAAAAAAAAAAAAAAABAQeIVAAAAAAAAAAAAAAAAQEHiFQAAAAAAAAAAAAAAAEBB4hUAAAAAAAAAAAAAAABAQeIVAAAAAAAAAAAAAAAAQEHiFQAAAAAAAAAAAAAAAEBB4hUAAAAAAAAAAAAAAABAQeIVAAAAAAAAAAAAAAAAQEHiFQAAAAAAAAAAAAAAAEBB4hUAAAAAAAAAAAAAAABAQeIVAAAAAAAAAAAAAAAAQEHiFQAAAAAAAAAAAAAAAEBB4hUAAAAAAAAAAAAAAABAQeIVAAAAAAAAAAAAAAAAQEHiFQAAAAAAAAAAAAAAAEBB4hUAAAAAAAAAAAAAAABAQeIVAAAAAAAAAAAAAAAAQEHiFQAAAAAAAAAAAAAAAEBB4hUAAAAAAAAAAAAAAABAQeIVAAAAAAAAAAAAAAAAQEHiFQAAAAAAAAAAAAAAAEBB4hUAAAAAAAAAAAAAAABAQeIVAAAAAAAAAAAAAAAAQEHiFQAAAAAAAAAAAAAAAEBB4hUAAAAAAAAAAAAAAABAQeIVAAAAAAAAAAAAAAAAQEHiFQAAAAAAAAAAAAAAAEBB4hUAAAAAAAAAAAAAAABAQeIVAAAAAAAAAAAAAAAAQEHiFQAAAAAAAAAAAAAAAEBB4hUAAAAAAAAAAAAAAABAQeIVAAAAAAAAAAAAAAAAQEHiFQAAAAAAAAAAAAAAAEBB4hUAAAAAAAAAAAAAAABAQeIVAAAAAAAAAAAAAAAAQEHiFQAAAAAAAAAAAAAAAEBB4hUAAAAAAAAAAAAAAABAQeIVAAAAAAAAAAAAAAAAQEHiFQAAAAAAAAAAAAAAAEBB4hUAAAAAAAAAAAAAAABAQeIVAAAAAAAAAAAAAAAAQEHiFQAAAAAAAAAAAAAAAEBB4hUAAAAAAAAAAAAAAABAQeIVAAAAwP+3b8cCAAAAAIP8rfePoTwCAAAAAAAAAAAY8QoAAAAAAAAAAAAAAABgxCsAAAAAAAAAAAAAAACAEa8AAAAAAAAAAAAAAAAARrwCAAAAAAAAAAAAAAAAGPEKAAAAAAAAAAAAAAAAYMQrAAAAAAAAAAAAAAAAgBGvAAAAAAAAAAAAAAAAAEa8AgAAAAAAAAAAAAAAABjxCgAAAAAAAAAAAAAAAGDEKwAAAAAAAAAAAAAAAIARrwAAAAAAAAAAAAAAAABGvAIAAAAAAAAAAAAAAAAY8QoAAAAAAAAAAAAAAABgxCsAAAAAAAAAAAAAAACAEa8AAAAAAAAAAAAAAAAARrwCAAAAAAAAAAAAAAAAGPEKAAAAAAAAAAAAAAAAYMQrAAAAAAAAAAAAAAAAgBGvAAAAAAAAAAAAAAAAAEa8AgAAAAAAAAAAAAAAABjxCgAAAAAAAAAAAAAAAGDEKwAAAAAAAAAAAAAAAIARrwAAAAAAAAAAAAAAAABGvAIAAAAAAAAAAAAAAAAY8QoAAAAAAAAAAAAAAABgxCsAAAAAAAAAAAAAAACAEa8AAAAAAAAAAAAAAAAARrwCAAAAAAAAAAAAAAAAGPEKAAAAAAAAAAAAAAAAYMQrAAAAAAAAAAAAAAAAgBGvAAAAAAAAAAAAAAAAAEa8AgAAAAAAAAAAAAAAABjxCgAAAAAAAAAAAAAAAGDEKwAAAAAAAAAAAAAAAIARrwAAAAAAAAAAAAAAAABGvAIAAAAAAAAAAAAAAAAY8QoAAAAAAAAAAAAAAABgxCsAAAAAAAAAAAAAAACAEa8AAAAAAAAAAAAAAAAARrwCAAAAAAAAAAAAAAAAGPEKAAAAAAAAAAAAAAAAYMQrAAAAAAAAAAAAAAAAgBGvAAAAAAAAAAAAAAAAAEa8AgAAAAAAAAAAAAAAABjxCgAAAAAAAAAAAAAAAGDEKwAAAAAAAAAAAAAAAIARrwAAAAAAAAAAAAAAAABGvAIAAAAAAAAAAAAAAAAY8QoAAAAAAAAAAAAAAABgxCsAAAAAAAAAAAAAAACAEa8AAAAAAAAAAAAAAAAARrwCAAAAAAAAAAAAAAAAGPEKAAAAAAAAAAAAAAAAYMQrAAAAAAAAAAAAAAAAgBGvAAAAAAAAAAAAAAAAAEa8AgAAAAAAAAAAAAAAABjxCgAAAAAAAAAAAAAAAGDEKwAAAAAAAAAAAAAAAIARrwAAAAAAAAAAAAAAAABGvAIAAAAAAAAAAAAAAAAY8QoAAAAAAAAAAAAAAABgxCsAAAAAAAAAAAAAAACAEa8AAAAAAAAAAAAAAAAARrwCAAAAAAAAAAAAAAAAGPEKAAAAAAAAAAAAAAAAYMQrAAAAAAAAAAAAAAAAgBGvAAAAAAAAAAAAAAAAAEa8AgAAAAAAAAAAAAAAABjxCgAAAAAAAAAAAAAAAGDEKwAAAAAAAAAAAAAAAIARrwAAAAAAAAAAAAAAAABGvAIAAAAAAAAAAAAAAAAY8QoAAAAAAAAAAAAAAABgxCsAAAAAAAAAAAAAAACAEa8AAAAAAAAAAAAAAAAARrwCAAAAAAAAAAAAAAAAGPEKAAAAAAAAAAAAAAAAYMQrAAAAAAAAAAAAAAAAgBGvAAAAAAAAAAAAAAAAAEa8AgAAAAAAAAAAAAAAABjxCgAAAAAAAAAAAAAAAGDEKwAAAAAAAAAAAAAAAIARrwAAAAAAAAAAAAAAAABGvAIAAAAAAAAAAAAAAAAY8QoAAAAAAAAAAAAAAABgxCsAAAAAAAAAAAAAAACAEa8AAAAAAAAAAAAAAAAARrwCAAAAAAAAAAAAAAAAGPEKAAAAAAAAAAAAAAAAYMQrAAAAAAAAAAAAAAAAgBGvAAAAAAAAAAAAAAAAAEa8AgAAAAAAAAAAAAAAABjxCgAAAAAAAAAAAAAAAGDEKwAAAAAAAAAAAAAAAIARrwAAAAAAAAAAAAAAAABGvAIAAAAAAAAAAAAAAAAY8QoAAAAAAAAAAAAAAABgxCsAAAAAAAAAAAAAAACAEa8AAAAAAAAAAAAAAAAARrwCAAAAAAAAAAAAAAAAGPEKAAAAAAAAAAAAAAAAYMQrAAAAAAAAAAAAAAAAgBGvAAAAAAAAAAAAAAAAACakcP3XoNGQ7gAAAABJRU5ErkJggg==" vertex="1" parent="1">
          <mxGeometry x="340" y="400" width="270" height="161" as="geometry" />
        </mxCell>
        <mxCell id="-QomMEc71tAk3ifFAMWK-9" value="" style="endArrow=classic;html=1;rounded=0;exitX=1;exitY=0.5;exitDx=0;exitDy=0;entryX=0;entryY=0.25;entryDx=0;entryDy=0;" edge="1" parent="1" source="-QomMEc71tAk3ifFAMWK-4" target="-QomMEc71tAk3ifFAMWK-6">
          <mxGeometry width="50" height="50" relative="1" as="geometry">
            <mxPoint x="440" y="370" as="sourcePoint" />
            <mxPoint x="490" y="320" as="targetPoint" />
          </mxGeometry>
        </mxCell>
        <mxCell id="-QomMEc71tAk3ifFAMWK-10" value="" style="endArrow=classic;html=1;rounded=0;exitX=1;exitY=0.5;exitDx=0;exitDy=0;entryX=0;entryY=0.75;entryDx=0;entryDy=0;" edge="1" parent="1" source="-QomMEc71tAk3ifFAMWK-5" target="-QomMEc71tAk3ifFAMWK-6">
          <mxGeometry width="50" height="50" relative="1" as="geometry">
            <mxPoint x="440" y="370" as="sourcePoint" />
            <mxPoint x="490" y="320" as="targetPoint" />
          </mxGeometry>
        </mxCell>
        <mxCell id="-QomMEc71tAk3ifFAMWK-11" value="Insert Data" style="ellipse;shape=cloud;whiteSpace=wrap;html=1;" vertex="1" parent="1">
          <mxGeometry x="-70" y="89.5" width="120" height="80" as="geometry" />
        </mxCell>
        <mxCell id="-QomMEc71tAk3ifFAMWK-12" value="" style="endArrow=classic;html=1;rounded=0;exitX=0.875;exitY=0.5;exitDx=0;exitDy=0;exitPerimeter=0;entryX=0;entryY=0.5;entryDx=0;entryDy=0;" edge="1" parent="1" source="-QomMEc71tAk3ifFAMWK-11" target="-QomMEc71tAk3ifFAMWK-4">
          <mxGeometry width="50" height="50" relative="1" as="geometry">
            <mxPoint x="440" y="290" as="sourcePoint" />
            <mxPoint x="490" y="240" as="targetPoint" />
          </mxGeometry>
        </mxCell>
        <mxCell id="-QomMEc71tAk3ifFAMWK-14" value="Insert Data" style="ellipse;shape=cloud;whiteSpace=wrap;html=1;" vertex="1" parent="1">
          <mxGeometry x="-70" y="290" width="120" height="80" as="geometry" />
        </mxCell>
        <mxCell id="-QomMEc71tAk3ifFAMWK-15" value="" style="endArrow=classic;html=1;rounded=0;exitX=0.875;exitY=0.5;exitDx=0;exitDy=0;exitPerimeter=0;entryX=0;entryY=0.5;entryDx=0;entryDy=0;" edge="1" parent="1" source="-QomMEc71tAk3ifFAMWK-14" target="-QomMEc71tAk3ifFAMWK-5">
          <mxGeometry width="50" height="50" relative="1" as="geometry">
            <mxPoint x="440" y="290" as="sourcePoint" />
            <mxPoint x="490" y="240" as="targetPoint" />
          </mxGeometry>
        </mxCell>
        <mxCell id="-QomMEc71tAk3ifFAMWK-16" value="" style="endArrow=classic;html=1;rounded=0;exitX=1;exitY=0.5;exitDx=0;exitDy=0;entryX=0;entryY=0.5;entryDx=0;entryDy=0;" edge="1" parent="1" source="-QomMEc71tAk3ifFAMWK-6" target="-QomMEc71tAk3ifFAMWK-7">
          <mxGeometry width="50" height="50" relative="1" as="geometry">
            <mxPoint x="440" y="290" as="sourcePoint" />
            <mxPoint x="490" y="240" as="targetPoint" />
          </mxGeometry>
        </mxCell>
        <mxCell id="-QomMEc71tAk3ifFAMWK-17" value="" style="endArrow=classic;html=1;rounded=0;exitX=0.5;exitY=1;exitDx=0;exitDy=0;entryX=0.5;entryY=0;entryDx=0;entryDy=0;" edge="1" parent="1" source="-QomMEc71tAk3ifFAMWK-7" target="-QomMEc71tAk3ifFAMWK-8">
          <mxGeometry width="50" height="50" relative="1" as="geometry">
            <mxPoint x="440" y="290" as="sourcePoint" />
            <mxPoint x="490" y="240" as="targetPoint" />
          </mxGeometry>
        </mxCell>
        <mxCell id="-QomMEc71tAk3ifFAMWK-19" value="Client" style="shape=umlActor;verticalLabelPosition=bottom;verticalAlign=top;html=1;outlineConnect=0;" vertex="1" parent="1">
          <mxGeometry x="220" y="490" width="30" height="60" as="geometry" />
        </mxCell>
        <mxCell id="-QomMEc71tAk3ifFAMWK-23" value="" style="endArrow=classic;html=1;rounded=0;entryX=0;entryY=0.5;entryDx=0;entryDy=0;" edge="1" parent="1" target="-QomMEc71tAk3ifFAMWK-8">
          <mxGeometry width="50" height="50" relative="1" as="geometry">
            <mxPoint x="260" y="510" as="sourcePoint" />
            <mxPoint x="310" y="460" as="targetPoint" />
          </mxGeometry>
        </mxCell>
        <mxCell id="-QomMEc71tAk3ifFAMWK-26" value="" style="shape=image;verticalLabelPosition=bottom;verticalAlign=top;imageAspect=0;image=data:image/png,iVBORw0KGgoAAAANSUhEUgAAAYoAAAE7CAMAAAD0NjbyAAADAFBMVEVHcExAt/9Bt/8q1P9Ct/9Bt/9At/9Bt/9Ctv85uP9MTExCt/4/v/5Ctv9Ct/9Btv9Bt/9Btv5Ctv9Ct/8AAABMTExBtvxMTExMTEwqKipJSUlBtv1MTEwASUlJSUk3oM9JSUlMTExKSkpMTExLS0tCtf1Btv1GRkZBtf1MTExBs/tBtv1MTExLS0tLS0tLS0tMTEwhl7RDQ0NBQUFMTExJSUk9se5NTU1BtvxMTExKSkpLS0tBtfs8putMTExKSko6puRLS0tBtP1AtvxHR0dMTExJSUlBtfxAtfxISEhMTEw+tfhLS0tMTExLS0tBtfxGRkZCtPxLS0tGRkZAtftMTExMTExJSUlLS0s+pdY9PT1Btf1LS0tBtfxMTExAtfs7tfA+sfZLS0tLS0tKSkpKSko/sPZBtvxKSkpAtvZJSUlLS0tLS0tLS0s+r+8+tPZMTEw7OztAtfhKSkpKSko/r/QqKipAtPpMTExBtf1AQEBKSkpBtf1AtfxLS0s+tvgnsLAzMzNAtvtAtfxISEg/s/dLS0tAtfpMTExLS0tLS0tAtfpAsPRBtvxAs/tBtvxBtvtLS0suotFAs/lJSUlLS0tKSkpBtPtLS0tLS0tBsvpJSUlAtfxLS0tAtftMTExBtfw8tfFAtPxAtvxLS0s+svhBtvxKSkpAtvpCtP1LS0s/tftAtvxAtPpAtfxLS0tBtvtLS0tKSkpAtfxAtvlAtvtBtfpAtfxLS0tAtvo6ruhISEhAQEBLS0tAtfxAsvlLS0tMTExBtf1CtvxAtPw+svlCtf1Bs/VBtPxJSUlAtv1JSUkzmcxAs/lBtfxAr/Y9rPRBtf1KSkpMTExAsvs9tvNBtPxAtftAtfxBs/tAtPtAtvw/tvdAtvxKSkpBtftAs/pBtvxBtfs9s/VBtvtAs/tLS0tAqupLS0tBtvxAtvxLS0s+rvNBtfw/tPdBtvw9tudBtvxBtPxJSUlBtv1AsfFBtP1KSko/tPpBtPxLS0tMTEw/tfhCt/9Ct/9NTU0S2DjtAAAA/nRSTlMAa9gGhPsgu+QS4fQM/Vn5Q6uXzQH69e/+Azj+/AIzCTbyTPii/fkX9tyO/IK4k130AxQP0iUc/efeWZ6SGch5E6b3yBL1DvSUKOtOccHPzR7GlhmY9swcxQwK8e3s1ZciNX2/iiwgnUk3UOO0dBA51w1LQ24sBmfD+gg+36RARgYFk7c8Q4dVq2yaYy/Vh+R+YgtaBzouja67aiKLkHrlwSanr7FJ0WBx6o18oHSbTpZSatBdj27TaGwWIAxUs1Cp6OLtv1LlK5VGgDAFWN07Ltdl6ngqsYOpdpC8PtlWsF/ciTGFQIUY2curiCi5PdIV2K07xSTbRW24RxtFnxyvDBwAABfYSURBVHja7Z13QFTHvsfPvre5vGdyC7tsaNIX0AAiXUCaiEYpIgTEglIVBATFQiKgxt57xd57SUyiiRo1aqKmGG+aMb1ictNNcu8rZ+9iZPeUOWV3z5kzy873L9097Jkzn5nfzPxmfr9DEFhYWFhYWFhYWFhYWFhYWFhYWFhYEqn/usaErNBe+trswvaaC64FOl1cnE5X4De4pr0wu1bfKzQr/Or1YBdcUTIi8AgPTSyPDzCIUkB8uT5039pgXG+SauKchXnZgw1WybVo0eTWKFyHtsvde6G+Ic5go9x6pmX5zsK1aT0Gj5SNfgbJlFFeNmcqrlXLFbxygatBcvltODUM160lys9qijPIJLfklDZcw+J0Zl+5bBw6aSzsj+tZUOsW9TZAUEDaWlzXfHLxbzJAU2GCO65xLhDjcwxQ1TMcwwDql2QDdEX/D653liL1bgYltBtPbhk6O8qgkPz24dqnaGqeQUGljcAETD7XJoOiyvlfzOC+jyPaoLDi8fr7ngbkGBRXT7yv0bGa2GBAQNl4hUEQKw1IKAWTODMYDRQZ2ERNNiCiUIdHkYwKinhHJzGiOyooDI7uAalEhoSh1cFR+KKDwt/BUXhgFBgFRoFRYBQYBUaBUWAUGAVGgVFgFBgFRoFRYBQYBUaBUUCW2+BWjEJZjSpcUHFqvEcujtJTDoVbt9qKcG8cRqwsCrf483XTMQSlUeiS51VF4npXHEX0t1UTcZ0rjkIXNvkFXN88WgeJQ234AFzZ/IqEASInC5/CFKGecnMI0HtYUSz3J0YMiBpwZsRUB8orVSHzCi5UZIfov+5qeNZXixZsLGzoNipDZ574Brhu6xndtDvxYMrNY77DuvLZ/1ydjCD+Xic4YTrj/VHKoo3tBSJ/sXtNUdpXK6fn425hkXqH8oJwrww/GBZvZYiyMePXwjldbSYwYrRMJNJ4ziPnJmwpKrD5Dm4N+oXeXclkDZIlZLtbFSeGffpuEt7ILyzFt8vg8PCTnoQebDzcWyvk6ISj0sK7iDPFV+ogsAJghoJZVYny5UzQbTzVJWi8IG288DZvwD288+SO+tOFfbTG/lk80UvCZCvtuey5wU04weGjDsbYP4xGyZbdDaxJf/48VwMsxe2eY/+T2jJpMtVtY/aJ4C0BBqjKtk8YbbMkrrOC6wzCob0N0FU7yA5RXKelKcs9aPO89ib994/VKLJxrptnf4mNvMPo/4/KarepDug/N0Cv2CmGdl+7Q2G4yvjEpVWfYX1rpE1grscreKpHN9nuUMSzj15MDN9t5aiRR/2Z8RkGRZXobmcoDGGgEp85q79ghX+O2ikSdAaFtWGWnaEwpIFbj5d3SpiF7Tqb8uf+ipMwesJc7AyFYQHndGOWb9YCC9yoFPMc42dAQHX2hsKQzJvqJNi/bEGDqDa+ztylilAgYdBV2hsKw+BjQheuqTyRkpgdz0skw2zpwg1oKMzuUBjNqjgXs3uux4mFoYs2NEXX9GZ5EEebr4tGBAWlo9oNCsOoyZbO/bwG5MdUXvddO2d66/S1Ht6VbWaa6OQ2mmc/u0bUBWqCl1Q/ewoZFE12icJoYVZKtPcyDxkUNXaKwujiLpPkiFEvZFC42i0K4/xvw7FZGAUSKDqmtnmN7hgFEiiM+nviiYkYBRIojArYmOLhjlEoicKvoTxtS9lTCb/7Dspfg1EogSJg9O6DT/mvkyRyFKOwEkX3hrSU8TFSbrRgFFagML5+2UP6LXmMAhlhFBgFRsHUoNDRGAVCNHpiFBIrYnjq818nxSY9nzrBxyIvussvib0xCtuUOmXGySOfjdt16enX+4wMJKkKeunim+mzdx6/dnr+GyUzBX9pwKkGjMIavfqPzP2PnntuIClSnn3Sd36x+IMk3q5RlY1RWKSkSYfeW/o4aZ1e2j5mWrUP52+3lmMU4rRq7qF3rpA2K2TvuGlvcxwB+z0HoxCSz4xl6Y+T0qn442dfBt3Ha+VgjIJHY5+d3YOUXssfywQYq0g9RsGhkq1DSNn08K7X2DRODMYo2JowbagnKa9GHv6SOXDkhymAYhvSIErHPUzC0G9HUuk3dq+AjyIZXQ5eLw4loanHKyX0u9+E/nLKLaiCcMncS0JVyLixtAJAj39ZiyiJ6qEkdAVtnkAtQrgbtk/GwfoxT1IJHVhNLUUdTBJxaHaK/7tCKqVd1PE7DSKKCiSH63cDSeW0vNpckonwQog3ohij6vMxqaiCKEaqFdZwUYRi1m2fS6TCClwM3USFoZhcIuIcqbhCLpuK0wZlRnsQyQj6ZSQCGjgFZrcYPB7N5UQgCijIOxGm0UJ2EnpEs6APJdHQJ6ZF/zZ5QeSYX2GFVj6DNxAhQT5nKtIiOUG0h1NGCbSChfuigoI07fDJGGGfk0Abrr9CCsUQZFBM6yySXHHduvPTGad/LiCF4gAyKN7tLNIIWUCMrmMN1t92RwrFQGRQrDeVSfpspz2/vc5+dF9dHFIoHkYGxSOmMkk7hdJlpwBT3OTXGNwwCgEU0uXqdxvd6wRH0Fqk8Tg7RiGE4qnz8RI4Bf3Kvz3GnbEnt+O8LkYhhKKjzV6t00db641y6xY2L2EQ78H21nvJDzEKESjuaVaMf1Ze2Gjxh//japr0ZQm+gu5v99A/KGMUYlF0qv+6qn0pW/S1RQ0XerNOhQSMii/ceD4v9NTZtS+IjCT3LuzsPhiFhShomhqVn9sWM6iyclBM27DIiZY7uyN7mQwfRmETChs1oIyyasEolEMRGUpbPuIlnlIovBMZ73jDKBRBEfkUO6SmO0YBHUVUeC1okYJRQEbRNjmMY7GowyjgoYg8m8fz+hOMQgjFzUYp3kXrvm5lXjS/LwujEPbMxkXr665an0k1ymPlwWwR/hKMQqyTfFRRYspZ72ALzmWcqfSfvCWsRqxfF6OwcL8io32jvqIuvMojJhKU5HZqZNv11gTjS+prCy2NrQzAKKzfOgpw3dYzujC5qCk7uyi5MLo9/oItr+tDCwWKe9vdDJCEFgoET3zAQ1GAFAoEz0HBQ5GBFAoETwfCQ9EbKRQInpl1VBREOmonyR0XRT0a8RVDIhRA4YcWCuIzFEhQoo4cGEXEbOVJBM4nlECBXBKiVdsVJzGNwCjuyeecsiSCVhPKoLiAHArCa5mngiSu1BMKocghENQM5XJ8fPwjoRSKRSiiQCTzDWQU/kghMO/LVCuw2Ht8/QRASWChaEcrpUEphcrlH+CCCDlcAiwJLBRn0TJM62nDt4K5A32gO8k3IDZGFKcyesnhflBANN9i3HjTo5BRjB6AGIqQ48xPUk/fkd3N0TKXGROU2ucVuCi65aI2cwrxnMH+8FeZsy+vYt/yPfI4VBTtyJEgAsmXfgV9DjUnOUHcIskxMFFs7I/eesK4mmiO5fCHQMrUb9RiYzEeg4dCV4ZiZq6Ohd3Ft7ldhXMPnZPgJELIc9zvrzDqSEcp4KHI8UZylX1vjT0yk/eaWFvf6lI/nNcbefTehbBQuE5GMlkdQfxRX559fYQuNL7r6Mhjs98UfYTN+K6jbz6b9mWSYAmm3E+/DQdFRgUlrH4WgihI8qcPRP6BdG8Au6eZK4JIeChc59HS37QiiYL0bIm1woPlM+H5pNjYsbFJX6cOj7Di9pkfmgogP4r2yYxVXSKaKIyeiPXPQ775B9T9Q5lRFOgbmfOGGD9UURhXX0+OhegTnkTfyJUTha42HJBtojYAXRTGWefPc+GkmZzwz58Yt5YNxai0BKC76RRix5fZG0afbpW9a3jNPcyeicmy2tY1hc7hmLu26hALdQHt3Xlu35Qko2GqX78cNPs1o+jVLkmO+FFhZY3cmcfX+hnsAEXHcZi7W5fIYalWZY5ZzrEQGUO5LKrRhnRQHUc5jAmhYnjLfyzDYCco7p3EOHxSUlP1avVbt4O4bzeGef3UdWdTEpu2xVl0CjZ6Q8XNOZGCFrIsDr1YPIETsxd37v9glQS3ib38xW2BAKfjHH86NabRmA0qrTy6JoMrI5drfPLuRaFPjfeOFFea3HIUwyJFHF42vot2/wyrB4+ZU+ZfE/VG3OPCv7UmOKbSt7Xq2ImPEoz66IR/4xzvQblRXpaVyH2yH5IRqiFifUoj7x5967Xqr8UPIDN/nTttmQVuxFcgPfHv0YgGC4dY6Gjt8ealnX0PLc5840ZJKsvN5DI8aUfp3NeefffoO+nLLQ0WgIPil3Jk47ZDbNmGCCq+cvH1D5c+PWTv0g+brxwYaVOoxqPyP6xXVTnCIfQhJCqSHUVkVk+ksxk8jgyKJ2V9zlnHzgcgnljCIVBMrVo0GP0cH0HIoOgr0xMGh593tYtsBl0bReT4LXwpoTAKIRSJof6RNj/YGt+F+gY3e8rx0Q8ZFO/TnOTdakM/qlxj1SO5vFBVl5gsJiMOWih6IIPiGfZ+Rff4sF5Z4pNzjRhUdapiQaH4dPIFGIVYFKbWG5+8Ie+rupXjW70r24KjRkzt8Dp5TR0RFZwf4904PnxhWa8F2Q2Wv5cHLRT2+laX7lLsLqGV+aYYGRRfWISiCyYheg4ZFKfho0Ar3co4ZFBUOzqKSaiQuOjl6CgiPkQExRECPgrEMt+8iAaJZh+MwhgFh4AC5xIYBTEchUnUVkIJFMglIUr6FKGVtmOjIJJ+UJjEFy4YxX099I6SIPp9wigONBQ16KEgvI4ot2+xdAmhFIoiAkVNGaoMiMeXsQMyoaE4iCQKwmtxHwVIfAcKqoeGwpdAVMNXjIQM4s4eYEFgocgm0NWEQzDfoXB3EsfuHCQU3RFLasCw1D6LIb1FIailnrMkkFCEItYR2CmISsfIb6ee3v8j20cMGcVuL8RQtAA+m3n5Gznfu/PpshuAm5Zshoui/AnUhoeB4Kw3Pi+OkyXzbGD6iiXgghx9BCqKBciRIIIucfVTl89vzZa2czSPW82ZL6E+5H2IKOJCvZAjYTyS9hbPt6+W7v95uSQruSHHV/PlEJnwG+V0oOwoahpRnL/2IwMvC3kLM6/tet36KJaBd46erhfIcTTzNgkPRVxeFIEmCjJokphJ75LVK1rS+1iSLTvot+9e2b9nrAhT4PMO7VC/vCiKUF1jd5yZDVksfhmyY+7JW+tbvhvSPBJMJaT4w6HvHP3i9OVS8RGUqdtJaChyxrsQCKMwBur6WP6XEamxOz6v/nLGnkmZL2bu2TP3jdIbJc+vsuJBP28mYaFo8kcWhOkk+XOfK3bkZGsQMxZPJhQFid4Eyuo81B/y2XBF7l86hB0WKQcKt+RTUQRhFyiMKT0+iYB+99jDgSQEFG6FKW0E8qKGuvy0Gi6M2L79gMHC0qIoqF2YS9iD6FFHn26CZ6ZePhrEEbctHQpd8ryrIwg7ETPUZWTfG1B8869d8uQMod+XaEsuKFNOqN18mbnsAEXH3tqzMmfWdKl/9CWBbAZn1p7KK/Kzti+MXlDmP4ywNwEDwEJuy5exzqt+8+tiE0sET18573zyBdEBRr1Hh+VlHRs0i7BLccXieaavqJd+EE+dP66P5Tk+1rTNObswNC8trLDnBVeG6cq4EJ9TviGxoi78amV/wq7FFxY5ctf+JdLhmDBp8xA+p6LYdCvuE/sH5w/LzR2WHxz1hBfRdSQUoTpw++b5JbZ6C3yqnz38ppBv90nCwSUqWLh4+yubvvzRKrfGjsuHWvaKOnqIUYh3ehff+Wbz6UlTUsX0kZmx1a+9NWb2mxYkS8AorDg3s/zOuXGbV+xfPH/P96Wf33h7x9jYkh1vLymt/zLz5KZb7/bdeWlpsRVvAcUounTmG7vSwxgFRoFRYBQYBUZhNyjexygwCoyCN2AYo3BIFA892FkGrdgLSVLdhVE8Qi3W3/5q/uK//pun/BrSxtqh3qlDf/4Lx4VOrBKDL+3kxflDXBqIDIr13PXjLKaZWsWC8QOcdQi6jqNkJmQP/MmysvRBBsU1nhboLK6lai0loQKWhN0NnThLzeZmNYq7yKA4yfPoHE+lEqxDfmnEVS9XlwA3E6tRLEOFhCflFVf/+R/Mb9WizLeFKFTiWjpzNBFgYTWKKZ6IoLhL8KHQijL0lqHgbOx0FEIkmCysRkGcQwRFJi8K4GOpSJtQaETZf37rBEBnPYp/oJEg/l8ELwrQwM2+yiIU1Dq+/4f3OwC1ahk3UQNNI+2+1qMg/okCiQOx4Eq+y1PLJstxxSoUKmCrVjHqUMPV+lVcDcUGFMRR5Un0+J6jvW9+kHuy31lLD1yzCoWGo8epqD9D7Tpa7l5FrXVbUES0KE5iD5fpUTtxWihTVWhVVqEQVWUanpkDhxvEFhSE1/vKkij+nnMUUKs4H0zFvsYSFOZ78FQZpbb5LCTtW5tQEMRiJU8bPF3CXU1qc2WoOVr1A39iotBw1Z6K8lOiUKj4/U1OIAtlIwpiyl6lQAQ+M5OnxarNJkLL0SS1BAOFubE6c7TxjnqlTI3UwkYMvLChdAu1ZCiIV99Sxkf7Qz2v8VCbH5fxZBpztTJQmDsSo1uoSDAKzjqj2Cc1v5GjoLIZhTEcqwX+wrt4UwQhgML8b2fgJcbqZhooJw6r4kS7zkl4PaISoqUB/IQEKAhiycdwYbx0aLjQkKqmPC6twlQUQEwUKvA01dzGnVmLbbVATWvFs5IEhXHIaIH39sjlR4YLz27UFINMa+NOlA+ZKMx1TqsNFb2z0H1LAsOys9C+k/nvJUJhzK2y4iIUP+zt+a+KmWiqCbCFMi8qCDYKSmtWc9ontl9XzTMUqIUGExlQGFd8e3bKvbX36bWxIuf8amrFUp5NQ72AhcLcWLWgalNzuVydhStaGJaEKIwavvpn+eZTzY9UC4UF0FEAlhamC+49LgsFcM3AXixqBPzdKKAwyidzTLP0GEK2b11i0UpYTXs4LWBRAUIBtFBOPPNOsJniGHMERhPJUXRox7T3JEwgGDLk/cwJljol1OD27AT+3oQCcJwGuGx34t3ZNlswxVF0qOTkk+m272gcOLdixkPW+IfUgFko5YM/qk0lZnIPdmaBto9MFyCGokMzl3yyfnazdWuOHk+3bJ0Ua+ENGShYcx8V/fkBKFTcmz1agf0n0OgvAoUaCoo/tOrGfGN03VKR+YBDrqS/t3nTjLFWRfMyUTBWBKav74+mABQs5we3WxGwd61FHIUJyY4P5m9a8czhXbfTlzb3GdkjKCSQDAzqN7D4yut77/5r55hltxZPKo21Kd6biYJhoUxVxOwklPW4huTABagg9va1GqUZlKJiomA4PzSMb0EomO5ZJ14XBtNMMf2KwihkWeKhiMJcsWpKDXU+KwiF+SfuffjQg+Lbt+kqIccseLrbxVGYP9BSal5LcKNgjC8iNvpoZsqZgUfQB+UwKGjODyfml8B6po8vTgJ1yuwYWjE7R2DXbVdHQbFQzEGbq8lTZ8CC9gm8k60R2tEAuW67OgqK6f9/1tOr+Hc02Pt8wlvZjLWjQCiFtBuqiKMALIvNtQOuaKpzXYx9ovU95i45+A81chwzQB4Fe+4PWFrT27x5fHlZlH1ioxDY/6aUSUs4Dgq2586ZEEBhrti7Ig9KsfY5NLyHdjXSH0mzCxQq7rPlHCj4D0H/7a9sLqyzmxQLxe5QKvA5ha6PgmmhtIQQCvahf+a5ZGdObxTgxDiThYpjL7bro2BaKLUwCtb4omXVmDOYBMBPzriY1uWkOtRvLyhUnA2cc6rKd5DAiW+n25njJzrvyndahDOE0tJIQXRR0E2/MyEChYrbPvEEndIuFBF0xHBQcf6wxYHcyKIQEXXCRMEYuLWESBRqvgGHFDgn4iQSmT2j4MxwwL2W1nBXhUZs3WqEUDDu6ggoqG3cmRCFgmbT6cMod2vXEgRBWNIv6D/sCCjAfgZeFDQLJbypzVFhguMF8Ahp10DB9oODF8OCKKgtmjVqqsRPcwQ7hlaEQbPLYdvUDjnCWzgmraBndRIZwSU032QfRvjzXzjOojt1pcmshOIMQeJ0dojxobO2lkT9vYNLI6t5cOoCgwH8CYA85kHDO/fCAtoUrdw3wKOBWAuilr3fdREHoMwzMVlrSYVRoGCf6H0PGygl7RPtRnjYFrGokN90dNwLT2ZFTDVxe0VlUYHbqwPZJyxsn+zLQNmndxoLCwsLCwsLCwsLCwsLC8sy/RuAU2Nfo9FKagAAAABJRU5ErkJggg==" vertex="1" parent="1">
          <mxGeometry x="-310" y="160" width="180" height="142" as="geometry" />
        </mxCell>
        <mxCell id="-QomMEc71tAk3ifFAMWK-27" value="" style="endArrow=classic;html=1;rounded=0;exitX=1;exitY=1;exitDx=0;exitDy=0;entryX=0.07;entryY=0.4;entryDx=0;entryDy=0;entryPerimeter=0;" edge="1" parent="1" source="-QomMEc71tAk3ifFAMWK-26" target="-QomMEc71tAk3ifFAMWK-14">
          <mxGeometry width="50" height="50" relative="1" as="geometry">
            <mxPoint x="280" y="380" as="sourcePoint" />
            <mxPoint x="330" y="330" as="targetPoint" />
          </mxGeometry>
        </mxCell>
        <mxCell id="-QomMEc71tAk3ifFAMWK-28" value="" style="endArrow=classic;html=1;rounded=0;exitX=1;exitY=0;exitDx=0;exitDy=0;entryX=0.16;entryY=0.55;entryDx=0;entryDy=0;entryPerimeter=0;" edge="1" parent="1" source="-QomMEc71tAk3ifFAMWK-26" target="-QomMEc71tAk3ifFAMWK-11">
          <mxGeometry width="50" height="50" relative="1" as="geometry">
            <mxPoint x="280" y="380" as="sourcePoint" />
            <mxPoint x="330" y="330" as="targetPoint" />
          </mxGeometry>
        </mxCell>
      </root>
    </mxGraphModel>
  </diagram>
</mxfile>
